<svg width="57" height="60" viewBox="0 0 57 60" fill="none" xmlns="http://www.w3.org/2000/svg">
<g clip-path="url(#clip0_509_26024)">
<path d="M7.30995 -0.00195312H49.4984C49.5009 0.669948 49.4984 1.34433 49.5133 2.01623C49.848 2.56664 50.0984 3.1592 50.324 3.7592C50.029 3.35259 49.7463 2.94102 49.481 2.51706C45.3033 2.3435 41.1182 2.54929 36.9405 2.45755C27.5959 2.44763 18.2538 2.47739 8.90912 2.44763C8.35871 2.43772 7.8083 2.52201 7.28516 2.69309C7.31243 1.79557 7.31243 0.895568 7.30995 -0.00195312Z" fill="#66909D"/>
<path d="M0 18.0946L0.0768595 17.9434C5.16942 18.0946 10.2645 17.9781 15.3595 18.0103C29.1372 18.0326 42.9174 17.9706 56.695 18.0401C56.6901 19.1012 56.6603 20.1624 56.6752 21.2235C56.1793 21.2235 55.6835 21.2235 55.1876 21.2235C37.0884 21.231 18.9917 21.226 0.892562 21.226C0.595041 21.226 0.297521 21.2285 0 21.231V18.0946Z" fill="#66909D"/>
<path d="M33.6953 36.075C37.6548 35.9783 41.6168 36.0651 45.5763 36.0279C45.5366 44.0163 45.5342 52.0072 45.5763 59.9981H34.5061C34.4193 59.4254 34.3647 58.8502 34.3623 58.2725C34.4292 51.1047 34.33 43.932 34.4763 36.7667C38.0912 36.6899 41.716 36.8262 45.3284 36.6973C45.368 36.5634 45.4474 36.2932 45.487 36.1593C41.5573 36.0651 37.6251 36.194 33.6953 36.075Z" fill="#66909D"/>
<path d="M7.28804 2.69556C7.81118 2.52448 8.3616 2.44018 8.91201 2.4501C18.2566 2.47985 27.5988 2.4501 36.9434 2.46002C41.1211 2.55176 45.3062 2.34597 49.4839 2.51952C49.7492 2.94349 50.0318 3.35506 50.3269 3.76167C52.1988 7.82035 53.9442 11.9385 55.8459 15.9873C56.1558 16.6592 56.4682 17.3361 56.6963 18.0427C42.9186 17.9732 29.1385 18.0352 15.3608 18.0129C10.2657 17.9807 5.17069 18.0972 0.078125 17.946C2.53763 12.8881 4.81862 7.74597 7.28804 2.69556Z" fill="#7EB1C0"/>
<path d="M0.895584 21.2271C18.9948 21.2271 37.0914 21.232 55.1906 21.2246C55.1981 34.1494 55.1956 47.0742 55.1931 59.999H45.5807C45.5386 52.0081 45.541 44.0172 45.5807 36.0287C41.6212 36.0659 37.6592 35.9792 33.6997 36.0758C33.727 44.0494 33.6948 52.0254 33.7146 59.999H0.893104C0.890625 47.0742 0.888146 34.1519 0.895584 21.2271ZM8.29641 32.5849C8.28153 39.48 8.30633 46.3775 8.28153 53.2725C8.53691 53.2973 8.79228 53.3172 9.05013 53.3321C11.5815 53.342 14.1179 53.3841 16.6493 53.3073C16.7212 46.7172 16.6741 40.1246 16.6741 33.5345C16.6617 33.2122 16.6394 32.8899 16.6072 32.5676C13.8377 32.6147 11.0658 32.58 8.29641 32.5849ZM18.1766 32.575C18.184 39.4825 18.1691 46.3899 18.1716 53.2973C18.36 53.3073 18.7369 53.3271 18.9253 53.337C21.4642 53.3395 24.003 53.3916 26.5419 53.3048C26.5989 46.7147 26.5791 40.1197 26.5543 33.5271C26.4749 33.2246 26.8096 32.5428 26.2741 32.5849C23.5766 32.5701 20.8766 32.5924 18.1766 32.575ZM33.7741 32.5651C33.7047 33.2147 33.6824 33.8692 33.7245 34.5238C33.8832 34.5263 34.203 34.5337 34.3617 34.5362C37.9518 34.5858 41.5419 34.5511 45.132 34.5585C45.8286 34.618 45.4691 33.7106 45.5534 33.3015C45.5485 33.118 45.541 32.756 45.5361 32.575C41.6162 32.5949 37.6939 32.6172 33.7741 32.5651Z" fill="#C1EAF6"/>
<path d="M8.29222 32.5857C11.0616 32.5808 13.8335 32.6155 16.603 32.5684C16.6352 32.8907 16.6575 33.213 16.6699 33.5353C14.1881 33.5427 11.7063 33.5427 9.22693 33.5477C9.16743 34.0956 9.11288 34.646 9.10544 35.1989C9.09553 41.2436 9.0509 47.2882 9.04594 53.3328C8.78809 53.3179 8.53272 53.2981 8.27734 53.2733C8.30214 46.3783 8.27734 39.4808 8.29222 32.5857Z" fill="#A5BAC1"/>
<path d="M18.1771 32.5742C20.8771 32.5916 23.5771 32.5693 26.2746 32.5841C26.8102 32.542 26.4755 33.2238 26.5548 33.5263C24.0259 33.5412 21.497 33.5089 18.968 33.5511C18.968 40.1461 18.9383 46.7412 18.9259 53.3362C18.7374 53.3263 18.3606 53.3065 18.1722 53.2965C18.1697 46.3891 18.1846 39.4817 18.1771 32.5742Z" fill="#A7BDC3"/>
<path d="M33.774 32.5664C37.6939 32.6185 41.6162 32.5962 45.536 32.5763C45.541 32.7573 45.5484 33.1193 45.5534 33.3028C42.1864 33.3028 38.8195 33.3028 35.455 33.2755C35.1228 33.3325 34.6889 33.1788 34.4261 33.4342C34.3889 33.8011 34.3691 34.1681 34.3616 34.5375C34.203 34.535 33.8831 34.5276 33.7244 34.5251C33.6823 33.8705 33.7046 33.216 33.774 32.5664Z" fill="#A5BBC2"/>
<path d="M34.4238 33.4321C34.6866 33.1767 35.1205 33.3305 35.4528 33.2734C38.8172 33.3007 42.1842 33.3007 45.5511 33.3007C45.4668 33.7098 45.8263 34.6172 45.1296 34.5577C41.5395 34.5503 37.9495 34.585 34.3594 34.5354C34.3668 34.166 34.3866 33.7991 34.4238 33.4321Z" fill="white"/>
<path d="M9.22787 33.5456C11.7072 33.5406 14.189 33.5406 16.6708 33.5332C16.6708 40.1233 16.7179 46.7158 16.646 53.3059C14.1146 53.3828 11.5783 53.3406 9.04688 53.3307C9.05183 47.2861 9.09646 41.2415 9.10638 35.1968C9.11382 34.6439 9.16836 34.0935 9.22787 33.5456Z" fill="white"/>
<path d="M18.964 33.5502C21.4929 33.508 24.0219 33.5403 26.5508 33.5254C26.5756 40.118 26.5954 46.713 26.5384 53.3031C23.9996 53.3899 21.4607 53.3378 18.9219 53.3353C18.9343 46.7403 18.964 40.1452 18.964 33.5502Z" fill="white"/>
<path d="M33.6953 36.0762C37.6251 36.1952 41.5573 36.0663 45.487 36.1605C45.4474 36.2944 45.368 36.5646 45.3284 36.6985C41.716 36.8274 38.0912 36.6911 34.4763 36.7679C34.33 43.9332 34.4292 51.1059 34.3623 58.2737C34.3647 58.8514 34.4193 59.4266 34.5061 59.9993H33.7102C33.6904 52.0258 33.7226 44.0497 33.6953 36.0762Z" fill="#537884"/>
</g>
<defs>
<clipPath id="clip0_509_26024">
<rect width="56.7769" height="60" fill="white"/>
</clipPath>
</defs>
</svg>
