<svg width="474" height="528" viewBox="0 0 474 528" fill="none" xmlns="http://www.w3.org/2000/svg">
<g clip-path="url(#clip0_489_24781)">
<path d="M147.653 2.34622C149.266 1.91956 150.893 1.54622 152.533 1.21289C165.493 2.06622 178.173 5.43956 190.173 10.2796C207.306 16.8929 223.186 28.1062 232.92 43.9062C239.373 56.0929 243.4 69.5462 245.426 83.1729C247.16 75.4796 252.426 69.3062 257.853 63.8662C269.026 53.0262 283.586 44.7996 299.306 43.5062C298.44 48.6396 295.226 52.8262 292.653 57.1996C287.013 66.2796 280.426 75.1862 271.413 81.1729C285.32 76.6396 299.733 74.0796 314.04 71.1596C328.053 68.4129 342.48 67.4929 356.693 69.1596C370.2 71.3996 382.946 77.3596 394.026 85.3196C420.733 104.826 438.453 133.88 451.493 163.746C461.8 187.68 470.093 212.76 473.12 238.746C475.106 262.106 464.8 283.92 456.346 305.053C452.053 315.253 448.56 325.786 444.146 335.946C440.28 334.066 435.8 329.573 431.36 332.533C428.373 322.84 429.44 312.6 429.386 302.626C429.653 288.826 428.533 275.066 427.72 261.306C401.693 268.946 374.52 273.893 347.306 271.746C334.466 271.773 322.36 267.173 310.186 263.666C287.2 255.6 269.733 236.613 258.893 215.293C242.626 234.373 231.333 257.813 226.88 282.533C222.626 302.986 225.533 324.173 231.08 344.066C227.52 338.053 223.626 332.226 218.56 327.373C201.653 307.64 197.133 281 194.92 255.92C174.666 264.226 153.36 270.893 131.333 271.773C118.426 272.906 105.413 272.333 92.5863 270.773C79.3196 268.306 66.1463 263.306 55.7063 254.573C55.5463 264.44 54.1996 274.226 53.7729 284.066C53.2663 297.8 53.5329 311.733 50.3596 325.186C49.1329 324.866 47.9196 324.52 46.7063 324.16C39.3463 318.333 34.1063 310.346 28.4929 302.933C18.0663 287.373 9.89293 270.253 4.30626 252.373C2.35959 243.333 1.81293 234.08 2.23959 224.866C3.82626 210.786 8.13293 197.146 13.9729 184.293C24.7463 160.813 35.6929 136.973 52.3729 117C64.7463 102 80.2529 89.6796 97.2929 80.3596C109.373 73.7196 122.973 70.4129 136.586 68.8929C147.493 67.8529 158.693 67.8129 169.28 70.9729C178.466 73.2929 186.64 78.2396 195 82.5196C185.386 73.9729 177.346 63.7462 169.866 53.3196C160.773 40.6129 155.853 25.6262 152 10.6396C151.373 7.50622 149.693 4.75956 147.653 2.34622ZM38.0263 192.026C41.6529 195.84 46.7996 197.653 51.4929 199.813C70.5596 208.453 91.7996 212.306 112.68 210.6C123.933 209.28 135.04 206.92 146.106 204.493C142.693 202.906 138.88 202.973 135.226 202.546C125.44 201.586 115.8 199.466 106 198.64C91.8929 197.44 77.6929 195.773 64.2263 191.173C56.8129 189.013 49.7063 185.533 42.0129 184.52C37.9596 183.906 35.3329 189.026 38.0263 192.026ZM410 190.466C390.333 192.226 371 196.613 351.36 198.653C348.586 198.96 345.693 199.066 343.226 200.506C357.013 201.493 370.826 202.146 384.653 202.56C397.746 203.333 411.053 202.493 423.8 199.266C428.133 197.92 433.52 196.653 435.52 192.053C435.92 189.666 433.893 187.373 431.426 187.893C424.266 188.533 417.173 189.813 410 190.466ZM304.693 201.106C308.293 203.013 314.12 202.466 315.253 197.893C311.653 197.4 305.146 195.706 304.693 201.106ZM170.16 203.346C174.56 207.186 180.826 210.04 186.533 207.28C189.093 206.573 191.76 203 189.093 200.853C183.2 196.72 175.373 199.24 170.16 203.346ZM206.706 214.36C208.666 209.773 210.346 203.68 205.866 199.96C198.773 201.786 200.8 212.893 206.706 214.36ZM228.973 203.266C226.173 204.066 226.306 208.4 228.773 209.746C231.866 209.16 232.96 202.813 228.973 203.266Z" fill="#9DB8C0"/>
<path d="M38.0264 192.026C35.333 189.026 37.9597 183.906 42.013 184.519C49.7064 185.533 56.813 189.013 64.2264 191.173C77.693 195.773 91.893 197.439 106 198.639C115.8 199.466 125.44 201.586 135.226 202.546C138.88 202.973 142.693 202.906 146.106 204.493C135.04 206.919 123.933 209.279 112.68 210.599C91.7997 212.306 70.5597 208.453 51.493 199.813C46.7997 197.653 41.653 195.839 38.0264 192.026Z" fill="#BBD4DB"/>
<path d="M410 190.466C417.173 189.813 424.267 188.533 431.427 187.893C433.893 187.373 435.92 189.666 435.52 192.053C433.52 196.653 428.133 197.919 423.8 199.266C411.053 202.493 397.747 203.333 384.653 202.559C370.827 202.146 357.013 201.493 343.227 200.506C345.693 199.066 348.587 198.959 351.36 198.653C371 196.613 390.333 192.226 410 190.466Z" fill="#BBD4DB"/>
<path d="M170.16 203.345C175.373 199.239 183.2 196.719 189.093 200.852C191.76 202.999 189.093 206.572 186.533 207.279C180.827 210.039 174.56 207.185 170.16 203.345Z" fill="#BBD4DB"/>
<path d="M304.693 201.106C305.147 195.706 311.653 197.399 315.253 197.893C314.12 202.466 308.293 203.013 304.693 201.106Z" fill="#BAD3DA"/>
<path d="M206.707 214.361C200.8 212.894 198.774 201.788 205.867 199.961C210.347 203.681 208.667 209.774 206.707 214.361Z" fill="#BAD4DB"/>
<path d="M228.974 203.267C232.96 202.814 231.867 209.161 228.774 209.747C226.307 208.401 226.174 204.067 228.974 203.267Z" fill="#B4CED5"/>
<path d="M226.88 282.533C231.333 257.813 242.626 234.373 258.893 215.293C269.733 236.613 287.2 255.6 310.186 263.666C322.36 267.173 334.466 271.773 347.306 271.746C374.52 273.893 401.693 268.946 427.72 261.306C428.533 275.066 429.653 288.826 429.386 302.626C429.44 312.6 428.373 322.84 431.36 332.533C434.36 353.6 431.333 374.813 431.293 395.933C430.146 412.426 429.266 428.92 428.4 445.413C426.2 459.786 424.773 474.76 417.72 487.76C409.693 502.973 394.693 513.066 379.16 519.493C367.426 524.413 354.52 525.093 341.96 524.92C315.373 527.186 288.653 525.746 262 525.973C242.026 525.773 222.04 526.173 202.093 525.066C180.266 524.44 158.4 523.733 136.693 521.186C126.346 520.053 116.293 517.28 106.266 514.6C94.1729 511.48 82.4662 506.44 72.3729 499.013C63.9596 492.88 59.1996 483.04 56.4129 473.253C53.5196 462.32 51.9062 451.093 50.8662 439.853C50.2396 431.48 49.8262 423.08 49.9596 414.68C50.0796 384.853 49.3462 355 50.3596 325.186C53.5329 311.733 53.2662 297.8 53.7729 284.066C54.1996 274.226 55.5462 264.44 55.7062 254.573C66.1462 263.306 79.3196 268.306 92.5862 270.773C105.413 272.333 118.426 272.906 131.333 271.773C153.36 270.893 174.666 264.226 194.92 255.92C197.133 281 201.653 307.64 218.56 327.373C223.626 332.226 227.52 338.053 231.08 344.066C225.533 324.173 222.626 302.986 226.88 282.533ZM133 287.106C126.04 289.16 119.76 293.093 114 297.44C110.693 299.88 107.706 303.72 108.226 308.053C109.2 311.706 113.12 313.44 116.586 313.586C125.693 313.2 133.653 308.333 142.106 305.546C148.213 303.48 154.36 306.32 159.88 308.733C164.853 311.066 171.746 311.44 175.586 306.866C178.533 303.96 180.733 297.706 175.893 295.453C162.573 289.546 147.72 284.68 133 287.106ZM338.32 287.253C328.426 288.44 318.906 291.866 309.906 295.946C305.333 301.24 310.733 308.906 316.773 309.826C325.173 310.813 332.466 304.96 340.72 304.733C348.413 306.066 355.373 309.746 362.533 312.653C367.373 313.72 373.72 313.88 377.066 309.533C378.813 306.506 377.293 302.72 374.893 300.506C370.6 296.266 365.4 293.04 360.16 290.093C353.52 286.466 345.653 286.36 338.32 287.253ZM117.933 341.266C114.573 343.426 109.546 346.546 110.693 351.24C112.44 354.6 116.933 353.626 119.96 353C120.466 358.253 122.2 363.333 124.426 368.093C127.706 374.693 134.88 378.466 142.013 379.2C154.786 381.84 169.466 375.76 175.266 363.773C177.506 359.466 177.813 354.533 178.88 349.866C183.213 348.786 185.466 342 181.146 339.506C174.146 335.64 166.08 334.04 158.24 332.853C144.32 330.773 130.186 334.8 117.933 341.266ZM314.426 339.013C309.333 340.906 310.2 349.706 315.88 349.973C316.893 359.373 320.266 369.6 329.04 374.466C338.6 381.16 351.813 381.28 362.12 376.28C369.4 372.746 372.253 364.6 374.04 357.28C374.413 356.013 374.773 354.76 375.146 353.506C377.626 353.36 380.533 354.373 382.746 352.813C383.88 350.746 384 348.08 382.36 346.253C377.68 340.52 370.293 338.266 363.64 335.706C347.76 329.413 329.626 332.106 314.426 339.013ZM215.453 404.106C203.853 409.026 196.48 419.88 186.92 427.613C179.12 433.773 171 440.653 160.786 442.013C155.893 443.12 150.52 442.4 146.04 444.986C146.666 450.106 151.12 453.346 154.76 456.466C161.346 461.346 168.28 466.093 176.146 468.666C191.84 473.306 209.066 471.12 223.8 464.346C233.853 459.333 242.96 450.986 246.44 440.053C248.8 444.066 251.56 447.866 254.973 451.08C262.426 458.506 270.68 465.826 281.013 468.84C299.826 474.04 320.506 470.613 337.186 460.666C344.093 456.613 349.226 450.346 354.866 444.786C352.933 443.72 350.96 442.6 348.706 442.506C341.306 441.84 334.226 439.493 327.066 437.72C318.053 435.48 311.76 428.133 305.08 422.226C297.426 414.066 288.333 406.706 277.386 403.666C267.413 401.36 257.586 405.026 248.613 409.08C238.693 403.533 226.533 399.56 215.453 404.106Z" fill="#C0936F"/>
<path opacity="0.15" d="M0.666016 226.481C1.06602 226.081 1.85268 225.267 2.23935 224.867C1.81268 234.081 2.35935 243.334 4.30602 252.374C2.59935 247.641 1.61268 242.694 0.666016 237.761V226.481Z" fill="#161A1B"/>
<path d="M132.999 287.107C147.719 284.68 162.572 289.547 175.892 295.453C180.732 297.707 178.532 303.96 175.585 306.867C171.745 311.44 164.852 311.067 159.879 308.733C154.359 306.32 148.212 303.48 142.105 305.547C133.652 308.333 125.692 313.2 116.585 313.587C113.119 313.44 109.199 311.707 108.225 308.053C107.705 303.72 110.692 299.88 113.999 297.44C119.759 293.093 126.039 289.16 132.999 287.107Z" fill="#6A8790"/>
<path d="M338.319 287.253C345.653 286.36 353.519 286.466 360.159 290.093C365.399 293.04 370.599 296.266 374.893 300.506C377.293 302.72 378.813 306.506 377.066 309.533C373.719 313.88 367.373 313.72 362.533 312.653C355.373 309.746 348.413 306.066 340.719 304.733C332.466 304.96 325.173 310.813 316.773 309.826C310.733 308.906 305.333 301.24 309.906 295.946C318.906 291.866 328.426 288.44 338.319 287.253Z" fill="#6A8790"/>
<path d="M117.932 341.267C130.185 334.8 144.319 330.774 158.239 332.854C166.079 334.04 174.145 335.64 181.145 339.507C185.465 342 183.212 348.787 178.879 349.867C167.892 351.614 157.025 347.827 146.012 348.427C137.052 347.894 128.399 350.347 119.959 353C116.932 353.627 112.439 354.6 110.692 351.24C109.545 346.547 114.572 343.427 117.932 341.267Z" fill="#6A8790"/>
<path d="M314.424 339.013C329.624 332.106 347.758 329.413 363.638 335.706C370.291 338.266 377.678 340.519 382.358 346.253C383.998 348.079 383.878 350.746 382.744 352.813C380.531 354.373 377.624 353.359 375.144 353.506C374.771 354.759 374.411 356.013 374.038 357.279C374.211 356.213 374.571 354.093 374.744 353.039C362.584 348.493 349.478 347.386 336.651 348.973C329.771 349.853 322.811 350.973 315.878 349.973C310.198 349.706 309.331 340.906 314.424 339.013Z" fill="#6A8790"/>
<path d="M142.678 351.468C151.611 347.214 163.558 355.348 161.664 365.414C161.304 375.934 147.198 381.374 139.424 374.654C131.304 368.854 133.278 354.801 142.678 351.468ZM150.624 360.041C151.611 362.948 154.811 366.134 157.958 364.014C162.504 362.174 160.198 354.321 155.331 355.361C152.624 355.201 151.651 358.148 150.624 360.041Z" fill="#6A8790"/>
<path d="M341.159 351.321C349.399 347.814 361.159 354.481 360.066 364.014C360.146 370.481 355.106 376.388 348.706 377.374C341.079 379.121 333.319 373.028 332.359 365.441C331.732 359.508 335.626 353.468 341.159 351.321ZM351.479 356.001C348.879 357.374 348.426 361.494 350.732 363.334C353.466 366.388 359.146 363.708 358.919 359.734C359.132 356.134 354.292 353.934 351.479 356.001Z" fill="#6A8790"/>
<path d="M215.452 404.107C226.532 399.56 238.692 403.533 248.612 409.08C257.586 405.027 267.412 401.36 277.386 403.667C288.332 406.707 297.426 414.067 305.079 422.227C311.759 428.133 318.052 435.48 327.066 437.72C334.226 439.493 341.306 441.84 348.706 442.507C350.959 442.6 352.932 443.72 354.866 444.787C349.226 450.347 344.092 456.613 337.186 460.667C320.506 470.613 299.826 474.04 281.012 468.84C270.679 465.827 262.426 458.507 254.972 451.08C251.559 447.867 248.799 444.067 246.439 440.053C242.959 450.987 233.852 459.333 223.799 464.347C209.066 471.12 191.839 473.307 176.146 468.667C168.279 466.093 161.346 461.347 154.759 456.467C151.119 453.347 146.666 450.107 146.039 444.987C150.519 442.4 155.892 443.12 160.786 442.013C170.999 440.653 179.119 433.773 186.919 427.613C196.479 419.88 203.852 409.027 215.452 404.107Z" fill="#6A8790"/>
<path d="M46.7056 324.16C47.9189 324.52 49.1323 324.867 50.3589 325.187C49.3456 355 50.0789 384.854 49.9589 414.68C49.8256 423.08 50.2389 431.48 50.8656 439.854C34.3323 434.8 19.5856 423.573 10.6389 408.733C0.838919 392.533 0.505585 371.093 9.93225 354.653C18.2789 340.707 31.7323 330.227 46.7056 324.16Z" fill="#B38C6D"/>
<path d="M431.358 332.533C435.798 329.573 440.278 334.067 444.145 335.947C458.625 344.613 469.252 359.773 471.252 376.667C472.278 387.067 472.932 398.453 467.225 407.72C461.438 417.2 454.025 425.627 446.065 433.333C441.012 438.467 434.412 441.587 428.398 445.413C429.265 428.92 430.145 412.427 431.292 395.933C431.332 374.813 434.358 353.6 431.358 332.533Z" fill="#B38C6D"/>
<path d="M119.959 353C128.399 350.347 137.052 347.894 146.012 348.427C157.026 347.827 167.892 351.614 178.879 349.867C177.812 354.534 177.506 359.467 175.266 363.774C169.466 375.76 154.786 381.84 142.012 379.2C134.879 378.467 127.706 374.694 124.426 368.094C122.199 363.334 120.466 358.254 119.959 353ZM142.679 351.467C133.279 354.8 131.306 368.854 139.426 374.654C147.199 381.374 161.306 375.934 161.666 365.414C163.559 355.347 151.612 347.214 142.679 351.467Z" fill="white"/>
<path d="M315.879 349.974C322.812 350.974 329.772 349.854 336.652 348.974C349.479 347.387 362.586 348.494 374.746 353.041C374.572 354.094 374.212 356.214 374.039 357.281C372.252 364.601 369.399 372.747 362.119 376.281C351.812 381.281 338.599 381.161 329.039 374.467C320.266 369.601 316.892 359.374 315.879 349.974ZM341.159 351.321C335.626 353.467 331.732 359.507 332.359 365.441C333.319 373.027 341.079 379.121 348.706 377.374C355.106 376.387 360.146 370.481 360.066 364.014C361.159 354.481 349.399 347.814 341.159 351.321Z" fill="white"/>
<path d="M150.627 360.04C151.654 358.147 152.627 355.2 155.334 355.36C160.2 354.32 162.507 362.173 157.96 364.013C154.814 366.133 151.614 362.947 150.627 360.04Z" fill="#FCFDFD"/>
<path d="M351.481 356.001C354.294 353.934 359.134 356.134 358.921 359.734C359.148 363.707 353.468 366.387 350.734 363.334C348.428 361.494 348.881 357.374 351.481 356.001Z" fill="#FCFDFD"/>
</g>
<defs>
<clipPath id="clip0_489_24781">
<rect width="473.333" height="528" fill="white" transform="translate(0.666016)"/>
</clipPath>
</defs>
</svg>
