<svg width="60" height="59" viewBox="0 0 60 59" fill="none" xmlns="http://www.w3.org/2000/svg">
<g clip-path="url(#clip0_509_26048)">
<path d="M18.7383 2.97641C27.8163 2.05299 36.8944 1.15634 45.9769 0.275298C46.084 0.244071 46.3004 0.181617 46.4074 0.150391C46.6662 0.28645 46.8691 0.478272 47.0186 0.728086C50.9242 6.91545 54.8431 13.0961 58.7509 19.2835C59.1479 19.9192 59.5762 20.537 59.9152 21.2062C59.536 21.6612 58.8981 21.6969 58.3963 21.9556C50.1033 24.7816 41.8572 27.7549 33.5799 30.6255C32.9888 30.824 32.4089 31.0493 31.8334 31.2857C31.6193 30.4493 31.2558 29.6664 30.8699 28.8991C26.8305 20.256 22.7509 11.6329 18.7383 2.97641Z" fill="#E7C767"/>
<path d="M14.3399 37.252C16.8826 38.1687 19.3205 39.3598 21.8611 40.2899C20.2997 44.6036 18.6826 48.8951 17.1637 53.2244C14.9399 52.165 12.8098 50.9025 10.6172 49.7761C11.8306 45.5917 13.0752 41.4185 14.3399 37.252Z" fill="#E7C767"/>
<path d="M17.1748 3.76839C17.6477 3.42266 18.0915 2.8985 18.7406 2.97657C22.7532 11.6331 26.8328 20.2561 30.8722 28.8992C31.2581 29.6665 31.6216 30.4494 31.8358 31.2859C31.4633 31.4777 30.8499 31.6673 30.6759 31.1253C29.603 28.8613 28.5748 26.5706 27.5086 24.3022C26.2127 21.5431 24.9213 18.7818 23.6276 16.0204C23.4937 15.7394 23.3622 15.4584 23.2306 15.1773C22.3986 13.3952 21.5889 11.6018 20.6878 9.85315C19.925 8.01523 19.0239 6.23976 18.1919 4.43307C17.5718 4.81672 17.0053 5.27173 16.4365 5.72452C11.8551 9.25315 7.27368 12.7795 2.69449 16.3126C2.05881 16.7877 1.47219 17.3989 0.664754 17.5617C0.452858 17.4591 0.263267 17.3253 0.09375 17.1602C0.283341 16.8747 0.490776 16.5937 0.771817 16.3907C6.24542 12.1907 11.7123 7.98177 17.1748 3.76839Z" fill="#F9EB8B"/>
<path d="M16.4358 5.72309C17.0046 5.2703 17.5711 4.81528 18.1912 4.43164C19.0232 6.23833 19.9243 8.0138 20.6871 9.85171C16.0499 13.0658 11.5176 16.4316 6.87819 19.6413C4.78153 19.0279 2.78302 18.0956 0.664062 17.5603C1.4715 17.3974 2.05811 16.7863 2.6938 16.3112C7.27298 12.7781 11.8544 9.25172 16.4358 5.72309Z" fill="#C6AB5B"/>
<path d="M6.87718 19.6412C11.5166 16.4315 16.0489 13.0657 20.6861 9.85156C21.5872 11.6003 22.3969 13.3936 23.2289 15.1757C21.0162 16.9267 18.6742 18.5148 16.4928 20.3058C16.7114 20.5289 16.9679 20.7073 17.2623 20.8166C20.6794 21.9675 24.0787 23.1787 27.5069 24.3006C28.5731 26.569 29.6013 28.8597 30.6742 31.1237C30.8482 31.6657 31.4616 31.4761 31.8341 31.2843C32.4095 31.0478 32.9894 30.8226 33.5805 30.6241C33.5694 30.9742 33.556 31.3267 33.4645 31.6657C31.2586 39.6664 29.1062 47.6828 26.9114 55.688C26.6772 56.5021 26.4608 57.3252 26.3315 58.1638C23.3337 56.4174 20.2155 54.8761 17.1642 53.2233C18.6831 48.8939 20.3002 44.6025 21.8616 40.2887C21.9731 39.9965 22.0891 39.7021 22.2051 39.4122C21.469 38.8523 20.5545 38.6315 19.727 38.2501C17.7129 37.4315 15.7233 36.5594 13.7002 35.7698C13.2965 35.5177 13.1805 36.0307 13.1047 36.3185C11.9359 40.6099 10.7114 44.8902 9.55599 49.1861C6.91509 47.6917 4.16937 46.3802 1.55078 44.8478C3.29948 36.4389 5.13071 28.0478 6.87718 19.6412ZM14.559 30.8315C14.2891 31.5252 14.1196 32.2545 14.0482 32.9928C14.1709 33.2828 14.5523 33.285 14.7909 33.4322C17.2266 34.4761 19.6668 35.5088 22.0935 36.5705C22.3567 36.691 22.6445 36.7423 22.93 36.798C23.2021 36.2003 23.4095 35.5757 23.6393 34.9601C23.6683 34.8553 23.7307 34.6456 23.7619 34.5408L23.6415 34.3802C21.4333 33.4367 19.1761 32.598 16.9478 31.6947C16.1515 31.407 15.3976 30.9899 14.559 30.8315Z" fill="#FEF5B7"/>
<path d="M16.4961 20.3059C18.6775 18.5148 21.0195 16.9267 23.2322 15.1758C23.3638 15.4568 23.4953 15.7379 23.6292 16.0189C21.5883 17.7252 19.4336 19.2821 17.2656 20.8167C16.9712 20.7074 16.7147 20.5289 16.4961 20.3059Z" fill="#B4BAD8"/>
<path d="M17.2617 20.8153C19.4297 19.2808 21.5844 17.7239 23.6253 16.0176C24.919 18.7789 26.2104 21.5403 27.5063 24.2994C24.0781 23.1774 20.6788 21.9663 17.2617 20.8153Z" fill="white"/>
<path d="M15.2619 31.6855C18.0857 32.6848 20.8404 33.8803 23.6374 34.9599C23.4077 35.5755 23.2002 36.2 22.9281 36.7978C22.6426 36.7421 22.3549 36.6908 22.0917 36.5703C19.6649 35.5086 17.2248 34.4759 14.7891 33.432C14.9474 32.8499 15.1058 32.2677 15.2619 31.6855Z" fill="white"/>
<path d="M47.6485 34.2719C49.5244 33.9328 51.3779 33.4867 53.2002 32.918C53.0642 33.6696 52.879 34.4124 52.6939 35.1529C52.6359 35.5031 52.2121 35.5343 51.9511 35.6659C50.305 36.2258 48.6924 36.8838 47.0352 37.4146C47.2805 36.3752 47.4099 35.3135 47.6485 34.2719Z" fill="white"/>
<path d="M38.346 37.2374C40.4917 36.4679 42.6954 35.8768 44.9036 35.3125C44.6806 36.3608 44.5378 37.4292 44.2679 38.4664C43.6233 38.8434 42.8783 38.995 42.1891 39.2694C40.6635 39.7824 39.1713 40.398 37.6211 40.8329C37.9111 39.6463 38.1453 38.4441 38.346 37.2374Z" fill="white"/>
<path d="M33.5811 30.623C41.8584 27.7524 50.1045 24.7791 58.3975 21.9531C56.6755 29.3249 54.8711 36.6765 53.1291 44.0438C52.993 44.5167 52.4733 44.6773 52.0897 44.8959C43.8547 49.165 35.6242 53.4453 27.3893 57.7167C27.048 57.8907 26.7268 58.1383 26.332 58.1628C26.4614 57.3241 26.6778 56.5011 26.912 55.687C29.1068 47.6817 31.2592 39.6654 33.4651 31.6646C33.5566 31.3256 33.5699 30.9732 33.5811 30.623ZM49.2792 33.4111C48.5945 33.623 47.845 33.6899 47.2227 34.0691C46.8949 34.6557 46.9015 35.3606 46.7387 36.0007C46.6718 36.5293 46.3908 37.0691 46.5714 37.6044C46.6874 37.5576 46.9216 37.4617 47.0376 37.4148C48.6949 36.884 50.3075 36.226 51.9536 35.6661C52.2146 35.5345 52.6384 35.5033 52.6963 35.1531C52.8815 34.4126 53.0666 33.6699 53.2027 32.9182L53.2673 32.9003C53.2495 32.7754 53.2138 32.5301 53.196 32.4074C51.8711 32.6617 50.5908 33.0989 49.2792 33.4111ZM42.5164 35.365C40.9595 35.829 39.3536 36.1435 37.8324 36.71C37.5313 38.1397 37.0205 39.5695 37.0004 41.0327C37.2369 41.0238 37.4465 40.9591 37.6227 40.8342C39.1729 40.3992 40.6651 39.7836 42.1908 39.2706C42.88 38.9963 43.625 38.8446 44.2696 38.4676C44.5395 37.4304 44.6822 36.362 44.9053 35.3137C44.9365 35.1464 44.9677 34.9791 45.0012 34.8119C44.1424 34.8252 43.3395 35.162 42.5164 35.365Z" fill="#DED7A3"/>
<path d="M14.5616 30.832C15.4002 30.9904 16.1541 31.4075 16.9504 31.6952C19.1787 32.5986 21.4359 33.4372 23.6441 34.3807L23.7645 34.5413C23.7333 34.6462 23.6709 34.8558 23.6419 34.9607C20.8448 33.8811 18.0902 32.6856 15.2664 31.6863C15.1103 32.2685 14.9519 32.8506 14.7935 33.4328C14.5549 33.2856 14.1735 33.2833 14.0508 32.9934C14.1222 32.2551 14.2917 31.5257 14.5616 30.832Z" fill="#B3B9D8"/>
<path d="M49.2792 33.4119C50.5907 33.0997 51.871 32.6625 53.1959 32.4082C53.2138 32.5309 53.2494 32.7762 53.2673 32.9011L53.2026 32.919C51.3803 33.4878 49.5268 33.9339 47.6509 34.2729C47.4123 35.3145 47.2829 36.3762 47.0375 37.4156C46.9216 37.4625 46.6874 37.5584 46.5714 37.6052C46.3907 37.0699 46.6717 36.5301 46.7387 36.0015C46.9015 35.3614 46.8948 34.6565 47.2227 34.0699C47.845 33.6907 48.5944 33.6238 49.2792 33.4119Z" fill="#ADB4D9"/>
<path d="M42.516 35.3676C43.339 35.1646 44.142 34.8278 45.0007 34.8145C44.9673 34.9817 44.9361 35.149 44.9048 35.3163C42.6967 35.8806 40.4929 36.4717 38.3472 37.2412C38.1465 38.4479 37.9123 39.6501 37.6223 40.8368C37.4461 40.9617 37.2364 41.0264 37 41.0353C37.0201 39.5721 37.5309 38.1423 37.832 36.7126C39.3532 36.1461 40.9591 35.8316 42.516 35.3676Z" fill="#B0B8D8"/>
<path d="M13.1034 36.3175C13.1792 36.0298 13.2952 35.5167 13.6989 35.7688C15.722 36.5584 17.7116 37.4305 19.7257 38.2491C20.5532 38.6305 21.4677 38.8513 22.2038 39.4112C22.0878 39.7011 21.9718 39.9956 21.8603 40.2877C19.3197 39.3576 16.8818 38.1666 14.3391 37.2498C13.0744 41.4164 11.8298 45.5896 10.6164 49.774C10.2573 49.5866 9.90041 49.3948 9.55469 49.1851C10.7101 44.8892 11.9346 40.6089 13.1034 36.3175Z" fill="#BAA25A"/>
</g>
<defs>
<clipPath id="clip0_509_26048">
<rect width="60" height="58.2156" fill="white"/>
</clipPath>
</defs>
</svg>
