<svg width="474" height="448" viewBox="0 0 474 448" fill="none" xmlns="http://www.w3.org/2000/svg">
<g clip-path="url(#clip0_489_24175)">
<path d="M255.72 26.3595C268.88 10.4662 289.76 2.46621 309.96 1.14621C324.627 0.799545 340.04 3.73288 351.933 12.8129C372.373 28.3195 383.053 56.0662 377.187 81.1995C385.76 79.7195 394.813 80.8929 402.6 84.8262C407.08 87.1329 411.093 90.7595 412.867 95.5995C420.373 95.9062 428.16 96.0395 435.16 99.1462C450.853 105.92 463.547 121.28 464.373 138.72C464.547 158.413 455.24 179.093 437.933 189.373C445.6 194.693 450.293 203.266 452.347 212.24C458.813 216.346 464.96 221.506 468.253 228.6C474.88 242.84 474.8 259.866 468.653 274.266C463.293 286.88 452.307 296.093 440.667 302.773C431.827 307.626 420.92 311.48 411.107 307.133C407.227 296.346 406.733 284.386 400.987 274.293C396.32 267.64 389.333 262.8 382.067 259.306C376.067 258.066 368.627 257.066 363.867 261.866C357.747 267.28 350.507 272.546 342.013 272.8C335.467 273.013 330.6 267.946 326.733 263.32C322.853 258.92 320.613 253.426 318.76 247.933C311.587 250.706 304.133 252.573 296.64 254.253C292 252.813 287.28 251.666 282.587 250.48C274.973 246.68 268.227 241.266 263.187 234.386C263.04 230.693 261.187 227.506 258.88 224.733C256.907 224.333 254.96 223.933 253 223.506C254.16 222.6 255.507 222.133 257.053 222.133C256.48 220.173 255.907 218.213 255.347 216.253C243.573 222.6 230.12 227.026 216.613 225.173C206 223.64 194.933 221.093 186.44 214.146C181.373 210.16 178.187 204.453 175.08 198.933C170.08 204.413 163.893 208.586 157.08 211.48C155.253 211.4 152.973 210.613 151.613 212.266C149.453 214.426 149.547 217.72 148.733 220.48C144.28 229.093 138.893 238.106 129.667 242.253C118.613 247.146 105.547 248.786 94.1201 244.173C88.7734 247.973 82.4934 250.013 75.9068 249.906C75.1868 251.866 74.4534 253.826 73.7334 255.786C71.5734 260.413 68.6268 264.866 64.2001 267.6C59.5601 270.893 53.4935 270.253 48.5334 272.853C47.8934 271.506 47.3068 270.133 46.7201 268.773L44.4934 269.24C39.9734 268.626 36.8934 264.373 34.5601 260.786C28.4001 250.48 30.4801 237.586 35.0801 227.093C28.2401 221.64 27.9734 211.813 29.7734 203.96C19.0934 198.8 10.9068 189.346 5.86678 178.746C0.74678 168.173 0.946779 155.013 7.00011 144.866C14.5201 131.933 28.4401 122.853 43.4268 121.706C46.9868 115.586 52.9868 111.373 59.3734 108.6C56.3468 101.92 52.0934 95.5729 51.4134 88.0662C49.7068 73.3729 56.0534 58.5595 65.8934 47.8662C73.7201 39.2129 85.1201 35.2529 96.1068 32.4129C110.267 28.7729 125.8 27.7862 139.653 33.1862C151.707 37.8129 160.987 47.9729 166.173 59.6129C171.32 57.3329 176.413 54.8529 182.04 53.9595C183.453 41.4795 189.813 29.5195 199.387 21.3862C208.64 14.0529 221.147 10.1729 232.84 12.9462C241.547 15.0262 249.88 19.4795 255.72 26.3595ZM29.1068 162.986C28.4001 168.08 32.2534 172.28 35.6001 175.613C45.3068 183.813 57.6934 188.08 69.9868 190.6C78.0935 192.4 86.3601 190.533 94.3335 188.893C87.8134 184.586 81.3868 179.773 73.8268 177.44C66.4801 175 59.0134 172.866 51.7868 170.08C45.8534 167.826 40.5334 164.173 34.4934 162.16C32.7334 161.64 30.2934 161.133 29.1068 162.986ZM414.413 181.946C403.8 184.893 392.773 185.853 382.107 188.546C375.68 190.506 369.453 193.066 363.253 195.653C372.32 195.773 381.467 196.893 390.453 195.2C401.613 193.266 413.013 191.386 423.36 186.546C426.027 185.573 426.08 182.626 425.893 180.253C421.987 180.213 418.133 180.813 414.413 181.946ZM112.133 189.306C115.387 192.76 119.907 194.893 124.68 195.026C128.733 195.093 133.84 195.88 136.72 192.32C130.44 186.12 119.747 184.786 112.133 189.306ZM147.44 193.226C148.373 198.106 155.427 196.053 156.133 191.96C153.96 188.946 147.027 188.16 147.44 193.226ZM205.56 194.28C203.867 196.04 206.4 197.36 207.773 198.146C215.6 201.533 224.28 201.933 232.667 202.653C246.36 203.413 260.107 204.413 273.813 203.426C283.293 202.026 292.747 200.253 302.027 197.8C292.733 196.68 283.387 196.186 274.107 194.933C255.467 193.013 236.68 194.44 218 193.333C213.867 193.293 209.427 192.44 205.56 194.28ZM323.387 198.2C328.067 199.333 333.24 200.773 337.867 198.626C339.733 198.04 342.04 195.826 339.76 194.186C333.947 191.946 327.907 194.48 323.387 198.2Z" fill="#915653"/>
<path d="M29.1061 162.987C30.2928 161.134 32.7328 161.64 34.4928 162.16C40.5328 164.174 45.8528 167.827 51.7861 170.08C59.0128 172.867 66.4795 175 73.8261 177.44C81.3861 179.774 87.8128 184.587 94.3328 188.894C86.3595 190.534 78.0928 192.4 69.9861 190.6C57.6928 188.08 45.3061 183.814 35.5995 175.614C32.2528 172.281 28.3995 168.08 29.1061 162.987Z" fill="#A66C6A"/>
<path d="M414.412 181.947C418.132 180.814 421.985 180.214 425.892 180.254C426.079 182.627 426.025 185.574 423.359 186.547C413.012 191.387 401.612 193.267 390.452 195.2C381.465 196.894 372.319 195.774 363.252 195.654C369.452 193.067 375.679 190.507 382.105 188.547C392.772 185.854 403.799 184.894 414.412 181.947Z" fill="#A66C6A"/>
<path d="M112.133 189.306C119.746 184.786 130.439 186.12 136.719 192.32C133.839 195.88 128.733 195.093 124.679 195.026C119.906 194.893 115.386 192.76 112.133 189.306Z" fill="#A66C6A"/>
<path d="M205.56 194.28C209.426 192.44 213.866 193.294 218 193.334C236.68 194.44 255.466 193.014 274.106 194.934C283.386 196.187 292.733 196.68 302.026 197.8C292.746 200.254 283.293 202.027 273.813 203.427C260.106 204.414 246.36 203.414 232.666 202.654C224.28 201.934 215.6 201.534 207.773 198.147C206.4 197.36 203.866 196.04 205.56 194.28Z" fill="#A66C6A"/>
<path d="M147.44 193.227C147.026 188.16 153.96 188.947 156.133 191.96C155.426 196.053 148.373 198.107 147.44 193.227Z" fill="#A56B68"/>
<path d="M323.387 198.199C327.907 194.479 333.947 191.946 339.76 194.186C342.04 195.826 339.733 198.039 337.867 198.626C333.24 200.773 328.067 199.333 323.387 198.199Z" fill="#A56B69"/>
<path d="M157.079 211.48C163.892 208.587 170.079 204.414 175.079 198.934C178.185 204.454 181.372 210.16 186.439 214.147C194.932 221.094 205.999 223.64 216.612 225.174C230.119 227.027 243.572 222.6 255.345 216.254C255.905 218.214 256.479 220.174 257.052 222.134C255.505 222.134 254.159 222.6 252.999 223.507C247.239 224.587 241.105 225.427 236.145 228.8C232.759 231.267 232.879 236.707 236.252 239.134C239.359 240.667 242.892 239.44 246.025 238.667C251.679 236.96 257.425 235.627 263.185 234.387C268.225 241.267 274.972 246.68 282.585 250.48C266.985 250.16 249.732 249.254 236.119 258.134C233.332 262.814 231.546 268.04 228.652 272.68C231.999 271.907 235.399 271 238.212 268.934C237.546 279.88 240.452 292.04 249.945 298.627C260.465 305.454 273.919 308.147 286.199 305.4C293.105 303.2 301.105 301.227 304.932 294.427C312.092 293.187 316.732 286.587 319.479 280.36C322.412 280.6 325.359 280.854 328.305 281.134C324.212 277 320.639 272.294 315.852 268.907C309.212 264.307 304.425 257.187 296.639 254.254C304.132 252.574 311.586 250.707 318.759 247.934C320.612 253.427 322.852 258.92 326.732 263.32C330.599 267.947 335.466 273.014 342.012 272.8C350.505 272.547 357.745 267.28 363.865 261.867C368.625 257.067 376.065 258.067 382.065 259.307C374.892 288.4 367.785 317.547 358.879 346.174C356.559 353.547 354.332 360.934 352.292 368.387C347.306 384.654 342.652 401.547 332.092 415.254C320.612 432.214 300.012 439.44 280.665 442.68C265.105 444.147 249.532 445.56 233.905 446C204.559 446.987 174.359 446.814 146.305 437.134C139.465 434.52 132.185 433.107 125.705 429.6C117.332 425.014 108.105 420.694 102.892 412.254C90.3988 393.094 90.1855 369.48 85.2788 347.84C81.2122 321.707 77.7455 295.48 74.4788 269.227C73.9455 264.76 73.5855 260.28 73.7322 255.787C74.4522 253.827 75.1855 251.867 75.9055 249.907C82.4922 250.014 88.7721 247.974 94.1188 244.174C105.545 248.787 118.612 247.147 129.665 242.254C138.892 238.107 144.279 229.094 148.732 220.48C155.519 223.934 161.025 229.36 167.732 232.92C170.772 234.694 176.132 233.387 176.385 229.387C176.852 226.894 175.519 224.574 173.799 222.894C169.025 218.054 163.319 214.16 157.079 211.48ZM119.399 249.427C114.839 251.24 109.692 252.454 106.305 256.267C101.999 261.28 95.7455 264.014 91.3455 268.96C94.6788 270.307 98.2788 270.614 101.825 270.947C102.892 275.467 105.025 279.667 108.305 283C109.759 284.214 111.052 286.92 113.385 285.68C116.945 293.774 125.665 296.894 133.412 299.507C143.092 302.267 153.225 298.96 162.145 295.147C170.679 291.48 177.105 283.227 178.025 273.92C181.905 276.307 186.452 277.8 190.919 276.067C183.745 271.76 183.359 262.014 176.359 257.614C169.572 252.96 161.865 249.56 153.679 248.414C142.345 246.627 130.479 245.987 119.399 249.427ZM141.679 323.64C138.785 328.4 139.265 334.36 140.812 339.494C144.092 346.614 151.319 352.12 159.412 351.627C168.852 351.947 176.932 344.44 178.945 335.48C187.785 332.947 197.745 334.347 205.119 340C204.772 344.294 205.599 348.56 207.172 352.56C209.919 356.427 213.599 359.827 218.345 360.96C230.799 364.827 245.572 354.614 245.532 341.387C245.999 335.627 242.759 330.494 238.599 326.827C232.879 323.067 225.785 323.067 219.252 324.04C213.759 325 208.999 329.054 207.012 334.24C198.679 328.92 188.265 327.787 178.812 330.44C177.679 326.134 175.372 322.307 172.305 319.107L172.092 319.28C163.439 311.294 147.679 313.467 141.679 323.64ZM155.825 366C150.892 367.68 146.319 370.307 142.119 373.374C140.359 374.774 138.212 376.134 137.759 378.52C139.319 381.747 143.505 381.934 146.239 383.827C160.519 392.36 177.359 394.214 192.785 399.76C201.185 402 209.345 405.52 218.079 406.254C220.079 406.467 223.932 405.734 223.145 402.96C221.892 399.96 220.599 396.96 219.945 393.774C218.199 385.827 213.532 378.107 206.025 374.48C199.119 370.68 190.959 370.387 183.359 371.774C179.945 372.92 177.319 370.32 174.772 368.547C169.479 364.36 162.065 364.32 155.825 366Z" fill="#BD917B"/>
<path d="M151.612 212.266C152.972 210.613 155.252 211.399 157.079 211.479C163.319 214.159 169.026 218.053 173.799 222.893C175.519 224.573 176.852 226.893 176.386 229.386C176.132 233.386 170.772 234.693 167.732 232.919C161.026 229.359 155.519 223.933 148.732 220.479C149.546 217.719 149.452 214.426 151.612 212.266Z" fill="#7C3834"/>
<path d="M236.146 228.799C241.106 225.426 247.24 224.586 253 223.506C254.96 223.933 256.906 224.333 258.88 224.733C261.186 227.506 263.04 230.693 263.186 234.386C257.426 235.626 251.68 236.959 246.026 238.666C242.893 239.439 239.36 240.666 236.253 239.133C232.88 236.706 232.76 231.266 236.146 228.799Z" fill="#7C3834"/>
<path d="M119.399 249.426C130.479 245.986 142.346 246.626 153.679 248.413C161.866 249.56 169.572 252.96 176.359 257.613C183.359 262.013 183.746 271.76 190.919 276.066C186.452 277.8 181.906 276.306 178.026 273.92C175.559 268.146 170.319 263.933 164.772 261.266C151.386 255.013 135.572 255.186 121.772 260.013C116.519 262.186 110.546 264.986 108.426 270.68C107.306 276.16 111.119 281 113.386 285.68C111.052 286.92 109.759 284.213 108.306 283C105.026 279.666 102.892 275.466 101.826 270.946C98.279 270.613 94.679 270.306 91.3457 268.96C95.7457 264.013 101.999 261.28 106.306 256.266C109.692 252.453 114.839 251.24 119.399 249.426Z" fill="#7C3834"/>
<path d="M236.119 258.133C249.732 249.253 266.986 250.159 282.586 250.479C287.279 251.666 291.999 252.813 296.639 254.253C304.426 257.186 309.212 264.306 315.852 268.906C320.639 272.293 324.212 276.999 328.306 281.133C325.359 280.853 322.412 280.599 319.479 280.359C316.732 286.586 312.092 293.186 304.932 294.426C307.692 290.066 311.079 285.306 310.346 279.866C309.799 275.773 306.639 272.826 303.839 270.106C298.892 265.613 293.266 261.439 286.626 259.946C273.586 257.039 259.572 257.293 247.066 262.253C243.479 263.519 240.866 266.346 238.212 268.933C235.399 270.999 231.999 271.906 228.652 272.679C231.546 268.039 233.332 262.813 236.119 258.133Z" fill="#7C3834"/>
<path d="M64.1989 267.6C68.6255 264.867 71.5722 260.414 73.7322 255.787C73.5855 260.28 73.9455 264.76 74.4789 269.227C77.7455 295.48 81.2122 321.707 85.2789 347.84C74.4522 343.56 63.5589 337.694 56.6389 328.014C47.4255 315.987 44.2389 300.2 44.7855 285.334C44.5055 280.04 48.4789 273.8 44.4922 269.24L46.7189 268.774C47.3055 270.134 47.8922 271.507 48.5322 272.854C53.4922 270.254 59.5589 270.894 64.1989 267.6Z" fill="#A3806F"/>
<path d="M382.066 259.307C389.333 262.8 396.32 267.64 400.986 274.293C406.733 284.387 407.226 296.347 411.106 307.133C411.893 316.867 407.466 326.64 401.933 334.52C389.68 350.76 371.893 362.92 352.293 368.387C354.333 360.933 356.56 353.547 358.88 346.173C367.786 317.547 374.893 288.4 382.066 259.307Z" fill="#A3806F"/>
<path d="M121.773 260.013C135.573 255.186 151.386 255.013 164.773 261.266C170.319 263.933 175.559 268.146 178.026 273.92C177.106 283.226 170.679 291.48 162.146 295.146C153.226 298.96 143.093 302.266 133.413 299.506C125.666 296.893 116.946 293.773 113.386 285.68C111.119 281 107.306 276.16 108.426 270.68C110.546 264.986 116.519 262.186 121.773 260.013ZM131.853 267.306C122.799 269.653 117.933 282.36 124.773 289.413C130.786 297.293 144.386 295.72 149.146 287.293C151.359 283.96 150.733 279.84 150.439 276.106C147.586 278.16 143.333 280.666 140.466 277.186C137.959 273.293 142.146 269.653 145.906 269.48C141.639 267.213 136.613 265.28 131.853 267.306Z" fill="white"/>
<path d="M247.065 262.253C259.572 257.293 273.585 257.039 286.625 259.946C293.265 261.439 298.892 265.613 303.839 270.106C306.639 272.826 309.799 275.773 310.345 279.866C311.079 285.306 307.692 290.066 304.932 294.426C301.105 301.226 293.105 303.199 286.199 305.399C273.919 308.146 260.465 305.453 249.945 298.626C240.452 292.039 237.545 279.879 238.212 268.933C240.865 266.346 243.479 263.519 247.065 262.253ZM252.332 270.386C244.159 274.586 244.159 286.999 250.665 292.706C255.785 297.786 264.279 297.066 269.905 293.279C273.932 288.999 277.292 282.719 274.519 276.866C272.559 279.973 269.265 281.959 265.559 280.533C262.425 276.439 265.732 272.053 270.052 270.986C264.585 268.466 257.732 266.866 252.332 270.386Z" fill="white"/>
<path d="M131.852 267.306C136.612 265.279 141.639 267.213 145.906 269.479C142.146 269.653 137.959 273.293 140.466 277.186C143.332 280.666 147.586 278.159 150.439 276.106C150.732 279.839 151.359 283.959 149.146 287.293C144.386 295.719 130.786 297.293 124.772 289.413C117.932 282.359 122.799 269.653 131.852 267.306Z" fill="#854541"/>
<path d="M252.333 270.387C257.733 266.867 264.586 268.467 270.053 270.987C265.733 272.054 262.426 276.44 265.559 280.533C269.266 281.96 272.559 279.973 274.519 276.867C277.293 282.72 273.933 289 269.906 293.28C264.279 297.067 255.786 297.787 250.666 292.707C244.159 287 244.159 274.587 252.333 270.387Z" fill="#854541"/>
<path d="M141.68 323.64C147.68 313.467 163.44 311.294 172.093 319.28C165.72 324.76 158.146 328.52 151.32 333.36C147.986 335.694 144.453 337.68 140.813 339.494C139.266 334.36 138.786 328.4 141.68 323.64Z" fill="#EAFBFF"/>
<path d="M207.013 334.24C208.999 329.053 213.759 325 219.253 324.04C225.786 323.067 232.879 323.067 238.599 326.827C232.813 332.827 225.679 337.253 219.319 342.587C215.279 345.933 211.279 349.307 207.173 352.56C205.599 348.56 204.773 344.293 205.119 340C205.639 338.04 206.266 336.12 207.013 334.24Z" fill="#EAFBFF"/>
<path d="M172.093 319.281L172.306 319.107C175.372 322.307 177.679 326.134 178.813 330.441C188.266 327.787 198.679 328.921 207.012 334.241C206.266 336.121 205.639 338.041 205.119 340.001C197.746 334.347 187.786 332.947 178.946 335.481C176.933 344.441 168.852 351.947 159.412 351.627C151.319 352.121 144.093 346.614 140.812 339.494C144.453 337.681 147.986 335.694 151.319 333.361C158.146 328.521 165.719 324.761 172.093 319.281Z" fill="#CFEEF6"/>
<path d="M238.599 326.828C242.759 330.495 245.999 335.628 245.532 341.388C245.572 354.615 230.799 364.828 218.345 360.961C213.599 359.828 209.919 356.428 207.172 352.561C211.279 349.308 215.279 345.935 219.319 342.588C225.679 337.255 232.812 332.828 238.599 326.828Z" fill="#CFEEF6"/>
<path d="M155.826 366C162.066 364.32 169.48 364.36 174.773 368.547C177.32 370.32 179.946 372.92 183.36 371.773C190.96 370.387 199.12 370.68 206.026 374.48C213.533 378.107 218.2 385.827 219.946 393.773C220.6 396.96 221.893 399.96 223.146 402.96C223.933 405.733 220.08 406.467 218.08 406.253C209.346 405.52 201.186 402 192.786 399.76C177.36 394.213 160.52 392.36 146.24 383.827C143.506 381.933 139.32 381.747 137.76 378.52C138.213 376.133 140.36 374.773 142.12 373.373C146.32 370.307 150.893 367.68 155.826 366Z" fill="#A9816D"/>
</g>
<defs>
<clipPath id="clip0_489_24175">
<rect width="473.333" height="448" fill="white" transform="translate(0.666016)"/>
</clipPath>
</defs>
</svg>
