<svg width="395" height="451" viewBox="0 0 395 451" fill="none" xmlns="http://www.w3.org/2000/svg">
<g clip-path="url(#clip0_489_24245)">
<path d="M181.493 2.72034C202.119 -0.279661 224.066 0.133673 243.386 8.73367C256.546 14.507 267.053 26.2137 270.559 40.2403C275.213 58.6003 271.386 78.2937 263.453 95.2003C283.079 100.387 302.413 107.187 320.239 116.987C337.853 127.094 354.319 139.894 366.519 156.28C383.519 178.88 391.506 207.214 393.013 235.174C393.146 240.027 393.106 244.88 392.919 249.734C392.333 260.734 390.279 271.8 385.413 281.747C378.599 271.494 367.279 263.8 354.546 264.507C336.786 266.84 319.279 271.387 301.333 272.334C286.599 272.174 271.946 269.507 257.853 265.294C262.266 262.96 267.319 259.894 268.239 254.547C268.773 250.254 264.746 246.867 260.786 246.334C256.106 245.64 251.413 244.72 246.679 244.8C240.279 245.4 234.199 247.854 228.666 251.014C220.479 244.627 214.386 236.16 208.053 228.067C205.959 225.774 203.746 222.16 200.106 222.96C196.066 224.187 192.839 227.12 189.519 229.614C180.839 236.654 171.639 243 162.093 248.787C154.933 244.4 146.413 241.654 137.986 243.227C134.119 244.107 130.919 248 131.599 252.067C132.226 255.44 134.799 257.88 137.239 260.08C117.173 267.334 94.2925 271.454 73.7725 263.6C67.1992 261.36 61.7058 256.96 55.4925 254.014C53.3192 252.787 51.0258 254.134 48.8525 254.587C35.0525 253.894 22.4792 261.814 13.9058 272.094C12.0125 258.36 11.7992 244.4 13.0258 230.614C15.2658 212.534 20.1858 194.8 27.2258 178.014C34.4792 160.774 45.7192 145.467 58.8525 132.254C77.7725 113.614 102.679 102.4 127.813 94.8537C115.879 85.3603 106.786 70.307 108.799 54.6003C110.426 41.8003 118.933 31.0937 128.839 23.3737C144.039 11.7337 162.773 5.70701 181.493 2.72034ZM151.479 78.2403C146.453 82.427 141.013 87.0137 139.026 93.4937C145.293 92.0403 151.599 90.6137 157.999 89.8003C189.266 85.5737 221.853 83.4003 252.373 93.147C247.226 85.507 241.093 78.427 233.639 72.9603C223.559 65.667 210.853 63.0137 198.599 62.987C181.759 62.467 165.026 68.4003 151.479 78.2403ZM37.5725 196.347C36.8792 198.414 37.8525 200.507 39.6792 201.6C45.7458 205.774 53.0258 207.587 60.0658 209.374C81.4792 214.92 103.773 211.454 125.346 208.76C114.119 207.12 102.866 205.6 91.8125 203C79.1725 199.92 66.2392 198.28 53.4125 196.174C48.1859 195.494 42.6392 194.24 37.5725 196.347ZM351.999 202.72C337.293 205.734 322.933 210.6 307.919 211.987C305.253 212.494 302.133 212 299.919 213.867C321.106 216.52 343.693 219.267 363.959 210.707C368.559 208.56 374.199 206.72 376.573 201.814C377.746 199.227 374.439 197.094 372.133 197.867C365.306 198.96 358.759 201.36 351.999 202.72ZM146.799 208.44C147.213 211.494 151.093 212.04 153.346 213.427C156.853 215.094 164.159 215.067 163.826 209.694C159.199 205 152.346 206.64 146.799 208.44ZM176.599 211.067C175.759 213.96 178.759 216.174 181.319 216.52C183.946 214.987 184.653 211.467 183.226 208.88C181.253 206.374 176.853 208.014 176.599 211.067ZM263.319 214.587C267.386 220.64 275.213 216.48 280.279 214.147C275.346 211.667 266.573 208.134 263.319 214.587ZM245.759 212.534C243.439 213.8 244.839 216.587 245.733 218.32C249.159 219.094 252.679 218.134 254.573 215.054C252.239 212.92 248.946 210.467 245.759 212.534Z" fill="#C9DBDF"/>
<path d="M151.481 78.24C165.027 68.4 181.761 62.4667 198.601 62.9867C210.854 63.0133 223.561 65.6667 233.641 72.96C241.094 78.4267 247.227 85.5067 252.374 93.1467C221.854 83.4 189.267 85.5733 158.001 89.8C151.601 90.6133 145.294 92.04 139.027 93.4933C141.014 87.0133 146.454 82.4267 151.481 78.24Z" fill="#C98540"/>
<path d="M37.5739 196.348C42.6405 194.241 48.1872 195.494 53.4139 196.174C66.2405 198.281 79.1739 199.921 91.8139 203.001C102.867 205.601 114.121 207.121 125.347 208.761C103.774 211.454 81.4805 214.921 60.0672 209.374C53.0272 207.588 45.7472 205.774 39.6805 201.601C37.8539 200.508 36.8805 198.414 37.5739 196.348Z" fill="#E4F5F9"/>
<path d="M352 202.721C358.76 201.361 365.307 198.961 372.133 197.868C374.44 197.094 377.747 199.228 376.573 201.814C374.2 206.721 368.56 208.561 363.96 210.708C343.693 219.268 321.107 216.521 299.92 213.868C302.133 212.001 305.253 212.494 307.92 211.988C322.933 210.601 337.293 205.734 352 202.721Z" fill="#E4F5F9"/>
<path d="M146.801 208.441C152.347 206.641 159.201 205.001 163.827 209.695C164.161 215.068 156.854 215.095 153.347 213.428C151.094 212.041 147.214 211.495 146.801 208.441Z" fill="#E4F5F9"/>
<path d="M176.599 211.067C176.852 208.014 181.252 206.374 183.226 208.88C184.652 211.467 183.946 214.987 181.319 216.52C178.759 216.174 175.759 213.96 176.599 211.067Z" fill="#E2F3F7"/>
<path d="M263.318 214.586C266.572 208.133 275.345 211.666 280.278 214.146C275.212 216.479 267.385 220.639 263.318 214.586Z" fill="#E3F4F8"/>
<path d="M245.759 212.533C248.946 210.466 252.239 212.919 254.573 215.053C252.679 218.133 249.159 219.093 245.733 218.319C244.839 216.586 243.439 213.799 245.759 212.533Z" fill="#E3F4F8"/>
<path d="M189.52 229.613C192.84 227.119 196.067 224.186 200.107 222.959C203.747 222.159 205.96 225.772 208.054 228.066C214.387 236.159 220.48 244.626 228.667 251.012C225.16 253.306 221.294 256.706 221.76 261.332C222.067 266.426 227.467 269.039 231.947 269.519C240.76 270.372 249.654 268.412 257.854 265.292C271.947 269.506 286.6 272.172 301.334 272.332C319.28 271.386 336.787 266.839 354.547 264.506C354.92 275.053 352.787 285.479 353.214 296.012C353.56 307.586 352.854 319.146 352.107 330.692C351.134 345.092 352.734 359.559 351.214 373.946C349.96 385.346 348 396.786 344.014 407.586C339.12 420.373 326.76 427.973 315.294 434.199C286.507 446.519 254.6 445.866 223.96 448.293C208.84 448.786 193.734 449.639 178.614 449.519C167.907 448.879 157.174 448.986 146.467 448.306C135.587 447.319 124.76 445.813 113.934 444.266C99.9603 442.253 87.067 435.919 74.9203 428.999C62.3736 421.853 54.8403 408.386 51.587 394.692C49.507 385.106 48.027 375.399 46.347 365.746C45.227 351.879 44.0536 337.932 44.9736 324.012C45.2536 313.346 44.9603 302.679 45.8403 292.052C46.9603 279.559 46.1603 266.906 48.8536 254.586C51.027 254.132 53.3203 252.786 55.4936 254.012C61.707 256.959 67.2003 261.359 73.7737 263.599C94.2937 271.452 117.174 267.332 137.24 260.079C144.334 264.572 152.72 268.439 161.334 267.119C165.52 266.332 170.4 263.399 170.28 258.599C170.68 253.612 166.094 250.532 162.094 248.786C171.64 242.999 180.84 236.653 189.52 229.613ZM92.1203 289.159C87.3203 290.732 81.707 293.079 80.747 298.693C81.6403 301.266 82.987 303.892 85.7737 304.786C92.7737 308.092 99.7337 303.266 106.707 302.559C120.707 301.399 134.134 306.679 148.04 306.972C152.454 307.039 156.894 303.159 156.334 298.559C155.467 295.706 153.307 293.426 150.627 292.173C141.294 288.306 131.374 285.733 121.294 284.879C111.387 284.093 101.52 286.212 92.1203 289.159ZM267.2 286.186C260.534 287.332 254.094 289.426 247.814 291.892C244.627 293.306 241.214 296.119 241.627 299.999C241.76 304.479 246.587 307.306 250.694 306.999C264.547 306.479 278.014 301.132 291.987 302.679C296.547 303.332 300.787 305.399 305.374 305.892C309.694 306.279 314.76 304.519 316.454 300.186C317.734 294.932 312.52 291.746 308.374 290.186C295.334 285.279 280.934 283.079 267.2 286.186ZM154.734 366.893C150.907 368.026 146.987 369.199 143.734 371.612C139.28 371.919 135.96 378.519 139.067 382.332C143.107 388.559 146.08 395.586 151.36 400.933C154.187 403.466 157.374 405.572 160.787 407.239C175.654 415.239 193.16 412.613 209.36 412.452C217.774 411.159 226.067 407.852 232.96 402.786C242.174 395.986 248.48 385.172 248.92 373.692C247.214 372.012 244.934 371.132 242.867 370.039L242.347 370.612C224.667 362.586 204.64 359.612 185.334 361.572C174.934 361.839 164.707 364.039 154.734 366.893Z" fill="#FED5A2"/>
<path opacity="0.09" d="M393.013 235.173C393.427 234.547 394.253 233.32 394.667 232.693V247.307C394.227 247.92 393.347 249.133 392.92 249.733C393.107 244.88 393.147 240.027 393.013 235.173Z" fill="#121314"/>
<path d="M137.986 243.227C146.413 241.653 154.933 244.4 162.093 248.787C166.093 250.533 170.679 253.613 170.279 258.6C170.399 263.4 165.519 266.333 161.333 267.12C152.719 268.44 144.333 264.573 137.239 260.08C134.799 257.88 132.226 255.44 131.599 252.067C130.919 248 134.119 244.107 137.986 243.227Z" fill="#6F8E9D"/>
<path d="M228.666 251.013C234.199 247.853 240.279 245.4 246.679 244.8C251.412 244.72 256.106 245.64 260.786 246.333C264.746 246.866 268.772 250.253 268.239 254.546C267.319 259.893 262.266 262.96 257.852 265.293C249.652 268.413 240.759 270.373 231.946 269.52C227.466 269.04 222.066 266.426 221.759 261.333C221.292 256.706 225.159 253.306 228.666 251.013Z" fill="#6F8E9D"/>
<path d="M92.1194 289.16C101.519 286.213 111.386 284.093 121.293 284.88C131.373 285.733 141.293 288.307 150.626 292.173C153.306 293.427 155.466 295.707 156.333 298.56C156.893 303.16 152.453 307.04 148.039 306.973C134.133 306.68 120.706 301.4 106.706 302.56C99.7328 303.267 92.7728 308.093 85.7728 304.787C82.9861 303.893 81.6394 301.267 80.7461 298.693C81.7061 293.08 87.3194 290.733 92.1194 289.16Z" fill="#6F8E9D"/>
<path d="M267.199 286.187C280.933 283.081 295.333 285.281 308.373 290.187C312.519 291.747 317.733 294.934 316.453 300.187C314.759 304.521 309.693 306.281 305.373 305.894C300.786 305.401 296.546 303.334 291.986 302.681C278.013 301.134 264.546 306.481 250.693 307.001C246.586 307.307 241.759 304.481 241.626 300.001C241.213 296.121 244.626 293.307 247.813 291.894C254.093 289.427 260.533 287.334 267.199 286.187Z" fill="#6F8E9D"/>
<path d="M13.9066 272.094C22.4799 261.814 35.0533 253.894 48.8533 254.587C46.1599 266.907 46.9599 279.561 45.8399 292.054C44.9599 302.681 45.2533 313.347 44.9733 324.014C44.0533 337.934 45.2266 351.881 46.3466 365.747C24.3466 357.894 6.15992 338.334 1.87992 315.107C1.27992 309.174 1.43992 303.187 2.50659 297.321C4.70659 288.294 8.66659 279.761 13.9066 272.094Z" fill="#EDC89B"/>
<path d="M354.546 264.508C367.28 263.801 378.6 271.495 385.413 281.748C394.626 295.935 396.666 314.321 390.493 330.108C383.586 349.268 366.586 361.801 351.213 373.948C352.733 359.561 351.133 345.095 352.106 330.695C352.853 319.148 353.56 307.588 353.213 296.015C352.786 285.481 354.92 275.055 354.546 264.508Z" fill="#EDC89B"/>
<path opacity="0.11" d="M0 303.667C0.8 301.534 1.70667 299.454 2.50667 297.32C1.44 303.187 1.28 309.174 1.88 315.107C1.41333 314.48 0.466667 313.214 0 312.587V303.667Z" fill="#1A1611"/>
<path d="M154.732 366.893C164.706 364.04 174.932 361.84 185.332 361.573C204.639 359.613 224.666 362.587 242.346 370.613C238.492 375.52 233.012 379.307 226.692 379.987C209.026 382.04 191.159 382.413 173.399 381.6C163.119 380.347 150.372 381.227 143.732 371.613C146.986 369.2 150.906 368.027 154.732 366.893Z" fill="white"/>
<path d="M242.347 370.612L242.867 370.039C244.933 371.132 247.213 372.012 248.92 373.692C248.48 385.172 242.173 395.986 232.96 402.786C227.867 394.026 218.307 387.612 207.92 388.399C201.467 388.146 195.827 391.546 190.627 394.946C179.173 384.519 159.547 388.199 151.36 400.932C146.08 395.586 143.107 388.559 139.067 382.332C135.96 378.519 139.28 371.919 143.733 371.612C150.373 381.226 163.12 380.346 173.4 381.599C191.16 382.412 209.027 382.039 226.693 379.986C233.013 379.306 238.493 375.519 242.347 370.612Z" fill="#DB6B6C"/>
<path d="M190.626 394.946C195.826 391.546 201.466 388.146 207.919 388.399C218.306 387.613 227.866 394.026 232.959 402.786C226.066 407.853 217.773 411.159 209.359 412.453C193.159 412.613 175.653 415.239 160.786 407.239C157.373 405.573 154.186 403.466 151.359 400.933C159.546 388.199 179.173 384.519 190.626 394.946Z" fill="#A0494A"/>
</g>
<defs>
<clipPath id="clip0_489_24245">
<rect width="394.667" height="450.667" fill="white"/>
</clipPath>
</defs>
</svg>
