<svg width="145" height="136" viewBox="0 0 145 136" fill="none" xmlns="http://www.w3.org/2000/svg">
<path d="M29.8815 10.2324C56.7082 -8.08762 96.1348 -0.700953 116.828 23.579C127.135 35.7124 131.015 52.0191 131.108 67.6457C131.521 79.7124 130.095 91.7524 127.361 103.486C126.895 106.726 125.081 110.859 128.161 113.312C134.015 119.152 139.308 125.499 144.828 131.646C144.601 132.499 144.148 134.206 143.921 135.046C131.441 129.872 120.241 121.846 107.588 117.086C104.721 119.059 102.081 121.419 98.8548 122.806C81.3215 131.099 61.8281 136.699 42.2815 134.659C28.2148 133.099 13.9748 125.752 7.40148 112.739C0.321483 98.4591 -0.838517 81.9657 0.46815 66.2991C2.69482 44.9257 12.0681 23.0857 29.8815 10.2324ZM60.0148 23.1257C50.6548 24.7657 42.2815 30.7124 37.2815 38.7524C35.3748 41.8324 34.6815 46.7257 37.7348 49.3124C40.7082 50.6591 45.6415 50.4724 46.3748 46.4457C50.7348 35.5257 66.4815 29.6991 75.8815 37.8591C80.4015 41.2057 79.8548 47.7524 77.3348 52.1657C72.5748 61.6991 61.8148 66.8857 57.8815 76.8857C57.6815 82.0457 57.8148 87.7791 60.0815 92.4724C62.4015 96.8057 69.3348 94.9257 69.6815 90.2457C70.7882 85.7924 67.1748 80.1924 71.2548 76.7124C80.1748 67.5524 91.3215 57.5791 90.7082 43.6057C89.7615 29.0724 73.3615 20.259 60.0148 23.1257ZM64.0015 102.966C59.1081 104.406 58.7881 112.152 63.6148 113.899C67.6015 116.352 73.3482 112.126 72.1748 107.566C71.7348 103.806 67.3881 101.752 64.0015 102.966Z" fill="#ACC9D2"/>
<path d="M60.0162 23.1252C73.3629 20.2585 89.7629 29.0719 90.7095 43.6052C91.3229 57.5785 80.1762 67.5519 71.2562 76.7119C67.1762 80.1919 70.7895 85.7919 69.6829 90.2452C69.3362 94.9252 62.4029 96.8052 60.0829 92.4719C57.8162 87.7785 57.6829 82.0452 57.8829 76.8852C61.8162 66.8852 72.5762 61.6985 77.3362 52.1652C79.8562 47.7519 80.4029 41.2052 75.8829 37.8585C66.4829 29.6985 50.7362 35.5252 46.3762 46.4452C45.6429 50.4719 40.7095 50.6585 37.7362 49.3119C34.6829 46.7252 35.3762 41.8319 37.2829 38.7519C42.2829 30.7119 50.6562 24.7652 60.0162 23.1252Z" fill="#FFEC7C"/>
<path d="M64.0033 102.966C67.39 101.753 71.7366 103.806 72.1766 107.566C73.35 112.126 67.6033 116.353 63.6166 113.899C58.79 112.153 59.11 104.406 64.0033 102.966Z" fill="#FCEB7F"/>
</svg>
