<svg width="479" height="391" viewBox="0 0 479 391" fill="none" xmlns="http://www.w3.org/2000/svg">
<g clip-path="url(#clip0_489_24746)">
<path opacity="0.12" d="M266.88 0H283.306C283.933 0.44 285.173 1.33333 285.8 1.77333C279.453 1.45333 273.106 1.41333 266.76 1.69333C266.786 1.28 266.853 0.426667 266.88 0Z" fill="#130A06"/>
<path d="M199.787 12.4264C221.894 7.67977 244.067 2.46644 266.76 1.6931C273.107 1.4131 279.454 1.4531 285.8 1.7731C302.64 2.39977 320.014 11.6131 326.734 27.6131C340.014 17.3331 358.32 19.9064 372.76 26.2131C391.094 34.4798 408.12 45.9731 422.04 60.5598C432.76 71.4531 442.88 83.2931 449.454 97.2131C456.534 112.16 459.694 128.813 459.414 145.306C459.107 165 455.707 184.866 448.627 203.28C444.227 209.733 446.6 217.666 449.067 224.386C459.08 251.093 474.747 276.373 477.387 305.306C479.294 324.32 475.227 344.253 463.96 359.92C456.854 370.84 445.36 377.786 433.854 383.266C421.694 389.053 407.814 390 394.614 388.413C379.774 386.173 366.307 378.493 355.027 368.84C347.827 362.04 342.254 353.786 335.827 346.293C350.84 335.413 365.454 323.24 375.027 307.106C380.24 297.453 384.654 287.386 388.854 277.253C403.574 275.16 418.494 269.186 428.12 257.413C439.6 243.533 444.4 223.24 437.614 206.2C431.427 191.6 415.467 183.453 400.134 183.053C390.72 182.026 381.254 183.746 371.8 182.906C367.88 177.56 363.454 172.466 357.814 168.88C344.64 160.466 330.294 152.933 314.52 151.32C305.187 139.866 299.4 125.973 295.187 111.933C277.494 119.306 259.24 125.4 240.347 128.853L241.094 130.346C226.614 112.68 205.427 100.56 182.787 97.4531C173.734 96.4664 163 97.4131 156.8 104.946C154.827 106.826 154.48 109.92 155.68 112.306C158.627 115.746 163.28 116.853 167.454 118.013C177.187 120.72 187.574 118.386 197.214 121.56C204.867 123.573 211.187 128.466 217.094 133.506C202.667 137.68 187.587 136.746 172.827 138.466C167.414 138.12 162 137.586 156.587 137.266C141.8 134.346 126.467 133.506 112.134 128.813C103.44 123.946 92.8536 122.2 83.307 125.546C78.9203 107.546 79.7736 87.3198 90.0003 71.3864C102.24 52.0398 122.774 39.8931 143.32 31.0131C161.334 22.6131 180.334 16.4264 199.787 12.4264ZM120.68 58.5731C121.214 60.6798 122.027 62.8531 124.014 63.9998C136.64 72.5864 152.094 75.9198 167.187 75.8131C161.094 72.4398 154.88 69.2798 148.774 65.9198C141.174 62.6131 133.4 59.6131 125.6 56.8264C123.707 55.9998 122.054 57.4664 120.68 58.5731ZM180.627 81.3064C181.587 88.3598 193.547 89.5198 195.827 82.9998C192.534 78.3198 184.267 75.5598 180.627 81.3064ZM202.934 85.6131C202.947 87.1864 202.987 88.7598 203.04 90.3464C205.054 90.8664 207.134 90.9198 209.12 90.2398C210.107 86.1998 206.214 84.8131 202.934 85.6131ZM232.574 94.4398C238.84 100.413 247.014 105.6 256.027 105.2C258.574 105.093 261.547 105.306 263.614 103.48C266.027 102.186 263.8 99.8398 262.374 98.9064C253.627 92.9598 242.614 93.8131 232.574 94.4398ZM319.84 119.773C320.96 123.84 325.014 125.8 328.427 127.64C337.934 132.346 348.334 135.133 358.814 136.546C370.214 137.36 381.667 136.813 393.08 136.493C392.974 136.266 392.76 135.8 392.654 135.573C385.134 134.346 377.614 133.12 370.227 131.226C357.4 127.746 344.174 125.933 331.52 121.8C327.707 120.826 323.84 118.733 319.84 119.773ZM407.827 132.906C406.094 133.693 403.427 134.84 404.294 137.253C406.614 142.84 417.96 141.453 417.294 134.866C414.4 133.373 411.12 131.893 407.827 132.906ZM444.48 133.8C442.507 134.426 439.627 135.773 440.294 138.293C443.307 139.92 448.374 139.96 449.507 135.986C448.96 133.733 446.334 133.56 444.48 133.8ZM425.8 135.186C422.2 138.386 427.747 143.2 430.987 140.306C433.627 136.96 429.214 132.36 425.8 135.186Z" fill="#A65A38"/>
<path d="M35.9335 205.12C43.6801 198.346 52.7068 193.28 60.6935 186.826C63.9335 195.2 70.0935 201.813 76.5601 207.826C76.4268 208.546 76.1335 210 76.0001 210.733C73.4535 220.733 73.1068 231.16 74.0135 241.4C76.3468 265.626 84.1468 289.746 98.8268 309.36C90.4801 311.306 82.1468 313.373 73.6268 314.333C59.2535 316.373 44.3735 314.626 30.8135 309.466C20.3601 305.386 10.6935 297.946 5.94679 287.573C-0.253212 273.506 0.32012 256.773 7.02679 242.986C13.9601 228.613 23.5735 215.32 35.9335 205.12Z" fill="#A65A38"/>
<path d="M120.68 58.5728C122.053 57.4661 123.706 55.9994 125.6 56.8261C133.4 59.6128 141.173 62.6128 148.773 65.9194C154.88 69.2794 161.093 72.4394 167.186 75.8128C152.093 75.9194 136.64 72.5861 124.013 63.9994C122.026 62.8528 121.213 60.6794 120.68 58.5728Z" fill="#C38468"/>
<path d="M232.572 94.44C242.612 93.8134 253.626 92.96 262.372 98.9067C263.799 99.84 266.026 102.187 263.612 103.48C261.546 105.307 258.572 105.093 256.026 105.2C247.012 105.6 238.839 100.413 232.572 94.44Z" fill="#C38468"/>
<path d="M319.84 119.773C323.84 118.733 327.707 120.826 331.52 121.8C344.173 125.933 357.4 127.746 370.227 131.226C377.613 133.12 385.133 134.346 392.653 135.573C392.76 135.8 392.973 136.266 393.08 136.493C381.667 136.813 370.213 137.36 358.813 136.546C348.333 135.133 337.933 132.346 328.427 127.64C325.013 125.8 320.96 123.84 319.84 119.773Z" fill="#C38468"/>
<path d="M180.627 81.3066C184.267 75.5599 192.534 78.3199 195.827 82.9999C193.547 89.5199 181.587 88.3599 180.627 81.3066Z" fill="#C38367"/>
<path d="M407.827 132.906C411.12 131.893 414.4 133.373 417.294 134.866C417.96 141.453 406.614 142.839 404.294 137.253C403.427 134.839 406.094 133.693 407.827 132.906Z" fill="#C38367"/>
<path d="M202.934 85.6132C206.214 84.8132 210.107 86.1999 209.12 90.2399C207.134 90.9199 205.054 90.8666 203.04 90.3466C202.987 88.7599 202.947 87.1866 202.934 85.6132Z" fill="#C18164"/>
<path d="M156.8 104.947C163 97.4138 173.733 96.4672 182.787 97.4538C205.427 100.56 226.613 112.68 241.093 130.347C242.787 133.307 245.067 137 243.067 140.414C240.64 143.08 236.76 143.787 233.4 142.734C227.053 141.481 222.507 136.64 217.093 133.507C211.187 128.467 204.867 123.574 197.213 121.56C187.573 118.387 177.187 120.721 167.453 118.014C163.28 116.854 158.627 115.747 155.68 112.307C154.48 109.921 154.827 106.827 156.8 104.947Z" fill="#8B4627"/>
<path d="M138.214 146.094C142.2 140.041 149.814 138.108 156.587 137.268C162 137.588 167.414 138.121 172.827 138.468C182.387 138.321 191.6 141.868 199.44 147.148C205.96 151.614 212.334 156.868 216.014 164.014C218.334 168.814 219.8 174.828 217.227 179.814C214.667 184.588 207.614 185.014 203.774 181.614C198.8 177.188 195.72 171.014 190.534 166.801C183.734 161.321 174.214 160.508 165.947 162.321C159.534 164.801 152.56 167.481 145.64 165.321C137.88 163.148 133.747 152.921 138.214 146.094Z" fill="#8B4627"/>
<path d="M296.507 155.054C301.961 152.041 308.374 151.268 314.521 151.321C330.294 152.934 344.641 160.468 357.814 168.881C363.454 172.468 367.881 177.561 371.801 182.908C375.841 187.574 374.467 195.534 369.414 198.881C365.401 201.294 360.387 200.334 356.494 198.148C345.907 192.148 341.414 179.028 329.987 174.201C319.267 168.908 305.761 172.948 295.961 165.294C292.294 162.974 292.841 157.068 296.507 155.054Z" fill="#8B4627"/>
<path d="M285.881 186.267C300.561 182.893 316.707 185 329.534 193.12C338.747 198.573 348.747 204.947 352.347 215.64C354.534 222.013 350.907 229.267 344.654 231.573C338.747 234.373 332.107 231 327.907 226.72C323.827 223.04 322.254 217.4 318.014 213.867C312.707 209.24 305.907 205.667 298.707 206C291.894 206.253 285.561 209.387 278.814 209.933C272.614 210.333 267.601 203.707 270.067 197.853C272.881 191.653 279.521 187.933 285.881 186.267Z" fill="#8B4627"/>
<path d="M240.346 128.854C259.24 125.4 277.493 119.307 295.186 111.934C299.4 125.974 305.186 139.867 314.52 151.32C308.373 151.267 301.96 152.04 296.506 155.054C292.84 157.067 292.293 162.974 295.96 165.294C305.76 172.947 319.266 168.907 329.986 174.2C341.413 179.027 345.906 192.147 356.493 198.147C360.386 200.334 365.4 201.294 369.413 198.88C374.466 195.534 375.84 187.574 371.8 182.907C381.253 183.747 390.72 182.027 400.133 183.054C402.013 187.56 403.48 192.334 403.08 197.28C402.48 210.974 401.093 224.64 399.373 238.24C397.733 251.68 393.546 264.614 388.853 277.254C384.653 287.387 380.24 297.454 375.026 307.107C365.453 323.24 350.84 335.414 335.826 346.294C329.56 350.867 323 355.067 316.133 358.667C309.68 362.067 302.466 363.52 295.746 366.24C286.026 369.96 275.733 372.12 265.346 372.574C238.72 373.76 212.4 367.987 186.773 361.414C165.013 354.707 144.266 344.68 125.306 332.08C115.626 325.627 105.906 318.72 98.8263 309.36C84.1463 289.747 76.3463 265.627 74.013 241.4C73.1063 231.16 73.453 220.734 75.9996 210.734C79.293 195.48 83.9196 180.534 90.0396 166.174C95.253 153.84 99.7063 140.987 107.093 129.734C108.773 129.427 110.453 129.12 112.133 128.814C126.466 133.507 141.8 134.347 156.586 137.267C149.813 138.107 142.2 140.04 138.213 146.094C133.746 152.92 137.88 163.147 145.64 165.32C152.56 167.48 159.533 164.8 165.946 162.32C174.213 160.507 183.733 161.32 190.533 166.8C195.72 171.014 198.8 177.187 203.773 181.614C207.613 185.014 214.666 184.587 217.226 179.814C219.8 174.827 218.333 168.814 216.013 164.014C212.333 156.867 205.96 151.614 199.44 147.147C191.6 141.867 182.386 138.32 172.826 138.467C187.586 136.747 202.666 137.68 217.093 133.507C222.506 136.64 227.053 141.48 233.4 142.734C236.76 143.787 240.64 143.08 243.066 140.414C245.066 137 242.786 133.307 241.093 130.347L240.346 128.854ZM285.88 186.267C279.52 187.934 272.88 191.654 270.066 197.854C267.6 203.707 272.613 210.334 278.813 209.934C285.56 209.387 291.893 206.254 298.706 206C305.906 205.667 312.706 209.24 318.013 213.867C322.253 217.4 323.826 223.04 327.906 226.72C332.106 231 338.746 234.374 344.653 231.574C350.906 229.267 354.533 222.014 352.346 215.64C348.746 204.947 338.746 198.574 329.533 193.12C316.706 185 300.56 182.894 285.88 186.267ZM155.733 247.72C149.586 251.4 147.146 258.667 146.213 265.374C145.08 274.747 148.786 284.254 154.933 291.24C165.306 303.507 180.253 310.414 195.24 315.214C209.493 319.08 223.8 323.907 238.733 323.774C244.213 323.534 249.68 322.907 255.173 322.747C263.266 320.32 271.16 316.52 277.106 310.4C284.053 303.04 288.693 293.014 287.813 282.734C287.893 273.907 281.293 266.36 273.533 262.96L272.666 263.96L272.813 262.427C263.226 258.467 252.92 256.44 242.626 255.534C234.146 254.854 225.8 256.48 217.4 257.28C208.706 247.214 195.986 239.507 182.266 240.64C182.6 242.72 182.586 244.814 182.24 246.907C180.72 245.054 181.066 242.747 181.693 240.587C172.746 241.267 163.48 242.987 155.733 247.72Z" fill="#F6D09D"/>
<path d="M83.3068 125.547C92.8534 122.201 103.44 123.947 112.133 128.814C110.453 129.121 108.773 129.427 107.093 129.734C99.7068 140.987 95.2534 153.841 90.0401 166.174C83.9201 180.534 79.2934 195.481 76.0001 210.734C76.1334 210.001 76.4268 208.547 76.5601 207.827C70.0934 201.814 63.9334 195.201 60.6934 186.827C56.5734 176.574 54.2001 165.001 57.2134 154.121C60.7201 141.201 70.4801 129.827 83.3068 125.547Z" fill="#E7C08C"/>
<path d="M400.134 183.055C415.467 183.455 431.427 191.601 437.613 206.201C444.4 223.241 439.6 243.535 428.12 257.415C418.493 269.188 403.574 275.161 388.854 277.255C393.547 264.615 397.733 251.681 399.373 238.241C401.093 224.641 402.48 210.975 403.08 197.281C403.48 192.335 402.014 187.561 400.134 183.055Z" fill="#E7C08C"/>
<path d="M444.48 133.8C446.333 133.56 448.96 133.733 449.507 135.987C448.373 139.96 443.307 139.92 440.293 138.293C439.627 135.773 442.507 134.427 444.48 133.8Z" fill="#C28367"/>
<path d="M425.801 135.186C429.214 132.36 433.627 136.96 430.987 140.306C427.747 143.2 422.201 138.386 425.801 135.186Z" fill="#BF7E61"/>
<path d="M155.733 247.719C163.479 242.986 172.746 241.266 181.693 240.586C181.066 242.746 180.719 245.053 182.239 246.906C183.279 261.853 194.719 274.479 208.146 280.093C219.199 284.599 231.386 288.279 243.386 285.719C255.613 282.626 264.826 273.346 272.666 263.959L273.533 262.959C281.293 266.359 287.893 273.906 287.813 282.733C288.693 293.013 284.053 303.039 277.106 310.399C271.16 316.519 263.266 320.319 255.173 322.746C255.32 322.066 255.586 320.733 255.719 320.053C246.293 312.039 235.119 305.253 222.653 303.626C216.826 302.706 211.119 304.426 205.533 305.799C198.146 298.973 190.333 291.839 180.466 288.933C172.053 286.733 162.759 287.253 154.933 291.239C148.786 284.253 145.079 274.746 146.213 265.373C147.146 258.666 149.586 251.399 155.733 247.719Z" fill="#DB5A5F"/>
<path d="M182.267 240.64C195.987 239.507 208.707 247.213 217.4 257.28C225.8 256.48 234.147 254.853 242.627 255.533C252.92 256.44 263.227 258.467 272.814 262.427L272.667 263.96C264.827 273.347 255.614 282.627 243.387 285.72C231.387 288.28 219.2 284.6 208.147 280.093C194.72 274.48 183.28 261.853 182.24 246.907C182.587 244.813 182.6 242.72 182.267 240.64Z" fill="white"/>
<path d="M154.934 291.24C162.76 287.253 172.054 286.733 180.467 288.933C190.334 291.84 198.147 298.973 205.534 305.8C211.12 304.427 216.827 302.707 222.654 303.627C235.12 305.253 246.294 312.04 255.72 320.053C255.587 320.733 255.32 322.067 255.174 322.747C249.68 322.907 244.214 323.533 238.734 323.773C223.8 323.907 209.494 319.08 195.24 315.213C180.254 310.413 165.307 303.507 154.934 291.24Z" fill="#AB3B3F"/>
</g>
<defs>
<clipPath id="clip0_489_24746">
<rect width="478.667" height="390.667" fill="white"/>
</clipPath>
</defs>
</svg>
