<svg width="287" height="149" viewBox="0 0 287 149" fill="none" xmlns="http://www.w3.org/2000/svg">
<g clip-path="url(#clip0_3075_20796)">
<path d="M175.773 39.174C201.267 31.174 226.267 21.654 251.96 14.3074C254.147 13.2007 256.213 14.414 258.147 15.3874C258.107 17.614 257.92 19.8407 257.613 22.0407C255.4 35.574 260.08 48.8807 265.36 61.1207C265.333 62.9874 264.507 65.094 262.627 65.7607C254.427 67.9607 245.92 68.4674 237.533 69.5074C216.92 72.0007 196.173 73.1207 175.44 73.7607C174.827 72.0274 174.147 70.3074 173.467 68.5874C175.04 58.8674 176.293 49.0407 175.773 39.174Z" fill="#EFDD85"/>
<path d="M12.6797 37.9082C26.253 37.9882 39.853 37.8682 53.4397 38.4949C68.933 38.8149 84.4664 38.5482 99.9464 39.8015C94.173 50.9882 95.533 63.7482 96.9464 75.7615C96.253 78.8415 95.533 81.9215 95.0797 85.0549C78.0797 85.5482 61.1064 87.3615 44.0797 86.7215C39.4664 86.7082 34.8264 86.6149 30.3597 85.3749C29.653 83.7082 28.3597 81.9215 29.2797 80.0549C32.093 73.0682 32.5064 65.3349 30.3864 58.0949C26.693 49.5349 17.253 45.8282 12.6797 37.9082Z" fill="#EFDD85"/>
<path d="M257.613 22.0394C262.613 21.7194 267.893 19.5594 272.707 21.8527C273.96 26.466 271.467 30.786 270.56 35.1994C268.627 43.7994 267.533 52.5727 265.36 61.1194C260.08 48.8794 255.4 35.5727 257.613 22.0394Z" fill="#DBCB7E"/>
<path d="M8.54574 66.2529C8.18574 56.6929 8.79907 46.7863 12.6791 37.9062C17.2524 45.8263 26.6924 49.5329 30.3857 58.0929C23.9057 59.1462 16.3324 58.5329 10.9191 62.6796C8.21241 69.4796 14.8791 75.0796 15.3857 81.6129C10.3457 78.3329 9.21241 71.7862 8.54574 66.2529Z" fill="#DBCB7E"/>
<path d="M115.853 31.0792C124.413 26.9725 134.333 22.6392 143.906 25.9192C146.56 26.4658 149.2 29.1325 151.88 27.2392C157.693 24.1725 165.253 23.4925 170.906 27.2792C174.773 29.8792 175.76 34.7992 175.773 39.1725C176.293 49.0392 175.04 58.8658 173.466 68.5858C163.213 69.7725 153.493 73.8392 143.12 74.2792C142.733 71.4925 142.72 68.6125 141.706 65.9592C138.226 62.0258 132.506 60.9992 127.493 61.7058C116.266 63.1458 104.773 67.2525 96.9464 75.7592C95.533 63.7458 94.173 50.9858 99.9464 39.7992C102.173 32.9592 109.773 32.0125 115.853 31.0792Z" fill="#EAEAEA"/>
<path d="M10.9195 62.6804C16.3329 58.5337 23.9062 59.1471 30.3862 58.0938C32.5062 65.3337 32.0929 73.0671 29.2796 80.0538C24.8262 81.5338 20.1729 82.5071 15.4662 82.1337L15.3862 81.6137C14.8795 75.0804 8.21288 69.4804 10.9195 62.6804Z" fill="#BDB070"/>
<path d="M127.493 61.707C132.507 61.0004 138.227 62.027 141.707 65.9604C142.72 68.6137 142.733 71.4937 143.12 74.2804C153.493 73.8404 163.213 69.7737 173.467 68.587C174.147 70.307 174.827 72.027 175.44 73.7604C177.24 80.267 175.36 87.0804 173.907 93.467C172.44 99.067 169.44 104.427 164.44 107.56C164.387 113.787 168.88 121.92 163.027 126.707C151.533 132.987 137.987 132.64 125.267 132.654C120.667 132.374 115.68 133.32 111.493 130.88C109.227 125.054 108.6 118.707 108.333 112.507C98.9467 106.88 95.2001 95.4804 95.0801 85.0537C95.5334 81.9204 96.2534 78.8404 96.9468 75.7604C104.773 67.2537 116.267 63.147 127.493 61.707Z" fill="#D8D8D8"/>
</g>
<defs>
<clipPath id="clip0_3075_20796">
<rect width="287" height="149" fill="white"/>
</clipPath>
</defs>
</svg>
