<svg width="323" height="640" viewBox="0 0 323 640" fill="none" xmlns="http://www.w3.org/2000/svg">
<path d="M40.1348 1.90707C45.2148 1.61374 50.3348 1.58707 55.3882 2.29374L55.3748 2.46707C55.3748 4.30707 55.2548 6.13374 55.0415 7.94707C54.4148 10.8271 50.8415 9.17374 48.8548 9.81374C45.7215 9.49374 42.6282 8.94707 39.5215 8.4804C39.7215 6.2804 39.9348 4.09374 40.1348 1.90707Z" fill="#FEF4AA"/>
<path d="M55.3749 2.4668C57.1883 7.2668 55.5083 12.3601 55.4416 17.2935C53.7083 33.2401 52.7083 49.3468 49.3749 65.0535C46.6016 73.1601 44.5083 81.4801 42.4549 89.7868C40.6683 87.7335 38.8416 85.6935 37.2949 83.4401C39.5616 68.1201 41.5483 52.7468 44.0949 37.4668C45.7883 28.2668 46.1883 18.8135 48.8549 9.81346C50.8416 9.17346 54.4149 10.8268 55.0416 7.9468C55.2549 6.13346 55.3749 4.3068 55.3749 2.4668Z" fill="#C9B26B"/>
<path d="M39.5202 8.48047C42.6268 8.94714 45.7202 9.4938 48.8535 9.8138C46.1868 18.8138 45.7868 28.2671 44.0935 37.4671C41.5469 52.7471 39.5602 68.1205 37.2935 83.4405C35.3735 78.4271 33.5468 73.3471 30.8535 68.6805C34.3068 48.7071 36.5202 28.5205 39.5202 8.48047Z" fill="#F9EA7A"/>
<path d="M49.3731 65.0528C54.6531 62.5061 60.6131 65.3195 63.2531 70.2128C63.5598 75.2128 63.8398 80.5461 61.4665 85.1328C58.2665 91.5995 53.3065 97.1595 51.1465 104.133C51.1465 103.266 51.1331 101.506 51.1198 100.626C48.7465 99.7328 46.0265 99.4128 44.0131 97.7995C42.9998 95.2528 42.7465 92.4928 42.4531 89.7861C44.5065 81.4795 46.5998 73.1595 49.3731 65.0528Z" fill="#DEDEDE"/>
<path d="M8.04102 68.013C8.54768 65.2797 11.5077 65.413 13.4677 66.453C16.1743 70.1997 17.8277 74.573 19.9877 78.6397C27.1343 93.4797 34.4143 108.253 41.8943 122.933C43.2143 125.693 44.5743 128.426 45.801 131.24C47.8543 131.24 49.9077 131.2 51.961 131.16C83.7077 129.88 115.441 127.76 147.174 126.066C147.174 128 147.174 129.933 147.188 131.866C113.894 133.786 80.5877 135.146 47.281 136.426C45.4677 136.28 43.6543 136.093 41.841 135.893C31.801 117.226 22.8277 97.9997 13.241 79.093C11.3877 75.4663 9.53435 71.813 8.04102 68.013Z" fill="#FBEB9E"/>
<path d="M5.5332 69.2935C5.9332 68.4402 6.7332 66.7202 7.11987 65.8535L8.03987 68.0135C9.5332 71.8135 11.3865 75.4668 13.2399 79.0935C22.8265 98.0002 31.7999 117.227 41.8399 135.894C43.6532 136.094 45.4665 136.28 47.2799 136.427C45.8399 136.72 44.4132 137.027 42.9865 137.347C42.2799 171.374 45.7332 205.4 43.8665 239.414C43.1732 236.614 42.6932 233.667 41.1865 231.16C39.1599 228.147 33.1999 229.307 33.2665 233.294C33.0265 239.334 34.5065 245.28 35.3465 251.227C28.1732 245.707 21.6799 239.374 15.1865 233.094C12.9332 196.387 10.8799 159.68 8.62654 122.974C8.02654 113.934 7.70654 104.88 6.91987 95.8669C6.5332 87.0002 6.02654 78.1469 5.5332 69.2935Z" fill="#EFDD85"/>
<path d="M22.2683 76.9194C21.9616 72.426 25.7349 64.8927 30.8549 68.6794C33.5483 73.346 35.3749 78.426 37.2949 83.4394C38.8416 85.6927 40.6683 87.7327 42.4549 89.786C42.7483 92.4927 43.0016 95.2527 44.0149 97.7994C46.0283 99.4127 48.7483 99.7327 51.1216 100.626C51.1349 101.506 51.1483 103.266 51.1483 104.133C50.8149 111.173 47.8283 117.719 43.3616 123.079L42.5616 124.159L41.8949 122.933C34.4149 108.253 27.1349 93.4794 19.9883 78.6394C20.5616 78.1994 21.6949 77.346 22.2683 76.9194Z" fill="white"/>
<path d="M33.2682 233.292C33.2015 229.305 39.1615 228.145 41.1882 231.159C42.6948 233.665 43.1748 236.612 43.8682 239.412C44.2682 242.612 44.7082 245.812 45.1215 249.025C46.3348 257.625 48.0415 266.665 53.2282 273.839C56.1348 277.972 61.2548 279.079 65.8682 280.159C64.5215 272.932 62.2548 265.959 60.1882 258.932C58.8282 252.319 63.6282 241.999 71.6415 244.692C74.4548 248.119 75.5348 252.559 77.1482 256.612C79.4148 263.079 82.5348 269.199 84.9082 275.625C85.2282 276.652 85.8815 278.679 86.2015 279.705C77.2148 288.679 64.0015 293.185 51.4415 290.599C39.1482 286.132 39.0415 271.199 36.6682 260.452C36.2282 257.372 35.8415 254.292 35.3482 251.225C34.5082 245.279 33.0282 239.332 33.2682 233.292Z" fill="white"/>
<path d="M63.2547 70.2129C64.908 73.8262 64.8413 77.7862 63.948 81.5862C64.7213 81.7462 66.2813 82.0396 67.0547 82.1996C67.628 84.3996 68.3613 86.5729 68.9747 88.7596C70.4947 100.573 69.188 114.813 59.588 123.08C54.6813 126.013 47.8013 127.866 43.3613 123.08C47.828 117.72 50.8147 111.173 51.148 104.133C53.308 97.1596 58.268 91.5996 61.468 85.1329C63.8413 80.5462 63.5613 75.2129 63.2547 70.2129Z" fill="#C0C0C0"/>
<path d="M68.9746 88.7601C73.1079 88.4801 77.6679 88.7201 81.0546 91.4134C82.1746 98.4401 81.5879 105.92 79.6679 112.787C77.4812 121.027 67.6946 127.2 59.5879 123.08C69.1879 114.813 70.4946 100.573 68.9746 88.7601Z" fill="#437587"/>
<path d="M1.26732 108.121C0.867323 103.321 3.78732 99.1605 6.92066 95.8672C7.70732 104.881 8.02732 113.934 8.62732 122.974C6.14732 118.041 1.40066 114.014 1.26732 108.121Z" fill="#FDFDFD"/>
<path opacity="0.49" d="M68.2143 129.787C96.3076 128.374 124.388 126.44 152.481 125.307C155.321 125.067 155.708 128.467 155.668 130.534C155.894 140.907 157.588 151.2 157.334 161.6C155.614 150.68 156.174 139.547 154.441 128.654C154.014 125.72 150.334 126.267 148.201 126.04L147.174 126.067C115.441 127.76 83.7076 129.88 51.9609 131.16C57.3343 130.28 62.7743 129.96 68.2143 129.787Z" fill="#716743"/>
<path d="M147.174 126.066L148.201 126.039C149.001 149.919 151.134 173.732 152.788 197.559C154.588 228.492 157.321 259.359 158.854 290.319C145.108 287.266 131.361 284.239 117.628 281.132C106.814 278.812 96.0009 276.132 84.9075 275.626C82.5342 269.199 79.4142 263.079 77.1475 256.612C75.5342 252.559 74.4542 248.119 71.6409 244.692C63.6275 241.999 58.8275 252.319 60.1875 258.932C58.2009 259.079 56.2142 259.212 54.2275 259.359C54.3075 253.039 55.2142 246.679 54.4942 240.372C54.0809 237.092 50.0009 238.039 47.6942 237.466C46.8009 241.306 45.8809 245.146 45.1209 249.026C44.7075 245.812 44.2675 242.612 43.8675 239.412C45.7342 205.399 42.2809 171.372 42.9875 137.346C44.4142 137.026 45.8409 136.719 47.2809 136.426C80.5875 135.146 113.894 133.786 147.188 131.866C147.174 129.932 147.174 127.999 147.174 126.066Z" fill="#E4CA8F"/>
<path d="M148.202 126.039C150.335 126.266 154.015 125.719 154.442 128.652C156.175 139.546 155.615 150.679 157.335 161.599C160.522 202.826 163.175 244.119 166.255 285.359C166.402 289.386 167.002 293.412 166.628 297.426C165.148 299.626 162.295 296.986 160.215 296.866C137.175 291.492 113.988 286.706 90.8949 281.586C89.5349 281.252 88.2282 280.772 86.9882 280.132L86.2015 279.706C85.8815 278.679 85.2282 276.652 84.9082 275.626C96.0015 276.132 106.815 278.812 117.628 281.132C131.362 284.239 145.108 287.266 158.855 290.319C157.322 259.359 154.588 228.492 152.788 197.559C151.135 173.732 149.002 149.919 148.202 126.039Z" fill="#C3A765"/>
<path d="M15.1875 233.092C21.6808 239.372 28.1742 245.705 35.3475 251.225C35.8408 254.292 36.2275 257.372 36.6675 260.452C29.7608 253.692 23.7742 246.065 16.9608 239.225C14.9742 237.772 15.3608 235.225 15.1875 233.092Z" fill="#C3A765"/>
<path d="M47.6944 237.467C50.0011 238.04 54.0811 237.093 54.4944 240.373C55.2144 246.68 54.3078 253.04 54.2278 259.36C56.2144 259.213 58.2011 259.08 60.1878 258.933C62.2544 265.96 64.5211 272.933 65.8678 280.16C61.2544 279.08 56.1344 277.973 53.2278 273.84C48.0411 266.667 46.3344 257.627 45.1211 249.027C45.8811 245.147 46.8011 241.307 47.6944 237.467Z" fill="#DEE7EA"/>
<path d="M51.4414 290.6C64.0014 293.187 77.2147 288.68 86.2014 279.707L86.9881 280.134C91.1747 281.934 93.0147 287.494 90.2947 291.28C86.4547 296.694 79.6814 298.654 73.7081 300.667C68.5081 302.04 63.0547 303.627 57.6547 302.747C52.2014 301.574 51.6147 295.174 51.4414 290.6Z" fill="#427487"/>
<path d="M272.348 495.973C285.121 490.413 299.988 489.813 312.948 495.093C312.175 498.506 311.415 501.933 310.575 505.333C304.641 515.573 304.548 527.8 302.135 539.12C295.868 539.48 289.588 539.826 283.321 540.146C280.041 528.88 276.335 517.72 271.655 506.96L271.281 506.08C271.828 506.16 272.921 506.306 273.468 506.386C273.015 502.92 272.615 499.453 272.348 495.973Z" fill="#4E939C"/>
<path d="M167.08 502.614C177.147 496.8 191.08 496.147 200.253 504.014C204.04 506.934 206.16 511.28 208.08 515.534C205.613 519.547 203.96 523.987 203.347 528.68C202.04 536.867 200.533 545.027 198.893 553.16C194.28 551.48 189.413 550.04 185.627 546.787C182.587 544.214 179.72 541.467 176.613 538.987C175.187 538.04 175.253 536.107 174.693 534.68C172.213 523.974 168.68 513.507 167.08 502.614Z" fill="#4E939C"/>
<path d="M217.454 571.693C221.12 568.346 221.76 563.093 222.507 558.453C222.267 566.093 225.56 576.413 217.894 581.506C199.894 592.573 179.16 597.893 159.147 604.106C148.547 606.786 137.947 610.64 126.88 610.426C121.694 610.186 120.24 604.186 119.094 600.12C122.774 602 126.814 603.88 131.04 602.626C142.427 600.2 153.614 596.8 164.387 592.386C177.294 588.653 190.067 584.44 202.627 579.626C207.787 577.453 213.147 575.386 217.454 571.693Z" fill="#4E939C"/>
<path d="M302.135 539.121C304.549 527.801 304.642 515.574 310.575 505.334C312.682 507.734 316.135 509.187 317.522 512.054C315.269 522.641 313.002 533.241 311.469 543.974C311.069 545.734 312.055 547.361 312.535 549.014C316.989 561.707 319.789 574.987 320.735 588.414C308.989 582.534 295.709 578.841 282.509 580.681C276.669 581.507 271.335 584.201 266.122 586.801C266.215 582.801 266.535 578.827 266.762 574.854C266.695 574.614 266.575 574.147 266.509 573.921L266.429 573.561C268.629 564.041 270.175 554.334 273.842 545.227C271.935 533.494 266.175 522.734 263.615 511.147C266.322 509.801 268.989 508.374 271.655 506.961C276.335 517.721 280.042 528.881 283.322 540.147C289.589 539.827 295.869 539.481 302.135 539.121Z" fill="#99DDD7"/>
<path d="M208.082 515.533C213.588 516.493 218.202 520.04 222.055 523.907C222.948 526.907 222.588 530.133 222.695 533.24C222.428 541.64 223.028 550.067 222.508 558.453C221.762 563.093 221.122 568.347 217.455 571.693C213.148 575.387 207.788 577.453 202.628 579.627C190.068 584.44 177.295 588.653 164.388 592.387C161.095 583.973 157.615 575.493 151.948 568.347C147.442 562.32 141.455 557.693 136.295 552.28C149.575 547.493 162.548 541 176.615 538.987C179.722 541.467 182.588 544.213 185.628 546.787C189.415 550.04 194.282 551.48 198.895 553.16C200.535 545.027 202.042 536.867 203.348 528.68C203.962 523.987 205.615 519.547 208.082 515.533Z" fill="#99DDD7"/>
<path d="M115.574 573.359C118.961 563.693 127.161 556.453 136.294 552.279C141.454 557.693 147.441 562.319 151.947 568.346C157.614 575.493 161.094 583.973 164.387 592.386C153.614 596.799 142.427 600.199 131.041 602.626C126.814 603.879 122.774 601.999 119.094 600.119C114.787 591.973 113.041 582.333 115.574 573.359Z" fill="#7DB7B2"/>
<path d="M282.508 580.679C295.708 578.839 308.988 582.532 320.734 588.412C320.601 592.199 320.748 595.999 320.628 599.812C318.974 606.972 316.761 614.919 310.441 619.412C305.001 623.039 298.308 624.785 291.801 624.625C282.094 624.132 274.908 616.359 270.361 608.465C266.454 601.972 266.281 594.145 266.121 586.799C271.334 584.199 276.668 581.505 282.508 580.679Z" fill="#7DB7B2"/>
<path d="M266.428 573.652L266.508 573.919C266.574 574.146 266.694 574.612 266.761 574.852C266.534 578.826 266.214 582.799 266.121 586.799C266.281 594.146 266.454 601.972 270.361 608.466C274.908 616.359 282.094 624.132 291.801 624.626C298.308 624.786 305.001 623.039 310.441 619.412C316.761 614.919 318.974 606.972 320.628 599.812C321.868 606.932 321.268 614.199 320.228 621.319C318.628 628.119 313.588 634.359 306.841 636.572C297.694 639.732 286.868 639.279 278.934 633.292C269.854 628.452 265.934 617.772 265.908 607.972C265.854 596.532 265.454 585.052 266.428 573.652Z" fill="#4F939C"/>
</svg>
