<svg width="60" height="55" viewBox="0 0 60 55" fill="none" xmlns="http://www.w3.org/2000/svg">
<g clip-path="url(#clip0_509_26000)">
<path d="M28.2863 0.274857C28.5373 0.257053 28.7901 0.257053 29.043 0.276638C29.1409 0.525896 29.2602 0.766252 29.4062 0.990584C29.2157 1.83628 29.326 2.70334 29.3492 3.55972C29.4667 5.64103 29.4418 7.72946 29.5878 9.80898C29.5753 10.0849 29.7338 10.3111 29.9225 10.4944C30.9872 11.5698 32.1551 12.533 33.2821 13.539C36.9444 16.9413 40.6887 20.2511 44.3866 23.6143C46.5159 25.4944 48.5848 27.444 50.732 29.301C52.8079 28.1651 54.802 26.8832 56.8459 25.6938C57.5901 25.2844 58.2631 24.736 59.075 24.4618C59.5468 24.5152 59.9795 25.2576 59.4471 25.5479C56.634 27.2553 53.7872 28.9093 50.9688 30.6078C50.3866 30.8998 49.9806 30.339 49.5872 30.006C44.4792 25.3805 39.3622 20.7621 34.2489 16.1419C32.5361 14.6535 30.8964 13.076 29.1427 11.6357C28.7367 11.8084 28.4519 12.1841 28.1136 12.4582C21.8056 18.0203 15.4887 23.5716 9.26788 29.2298C8.95453 29.5111 8.55393 29.8974 8.12663 29.5894C5.73553 28.3039 3.31061 27.0844 0.91773 25.8025C0.387166 25.5924 0.53138 24.8321 0.985386 24.6149C1.3931 24.7449 1.80438 24.8731 2.18361 25.076C3.99785 26.0588 5.86016 26.9526 7.66728 27.9532C7.97352 28.0867 8.35453 28.3983 8.63583 28.0493C14.3866 23.0001 20.1249 17.9348 25.8703 12.8784C26.6999 12.0861 27.7005 11.4416 28.3628 10.4944C28.4697 8.77812 28.2596 7.05646 28.2471 5.33836C28.2382 3.83035 28.151 2.3259 28.0424 0.821445C28.1029 0.63094 28.1848 0.449338 28.2863 0.274857Z" fill="#7EB1C0"/>
<path d="M15.3345 11.9748C19.5808 8.26796 23.7684 4.49526 28.0413 0.822266C28.15 2.32672 28.2372 3.83117 28.2461 5.33918C28.2586 7.05728 28.4686 8.77894 28.3618 10.4953C27.6995 11.4424 26.6989 12.087 25.8692 12.8792C20.1238 17.9356 14.3856 23.0009 8.63482 28.0502C8.35351 28.3991 7.97251 28.0875 7.66627 27.954C5.85915 26.9534 3.99684 26.0597 2.18259 25.0769C1.80337 24.8739 1.39209 24.7457 0.984375 24.6157C5.77013 20.4051 10.5541 16.1908 15.3345 11.9748Z" fill="#6A8790"/>
<path d="M29.3497 3.56133C29.3265 2.70495 29.2161 1.83788 29.4067 0.992188C39.3271 8.77616 49.1657 16.667 59.0755 24.4634C58.2636 24.7376 57.5906 25.286 56.8464 25.6955C54.8025 26.8848 52.8084 28.1667 50.7325 29.3026C48.5853 27.4456 46.5164 25.496 44.3871 23.6159C40.6891 20.2527 36.9449 16.9429 33.2826 13.5406C32.1556 12.5346 30.9877 11.5714 29.923 10.496C29.7342 10.3127 29.5758 10.0865 29.5883 9.81059C29.4423 7.73106 29.4672 5.64263 29.3497 3.56133Z" fill="#6A8790"/>
<path d="M14.0491 40.7541C16.7838 40.7167 19.5203 40.7291 22.2533 40.7808C22.2622 45.2282 22.2355 49.6775 22.2675 54.125C20.1363 54.1908 18.0016 54.1891 15.8705 54.1873C15.2616 54.141 14.6527 54.125 14.0438 54.1268C14.0028 49.6704 13.9975 45.2104 14.0491 40.7541Z" fill="#6A8790"/>
<path d="M28.1159 12.4593C28.4541 12.1851 28.739 11.8094 29.1449 11.6367C30.8986 13.0771 32.5384 14.6545 34.2512 16.143C39.3645 20.7631 44.4814 25.3815 49.5894 30.007C49.9829 30.34 50.3888 30.9008 50.971 30.6088C51.0405 31.978 51.142 33.3471 51.1153 34.7198C51.3467 40.353 51.4891 45.9934 51.7918 51.6231C51.774 52.2996 51.9681 53.01 51.7046 53.6599C51.507 53.7453 51.3129 53.8682 51.0868 53.8575C47.5295 53.902 43.9687 53.8771 40.4132 53.9732C34.3651 54.0142 28.317 54.0516 22.2707 54.1246C22.2387 49.6771 22.2654 45.2278 22.2565 40.7803C22.2565 40.645 22.2565 40.3744 22.2565 40.2373C19.3491 40.2373 16.4417 40.2355 13.5342 40.2391C13.5307 44.8682 13.5325 49.4973 13.5325 54.1263C13.6607 54.1263 13.917 54.1263 14.047 54.1263C14.6559 54.1246 15.2648 54.1406 15.8737 54.1869C13.7248 54.2011 11.5758 54.2367 9.42861 54.2278C9.03514 54.283 8.80368 53.9447 8.65947 53.6332C8.44226 45.6195 8.34256 37.6023 8.12891 29.5904C8.55621 29.8984 8.9568 29.5121 9.27015 29.2308C15.4909 23.5726 21.8078 18.0213 28.1159 12.4593ZM26.517 16.3459C25.2298 17.5566 23.9034 18.7263 22.6233 19.9424C22.3473 20.1489 22.5521 20.5691 22.8886 20.4658C23.6274 20.5673 24.3734 20.5139 25.1159 20.5192C28.1977 20.5139 31.2814 20.4996 34.3633 20.4978C34.7034 20.4765 35.0844 20.5388 35.3799 20.3287C35.4779 20.3162 35.6755 20.2949 35.7734 20.2824C35.558 19.6717 34.9722 19.321 34.5521 18.8634C33.5248 17.9269 32.5918 16.8818 31.5271 15.9934C30.0992 15.9275 28.666 16.0059 27.2381 15.9524C26.9319 15.9062 26.7253 16.1714 26.517 16.3459ZM32.2304 32.9412C32.225 37.1536 32.225 41.3643 32.2304 45.575C32.4494 45.575 32.6684 45.5768 32.8874 45.5803C36.2844 45.5732 39.6832 45.5857 43.0802 45.5714C43.0927 41.6919 43.0927 37.8124 43.0802 33.9346C43.0838 33.6035 43.0874 33.2741 43.0909 32.9447C39.4696 32.934 35.85 32.9358 32.2304 32.9412ZM13.5503 36.5394C13.52 37.1946 13.5236 37.8498 13.5342 38.505C13.6749 38.505 13.9526 38.505 14.0915 38.505C14.1022 38.245 14.1058 37.9833 14.104 37.7234C14.1253 37.9851 14.1877 38.2415 14.2286 38.5032C16.9028 38.5192 19.5788 38.5388 22.2512 38.4925C22.2583 38.0581 22.2601 37.6237 22.2547 37.1892C22.0072 37.1554 21.7633 37.1091 21.5158 37.0949C21.7651 37.0789 22.0161 37.0575 22.2654 37.029C22.2547 36.9097 22.2316 36.6711 22.2209 36.5536C19.3313 36.5697 16.4399 36.575 13.5503 36.5394Z" fill="#C9DBDF"/>
<path d="M26.5147 16.3461C26.723 16.1716 26.9295 15.9063 27.2357 15.9526C28.6636 16.006 30.0969 15.9277 31.5248 15.9936C32.5895 16.882 33.5224 17.9271 34.5497 18.8636C34.9699 19.3211 35.5556 19.6719 35.7711 20.2826C35.6731 20.295 35.4755 20.3164 35.3776 20.3289C33.9515 19.1556 32.7693 17.7259 31.4803 16.4102C30.0399 16.4832 28.5942 16.4618 27.1556 16.5223C25.669 17.7579 24.307 19.1502 22.8862 20.466C22.5497 20.5692 22.3449 20.149 22.6209 19.9425C23.901 18.7265 25.2274 17.5568 26.5147 16.3461Z" fill="#94A9AF"/>
<path d="M27.1562 16.5223C28.5947 16.4618 30.0404 16.4832 31.4808 16.4102C32.7698 17.7259 33.952 19.1556 35.3781 20.3289C35.0826 20.5389 34.7016 20.4766 34.3615 20.498C31.2796 20.4998 28.1959 20.514 25.114 20.5194C24.3716 20.514 23.6256 20.5674 22.8867 20.4659C24.3075 19.1502 25.6695 17.7579 27.1562 16.5223Z" fill="white"/>
<path d="M32.8953 34.0406C36.2888 34.0228 39.6894 34.1795 43.0775 33.9355C43.09 37.8133 43.09 41.6928 43.0775 45.5723C39.6805 45.5866 36.2817 45.5741 32.8847 45.5812C32.9808 42.6169 33.036 39.6489 32.9594 36.6827C32.9274 35.8014 32.8437 34.9219 32.8953 34.0406Z" fill="white"/>
<path d="M14.0742 37.0586C16.5526 37.0657 19.0327 37.0817 21.5128 37.0942C21.7603 37.1084 22.0042 37.1547 22.2517 37.1886C22.257 37.623 22.2552 38.0574 22.2481 38.4918C19.5757 38.5381 16.8997 38.5185 14.2256 38.5025C14.1846 38.2408 14.1223 37.9844 14.1009 37.7227C14.092 37.5001 14.0831 37.2794 14.0742 37.0586Z" fill="white"/>
<path d="M32.2267 32.9398C35.8462 32.9345 39.4658 32.9327 43.0872 32.9434C43.0836 33.2727 43.0801 33.6021 43.0765 33.9333C39.6884 34.1772 36.2878 34.0205 32.8943 34.0383C32.8427 34.9196 32.9264 35.7991 32.9584 36.6804C33.035 39.6466 32.9798 42.6146 32.8836 45.579C32.6646 45.5754 32.4457 45.5736 32.2267 45.5736C32.2213 41.3629 32.2213 37.1523 32.2267 32.9398Z" fill="#98ACB2"/>
<path d="M13.5472 36.5391C16.4368 36.5747 19.3282 36.5693 22.2178 36.5533C22.2285 36.6708 22.2516 36.9094 22.2623 37.0287C22.013 37.0572 21.762 37.0785 21.5128 37.0946C19.0326 37.0821 16.5525 37.0661 14.0742 37.0589C14.0831 37.2797 14.092 37.5005 14.1009 37.723C14.1027 37.983 14.0991 38.2447 14.0884 38.5046C13.9495 38.5046 13.6718 38.5046 13.5312 38.5046C13.5205 37.8494 13.5169 37.1943 13.5472 36.5391Z" fill="#93A7AE"/>
<path d="M13.5335 40.2405C16.4409 40.2369 19.3483 40.2387 22.2557 40.2387C22.2557 40.3758 22.2557 40.6464 22.2557 40.7818C19.5228 40.7301 16.7863 40.7177 14.0516 40.755C13.9999 45.2114 14.0053 49.6714 14.0462 54.1277C13.9163 54.1277 13.6599 54.1277 13.5317 54.1277C13.5317 49.4987 13.5299 44.8696 13.5335 40.2405Z" fill="#446671"/>
</g>
<defs>
<clipPath id="clip0_509_26000">
<rect width="60" height="54.4807" fill="white"/>
</clipPath>
</defs>
</svg>
