<svg width="372" height="463" viewBox="0 0 372 463" fill="none" xmlns="http://www.w3.org/2000/svg">
<g clip-path="url(#clip0_3075_20796)">
<path d="M58.693 59.7586C64.0663 58.3053 69.1463 55.772 74.653 54.8386C77.3063 54.1186 78.2263 57.372 79.0797 59.172C83.7597 70.7453 89.973 81.9053 92.6797 94.132C88.3997 100.785 81.0397 104.745 73.773 107.465C71.3197 108.159 68.0663 110.879 66.0397 108.012C61.413 101.745 59.8663 93.452 54.1597 87.9453C53.1997 87.7053 51.2797 87.212 50.3197 86.972C51.0663 93.292 53.8797 99.4253 53.1063 105.879C52.3997 111.412 46.0797 115.025 40.8663 113.279C34.013 111.479 30.053 105.172 26.413 99.6253C22.333 93.452 20.9063 86.0386 19.4263 78.9186C18.9463 73.8253 23.173 70.292 25.3197 66.1053C33.9997 57.852 47.5863 54.7186 58.693 59.7586Z" fill="#EAEAEA"/>
<path d="M3.33297 91.8933C7.69297 86.5199 13.333 82.1599 19.4263 78.9199C20.9063 86.0399 22.333 93.4533 26.413 99.6266C30.053 105.173 34.013 111.48 40.8663 113.28C46.0796 115.027 52.3996 111.413 53.1063 105.88C53.8796 99.4266 51.0663 93.2933 50.3196 86.9733C51.2796 87.2133 53.1996 87.7066 54.1596 87.9466C59.8663 93.4532 61.413 101.747 66.0396 108.013C68.0663 110.88 71.3196 108.16 73.773 107.467C73.1996 112.013 74.5996 116.8 72.813 121.173C70.7863 127.2 65.2396 130.893 60.1996 134.253C53.9996 138.093 47.773 142.147 40.773 144.387C36.9996 145.52 32.5996 145.8 29.0396 143.853C25.213 141.427 22.2263 137.867 20.0796 133.907C13.1863 130.4 6.77297 124.413 6.97297 116.067C1.13297 109.787 -2.10703 99.3999 3.33297 91.8933Z" fill="#D8D8D8"/>
<path d="M270.039 303.04C273.746 302.067 277.506 301.44 281.319 301.094L281.626 301.267C284.759 303.08 288.172 304.667 290.599 307.44C295.759 313.147 296.906 321.187 301.666 327.2C305.146 333.787 305.026 341.56 308.279 348.24C311.412 355.76 317.426 361.36 323.479 366.56C324.786 368.16 326.786 368.427 328.706 367.894C326.492 369.747 327.559 372.827 327.239 375.334C327.439 379.854 325.959 384.254 323.492 388.014C322.239 382.68 320.839 377.12 316.999 373.014C313.692 368.787 308.626 366.334 305.492 361.987C302.359 355.534 301.519 348.254 298.959 341.587C294.826 330.56 290.466 319.174 282.479 310.28C279.279 306.494 274.532 304.76 270.039 303.04Z" fill="#974E4B"/>
<path d="M281.627 301.267C288.654 301.201 296.52 303.027 300.6 309.281C303.32 313.641 306.187 319.494 303.707 324.507C303.014 325.401 302.334 326.294 301.667 327.201C296.907 321.187 295.76 313.147 290.6 307.441C288.174 304.667 284.76 303.081 281.627 301.267Z" fill="#FCFAEA"/>
<path d="M178.64 323.108C182.173 320.988 185.546 318.588 188.6 315.814C189.133 315.881 190.213 316.028 190.746 316.094C197.026 330.148 205.853 342.908 214.506 355.521C217 365.454 228.026 372.614 225.733 383.734C214.12 391.188 204.68 402.214 199.613 415.081C199.293 415.828 198.653 417.321 198.333 418.068C198.026 418.774 197.4 420.161 197.093 420.854C195.533 422.988 194.24 425.321 193.4 427.854C192.933 428.508 191.986 429.814 191.506 430.468C191.426 430.574 191.28 430.774 191.2 430.881C188.146 435.148 184.266 438.934 179.413 441.068C177.2 426.494 166.706 415.201 155.64 406.361C154.226 405.508 152.706 404.934 151.066 404.628C151.306 403.641 151.8 401.668 152.04 400.681C157.76 391.788 159.8 381.148 165.213 372.148C165.626 371.921 166.44 371.494 166.853 371.268C177.933 374.454 191.746 372.988 199.573 363.708C190.733 351.241 183.56 337.601 178.64 323.108Z" fill="#FCFAEA"/>
<path d="M308.279 348.241C320.079 338.055 332.786 328.521 347.466 322.895L348.333 322.521C351.293 328.481 353.773 334.682 356.613 340.708C354.693 346.228 349.559 349.428 345.093 352.708C338.946 356.988 333.893 362.561 328.706 367.895C326.786 368.428 324.786 368.161 323.479 366.561C317.426 361.361 311.413 355.761 308.279 348.241Z" fill="#FCFAEA"/>
<path d="M253.521 332.692C254.414 321.346 257.561 306.786 270.041 303.039C274.534 304.759 279.281 306.492 282.481 310.279C290.468 319.172 294.828 330.559 298.961 341.586C301.521 348.252 302.361 355.532 305.494 361.986C308.628 366.332 313.694 368.786 317.001 373.012C320.841 377.119 322.241 382.679 323.494 388.012L323.508 388.066C319.988 393.372 316.534 399.052 310.574 401.959C303.468 406.826 294.521 403.359 287.881 399.426C281.494 395.879 278.961 388.679 275.321 382.799C272.508 377.679 267.721 374.106 264.561 369.239C256.854 358.839 251.494 345.839 253.521 332.692Z" fill="#79403E"/>
<path d="M199.614 415.08C204.681 402.213 214.121 391.186 225.734 383.733C230.321 381.986 232.961 387.64 232.054 391.266C230.361 397.746 223.787 400.866 220.307 406.186C212.161 415.613 212.134 429.04 205.227 439.16C198.227 450.253 185.814 456.8 173.254 459.413C158.854 462.333 143.827 463.733 129.334 460.72C126.387 460.173 123.094 458.72 122.481 455.453C121.774 450.053 123.454 444.72 123.387 439.32C131.134 441.386 138.707 444.386 146.801 444.92C157.721 445.693 169.334 446.04 179.414 441.066C184.267 438.933 188.147 435.146 191.201 430.88C191.281 430.773 191.427 430.573 191.507 430.466C191.987 429.813 192.934 428.506 193.401 427.853C197.374 428.32 197.401 423.573 197.094 420.853C197.401 420.16 198.027 418.773 198.334 418.066C198.654 417.32 199.294 415.826 199.614 415.08Z" fill="#79403E"/>
<path d="M165.146 311.186C171.84 309.92 178.84 307.853 185.64 309.693C188.333 310.386 189.44 313.293 188.6 315.813C185.546 318.586 182.173 320.986 178.64 323.106C169.466 328.613 158.786 331.533 148.186 332.533C144.693 331.546 145.12 326.693 146.2 324.013C150.28 317.213 158.16 314.12 165.146 311.186Z" fill="#91413E"/>
<path d="M326.013 309.014C331.586 306.227 337.786 309.44 342.079 313.107C344.759 315.774 348.746 318.587 347.466 322.894C332.786 328.52 320.079 338.054 308.279 348.24C305.026 341.56 305.146 333.787 301.666 327.2C302.333 326.294 303.013 325.4 303.706 324.507C310.773 318.894 317.759 312.867 326.013 309.014Z" fill="#C35F5B"/>
<path d="M148.188 332.534C158.788 331.534 169.467 328.614 178.641 323.107C183.561 337.601 190.734 351.241 199.574 363.707C191.747 372.987 177.934 374.454 166.854 371.267C162.228 366.894 160.654 360.427 157.334 355.147C153.761 347.867 149.747 340.561 148.188 332.534Z" fill="#C35F5B"/>
<path d="M130.107 414.761C135.174 408.668 141.92 402.534 150.36 402.721C150.534 403.201 150.894 404.148 151.067 404.628C152.707 404.934 154.227 405.508 155.64 406.361C166.707 415.201 177.2 426.494 179.414 441.068C169.334 446.041 157.72 445.694 146.8 444.921C138.707 444.388 131.134 441.388 123.387 439.321C122 430.654 124.08 421.308 130.107 414.761Z" fill="#C35F5B"/>
</g>
<defs>
<clipPath id="clip0_3075_20796">
<rect width="372" height="463" fill="white"/>
</clipPath>
</defs>
</svg>
