<svg width="60" height="47" viewBox="0 0 60 47" fill="none" xmlns="http://www.w3.org/2000/svg">
<g clip-path="url(#clip0_509_26116)">
<path d="M27.1581 0.543251C30.2792 0.379276 33.4115 0.478034 36.5364 0.397909C37.3935 0.263748 38.2637 0.336419 39.1283 0.308468C41.5507 0.295425 43.973 0.224617 46.3954 0.252568C47.2078 0.178034 47.8656 0.927102 47.7985 1.7153C45.283 1.81406 42.7637 1.78238 40.2482 1.89232C36.024 1.95754 31.796 1.92959 27.5736 2.09542C24.5904 2.11033 21.609 2.14387 18.6258 2.17928C18.9295 2.96561 19.3674 3.68673 19.8053 4.40226C23.191 10.2755 26.5786 16.147 29.9643 22.0203C30.5476 23.101 31.2948 24.1035 31.6581 25.2886C31.7774 25.2886 32.0177 25.2867 32.137 25.2849C31.5444 25.5103 30.6444 26.0805 30.1656 25.378C28.2482 22.1768 26.4426 18.9066 24.542 15.6942C23.7594 14.2035 22.8072 12.8097 22.0413 11.3078C21.7451 10.7358 21.35 10.2215 20.9979 9.683C20.301 8.26126 19.4457 6.92897 18.6724 5.55008C18.1413 4.62027 17.6271 3.67928 17.0252 2.79046C12.5121 7.80474 8.01774 12.8377 3.51401 17.8613C2.74817 18.6886 2.07923 19.6408 1.09538 20.2314L0.961217 20.3209C0.655627 19.9929 0.00158948 19.6687 0.297863 19.1283C0.650037 18.6737 1.08792 18.2936 1.44569 17.8445C1.92084 17.265 2.45004 16.7339 2.95128 16.1768C2.99227 16.1265 3.0724 16.0221 3.11153 15.97C3.58482 15.4333 4.06743 14.9041 4.56681 14.3917V14.2985C4.62271 14.2501 4.73265 14.1551 4.78855 14.1066C5.30656 13.5047 5.86556 12.9401 6.3724 12.329C9.84942 8.46996 13.3097 4.59605 16.7755 0.72586C17.383 0.606605 18.0053 0.651325 18.6202 0.643872C21.296 0.621512 23.9718 0.606605 26.6494 0.597288C27.8923 0.75381 29.1444 0.640145 30.3929 0.647599C29.3159 0.589835 28.2277 0.729586 27.1581 0.543251Z" fill="#6EB8D2"/>
<path d="M40.2435 1.89382C42.759 1.78388 45.2782 1.81555 47.7938 1.7168C50.9298 7.12984 54.1068 12.528 57.2708 17.9298C57.5167 18.4329 58.0869 18.9621 57.7739 19.5621C57.5801 19.6311 57.3863 19.6907 57.1907 19.7447C56.6559 19.8696 56.123 20 55.5863 20.1156C55.5602 20.1715 55.5099 20.2814 55.4857 20.3373C54.364 20.3354 53.2683 20.6056 52.182 20.8497C47.6 21.8932 43.0049 22.8733 38.4118 23.8609C37.3776 24.105 36.3397 24.3323 35.2962 24.5336C34.2416 24.7888 33.1776 24.9994 32.1323 25.2864C32.013 25.2882 31.7726 25.2901 31.6534 25.2901C31.29 24.105 30.5428 23.1025 29.9596 22.0218C26.5739 16.1485 23.1863 10.277 19.8006 4.40375C19.3627 3.68823 18.9248 2.96711 18.6211 2.18077C21.6043 2.14537 24.5857 2.11183 27.5689 2.09692C31.7913 1.93108 36.0192 1.95903 40.2435 1.89382Z" fill="#3F7082"/>
<path d="M4.51435 38.6246C6.79137 38.7792 9.06466 38.9655 11.3398 39.1426C11.6566 39.1687 11.9752 39.1929 12.292 39.2152C14.5876 39.3997 16.8852 39.5544 19.1789 39.7575C21.7616 39.8935 24.333 40.2773 26.9268 40.2028C26.4721 40.2531 26.0193 40.309 25.5665 40.3798C26.392 40.4022 27.2212 40.3612 28.0448 40.432C31.7175 40.7339 35.3957 40.9761 39.0665 41.2891C39.6218 41.36 40.1827 41.4438 40.7398 41.3618C40.5255 41.6432 40.3336 41.96 40.3094 42.3252C40.1752 43.6128 40.0932 44.9096 40.0541 46.2047C38.3137 46.1655 36.5771 46.0239 34.8535 45.8096C33.5342 45.7724 32.2317 45.5544 30.9143 45.5041C30.2435 45.3289 29.5448 45.396 28.8609 45.3159C23.1702 44.7345 17.4367 44.3562 11.7479 43.7544C11.064 43.6836 10.3634 43.7506 9.69261 43.5699C8.35845 43.5494 7.04665 43.2829 5.71062 43.2867C5.62118 43.2326 5.4423 43.1246 5.35286 43.0705C5.31373 42.9699 5.2336 42.7668 5.19261 42.6662C5.0305 41.8612 4.8218 41.0655 4.60938 40.2718C4.57025 40.0817 4.52926 39.8935 4.48454 39.7053C4.3895 39.3475 4.33174 38.9805 4.28516 38.6152L4.51435 38.6246Z" fill="#3F7082"/>
<path d="M17.0197 2.79297C17.6215 3.68179 18.1358 4.62278 18.6669 5.5526C19.4402 6.93148 20.2954 8.26378 20.9923 9.68552C17.5656 13.3899 14.4091 17.3364 10.9843 21.0445C9.7768 22.2855 8.77432 23.7445 7.32463 24.7302C7.29854 24.652 7.24637 24.4973 7.21841 24.4191C5.62711 23.6178 4.20351 22.5259 2.77059 21.4768C2.22276 21.0464 1.6563 20.6402 1.08984 20.234C2.07369 19.6433 2.74264 18.6911 3.50848 17.8638C8.0122 12.8402 12.5066 7.80725 17.0197 2.79297Z" fill="#5792A7"/>
<path d="M10.9845 21.0446C14.4093 17.3365 17.5658 13.3899 20.9925 9.68555C21.3447 10.2241 21.7398 10.7383 22.036 11.3104C22.8019 12.8123 23.754 14.206 24.5366 15.6967C26.4373 18.9091 28.2429 22.1793 30.1603 25.3806C30.6391 26.0831 31.5391 25.5129 32.1317 25.2874C33.177 25.0005 34.241 24.7899 35.2957 24.5346C36.0317 25.58 36.1435 26.8918 36.572 28.0694C37.8373 32.4371 39.1938 36.7787 40.3919 41.1669C39.9503 41.2098 39.5087 41.2582 39.0671 41.2899C35.3963 40.9769 31.718 40.7346 28.0453 40.4328C27.2217 40.3619 26.3925 40.4029 25.5671 40.3806C26.0199 40.3098 26.4727 40.2539 26.9273 40.2036C26.3404 35.6495 25.8503 31.0843 25.2335 26.5359C25.1758 26.1706 25.1143 25.8073 25.0528 25.4439C23.1745 25.1458 21.2665 25.347 19.3789 25.1421C17.7988 25.0713 16.2075 24.98 14.6292 25.1551C13.8037 28.4365 13.064 31.7383 12.2925 35.0328C11.9627 36.4005 11.5938 37.7588 11.3404 39.1433C9.06522 38.9663 6.79193 38.78 4.51491 38.6253C4.48323 37.8781 4.69565 37.1607 4.79068 36.4265L4.89876 36.4191C4.92298 36.1359 4.95093 35.8545 4.98447 35.5731C5.08323 35.2694 5.141 34.9545 5.19503 34.6414C5.49876 33.1284 5.85093 31.6228 6.08944 30.0986L6.20683 30.0818C6.21988 29.7744 6.23851 29.4669 6.25155 29.1595L6.40062 29.165C6.4118 28.852 6.42857 28.5408 6.43975 28.2296L6.57951 28.2371C6.6 27.9557 6.62609 27.6744 6.66149 27.3949C6.8087 27.0781 6.81429 26.7241 6.84037 26.3831L6.941 26.3607C7.01739 25.7104 7.20745 25.0768 7.21863 24.4191C7.24659 24.4973 7.29876 24.652 7.32485 24.7303C8.77454 23.7446 9.77702 22.2855 10.9845 21.0446ZM14.7689 22.4178C14.741 22.8147 14.6609 23.2303 14.8137 23.616C15.054 23.8265 15.3988 23.7595 15.6894 23.8079C18.7789 23.7557 21.8646 24.0483 24.954 23.9365C25.036 23.8154 25.1963 23.5731 25.2783 23.4539C25.2056 23.0477 25.0975 22.4328 24.5702 22.4495C22.5298 22.3843 20.4857 22.4421 18.4435 22.3452C17.2193 22.3303 15.9839 22.2036 14.7689 22.4178Z" fill="#76C2D0"/>
<path d="M55.4902 20.337C55.5144 20.2811 55.5648 20.1711 55.5908 20.1152C55.6095 20.2606 55.6486 20.5513 55.6691 20.6985C55.7474 20.8811 55.8238 21.0655 55.8946 21.2519C55.9505 21.4382 56.0064 21.6264 56.0641 21.8146C56.2728 22.4239 56.4629 23.0407 56.666 23.6519C56.7256 23.8401 56.7853 24.0283 56.8449 24.2165C56.912 24.4047 56.9846 24.591 57.0629 24.7755C57.0853 24.8761 57.1318 25.0755 57.1542 25.1742C57.2269 25.3606 57.2977 25.5488 57.3666 25.737C57.4318 25.9233 57.4933 26.1115 57.5511 26.2997C57.6126 26.486 57.6741 26.6724 57.7374 26.8587C57.7989 27.045 57.8585 27.2332 57.9182 27.4214C58.0617 27.8463 58.1958 28.2749 58.3393 28.7016C58.7213 30.073 59.3306 31.3811 59.6213 32.7749C59.584 32.9873 59.5486 33.2016 59.5151 33.4159C53.271 36.0935 46.9803 38.6593 40.7455 41.3612C40.1884 41.4432 39.6275 41.3593 39.0722 41.2885C39.5138 41.2568 39.9554 41.2084 40.3971 41.1655C39.1989 36.7773 37.8424 32.4357 36.5772 28.068C36.1486 26.8904 36.0368 25.5786 35.3008 24.5332C36.3443 24.332 37.3821 24.1047 38.4163 23.8606C38.5169 24.9562 38.9958 25.9569 39.3163 26.9966C39.8585 28.5301 40.2294 30.1308 40.9412 31.6009C41.3008 31.5283 41.6623 31.4612 42.02 31.3755C44.0846 30.7214 46.1716 30.1308 48.2623 29.5624C48.8213 29.4208 49.3766 29.2643 49.93 29.0947C51.1207 28.737 52.3076 28.3662 53.5132 28.0587C54.0033 27.9376 54.471 27.7475 54.9107 27.4997C54.3014 25.6214 53.666 23.7488 53.12 21.85C53.025 21.5482 52.9169 21.25 52.8126 20.9519C52.6039 20.9146 52.3952 20.8811 52.1865 20.8494C53.2728 20.6053 54.3685 20.3351 55.4902 20.337Z" fill="#67A6B1"/>
<path d="M52.1803 20.8496C52.389 20.8813 52.5977 20.9148 52.8064 20.9521C52.9108 21.2502 53.0189 21.5484 53.1139 21.8502C52.4338 21.6005 51.7275 21.8316 51.053 21.9751C49.7039 22.2863 48.3344 22.5043 46.9965 22.8583C47.8126 24.9322 48.381 27.0918 49.1561 29.1788C49.4114 29.1546 49.6685 29.1266 49.9238 29.095C49.3704 29.2645 48.8151 29.421 48.2561 29.5627C47.6412 27.3881 46.8903 25.2509 46.1468 23.1154C44.8965 23.2142 43.6872 23.5477 42.4611 23.7881C41.4586 23.9912 40.4487 24.1627 39.4723 24.4738C39.9661 26.4248 40.73 28.2918 41.3375 30.2074C41.4642 30.6471 41.6803 31.0571 42.0139 31.3757C41.6561 31.4614 41.2946 31.5285 40.935 31.6012C40.2232 30.131 39.8524 28.5304 39.3102 26.9968C38.9897 25.9571 38.5108 24.9564 38.4102 23.8608C43.0033 22.8732 47.5984 21.8931 52.1803 20.8496Z" fill="#A6C0C9"/>
<path d="M14.6287 25.1537C16.2069 24.9785 17.7982 25.0698 19.3784 25.1407C21.2659 25.3456 23.174 25.1444 25.0523 25.4425C25.1138 25.8059 25.1752 26.1692 25.233 26.5344C23.9622 26.5289 22.6914 26.5475 21.4225 26.4804C19.3504 26.3369 17.2728 26.4133 15.1988 26.3481C14.1908 30.6264 13.1324 34.899 12.292 39.2146C11.9752 39.1922 11.6566 39.168 11.3398 39.1419C11.5933 37.7574 11.9622 36.399 12.292 35.0313C13.0634 31.7369 13.8032 28.4351 14.6287 25.1537Z" fill="#A6C0C9"/>
<path d="M51.0526 21.9738C51.7272 21.8303 52.4334 21.5992 53.1135 21.8489C53.6594 23.7477 54.2948 25.6203 54.9042 27.4986C54.4644 27.7464 53.9967 27.9365 53.5067 28.0576C52.3011 28.3651 51.1141 28.7359 49.9234 29.0936C49.6681 29.1253 49.411 29.1533 49.1557 29.1775C48.3806 27.0905 47.8122 24.9309 46.9961 22.857C48.334 22.503 49.7035 22.2849 51.0526 21.9738Z" fill="#DEE9ED"/>
<path d="M42.4615 23.786C43.6876 23.5456 44.8969 23.212 46.1472 23.1133C46.8907 25.2487 47.6416 27.386 48.2565 29.5605C46.1658 30.1288 44.0789 30.7195 42.0143 31.3735C41.6807 31.0549 41.4646 30.645 41.3379 30.2052C40.7304 28.2897 39.9664 26.4226 39.4727 24.4717C40.4491 24.1605 41.459 23.9891 42.4615 23.786Z" fill="#DEE9ED"/>
<path d="M12.293 39.2141C13.1333 34.8986 14.1917 30.6259 15.1998 26.3477C17.2737 26.4129 19.3514 26.3365 21.4234 26.48C22.6923 26.547 23.9632 26.5284 25.234 26.534C25.8507 31.0824 26.3408 35.6477 26.9278 40.2017C24.334 40.2762 21.7625 39.8924 19.1799 39.7564C16.8861 39.5532 14.5886 39.3986 12.293 39.2141Z" fill="#DEE9ED"/>
<path d="M14.7687 22.4164C15.9836 22.2021 17.219 22.3288 18.4432 22.3437C20.4855 22.4406 22.5296 22.3828 24.5699 22.448C25.0973 22.4313 25.2053 23.0462 25.278 23.4524C25.142 23.3126 25.006 23.1729 24.8718 23.0331C21.8327 22.9288 18.7898 23.0387 15.7488 22.9754C15.7302 23.2511 15.7097 23.5288 15.6892 23.8064C15.3985 23.758 15.0538 23.8251 14.8134 23.6145C14.6606 23.2288 14.7407 22.8133 14.7687 22.4164Z" fill="#A3C0C9"/>
<path d="M15.751 22.9746C18.792 23.038 21.8349 22.928 24.874 23.0324C25.0082 23.1721 25.1442 23.3119 25.2802 23.4516C25.1982 23.5709 25.038 23.8131 24.956 23.9342C21.8666 24.046 18.7808 23.7535 15.6914 23.8057C15.7119 23.528 15.7324 23.2504 15.751 22.9746Z" fill="#DBE7EC"/>
<path d="M59.6162 32.7748L59.6721 32.5605C59.8361 34.1444 59.7187 35.7432 59.7224 37.3326C59.1056 37.7537 58.418 38.05 57.7379 38.35C56.7652 38.8214 55.7777 39.2649 54.7975 39.7214C54.7025 39.7699 54.5106 39.8649 54.4156 39.9133C52.8559 40.64 51.2888 41.35 49.7348 42.086C48.6317 42.6133 47.5081 43.0997 46.4106 43.6419C44.8547 44.3761 43.2783 45.0655 41.7354 45.8258C41.2174 46.1053 40.6416 46.2301 40.0547 46.204C40.0938 44.909 40.1758 43.6121 40.31 42.3245C40.3342 41.9593 40.5261 41.6425 40.7404 41.3612C46.9752 38.6593 53.2659 36.0935 59.51 33.4158C59.5435 33.2015 59.5789 32.9873 59.6162 32.7748Z" fill="#355E6D"/>
</g>
<defs>
<clipPath id="clip0_509_26116">
<rect width="60" height="46.3975" fill="white"/>
</clipPath>
</defs>
</svg>
