<svg width="496" height="475" viewBox="0 0 496 475" fill="none" xmlns="http://www.w3.org/2000/svg">
<g clip-path="url(#clip0_489_24279)">
<path d="M198.16 4.37311C210.453 -0.0402244 225.613 0.706442 235.76 9.62644C242.547 15.5864 244.88 24.8398 245.493 33.5198C249.693 29.5064 253.88 25.2264 259.387 23.0264C269.2 18.3864 280.16 17.9998 290.773 17.1464C297.347 16.8131 302.947 12.8531 309.373 11.9731C303.413 21.2798 299.427 32.0798 291.107 39.6798C318.907 35.4131 346.88 43.9464 371.627 56.1464C391.48 66.3598 410.44 79.0664 425.187 96.0131C436.12 109.04 443.76 124.573 449.04 140.666C455.72 161.68 459.36 183.52 461.96 205.36C464.213 223.84 464.533 242.48 466.467 260.986C467.64 270.666 468.96 280.573 473.24 289.466C478.133 299.573 484.68 308.92 492.827 316.68C494.12 317.813 495.387 320.106 493.427 321.32C485.747 326.346 476.253 328.04 467.2 327.426C466.96 336.48 463.6 345.48 457.8 352.44C451.733 359.44 442.013 361.693 433.093 361.08C430.947 364.986 428.76 368.986 425.387 372C417.16 379.826 405.973 382.986 395.747 387.306C390.627 389.293 386.827 393.426 382.107 396.093C382.987 393.106 383.973 390.146 384.84 387.16C395.267 386.093 404.013 379.693 411.787 373.146C423.587 363.026 435.187 351.546 440.627 336.626C443.933 327.08 446.16 316.053 441.52 306.546C438.413 298.986 429.44 294.16 421.453 296.146C415.6 297.733 409.24 300.453 406.347 306.16C403.827 311.68 403.533 317.946 400.84 323.413C394.56 329.533 388.16 337.333 378.893 338.386C382.24 331.626 386.373 325.04 387.467 317.426C389.133 305.506 385.4 293.84 383.253 282.253C378.107 288.933 371.427 294.52 367.707 302.226C365.707 305.973 365.653 310.306 365.027 314.413C361.293 309.733 358.507 304.386 355.133 299.453C351.107 292.826 350.987 284.76 351.76 277.266C345.773 281.413 339.253 285.04 332 286.32C324 288.12 315.813 286.613 307.787 285.893C315.947 278.36 322.667 267.413 320.853 255.906C319.52 245.226 314.747 235.053 307.347 227.24C293.92 211.906 272.827 206.48 259.173 191.36C253.867 186.066 251.36 178.813 250.467 171.506C248.533 178.746 244.64 185.146 240.693 191.426C231.773 206.493 223.387 223.346 225.107 241.373C225.427 248.893 228.44 255.84 231.773 262.44C220.347 259.746 208.387 258.506 197.853 252.946C183.947 246.626 171.627 235.706 166.747 220.853C167 225.666 167.267 230.573 168.973 235.133C170.813 240.653 174.773 245.066 177.48 250.146C169.427 249.36 160.853 249.213 153.747 244.853C145.467 239.773 137.867 232.866 133.933 223.813C128.76 230.24 121.613 234.626 114.067 237.733C107.693 240.64 99.7867 243.04 96.96 250.173C94.2 255.96 96.24 262.76 100.267 267.4C97.24 269.986 94.3333 272.733 91.5067 275.546C91.56 275.08 91.6533 274.133 91.7067 273.666C87.64 271.146 83.3467 268.88 79.9467 265.453C76.8933 262.6 74.7867 258.92 71.8667 255.96C69.92 257 68.32 258.533 66.6133 259.906C57.1067 267.946 44.8133 270.96 33 273.826C21.8667 274.506 10.88 271.96 0.746667 267.44L0 267.573V266.306C3.66667 262.96 6.34667 258.72 9.73333 255.093C14.6133 249.946 16.8267 243.053 18.9733 236.453C27.2 209.88 25.24 181.413 32.8533 154.693C36.8533 140.946 42.2533 127.466 50.2 115.493C60.1067 100.426 73.1333 87.6798 87.0267 76.3064C99.4267 66.2798 113.373 58.1731 128.213 52.3998C144.693 46.0798 162.493 44.1464 180.013 43.9864C189.747 44.5198 200.067 44.1598 208.893 48.9198C206.307 43.2664 203.533 37.3998 198.64 33.3464C191.893 27.8798 182.853 26.2664 174.4 26.0264C175.347 23.7064 176.693 21.5598 178.507 19.8131C184.333 13.8798 190.093 7.25311 198.16 4.37311ZM41.2267 161.173C38.08 164.333 40.0933 169.213 43.7333 170.92C58.28 179.386 74.2267 185.186 90.3733 189.773C99.5333 192.586 109.213 191.226 118.64 191.626C110.133 187.453 102.547 181.413 93.4 178.613C80.3733 174.32 67.2667 170.053 55.08 163.666C50.8667 161.693 45.8667 158.533 41.2267 161.173ZM140.36 191.2C138.107 192.16 134.2 192.546 133.613 195.28C139.2 198.053 145.827 199.72 151.84 197.213C152.72 191.066 144.72 190.16 140.36 191.2ZM162.427 194.773C161.147 197.813 164.32 199.906 166.507 201.293C167.587 199 169.667 196.093 167.507 193.733C166.267 191.546 162.76 192.266 162.427 194.773ZM435.867 195.773C425.827 198.466 415.667 200.746 405.373 202.24C393.067 203.84 381.307 208.026 369.08 210.053C382.693 213.32 396.947 216.506 410.96 213.826C420.093 212.226 429.2 209.773 437.493 205.573C440.387 203.893 444.053 201.506 443.693 197.666C442.64 194.186 438.52 195.12 435.867 195.773ZM181.387 199.613C189.627 205.866 200.52 203.253 209.64 200.733C203.693 199.653 197.84 198.186 191.907 197.053C188.227 196.626 183.2 195.306 181.387 199.613ZM315.04 204.426C312.253 205.24 311.373 208.6 313.053 210.853C319.08 214.826 326.187 211.28 332.227 209.253C327.213 206.093 321.2 201.946 315.04 204.426ZM349.773 207.08C349.573 207.613 349.173 208.666 348.973 209.2C351.24 213.413 356.533 210.613 360.027 209.986C356.827 208.48 353.493 206.213 349.773 207.08Z" fill="#A65A38"/>
<path d="M41.2274 161.174C45.8674 158.534 50.8674 161.694 55.0807 163.667C67.2674 170.054 80.374 174.32 93.4007 178.614C102.547 181.414 110.134 187.454 118.641 191.627C109.214 191.227 99.534 192.587 90.374 189.774C74.2274 185.187 58.2807 179.387 43.734 170.92C40.094 169.214 38.0807 164.334 41.2274 161.174Z" fill="#C68568"/>
<path d="M435.867 195.774C438.52 195.12 442.64 194.187 443.693 197.667C444.053 201.507 440.387 203.894 437.493 205.574C429.2 209.774 420.093 212.227 410.96 213.827C396.947 216.507 382.693 213.32 369.08 210.054C381.307 208.027 393.067 203.84 405.373 202.24C415.667 200.747 425.827 198.467 435.867 195.774Z" fill="#C68568"/>
<path d="M315.041 204.426C321.201 201.946 327.215 206.093 332.228 209.253C326.188 211.28 319.081 214.826 313.055 210.853C311.375 208.6 312.255 205.24 315.041 204.426Z" fill="#C68568"/>
<path d="M250.466 171.506C251.359 178.813 253.866 186.066 259.173 191.359C272.826 206.479 293.919 211.906 307.346 227.239C314.746 235.053 319.519 245.226 320.853 255.906C322.666 267.413 315.946 278.359 307.786 285.893C315.813 286.613 323.999 288.119 331.999 286.319C339.253 285.039 345.773 281.413 351.759 277.266C350.986 284.759 351.106 292.826 355.133 299.453C358.506 304.386 361.293 309.733 365.026 314.413C365.653 310.306 365.706 305.973 367.706 302.226C371.426 294.519 378.106 288.933 383.253 282.253C385.399 293.839 389.133 305.506 387.466 317.426C386.373 325.039 382.239 331.626 378.893 338.386C388.159 337.333 394.559 329.533 400.839 323.413C399.333 345.413 388.879 365.599 384.839 387.159C383.973 390.146 382.986 393.106 382.106 396.093C374.239 415.199 364.199 434.613 347.479 447.439C330.866 459.372 310.573 464.666 290.733 468.239C254.306 474.373 216.839 474.773 180.399 468.493C162.893 465.333 146.213 458.799 130.053 451.519C112.506 443.559 95.9992 432.759 82.8792 418.533C72.6659 407.359 66.3725 393.266 62.0925 378.893C58.0392 365.919 55.5059 352.359 55.5059 338.746C57.4659 330.839 56.6659 322.666 57.5059 314.653C59.1859 296.213 62.2525 277.906 66.6125 259.906C68.3192 258.533 69.9192 256.999 71.8659 255.959C74.7859 258.919 76.8925 262.599 79.9459 265.453C83.3459 268.879 87.6392 271.146 91.7059 273.666C91.6525 274.133 91.5592 275.079 91.5059 275.546C90.5592 277.266 88.9992 278.973 89.4525 281.106C90.2392 282.879 91.9725 283.973 93.3725 285.239C102.693 292.533 112.306 300.613 124.359 302.613C140.639 305.146 157.906 302.093 171.973 293.386C174.186 292.946 176.946 293.133 178.239 290.893C178.186 284.133 173.306 278.586 169.186 273.653C159.066 264.039 145.439 257.813 131.399 257.293C120.173 256.039 108.693 259.919 100.266 267.399C96.2392 262.759 94.1992 255.959 96.9592 250.173C99.7859 243.039 107.693 240.639 114.066 237.733C121.613 234.626 128.759 230.239 133.933 223.813C137.866 232.866 145.466 239.773 153.746 244.853C160.853 249.213 169.426 249.359 177.479 250.146C174.773 245.066 170.813 240.653 168.973 235.133C167.266 230.573 166.999 225.666 166.746 220.853C171.626 235.706 183.946 246.626 197.853 252.946C208.386 258.506 220.346 259.746 231.773 262.439C228.439 255.839 225.426 248.893 225.106 241.373C223.386 223.346 231.773 206.493 240.693 191.426C244.639 185.146 248.533 178.746 250.466 171.506ZM266.946 218.879C258.653 220.853 251.359 226.226 246.293 232.986C243.546 236.573 245.613 243.426 250.639 243.213C257.639 242.613 264.173 239.786 270.639 237.266C276.199 235.146 281.733 238.826 285.879 242.226C291.026 246.826 296.106 251.586 300.266 257.119C303.066 260.506 306.133 264.479 310.733 265.253C317.359 265.093 318.426 256.346 316.986 251.359C314.653 237.839 303.066 229.119 292.053 222.506C284.599 217.973 275.373 216.826 266.946 218.879ZM232.986 293.439C231.106 296.999 235.466 300.066 238.626 300.546C243.319 309.919 251.159 317.399 260.279 322.453C266.053 324.853 272.506 325.413 278.693 325.719C290.573 323.999 302.879 321.973 313.533 316.159C316.853 316.973 320.319 314.106 319.813 310.639C319.893 299.866 310.813 292.319 302.933 286.399C295.426 280.159 285.546 277.559 275.933 277.479C260.039 276.773 245.799 285.039 232.986 293.439ZM170.626 379.759C164.399 382.293 161.559 389.693 161.613 396.039C161.439 404.053 166.213 411.013 171.373 416.706C178.706 424.013 188.279 429.346 198.773 429.946C208.439 430.613 219.693 428.853 226.013 420.719C229.653 416.373 229.493 410.359 228.479 405.106C227.813 403.399 227.146 401.693 226.493 399.986L224.999 400.293C224.706 396.493 222.053 393.586 219.773 390.773C211.666 381.293 199.013 376.399 186.666 376.599C181.186 376.559 175.146 375.986 170.626 379.759Z" fill="#F5B371"/>
<path d="M140.36 191.201C144.72 190.161 152.72 191.068 151.84 197.214C145.827 199.721 139.2 198.054 133.613 195.281C134.2 192.548 138.107 192.161 140.36 191.201Z" fill="#C68467"/>
<path d="M162.427 194.773C162.761 192.266 166.267 191.546 167.507 193.733C169.667 196.093 167.587 198.999 166.507 201.293C164.321 199.906 161.147 197.813 162.427 194.773Z" fill="#C48365"/>
<path d="M349.775 207.078C353.495 206.212 356.828 208.478 360.028 209.985C356.535 210.612 351.241 213.412 348.975 209.198C349.175 208.665 349.575 207.612 349.775 207.078Z" fill="#C48365"/>
<path d="M181.387 199.613C183.2 195.306 188.227 196.626 191.907 197.053C197.84 198.186 203.693 199.653 209.64 200.733C200.52 203.253 189.627 205.866 181.387 199.613Z" fill="#C58467"/>
<path d="M266.946 218.881C275.373 216.827 284.6 217.974 292.053 222.507C303.066 229.121 314.653 237.841 316.986 251.361C318.426 256.347 317.36 265.094 310.733 265.254C306.133 264.481 303.066 260.507 300.266 257.121C296.106 251.587 291.026 246.827 285.88 242.227C281.733 238.827 276.2 235.147 270.64 237.267C264.173 239.787 257.64 242.614 250.64 243.214C245.613 243.427 243.546 236.574 246.293 232.987C251.36 226.227 258.653 220.854 266.946 218.881Z" fill="#843D1E"/>
<path d="M100.267 267.4C108.694 259.92 120.174 256.04 131.401 257.293C145.441 257.813 159.067 264.04 169.187 273.653C173.307 278.586 178.187 284.133 178.241 290.893C176.947 293.133 174.187 292.946 171.974 293.386C165.667 290.8 160.374 286.346 155.721 281.453C153.867 291.386 145.267 300.373 134.801 300.506C128.427 300.24 121.534 298.413 117.054 293.573C111.881 287.666 112.561 278.426 116.681 272.133C111.414 274.186 106.427 276.986 102.481 281.093C100.134 283.733 96.8272 284.92 93.3738 285.24C91.9738 283.973 90.2405 282.88 89.4538 281.106C89.0005 278.973 90.5605 277.266 91.5072 275.546C94.3338 272.733 97.2405 269.986 100.267 267.4ZM123.227 271.346C120.521 272.146 118.467 275.773 120.387 278.266C122.867 282.52 131.214 281.52 131.134 276.053C131.561 272.026 126.481 269.973 123.227 271.346Z" fill="#843D1E"/>
<path d="M232.988 293.44C245.801 285.04 260.041 276.773 275.934 277.48C285.548 277.56 295.428 280.16 302.934 286.4C310.814 292.32 319.894 299.866 319.814 310.64C320.321 314.106 316.854 316.973 313.534 316.16C307.814 311.346 304.148 304.613 298.294 299.906C297.401 304.813 296.121 310.093 292.068 313.413C284.414 319.84 273.374 321.546 263.921 318.653C258.628 317.053 253.854 313.12 252.068 307.773C250.761 303.986 251.161 299.92 251.321 295.986C247.254 297.946 243.094 299.786 238.628 300.546C235.468 300.066 231.108 297 232.988 293.44ZM262.374 300.44C266.214 302.306 270.214 299.893 271.428 296.066C270.374 293.933 269.388 290.906 266.494 290.933C261.388 289.853 257.708 297.626 262.374 300.44Z" fill="#843D1E"/>
<path d="M33.0007 273.826C44.814 270.96 57.1073 267.946 66.614 259.906C62.254 277.906 59.1873 296.213 57.5073 314.653C56.6673 322.666 57.4673 330.84 55.5073 338.746C46.8273 335.893 37.9607 332.493 31.214 326.106C22.6407 318.213 16.8807 306.546 17.9073 294.72C18.4673 286.973 22.2007 279.52 28.1607 274.52C29.774 274.333 31.414 274.173 33.0007 273.826Z" fill="#E0A364"/>
<path d="M406.347 306.161C409.24 300.454 415.6 297.734 421.453 296.147C429.44 294.161 438.413 298.987 441.52 306.547C446.16 316.054 443.933 327.081 440.627 336.627C435.187 351.547 423.587 363.027 411.786 373.147C404.013 379.694 395.267 386.094 384.84 387.161C388.88 365.601 399.333 345.414 400.84 323.414C403.533 317.947 403.827 311.681 406.347 306.161Z" fill="#E0A364"/>
<path d="M123.226 271.347C126.48 269.974 131.56 272.027 131.133 276.054C131.213 281.521 122.866 282.521 120.386 278.267C118.466 275.774 120.52 272.147 123.226 271.347Z" fill="#F4F4F4"/>
<path d="M262.373 300.441C257.707 297.628 261.387 289.854 266.493 290.934C269.387 290.908 270.373 293.934 271.427 296.068C270.213 299.894 266.213 302.308 262.373 300.441Z" fill="#F4F4F4"/>
<path d="M102.48 281.093C106.426 276.986 111.413 274.186 116.68 272.133C112.56 278.426 111.88 287.666 117.053 293.573C121.533 298.413 128.426 300.239 134.8 300.506C145.266 300.373 153.866 291.386 155.72 281.453C160.373 286.346 165.666 290.799 171.973 293.386C157.906 302.093 140.64 305.146 124.36 302.613C112.306 300.613 102.693 292.533 93.373 285.239C96.8264 284.919 100.133 283.733 102.48 281.093Z" fill="white"/>
<path d="M238.627 300.546C243.094 299.786 247.254 297.946 251.32 295.986C251.16 299.92 250.76 303.986 252.067 307.773C253.854 313.12 258.627 317.053 263.92 318.653C273.374 321.546 284.414 319.84 292.067 313.413C296.12 310.093 297.4 304.813 298.294 299.906C304.147 304.613 307.814 311.346 313.534 316.16C302.88 321.973 290.574 324 278.694 325.72C272.507 325.413 266.054 324.853 260.28 322.453C251.16 317.4 243.32 309.92 238.627 300.546Z" fill="white"/>
<path d="M170.627 379.759C175.147 375.985 181.187 376.559 186.667 376.599C199.014 376.399 211.667 381.292 219.774 390.772C222.054 393.585 224.707 396.492 225 400.292C214.467 403.079 203.387 401.732 193.014 398.945C183.214 396.279 174.56 389.185 170.627 379.759Z" fill="white"/>
<path d="M161.614 396.04C161.561 389.693 164.401 382.293 170.627 379.76C174.561 389.186 183.214 396.28 193.014 398.946C203.387 401.733 214.467 403.08 225.001 400.293L226.494 399.986C227.147 401.693 227.814 403.4 228.481 405.106C212.401 403.946 196.134 406.093 180.974 411.626C177.561 412.893 174.441 414.773 171.374 416.706C166.214 411.013 161.441 404.053 161.614 396.04Z" fill="#C9636E"/>
<path d="M180.973 411.628C196.133 406.094 212.4 403.948 228.48 405.108C229.493 410.361 229.653 416.374 226.013 420.721C219.693 428.854 208.44 430.614 198.773 429.948C188.28 429.348 178.706 424.014 171.373 416.708C174.44 414.774 177.56 412.894 180.973 411.628Z" fill="#945058"/>
</g>
<defs>
<clipPath id="clip0_489_24279">
<rect width="496" height="474.667" fill="white"/>
</clipPath>
</defs>
</svg>
