<svg width="60" height="50" viewBox="0 0 60 50" fill="none" xmlns="http://www.w3.org/2000/svg">
<g clip-path="url(#clip0_509_25971)">
<path d="M30.1997 0.24067C30.4805 0.13966 30.7916 0.0810744 31.0461 0.285115C37.2481 3.89926 43.4401 7.52956 49.6401 11.1477C49.9047 11.275 50.1572 11.5195 50.0178 11.8407C49.5007 12.3437 48.8481 12.675 48.2704 13.0993C43.7572 16.1558 39.2178 19.174 34.731 22.269C34.5855 21.8366 34.3491 21.4306 33.9269 21.2205C26.4138 16.4629 18.9512 11.6245 11.4219 6.8932C12.2906 6.44471 13.234 6.17602 14.1512 5.84875C19.4986 3.97602 24.8522 2.11744 30.1997 0.24067Z" fill="#A93833"/>
<path d="M10.5955 7.54106C10.7914 7.23601 11.1025 7.04409 11.4217 6.89258C18.951 11.6239 26.4136 16.4623 33.9268 21.2199C34.349 21.43 34.5854 21.836 34.7308 22.2683C34.6379 22.339 34.452 22.4805 34.3571 22.5512C34.2096 22.5249 33.9146 22.4683 33.7672 22.4401C28.1773 18.939 22.6439 15.3491 17.0742 11.8138C16.351 11.3673 15.6702 10.8481 14.8864 10.5067C13.8197 9.66834 12.648 8.98147 11.4904 8.28248C8.46616 12.2623 5.54293 16.3188 2.55101 20.3209C1.95909 21.0502 1.56111 22.038 0.607576 22.3673C0.518687 22.3067 0.338889 22.1855 0.25 22.1229C0.264141 21.7754 0.280303 21.4097 0.534849 21.1411C3.89242 16.6118 7.24394 12.0764 10.5955 7.54106Z" fill="#E7807B"/>
<path d="M2.55281 20.3196C5.54473 16.3176 8.46796 12.261 11.4922 8.28125C12.6498 8.98024 13.8215 9.66711 14.8882 10.5055C14.0316 11.7823 13.2599 13.1176 12.2781 14.3055C10.3225 17.0671 8.37503 19.8348 6.4215 22.5964C5.99119 23.2004 5.59927 23.8368 5.0821 24.3742C4.99321 24.3439 4.81342 24.2833 4.72251 24.253C3.35483 23.6206 1.91443 23.1257 0.609375 22.3661C1.56291 22.0368 1.96089 21.0489 2.55281 20.3196Z" fill="#C35F5B"/>
<path d="M14.8883 10.5059C15.6722 10.8473 16.353 11.3665 17.0762 11.8129C22.6459 15.3483 28.1792 18.9382 33.7691 22.4392C34.4843 22.918 34.6964 23.7968 35.0459 24.5321C37.2035 29.4412 39.3873 34.3382 41.5469 39.2493C42.0035 40.2796 42.5085 41.2958 42.8035 42.3907C41.9833 42.4897 41.1711 42.6331 40.361 42.7846C38.3045 43.0473 36.2418 43.2796 34.1833 43.5281C33.8115 42.2008 33.1328 40.9927 32.6216 39.72C31.3631 36.9543 30.2055 34.1402 28.8843 31.4028C28.7065 31.0129 28.6115 30.5685 28.3126 30.2493C28.0277 30.12 27.7045 30.1867 27.4055 30.2089C23.6823 30.7564 19.955 31.2917 16.2297 31.819C15.7732 31.9079 15.1085 31.9745 15.0378 32.5503C15.1651 33.3059 15.5348 33.9968 15.7711 34.722C17.0156 38.2392 18.3934 41.7099 19.6115 45.2372C17.5469 45.4291 15.4964 45.819 13.4216 45.8655C12.9671 44.8998 12.6055 43.8937 12.2035 42.9059C9.80953 36.9079 7.41559 30.9119 5.02569 24.9119C4.93276 24.6897 4.83377 24.4675 4.72266 24.2533C4.81357 24.2836 4.99336 24.3442 5.08225 24.3745C5.59942 23.8372 5.99134 23.2008 6.42165 22.5968C8.37518 19.8352 10.3227 17.0675 12.2782 14.3059C13.26 13.118 14.0317 11.7826 14.8883 10.5059ZM15.6944 14.8675C15.2055 15.021 14.9631 15.5079 14.7004 15.9059C13.5105 17.8715 12.2398 19.7907 11.0661 21.7685C10.6621 22.3665 11.5004 23.0008 12.0277 22.5846C13.757 22.4493 15.4418 21.9988 17.155 21.7523C17.5065 21.6554 18.0802 21.6958 18.0802 21.1887C18.1025 21.5543 18.8439 21.6634 18.753 21.2432C19.2903 21.4574 19.8499 21.2594 20.3873 21.1523C21.7166 20.8695 23.0883 20.7786 24.3934 20.3786C24.3631 20.2836 24.3065 20.0917 24.2782 19.9947L24.5388 20.12C24.6439 19.8291 24.5954 19.4917 24.2802 19.3644C21.8317 17.9523 19.3469 16.6048 16.8944 15.2008C16.5247 15.0251 16.1247 14.7099 15.6944 14.8675Z" fill="#FCFAEA"/>
<path d="M34.7332 22.2674C39.22 19.1724 43.7594 16.1542 48.2726 13.0977C51.5695 19.1805 54.8928 25.2512 58.1675 31.3482C57.8827 31.5906 57.5998 31.8371 57.2988 32.0613C53.1817 35.0754 49.0705 38.0956 44.9554 41.1118C44.2584 41.6189 43.5857 42.1704 42.8059 42.5441C41.9938 42.6633 41.1756 42.6997 40.3614 42.7845C41.1715 42.633 41.9837 42.4896 42.8039 42.3906C42.5089 41.2956 42.0039 40.2795 41.5473 39.2492C39.3877 34.3381 37.2039 29.4411 35.0463 24.532C34.6968 23.7966 34.4847 22.9179 33.7695 22.4391C33.917 22.4674 34.212 22.5239 34.3594 22.5502C34.4544 22.4795 34.6402 22.3381 34.7332 22.2674ZM47.8786 20.0148C44.814 21.732 41.713 23.3886 38.6524 25.1138C38.1655 25.2896 38.1271 25.8653 38.3655 26.2593C39.1069 27.7461 39.8564 29.229 40.6079 30.7098C40.7594 31.1825 41.3352 31.128 41.6847 30.9239C44.8362 29.0411 47.9877 27.1583 51.1473 25.2896C51.4483 25.0896 51.8806 24.8775 51.8443 24.4492C51.7837 24.1158 51.5675 23.8391 51.4079 23.5482C50.6847 22.3906 50.0322 21.1906 49.3029 20.0391L49.0665 20.1603C49.119 20.0795 49.2221 19.9219 49.2726 19.8411C48.8019 19.6007 48.2988 19.7401 47.8786 20.0148Z" fill="#E1DEC4"/>
<path d="M15.6957 14.869C16.126 14.7114 16.526 15.0266 16.8957 15.2023C19.3483 16.6064 21.8331 17.9538 24.2816 19.366C24.5967 19.4932 24.6452 19.8306 24.5402 20.1215L24.2796 19.9963C21.6755 18.7862 19.2695 17.2064 16.718 15.9033C17.3745 17.6912 18.1947 19.4205 18.7543 21.2448C18.8452 21.665 18.1038 21.5559 18.0816 21.1902C17.4473 19.4144 16.819 17.6367 16.1281 15.8811C15.5402 16.5518 15.1442 17.3579 14.6533 18.0973C13.7119 19.5538 12.8311 21.0488 12.0291 22.5862C11.5018 23.0023 10.6634 22.368 11.0675 21.77C12.2412 19.7922 13.5119 17.873 14.7018 15.9074C14.9644 15.5094 15.2069 15.0225 15.6957 14.869Z" fill="#D5D3BE"/>
<path d="M27.4067 30.2109C27.7057 30.1886 28.029 30.122 28.3138 30.2513C28.6128 30.5705 28.7077 31.0149 28.8855 31.4048C26.6633 31.7502 24.429 32.0371 22.2209 32.4634C23.8552 36.3826 25.4391 40.322 26.9684 44.2816C26.8451 44.3179 26.6027 44.3866 26.4815 44.423L26.3966 44.4351C26.2613 44.0048 26.1239 43.5745 25.9623 43.1543C24.5704 39.6149 23.2148 36.0614 21.831 32.5199C20.0673 32.7401 18.3158 33.0412 16.5502 33.2452C17.9239 37.2169 19.4269 41.1442 20.8835 45.0876C20.4593 45.1381 20.035 45.1886 19.6128 45.2391C18.3946 41.7119 17.0168 38.2412 15.7724 34.724C15.536 33.9987 15.1663 33.3078 15.0391 32.5523C15.1098 31.9765 15.7744 31.9098 16.231 31.821C19.9562 31.2937 23.6835 30.7583 27.4067 30.2109Z" fill="#D5D3BE"/>
<path d="M14.6516 18.097C15.1425 17.3576 15.5385 16.5516 16.1263 15.8809C16.8172 17.6364 17.4455 19.4142 18.0799 21.19C18.0799 21.697 17.5061 21.6566 17.1546 21.7536C15.4415 22.0001 13.7566 22.4506 12.0273 22.5859C12.8294 21.0485 13.7102 19.5536 14.6516 18.097Z" fill="white"/>
<path d="M16.7148 15.9023C19.2664 17.2054 21.6724 18.7852 24.2765 19.9953C24.3047 20.0922 24.3613 20.2842 24.3916 20.3791C23.0866 20.7791 21.7148 20.87 20.3856 21.1528C19.8482 21.2599 19.2886 21.4579 18.7512 21.2438C18.1916 19.4195 17.3714 17.6902 16.7148 15.9023Z" fill="white"/>
<path d="M39.0234 25.6329C42.3426 23.7562 45.7608 22.0612 49.0659 20.1622L49.3022 20.041C50.0315 21.1925 50.684 22.3925 51.4073 23.5501C51.5669 23.841 51.783 24.1178 51.8436 24.4511C51.88 24.8794 51.4477 25.0915 51.1467 25.2915C47.9871 27.1602 44.8356 29.043 41.684 30.9259C40.8275 29.1461 39.9366 27.3845 39.0234 25.6329Z" fill="white"/>
<path d="M22.2188 32.4629C24.4268 32.0366 26.6612 31.7498 28.8834 31.4043C30.2046 34.1417 31.3622 36.9558 32.6208 39.7215C33.1319 40.9942 33.8107 42.2023 34.1824 43.5296C31.6147 43.8285 29.0491 44.1477 26.4794 44.4225C26.6006 44.3861 26.843 44.3174 26.9662 44.2811C25.4369 40.3215 23.8531 36.3821 22.2188 32.4629Z" fill="white"/>
<path d="M16.5469 33.2448C18.3125 33.0407 20.064 32.7397 21.8277 32.5195C23.2115 36.0609 24.5671 39.6145 25.959 43.1539C26.1206 43.5741 26.258 44.0044 26.3933 44.4347C24.559 44.6731 22.7166 44.869 20.8802 45.0872C19.4236 41.1438 17.9206 37.2165 16.5469 33.2448Z" fill="white"/>
<path d="M47.8783 20.0159C48.2985 19.7411 48.8015 19.6017 49.2722 19.8421C49.2217 19.9229 49.1187 20.0805 49.0661 20.1613C45.7611 22.0603 42.3429 23.7553 39.0237 25.632C39.9368 27.3835 40.8277 29.1452 41.6843 30.925C41.3348 31.129 40.7591 31.1835 40.6075 30.7108C39.856 29.23 39.1065 27.7472 38.3651 26.2603C38.1267 25.8664 38.1651 25.2906 38.652 25.1149C41.7126 23.3896 44.8136 21.733 47.8783 20.0159Z" fill="#B7B497"/>
<path d="M57.3015 32.0627C57.6025 31.8385 57.8854 31.592 58.1702 31.3496C58.9278 32.0607 59.3581 33.0284 59.8854 33.9072C57.9864 35.5617 55.9439 37.0466 53.9864 38.6304C50.8793 41.0446 47.845 43.5557 44.6914 45.9072C44.5965 45.9173 44.4086 45.9375 44.3157 45.9476C43.9783 44.7456 43.3258 43.6728 42.8086 42.5456C43.5884 42.1718 44.2611 41.6203 44.9581 41.1132C49.0732 38.0971 53.1844 35.0769 57.3015 32.0627Z" fill="#947C4E"/>
<path d="M40.3613 42.7873C41.1754 42.7024 41.9936 42.6661 42.8057 42.5469C43.3229 43.6741 43.9754 44.7469 44.3128 45.9489C41.531 46.1832 38.7653 46.563 35.9916 46.8782C30.5875 47.5145 25.1835 48.1529 19.7795 48.7893C18.0865 48.9812 16.3976 49.2236 14.6946 49.3146L14.9512 49.4964H14.7532C13.9471 48.458 13.9188 47.056 13.4219 45.8681C15.4966 45.8216 17.5471 45.4317 19.6118 45.2398C20.034 45.1893 20.4582 45.1388 20.8825 45.0883C22.7188 44.8701 24.5613 44.6741 26.3956 44.4358L26.4805 44.4236C29.0502 44.1489 31.6158 43.8297 34.1835 43.5307C36.2421 43.2822 38.3047 43.0499 40.3613 42.7873Z" fill="#A08B61"/>
</g>
<defs>
<clipPath id="clip0_509_25971">
<rect width="60" height="49.4949" fill="white"/>
</clipPath>
</defs>
</svg>
