<svg width="151" height="462" viewBox="0 0 151 462" fill="none" xmlns="http://www.w3.org/2000/svg">
<g clip-path="url(#clip0_489_24548)">
<path d="M37.5606 12.1862C40.8006 6.55954 46.5473 1.75954 53.3339 1.83954C59.2539 1.65287 64.3873 4.98621 69.5473 7.41287C80.6273 15.1595 91.9873 23.4929 98.6406 35.5995C104.134 43.2262 102.587 53.2262 100.721 61.7862C103.601 64.9595 106.947 68.1062 107.987 72.4129L107.347 73.1195C102.294 76.4262 96.8806 79.1462 91.6539 82.1729C86.2406 85.3329 80.0939 87.4795 75.6006 92.0262C74.3873 93.8262 71.2806 93.0395 70.6006 91.1329C67.3739 86.8262 67.1473 81.2529 64.9473 76.5062C61.2539 72.6395 56.2673 69.8662 53.8806 64.8795C50.7073 59.3195 51.4939 52.5862 49.2006 46.7862C45.9739 42.2795 41.8273 38.4395 39.3073 33.4262L38.4673 32.0929C35.8273 25.8262 34.6139 18.5729 37.5606 12.1862Z" fill="white"/>
<path d="M69.5449 7.4129C73.9049 4.6129 78.7183 1.98623 84.0383 1.8529C91.9316 1.4529 98.9583 7.4529 101.585 14.5996C103.705 21.7596 100.985 28.8929 98.6383 35.5996C91.9849 23.4929 80.6249 15.1596 69.5449 7.4129Z" fill="#D6D6D6"/>
<path d="M39.3058 33.4258C41.8258 38.4391 45.9725 42.2791 49.1992 46.7858C51.4925 52.5858 50.7058 59.3191 53.8792 64.8791C56.2658 69.8658 61.2525 72.6391 64.9458 76.5058C67.1458 81.2525 67.3725 86.8258 70.5992 91.1324C68.0925 90.2124 65.9058 94.1191 63.8525 92.2924C53.4925 84.2924 42.1325 77.3724 29.8125 72.8524C31.4258 68.4658 34.4258 64.7991 37.6792 61.5325C35.8925 55.0258 34.4525 47.9324 36.7992 41.3724C37.6392 38.7191 39.5592 36.3458 39.3058 33.4258Z" fill="#D6D6D6"/>
<path d="M24.4394 80.8791C20.3327 77.1857 24.5461 70.1591 29.8127 72.8524C42.1327 77.3724 53.4927 84.2924 63.8527 92.2924C63.4127 94.6924 63.9727 97.6391 61.8794 99.3991C57.7061 99.8391 53.4394 99.9457 49.3594 98.8524C40.6927 93.4257 32.0927 87.6791 24.4394 80.8791Z" fill="#B17333"/>
<path d="M107.347 73.1197L108.293 72.4931C110.893 72.4531 114.027 72.3864 115.28 75.1731C116.72 79.7597 112.147 82.5197 109.12 84.9064C101.547 90.2664 94.2667 96.1197 85.9601 100.32C81.7201 102.026 76.3067 100.72 74.2667 96.3597C74.2267 95.7064 74.1334 94.3997 74.0801 93.7331C74.4667 93.3064 75.2267 92.4531 75.6001 92.0264C80.0934 87.4797 86.2401 85.3331 91.6534 82.1731C96.8801 79.1464 102.293 76.4264 107.347 73.1197Z" fill="#F0C477"/>
<path opacity="0.59" d="M49.3594 98.8535C53.4394 99.9468 57.706 99.8402 61.8794 99.4002C58.2127 102.76 52.826 102.174 49.3594 98.8535Z" fill="#68441E"/>
<path d="M85.8008 344.16C86.5341 339.773 90.2541 336.32 94.7074 336.066C104.001 335.24 113.387 335.52 122.721 335.693C126.561 336.186 131.547 335.64 133.881 339.48C134.374 341.546 134.267 343.68 134.321 345.786C118.307 343.186 101.961 344.706 85.8008 344.16Z" fill="#C98540"/>
<path d="M15.734 346.2C14.894 342.734 16.494 338.44 20.2407 337.614C27.1607 336.267 34.2807 336.787 41.294 336.667C46.8807 336.92 52.5874 336.347 58.054 337.72C61.5607 338.614 63.5074 341.974 64.3874 345.24C48.1607 344.867 31.934 345.32 15.734 346.2Z" fill="#C98540"/>
<path d="M89.093 405.239C101.493 395.826 117.786 391.546 133.173 394.266C138.093 395.279 142.373 398.039 146.666 400.479C146.826 400.559 147.133 400.746 147.293 400.839C148.613 405.799 148.946 410.906 149.44 415.999C148.8 422.079 148.4 428.266 145.773 433.906L144.96 434.386C134.2 441.853 120.76 443.386 108 443.333C100.386 443.239 92.3997 442.493 85.7597 438.426L85.0664 438.053C84.333 433.386 82.893 428.773 83.3197 423.999C83.3864 417.279 87.413 411.559 89.093 405.239Z" fill="#C98540"/>
<path d="M2.81339 402.707C11.5334 394.56 24.5067 392.933 35.8001 395.307C44.8134 397.24 53.9734 400.347 60.9734 406.56C63.1201 412.36 66.0534 417.973 66.8801 424.173C67.4801 428.76 66.1734 433.267 64.9467 437.64C64.3467 438.573 63.7601 439.533 63.2001 440.507C50.9201 445.68 37.1734 444.92 24.2667 443.04C17.5067 442.08 11.2267 439.187 5.34672 435.84C-0.33328 425.933 -0.346613 413.427 2.81339 402.707Z" fill="#C98540"/>
<path d="M85.7988 344.16C101.959 344.707 118.305 343.187 134.319 345.787C131.172 353.507 128.092 361.493 127.345 369.867C119.105 369.4 110.785 368.053 102.572 369.533C97.2388 370.467 92.3721 372.973 87.5188 375.28C88.3321 364.84 85.1588 354.613 85.7988 344.16Z" fill="#C7DEE4"/>
<path d="M15.7324 346.201C31.9324 345.321 48.1591 344.868 64.3858 345.241C64.7324 351.988 63.7058 358.681 62.9058 365.348C62.4658 369.108 61.3991 373.094 63.2391 376.681C57.7458 374.494 52.6258 371.174 46.6524 370.414C38.4391 368.801 30.1324 370.388 21.9458 371.308C23.0924 362.548 18.2791 354.361 15.7324 346.201Z" fill="#C7DEE4"/>
<path d="M21.9458 371.305C30.1325 370.385 38.4392 368.798 46.6525 370.412C52.6258 371.172 57.7458 374.492 63.2392 376.678C64.5725 379.865 65.5058 383.265 65.1325 386.758C64.9592 393.652 58.8258 399.425 60.9725 406.558C53.9725 400.345 44.8125 397.238 35.7992 395.305C24.5058 392.932 11.5325 394.558 2.8125 402.705C6.4925 390.798 14.5592 381.065 21.9458 371.305Z" fill="#E7F3F6"/>
<path d="M87.5191 375.279C92.3724 372.973 97.2391 370.466 102.572 369.533C110.786 368.053 119.106 369.399 127.346 369.866L128.199 369.933C132.372 376.133 137.172 381.893 141.146 388.226C142.292 390.319 143.426 392.426 144.572 394.533C145.306 396.493 146.026 398.466 146.666 400.479C142.372 398.039 138.092 395.279 133.172 394.266C117.786 391.546 101.492 395.826 89.0924 405.239C90.8124 401.053 88.5191 396.946 86.9857 393.119C86.2924 391.439 85.6657 389.759 84.9457 388.106C84.3591 383.893 85.1857 379.746 86.5057 375.773L87.5191 375.279Z" fill="#E7F3F6"/>
<path d="M108 443.333C120.76 443.387 134.2 441.853 144.96 434.387C142.44 437.947 143.586 442.52 142.813 446.6C141.133 451.987 135.2 453.747 130.813 456.347C123 458.573 114.8 459.667 106.68 458.853C99.9864 456.92 91.5464 456.4 87.5731 449.8C86.8531 446.027 85.9731 442.28 85.7598 438.427C92.3998 442.493 100.386 443.24 108 443.333Z" fill="#E7F3F6"/>
<path d="M5.3457 435.84C11.2257 439.187 17.5057 442.08 24.2657 443.04C37.1724 444.92 50.919 445.68 63.199 440.507C63.759 439.533 64.3457 438.573 64.9457 437.64C63.7857 442.453 63.9724 447.733 61.5457 452.173C58.679 456.293 53.279 457 49.0124 458.973C40.8257 459.253 32.6257 459.213 24.439 458.906C18.839 457.346 13.2657 454.933 9.0257 450.88C5.63904 446.587 8.4257 440.333 5.3457 435.84Z" fill="#E7F3F6"/>
<path opacity="0.19" d="M24.4395 458.906C32.6261 459.213 40.8261 459.253 49.0128 458.973C46.6661 459.946 44.2261 460.64 41.7861 461.333H33.1728C30.5328 460.64 27.8395 460.186 25.1061 460.16C24.9328 459.84 24.5995 459.213 24.4395 458.906Z" fill="#2B2D2E"/>
</g>
<defs>
<clipPath id="clip0_489_24548">
<rect width="150.667" height="461.333" fill="white"/>
</clipPath>
</defs>
</svg>
