<svg width="378" height="615" viewBox="0 0 378 615" fill="none" xmlns="http://www.w3.org/2000/svg">
<g clip-path="url(#clip0_3071_20745)">
<path d="M147.053 35.3327C148.92 32.9327 150.44 30.0927 152.973 28.3194C158.24 26.5327 164.266 28.9594 167.453 33.426L167.28 34.4127C166.306 39.9327 165.32 45.6394 162.146 50.3994C152.973 65.2794 142.68 79.4394 133.706 94.466C126.786 92.586 120.84 88.186 116.613 82.4527C116.533 81.8394 116.373 80.6394 116.293 80.026C125.786 64.6127 136.826 50.2527 147.053 35.3327Z" fill="#DEFFFF"/>
<path d="M149.586 84.5723C152.293 79.8523 155.12 74.0256 161.306 73.5723C168.24 73.8923 173.933 78.8656 176.613 85.0389C182.386 85.4389 188.6 85.6123 193.613 88.8923C198.16 92.1723 200.453 97.6656 201.693 102.972C210.093 103.092 216.28 112.199 214.453 120.119C214.28 124.879 211.493 128.826 208.426 132.252C203.68 132.346 197.76 133.466 194.386 129.172C190.68 124.652 193.533 118.599 194.28 113.519C190.146 116.492 185.573 120.346 180.106 119.346C174.96 118.092 171.373 113.066 170.48 108.026C169.306 101.772 172.88 96.1056 174.306 90.2256C170.573 95.079 168.586 101.479 163.04 104.759C158.186 108.466 149.946 107.332 147.426 101.412C145.333 95.8789 146.706 89.5723 149.586 84.5723Z" fill="#DEFFFF"/>
<path d="M228.666 225.346L229.666 223.652C235.639 224.759 241.893 226.106 246.679 230.106C251.333 234.026 255.959 238.159 259.293 243.319C263.426 249.506 264.733 257.012 268.359 263.479C270.493 267.266 271.146 271.612 271.199 275.919C265.559 268.959 263.706 259.666 257.453 253.066C254.746 254.146 252.093 255.652 249.133 255.772C245.759 255.746 243.013 253.519 240.199 251.959C239.546 247.012 234.559 244.679 231.359 241.466C231.066 239.866 230.746 238.279 230.439 236.706L230.333 236.119C230.879 234.132 230.613 231.986 229.119 230.492C228.973 228.772 228.813 227.052 228.666 225.346Z" fill="#DEFFFF"/>
<path d="M194.426 237.092C192.413 231.638 198.199 226.065 203.653 227.145C214.999 228.665 222.493 238.452 231.613 244.358C234.066 248.612 238.319 251.478 240.719 255.798C247.413 258.492 250.639 265.492 253.066 271.825C248.546 268.825 244.639 265.025 240.653 261.372C237.119 264.625 232.879 267.012 227.973 267.225C232.946 270.958 237.493 275.265 241.133 280.318C236.879 278.492 232.706 276.505 228.493 274.598C227.719 279.452 225.186 283.598 220.639 285.705C214.546 281.398 208.079 277.652 201.399 274.372C196.479 272.012 190.519 270.358 187.679 265.265C185.986 261.932 184.946 257.532 187.226 254.225C189.546 250.478 194.826 250.065 198.533 251.732C207.599 256.305 215.439 263.732 225.613 265.838C220.399 259.572 213.893 254.545 208.186 248.745C204.093 244.238 196.386 243.452 194.426 237.092Z" fill="#DEFFFF"/>
<path d="M191.946 277.799C195.239 277.786 198.733 277.399 201.706 279.146C207.213 281.959 212.839 284.546 218.466 287.133C222.253 289.239 225.693 291.893 229.013 294.693C226.706 294.133 224.399 293.559 222.093 292.999C221.079 297.066 219.773 301.319 215.813 303.453C207.079 298.959 197.399 295.013 191.039 287.213C188.519 284.306 190.013 280.506 191.946 277.799Z" fill="#DEFFFF"/>
<path d="M167.28 34.4141C169.613 36.9607 169.386 40.7074 169.32 43.9341C168.68 54.6007 163.093 64.0941 157.613 72.9607C158.84 73.1607 160.066 73.3607 161.306 73.5741C155.12 74.0274 152.293 79.8541 149.586 84.5741C146.706 89.5741 145.333 95.8807 147.426 101.414C149.946 107.334 158.186 108.467 163.04 104.761C168.586 101.481 170.573 95.0808 174.306 90.2274C172.88 96.1074 169.306 101.774 170.48 108.027C171.373 113.067 174.96 118.094 180.106 119.347C185.573 120.347 190.146 116.494 194.28 113.521C193.533 118.601 190.68 124.654 194.386 129.174C197.76 133.467 203.68 132.347 208.426 132.254C200.173 140.881 190.746 149.094 186.013 160.334C177.386 162.387 168.4 163.121 159.573 162.374C148.96 159.574 137.68 157.521 128.653 150.894C124.253 148.134 120.186 144.841 116.84 140.854C116.626 133.454 117.106 125.894 114.64 118.787C112.706 106.414 114.36 93.8007 115.773 81.4541L116.613 82.4541C120.84 88.1874 126.786 92.5874 133.706 94.4674C142.68 79.4407 152.973 65.2807 162.146 50.4007C165.32 45.6407 166.306 39.9341 167.28 34.4141Z" fill="#BEDEDE"/>
<path d="M240.199 251.961C243.012 253.521 245.759 255.748 249.133 255.774C252.093 255.654 254.746 254.148 257.452 253.068C263.706 259.668 265.559 268.961 271.199 275.921C270.999 276.241 270.599 276.881 270.399 277.214C264.786 285.294 258.786 293.161 252.333 300.614C249.026 303.974 245.893 307.494 242.773 311.028C234.213 307.174 224.413 307.361 215.812 303.454C219.773 301.321 221.079 297.068 222.093 293.001C224.399 293.561 226.706 294.134 229.012 294.694C225.692 291.894 222.253 289.241 218.466 287.134C218.999 286.788 220.092 286.068 220.639 285.708C225.186 283.601 227.719 279.454 228.492 274.601C232.706 276.508 236.879 278.494 241.133 280.321C237.493 275.268 232.946 270.961 227.972 267.228C232.879 267.014 237.119 264.628 240.653 261.374C244.639 265.028 248.546 268.828 253.066 271.828C250.639 265.494 247.412 258.494 240.719 255.801C240.586 254.841 240.332 252.921 240.199 251.961Z" fill="#BEDEDE"/>
<path d="M116.84 140.854C120.187 144.84 124.254 148.134 128.654 150.894C137.68 157.52 148.96 159.573 159.574 162.373C158.614 164.693 157.654 167 156.707 169.333C140.507 169.333 124.307 169.333 108.094 169.333C109.374 162.493 111.507 155.853 114.054 149.4C115.107 146.587 116.907 143.974 116.84 140.854Z" fill="#66909D"/>
<path d="M270.401 277.214C271.401 276.907 273.387 276.321 274.387 276.027C280.161 282.387 285.427 290.027 286.814 298.641C285.347 308.401 278.454 316.267 271.947 323.281C267.201 319.787 262.534 315.961 259.321 310.934C257.107 307.414 255.081 303.761 252.334 300.614C258.787 293.161 264.787 285.294 270.401 277.214Z" fill="#66909D"/>
<path d="M159.574 162.374C168.4 163.121 177.387 162.387 186.014 160.334C185.44 163.374 184.667 166.374 183.76 169.334C174.747 169.334 165.72 169.334 156.707 169.334C157.654 167.001 158.614 164.694 159.574 162.374Z" fill="#457482"/>
<path d="M62.6801 169.588C77.8001 169.001 92.9601 169.494 108.093 169.334C124.307 169.334 140.507 169.334 156.707 169.334C165.72 169.334 174.747 169.334 183.76 169.334C195.533 169.321 207.307 169.348 219.08 169.334C219.747 172.188 220.373 175.081 220.307 178.054C220.04 178.441 219.507 179.201 219.24 179.588C212.333 180.628 205.36 179.761 198.413 179.828C161.52 179.761 124.613 180.921 87.7201 179.868C82.8135 179.788 77.9068 180.001 73.0135 180.094C70.3201 180.108 67.6401 180.068 64.9601 180.014C64.0001 176.588 62.5335 173.228 62.6801 169.588Z" fill="#FFF4BD"/>
<path d="M220.307 178.054L220.747 177.414C223.267 193.401 226.2 209.334 228.667 225.347C228.814 227.054 228.974 228.774 229.12 230.494C228.147 232.441 228.44 234.827 230.334 236.121L230.44 236.707C230.8 239.254 231.174 241.814 231.614 244.361C222.494 238.454 215 228.667 203.654 227.147C198.2 226.067 192.414 231.641 194.427 237.094C196.387 243.454 204.094 244.241 208.187 248.747C213.894 254.547 220.4 259.574 225.614 265.841C215.44 263.734 207.6 256.307 198.534 251.734C194.827 250.067 189.547 250.481 187.227 254.227C184.947 257.534 185.987 261.934 187.68 265.267C190.52 270.361 196.48 272.014 201.4 274.374C208.08 277.654 214.547 281.401 220.64 285.707C220.094 286.067 219 286.787 218.467 287.134C212.84 284.547 207.214 281.961 201.707 279.147C198.734 277.401 195.24 277.787 191.947 277.801C190.014 280.507 188.52 284.307 191.04 287.214C197.4 295.014 207.08 298.961 215.814 303.454C224.414 307.361 234.214 307.174 242.774 311.027C237.76 315.147 241.04 322.161 244.054 326.494C246.84 330.534 247.2 335.841 247.187 340.601C246.854 340.961 246.174 341.667 245.827 342.027C238.96 342.734 232.04 342.361 225.16 342.081C213.547 341.361 201.894 341.734 190.267 341.507C166.72 341.481 143.187 341.014 119.64 341.187C117.254 341.134 114.867 340.934 112.494 340.721C102.56 300.774 92.6003 260.841 82.867 220.854C79.4937 207.281 75.867 193.774 73.0137 180.094C77.907 180.001 82.8137 179.787 87.7203 179.867C124.614 180.921 161.52 179.761 198.414 179.827C205.36 179.761 212.334 180.627 219.24 179.587C219.507 179.201 220.04 178.441 220.307 178.054Z" fill="#EFDD85"/>
<path d="M64.9609 180.014C67.6409 180.067 70.3209 180.107 73.0143 180.094C75.8676 193.774 79.4943 207.28 82.8676 220.854C92.6009 260.84 102.561 300.774 112.494 340.72C114.868 340.934 117.254 341.134 119.641 341.187C143.188 341.014 166.721 341.48 190.268 341.507C201.894 341.734 213.548 341.36 225.161 342.08C232.041 342.36 238.961 342.734 245.828 342.027C246.174 341.667 246.854 340.96 247.188 340.6L247.814 339.92C248.241 343.214 248.788 346.534 248.334 349.88C212.561 349.787 176.801 348.414 141.028 348.28C130.254 348.334 119.268 346.387 108.641 348.707C105.081 346.494 105.361 342 104.254 338.454C91.1476 285.64 78.0276 232.84 64.9609 180.014Z" fill="#E4CA8F"/>
<path opacity="0.84" d="M229.12 230.494C230.613 231.987 230.88 234.134 230.333 236.121C228.44 234.827 228.146 232.441 229.12 230.494Z" fill="#C2C498"/>
<path d="M252.334 300.613C255.081 303.76 257.108 307.413 259.321 310.933C262.534 315.96 267.201 319.787 271.948 323.28C267.068 327.96 261.574 333.053 254.334 333C249.748 333.4 246.814 329.493 244.054 326.493C241.041 322.16 237.761 315.147 242.774 311.027C245.894 307.493 249.028 303.973 252.334 300.613Z" fill="#447382"/>
<path d="M324.398 511.12C324.572 506.88 329.012 503.64 332.772 502.173C339.772 500.64 349.572 501.32 352.865 508.72C349.865 518.573 348.972 528.813 347.985 539.013C342.305 538.133 336.572 537.867 330.838 538.253C328.678 529.213 327.078 520.04 324.398 511.12Z" fill="#B0CCD3"/>
<path d="M207.439 509.706C216.239 507.519 225.786 505.826 234.559 508.986C236.772 509.946 239.692 511.386 239.426 514.279C236.692 521.399 234.826 528.812 232.132 535.959C227.172 533.852 222.119 531.546 216.652 531.292C212.466 531.199 208.466 532.692 204.506 533.906C203.746 533.359 202.986 532.839 202.226 532.319C201.892 527.346 201.586 522.372 201.586 517.399C201.346 513.812 203.932 510.412 207.439 509.706Z" fill="#B0CCD3"/>
<path d="M352.867 508.72C357.174 508.333 361.534 507.88 365.841 508.614C366.841 514.107 363.427 519.04 362.787 524.4C361.081 530.774 361.227 537.387 361.787 543.92C371.241 548.6 376.587 558.96 375.961 569.36C375.801 568.654 375.454 567.24 375.281 566.534C375.214 574.24 372.827 582.08 367.374 587.694C359.254 596.174 347.814 602.84 335.694 601.133C327.801 599.733 319.547 597.213 313.814 591.307C311.574 589.093 309.374 586.854 307.027 584.774C307.267 589 308.214 593.147 309.294 597.227C306.947 594.733 307 591.12 306.734 587.947C306.374 581.507 304.467 575.014 305.894 568.6C307.641 562.934 310.867 557.867 314.227 553.04C315.041 551.614 316.401 550.16 315.921 548.387C315.241 543.293 313.88 538.334 313.107 533.267C311.72 527.08 310.454 520.774 310.734 514.4C314.934 512.187 319.681 511.294 324.401 511.12C327.081 520.04 328.681 529.214 330.841 538.254C336.574 537.867 342.307 538.134 347.987 539.014C348.974 528.814 349.867 518.573 352.867 508.72Z" fill="#8ABEC8"/>
<path d="M239.427 514.281L239.894 512.721C240.014 513.654 240.227 515.494 240.334 516.414C243.267 517.307 246.294 517.841 249.294 518.494C251.28 528.374 247.654 538.214 246.76 548.014C246.72 550.801 244.694 553.787 246.227 556.414L244.894 557.121C240.534 567.667 228.64 571.414 218.374 573.481C205.36 577.054 191.774 577.107 178.4 576.334C171.614 575.747 164.867 574.361 158.454 572.067C154.16 570.654 150.92 567.267 146.667 565.774L146 565.494C144.6 557.854 148.84 550.934 152.587 544.681C157.04 537.187 165.267 533.014 173.36 530.654C181.947 528.614 189.84 533.841 197.174 537.534C198.6 537.067 200.04 536.601 201.48 536.187C201.747 534.894 202 533.601 202.227 532.321C202.987 532.841 203.747 533.361 204.507 533.907C208.467 532.694 212.467 531.201 216.654 531.294C222.12 531.547 227.174 533.854 232.134 535.961C234.827 528.814 236.694 521.401 239.427 514.281Z" fill="#8ABEC8"/>
<path d="M218.373 573.479C228.639 571.412 240.533 567.666 244.893 557.119C246.853 561.266 245.053 566.279 245.266 570.786C244.146 575.039 241.213 578.692 236.919 579.999C231.293 581.666 225.519 582.679 219.879 584.252C211.906 585.932 203.906 587.359 195.799 588.146C184.253 588.799 172.559 589.039 161.186 586.559C156.546 585.359 151.679 583.986 147.826 581.052C146.186 576.212 146.946 570.826 146.666 565.772C150.919 567.266 154.159 570.652 158.453 572.066C164.866 574.359 171.613 575.746 178.399 576.332C191.773 577.106 205.359 577.052 218.373 573.479Z" fill="#C4E4EA"/>
<path d="M367.372 587.693C372.825 582.08 375.212 574.24 375.279 566.533C375.452 567.24 375.799 568.653 375.959 569.36C376.905 580.693 375.425 593.467 367.132 602C359.372 610.853 346.705 613.573 335.425 612.226C325.892 610.386 316.319 606.333 309.759 598.947C309.639 598.52 309.412 597.666 309.292 597.226C308.212 593.146 307.265 589 307.025 584.773C309.372 586.853 311.572 589.093 313.812 591.306C319.545 597.213 327.799 599.733 335.692 601.133C347.812 602.84 359.252 596.173 367.372 587.693Z" fill="#C4E4EA"/>
</g>
<defs>
<clipPath id="clip0_3071_20745">
<rect width="378" height="615" fill="white"/>
</clipPath>
</defs>
</svg>
