<svg width="362" height="204" viewBox="0 0 362 204" fill="none" xmlns="http://www.w3.org/2000/svg">
<path d="M148.241 3.97246C150.828 0.639126 155.388 0.399126 159.174 1.41246C224.041 8.94579 288.934 16.3591 353.761 24.0125C356.308 24.3058 358.454 25.4258 359.681 27.7325C359.428 29.6658 360.574 33.9325 357.601 34.0525C346.868 35.5591 336.241 32.3458 325.548 31.7858C269.214 25.0925 212.828 18.8125 156.494 12.0658C155.881 12.4391 154.654 13.1858 154.054 13.5591C107.321 57.9725 60.4011 102.186 13.6811 146.586C11.9611 148.426 9.62781 149.372 7.25447 150.052C5.56114 150.239 2.94781 149.852 3.66781 147.439L2.32114 147.026C2.06781 144.479 2.56114 141.879 4.50781 140.106C52.4145 94.7191 100.348 49.3591 148.241 3.97246Z" fill="#6B6B6B"/>
<path d="M154.054 13.5597C154.654 13.1864 155.881 12.4397 156.494 12.0664C212.827 18.8131 269.214 25.0931 325.547 31.7864C336.241 32.3464 346.867 35.5597 357.601 34.0531C357.867 36.1331 356.094 37.4131 355.147 38.9731C340.027 60.7197 324.894 82.4397 309.667 104.106C307.601 101.386 306.547 98.1064 305.267 94.9731C300.347 82.7598 294.907 70.7464 289.721 58.6531C287.587 54.2131 282.001 54.0264 277.761 53.4797C263.147 51.3064 248.334 52.2664 233.614 52.1464C196.201 55.8797 158.401 66.3064 127.614 88.6131C110.321 102.053 94.7339 118.493 85.4406 138.546C84.4006 141.493 82.3072 144.586 83.4139 147.813C85.5472 154.466 88.6006 160.853 89.7739 167.786C62.3739 162.746 35.0539 157.76 7.74724 152.2L7.25391 150.053C9.62724 149.373 11.9606 148.426 13.6806 146.586C60.4006 102.186 107.321 57.9731 154.054 13.5597Z" fill="black"/>
<path d="M127.614 88.6139C158.4 66.3073 196.2 55.8806 233.614 52.1473C248.334 52.2673 263.147 51.3073 277.76 53.4806C282 54.0273 287.587 54.2139 289.72 58.6539C294.907 70.7473 300.347 82.7606 305.267 94.9739C306.547 98.1073 307.6 101.387 309.667 104.107C310.84 105.627 310.88 107.227 309.787 108.947C313.507 114.161 313.254 120.627 313.907 126.734C312.574 127.387 311.2 127.974 309.8 128.481C303.2 130.654 296.294 126.347 289.947 129.454C285.2 130.974 280.134 130.134 275.267 129.774C269.654 135.841 263.08 141.574 259.667 149.334C256.894 150.867 253.787 151.867 250.867 153.161C250.347 146.894 247.254 141.067 247.427 134.707C247.2 127.547 250.294 120.907 252.894 114.414C248.494 117.107 243.267 119.227 240 123.307C237.294 131.094 232.054 138.161 224.36 141.547C221 142.827 217.934 140.187 215 138.987C191.894 154.401 170.174 171.787 148.827 189.534C136.28 194.254 123.587 198.734 110.96 203.321C108.134 203.374 105.294 203.321 102.467 203.361C99.8003 190.987 93.2003 179.921 89.7736 167.787C88.6003 160.854 85.547 154.467 83.4136 147.814C82.307 144.587 84.4003 141.494 85.4403 138.547C94.7336 118.494 110.32 102.054 127.614 88.6139Z" fill="#191919"/>
<path d="M240.001 123.307C243.268 119.227 248.495 117.107 252.895 114.414C250.295 120.907 247.201 127.547 247.428 134.707C247.255 141.067 250.348 146.894 250.868 153.161C242.441 156.694 234.001 160.227 225.575 163.747C200.001 172.387 174.375 180.854 148.828 189.534C170.175 171.787 191.895 154.401 215.001 138.987C217.935 140.187 221.001 142.827 224.361 141.547C232.055 138.161 237.295 131.094 240.001 123.307Z" fill="#8C8C8C"/>
<path d="M289.948 129.453C296.295 126.346 303.201 130.653 309.801 128.479C293.081 135.399 276.481 142.653 259.668 149.333C263.081 141.573 269.655 135.839 275.268 129.773C280.135 130.133 285.201 130.973 289.948 129.453Z" fill="#A50000"/>
</svg>
