<svg width="362" height="204" viewBox="0 0 362 204" fill="none" xmlns="http://www.w3.org/2000/svg">
<path d="M150.067 2.59912C153.014 0.0924538 156.987 1.02579 160.467 1.50579C224.92 8.98579 289.387 16.4391 353.854 23.9458C355.587 24.6525 359.414 24.3591 358.694 27.2658L360.134 27.3458C360.014 29.4925 359.867 31.6525 359.694 33.8125C359.254 33.9458 358.374 34.2391 357.92 34.3725C355.8 34.9858 353.6 35.4258 351.4 35.0791C286.414 27.4658 221.4 20.0391 156.414 12.4258C118.12 48.0925 80.4002 84.3725 42.2802 120.226C32.1202 129.639 22.4269 139.559 11.9869 148.666C10.1602 150.906 7.41352 149.532 5.13352 149.066L3.61352 148.746L4.26686 147.279L2.58686 147.292C1.65352 141.266 7.30686 137.959 10.9469 134.279C57.3602 90.4258 103.667 46.4525 150.067 2.59912Z" fill="#F39B97"/>
<path d="M42.2795 120.226C80.3995 84.3725 118.119 48.0924 156.413 12.4258C221.399 20.0391 286.413 27.4658 351.399 35.0791C353.599 35.4258 355.799 34.9858 357.919 34.3724C357.679 36.4791 356.106 38.0124 354.999 39.7058C340.039 61.0791 325.199 82.5591 310.133 103.879C303.706 88.5058 297.293 73.1325 290.559 57.9058C288.919 54.3325 284.439 53.7991 281.026 53.0791C258.746 50.3591 235.999 49.8925 213.879 54.1725C183.786 59.1725 154.026 69.2524 128.999 87.0391C112.693 99.0391 98.1595 113.906 88.3595 131.759C86.0661 136.039 83.7461 140.452 82.9195 145.306C84.2128 152.919 87.6928 159.986 89.5462 167.479C64.7462 163.559 40.1728 158.199 15.4261 153.826C11.7995 153.079 7.14615 152.546 5.13281 149.066C7.41281 149.532 10.1595 150.906 11.9861 148.666C22.4261 139.559 32.1195 129.639 42.2795 120.226Z" fill="#914441"/>
<path d="M213.88 54.173C236 49.893 258.747 50.3597 281.027 53.0797C284.44 53.7997 288.92 54.333 290.56 57.9064C297.293 73.133 303.707 88.5064 310.133 103.88C310.933 105.48 311.133 107.24 310.147 108.813C313.733 114.16 313.627 120.613 314.267 126.76C284.747 139.093 255.28 151.533 225.72 163.773C188.72 176.373 151.467 188.24 114.893 202.066C111.093 203.92 106.813 203.253 102.747 203.32C99.8666 190.88 93.8933 179.44 89.5466 167.48C87.6933 159.986 84.2133 152.92 82.9199 145.306C83.7466 140.453 86.0666 136.04 88.3599 131.76C98.1599 113.906 112.693 99.0397 129 87.0397C154.027 69.253 183.787 59.173 213.88 54.173Z" fill="#D26F6B"/>
</svg>
