<svg width="790" height="750" viewBox="0 0 790 750" fill="none" xmlns="http://www.w3.org/2000/svg">
<path d="M47.4135 10.3867C54.2802 5.24008 62.4802 0.373411 71.4269 2.41341C77.4269 2.78674 81.8669 7.16008 84.4669 12.2534L84.2535 13.1334C83.3469 15.8801 83.3069 19.4934 80.4135 21.0401C74.3602 25.0267 67.2135 28.1867 63.4002 34.7067C61.1735 38.6401 59.5069 43.8267 61.8802 48.0534C64.8002 52.3067 70.2269 53.8267 73.5069 57.7334C74.9735 62.7867 71.0935 67.6267 67.6669 70.9601C58.6669 78.2934 48.1069 84.5867 36.1869 85.0534C31.9469 82.6934 26.8935 81.1867 23.9202 77.0934C17.6269 68.4267 13.2669 57.4134 15.6269 46.5867C16.4535 42.8134 16.8402 37.8001 21.1069 36.3467C22.1335 29.6267 23.4002 22.1867 28.6669 17.3334C33.5069 12.3334 40.5602 10.1067 47.4135 10.3867Z" fill="#EFEFEF"/>
<path d="M89.9603 82.7194C99.0003 76.1594 105.227 66.4794 114.387 60.0527C117.534 63.8927 121.427 66.9994 124.72 70.6927C119.934 86.2527 107.88 98.3194 94.2803 106.626C86.1737 110.239 77.347 113.533 68.307 112.679C65.9603 108.479 64.2537 103.973 62.0137 99.7061C70.747 93.1194 81.027 88.9994 89.9603 82.7194Z" fill="#EFEFEF"/>
<path d="M84.2522 13.1328C84.7189 14.8661 85.0655 16.6395 85.3455 18.4261C89.6522 19.2261 94.2656 18.9461 98.3056 20.8795C101.812 23.0528 104.106 26.7061 105.839 30.3728C109.492 39.9461 112.439 49.7862 114.759 59.7728L114.386 60.0528C105.226 66.4795 98.9989 76.1595 89.9589 82.7195C81.0256 88.9995 70.7455 93.1195 62.0122 99.7061C59.7722 96.2928 56.8922 93.2661 53.4655 91.0261C48.1855 87.7728 41.6922 87.7595 36.1855 85.0528C48.1055 84.5862 58.6655 78.2928 67.6655 70.9595C71.0922 67.6262 74.9722 62.7861 73.5056 57.7328C70.2256 53.8261 64.7989 52.3061 61.8789 48.0528C59.5055 43.8261 61.1722 38.6395 63.3989 34.7061C67.2122 28.1861 74.3589 25.0261 80.4122 21.0395C83.3055 19.4928 83.3455 15.8795 84.2522 13.1328Z" fill="#E3E3E3"/>
<path d="M593.758 242.44L594.278 241.68C600.331 245.04 607.491 245.293 614.211 244.373C609.678 255.466 609.198 269.093 615.891 279.44C618.278 283.386 622.371 285.746 626.425 287.68C632.171 290.373 637.611 293.76 643.638 295.84C643.798 300.026 643.571 304.253 644.331 308.386C644.945 311.693 647.745 313.88 649.891 316.253C642.011 316.213 633.851 315.16 626.905 311.213C624.371 309.853 622.211 307.653 619.358 306.986C611.878 308.24 604.651 310.72 597.091 311.48L596.385 310.466C591.198 303.306 586.265 295.573 584.945 286.653C582.798 277.28 584.398 267.573 587.131 258.506C588.918 253 590.425 247.253 593.758 242.44Z" fill="#E3E3E3"/>
<path d="M616.492 129.36C621.412 128.346 626.492 127.973 631.506 128.32C636.492 128.546 641.039 132.346 641.999 137.28C641.519 136.64 640.572 135.373 640.092 134.733C635.106 140.76 629.812 146.666 623.252 151.04C620.826 146.76 618.866 142.053 615.319 138.546C614.199 137.266 612.292 137.866 610.852 138.013C605.132 139.28 599.759 141.773 594.746 144.773C594.159 142.626 593.586 140.466 593.039 138.32C599.892 133.28 608.372 131.32 616.492 129.36Z" fill="#CB9534"/>
<path d="M623.253 151.039C629.813 146.666 635.106 140.759 640.093 134.732C640.573 135.372 641.519 136.639 641.999 137.279C642.759 163.119 646.986 188.812 652.439 214.079C654.453 220.119 657.599 226.506 655.039 232.919C651.959 240.252 646.186 246.506 639.133 250.199C636.519 246.399 633.533 242.826 629.959 239.906C621.693 232.919 615.893 223.572 610.239 214.466C600.026 196.146 590.693 177.172 584.973 156.906C597.826 159.132 612.106 158.479 623.253 151.039Z" fill="#EED76F"/>
<path d="M667.105 312.278C677.185 307.092 687.719 302.092 695.532 293.625C704.559 298.212 712.412 304.758 720.519 310.785C728.439 316.878 737.572 321.145 745.679 326.985C755.866 333.705 765.319 341.798 776.866 346.118C782.986 349.012 778.612 356.305 778.359 361.238C775.399 370.785 770.426 379.692 764.186 387.478C758.412 394.825 749.625 399.545 740.425 400.852C737.265 401.412 734.106 400.505 731.359 398.945C724.092 392.252 717.465 384.865 711.652 376.865C702.372 364.025 692.106 351.905 683.679 338.465C678.199 329.705 672.052 321.332 667.105 312.278Z" fill="#EED76F"/>
<path d="M610.853 138.013C612.293 137.866 614.199 137.266 615.319 138.546C618.866 142.053 620.826 146.759 623.253 151.039C612.106 158.479 597.826 159.133 584.973 156.906C585.786 151.359 590.426 147.733 594.746 144.773C599.759 141.773 605.133 139.279 610.853 138.013Z" fill="#DDB567"/>
<path d="M764.186 387.48C770.426 379.694 775.399 370.787 778.359 361.24C781.599 361.854 784.773 362.787 787.919 363.84C789.226 373.16 782.093 380.347 777.706 387.747C771.959 396.867 761.239 400.854 751.199 403.027C745.479 403.814 739.173 404.6 733.839 401.934C732.439 401.534 732.066 399.974 731.359 398.947C734.106 400.507 737.266 401.414 740.426 400.854C749.626 399.547 758.413 394.827 764.186 387.48Z" fill="#DDB567"/>
<path d="M652.439 214.079C658.759 208.706 667.706 207.679 675.466 210.079C680.212 212.266 684.239 216.133 686.679 220.746C689.666 226.679 688.052 233.439 688.519 239.786C688.466 243.746 692.119 246.279 693.266 249.853C695.399 255.746 692.879 261.919 693.359 267.919C696.506 272.773 700.332 278.039 699.626 284.146C699.052 287.573 697.266 290.666 695.532 293.626C687.719 302.093 677.186 307.093 667.106 312.279C661.572 314.306 655.852 316.226 649.892 316.253C647.746 313.879 644.946 311.693 644.332 308.386C643.572 304.253 643.799 300.026 643.639 295.839C647.266 295.106 651.639 295.199 654.399 292.439C656.106 286.373 654.226 279.386 650.106 274.626C646.599 270.119 641.452 266.719 639.479 261.146C638.106 257.639 638.546 253.813 639.132 250.199C646.186 246.506 651.959 240.253 655.039 232.919C657.599 226.506 654.452 220.119 652.439 214.079Z" fill="#F2F2F2"/>
<path d="M583.772 237.826C587.706 236.813 591.946 238.799 593.759 242.439C590.426 247.253 588.919 252.999 587.132 258.506C584.399 267.573 582.799 277.279 584.946 286.653C586.266 295.573 591.199 303.306 596.386 310.466C594.506 313.813 591.239 315.946 587.946 317.733C586.212 318.679 583.679 318.639 582.479 316.893C575.439 309.533 571.946 299.733 569.252 290.133C566.079 277.773 567.079 264.079 573.292 252.786C575.732 247.093 580.546 243.026 583.772 237.826Z" fill="#D4D4D4"/>
<path d="M614.212 244.373C616.119 242 617.999 239.387 620.745 237.933C623.852 237.027 627.479 237.773 629.959 239.907C633.532 242.827 636.519 246.4 639.132 250.2C638.545 253.813 638.105 257.64 639.479 261.147C641.452 266.72 646.599 270.12 650.105 274.627C654.225 279.387 656.105 286.373 654.399 292.44C651.639 295.2 647.266 295.107 643.639 295.84C637.612 293.76 632.172 290.373 626.425 287.68C622.372 285.747 618.279 283.387 615.892 279.44C609.199 269.093 609.679 255.467 614.212 244.373Z" fill="#D4D4D4"/>
<path d="M13.7322 550.401C19.9322 544.494 27.5989 538.627 36.6255 539.147C45.7855 539.281 53.3855 545.667 58.8789 552.454C62.2255 556.307 62.2522 561.774 64.6122 566.041C69.2389 568.801 73.7989 571.654 77.8389 575.241C80.5189 571.054 82.6922 565.934 87.3855 563.601C90.3722 563.014 93.1055 564.814 95.7189 565.974C103.919 570.161 111.559 577.374 113.186 586.747C114.399 601.841 103.812 613.907 97.6389 626.721C93.9989 622.627 92.5722 617.081 88.9989 613.014C80.6389 606.894 69.0789 606.774 61.5189 599.201C51.7189 591.561 51.2122 578.001 44.0122 568.601C38.8389 563.654 31.5589 559.227 24.1322 560.681C18.0789 562.761 12.6122 566.867 8.78553 571.974C5.86553 578.121 5.75886 585.161 3.3722 591.521C1.2922 583.347 0.718862 574.787 3.22553 566.641C4.59886 560.094 9.3722 555.147 13.7322 550.401Z" fill="#DCB040"/>
<path d="M365.959 634.081C380.493 631.521 395.626 633.387 409.493 638.201C415.199 640.974 413.906 649.214 408.826 651.947C401.053 648.641 392.999 645.787 384.586 644.774C377.119 643.881 369.679 645.507 362.533 647.507C361.133 643.201 359.479 634.734 365.959 634.081Z" fill="#DCB040"/>
<path d="M357.212 676.082C371.865 670.415 392.145 673.708 399.572 688.988C402.785 695.788 402.852 703.468 403.972 710.762C404.852 716.042 404.092 721.375 402.665 726.482C392.092 731.508 380.132 731.415 368.679 731.455C356.505 730.802 343.852 727.735 334.252 719.842C331.572 717.722 329.105 715.362 326.639 713.028C327.039 700.842 336.172 691.442 344.985 684.108C348.732 680.988 352.465 677.588 357.212 676.082Z" fill="#DCB040"/>
<path d="M64.6133 566.04C71.3999 562.36 78.5866 559.293 86.2 557.853C90.7733 557.386 98.5333 560.053 95.72 565.973C93.1066 564.813 90.3733 563.013 87.3866 563.6C82.6933 565.933 80.52 571.053 77.84 575.239C73.8 571.653 69.2399 568.8 64.6133 566.04Z" fill="#FDF1A5"/>
<path d="M362.533 647.506C369.68 645.506 377.12 643.879 384.586 644.773C393 645.786 401.053 648.639 408.826 651.946C409.226 652.119 410.026 652.439 410.426 652.599C411.8 654.799 413.066 657.399 411.946 660.039C407.186 669.399 403.68 679.333 399.573 688.986C392.146 673.706 371.866 670.413 357.213 676.079C358.84 670.813 356.746 665.346 357.426 659.959C357.666 655.519 356.386 648.306 362.533 647.506Z" fill="#FDF1A5"/>
<path d="M24.133 560.681C31.5597 559.228 38.8397 563.654 44.013 568.601C51.213 578.001 51.7197 591.561 61.5197 599.201C69.0797 606.774 80.6397 606.894 88.9997 613.014C92.5731 617.081 93.9997 622.628 97.6397 626.721C93.5197 635.214 89.6531 644.908 80.5997 649.321C72.1597 652.881 60.7597 654.054 53.7864 646.881C46.0131 639.841 35.4797 637.174 27.373 630.641C21.2797 626.148 15.0264 621.334 11.5197 614.441C7.37305 607.361 5.33305 599.401 3.37305 591.521C5.75971 585.161 5.86638 578.121 8.78638 571.974C12.613 566.868 18.0797 562.761 24.133 560.681Z" fill="#B6943B"/>
<path d="M321.506 725.347C322.933 721.134 324.253 716.827 326.639 713.027C329.106 715.361 331.573 717.721 334.253 719.841C343.853 727.734 356.506 730.801 368.679 731.454C380.133 731.414 392.093 731.507 402.666 726.481C402.613 730.481 403.226 734.934 400.839 738.441C397.386 743.361 391.253 745.014 385.866 746.894C375.066 750.547 363.733 747.587 352.853 746.041C344.799 745.094 337.826 740.694 331.093 736.507C326.853 733.854 323.413 729.987 321.506 725.347Z" fill="#B6943B"/>
</svg>
