<svg width="60" height="56" viewBox="0 0 60 56" fill="none" xmlns="http://www.w3.org/2000/svg">
<g clip-path="url(#clip0_509_26078)">
<path opacity="0.13" d="M23.1055 -0.00195312H28.2875L28.0063 0.0753906C26.5063 0.164453 25.0063 0.239453 23.5063 0.293359C23.4055 0.218359 23.2062 0.0707031 23.1055 -0.00195312Z" fill="#201A0F"/>
<path d="M23.504 0.293359C25.004 0.239453 26.504 0.164453 28.004 0.0753906C28.5783 0.0707031 29.1525 0.0660156 29.7267 0.0566406C29.6587 4.12539 29.6329 8.20117 29.7454 12.2699C29.7056 12.2723 29.6259 12.2723 29.5884 12.2746C27.6079 12.3215 25.6392 12.5371 23.6587 12.5441C18.0994 12.9613 12.4087 14.3465 7.86185 17.7121C6.31967 18.8207 5.02357 20.3324 4.36029 22.1301C3.03842 22.1605 1.62982 22.3504 0.371228 21.8652C0.207166 21.148 0.0759159 20.4145 0.157947 19.6738C0.354822 17.7309 0.793103 15.802 1.58529 14.0113C2.59779 11.7262 3.82592 9.48555 5.60248 7.70195C7.26654 5.95352 9.16498 4.41367 11.2954 3.26758C15.0267 1.24727 19.297 0.448047 23.504 0.293359Z" fill="#F0C477"/>
<path d="M29.7263 0.0569361C36.6919 -0.0790014 43.9622 0.907717 50.0044 4.60147C52.6763 6.20694 54.9544 8.44053 56.7099 11.0116C58.163 13.3554 58.9786 16.0319 59.5646 18.7085C59.6747 19.6507 59.8763 20.6351 59.5927 21.5655C58.4888 22.2171 57.0708 21.9382 55.8755 22.3812C55.681 22.2991 55.4865 22.2147 55.2943 22.1304C54.5841 20.3749 53.138 19.0577 51.6685 17.928C49.1302 15.8562 46.0036 14.6608 42.8771 13.7983C40.0013 13.0647 37.0388 12.7835 34.0927 12.4765C32.6513 12.2796 31.1958 12.228 29.745 12.2702C29.6325 8.20147 29.6583 4.12569 29.7263 0.0569361Z" fill="#DBB36D"/>
<path d="M29.5938 12.2762C29.6312 12.2739 29.7109 12.2739 29.7508 12.2715C31.2016 12.2293 32.657 12.2809 34.0984 12.4778C37.0445 12.7848 40.007 13.066 42.8828 13.7996C46.0094 14.6621 49.1359 15.8574 51.6742 17.9293C53.1437 19.059 54.5898 20.3762 55.3 22.1317C55.4922 22.216 55.6867 22.3004 55.8812 22.3825C56.4109 29.2192 56.8984 36.0582 57.407 42.8973C57.6766 45.4824 57.6648 48.0934 58.0727 50.6621C56.7016 51.1168 55.3258 51.5692 53.9195 51.9114C48.6766 53.034 43.4406 54.2668 38.0898 54.7684C37.3539 51.8926 36.7023 48.9957 36.0508 46.1012C35.9172 45.5059 35.7508 44.9199 35.5773 44.3364C33.6109 44.1653 31.6328 44.3035 29.6617 44.2567C29.6641 43.5606 29.6805 42.8621 29.7062 42.166C31.6492 42.2082 33.6016 42.2598 35.5398 42.1262L35.5539 41.8778C35.568 41.2239 35.5539 40.57 35.5516 39.9184C33.6039 39.7731 31.6562 39.9723 29.7086 39.9043C29.7062 39.7614 29.6992 39.4778 29.6969 39.3348C29.6547 31.7715 29.6922 24.2059 29.6781 16.6403C29.6617 15.1848 29.7531 13.727 29.5938 12.2762ZM40.0305 20.5356C40.0211 23.4465 39.993 26.3598 40.0469 29.2731C40.3398 29.2942 40.6352 29.3176 40.9305 29.3387C43.4922 29.327 46.0516 29.3153 48.6109 29.334C48.6367 26.716 48.6203 24.0957 48.6203 21.4778C48.6156 21.159 48.6133 20.8403 48.6086 20.5215C45.7492 20.5098 42.8898 20.484 40.0305 20.5356Z" fill="#AE7031"/>
<path d="M7.8669 17.7148C12.4138 14.3492 18.1044 12.9641 23.6638 12.5469C25.6442 12.5398 27.613 12.3242 29.5935 12.2773C29.7528 13.7281 29.6614 15.1859 29.6778 16.6414C29.6919 24.207 29.6544 31.7727 29.6966 39.3359C27.088 39.3523 24.4771 39.2773 21.8708 39.3734C21.8614 40.1961 21.8638 41.0187 21.8778 41.8414C22.2013 41.8695 22.5247 41.8977 22.8505 41.9258C25.1052 42.3664 27.4255 41.9516 29.706 42.1672C29.6802 42.8633 29.6638 43.5617 29.6614 44.2578C27.5122 44.2297 25.3607 44.2648 23.2114 44.2367C22.7778 44.2602 22.2997 44.1875 21.9083 44.4172C21.5755 45.0945 21.4489 45.8469 21.2474 46.5687C20.5911 49.0578 19.9419 51.5492 19.2646 54.0336C16.1122 53.3867 12.9388 52.8125 9.83565 51.957C7.34893 51.1391 4.88565 50.2555 2.41065 49.3977C2.02628 49.2805 1.70518 48.9172 1.72393 48.5023C1.663 47.3023 1.9255 46.1187 2.00518 44.9258C2.8044 37.3297 3.54971 29.7266 4.36534 22.1328C5.02862 20.3352 6.32471 18.8234 7.8669 17.7148ZM10.956 20.6117C10.963 23.5695 10.8599 26.5367 11.0075 29.4875C11.2771 29.4758 11.5466 29.4617 11.8185 29.45C14.4083 29.4383 16.9982 29.4852 19.588 29.4266C19.5341 26.7617 19.5786 24.0969 19.5646 21.4297C19.5575 21.1578 19.5528 20.8836 19.5458 20.6117C16.6817 20.6 13.8177 20.6 10.956 20.6117Z" fill="#C98540"/>
<path opacity="0.24" d="M59.5664 18.709C59.6906 19.1824 59.8523 19.6441 59.9977 20.1129V21.2332C59.8969 21.3152 59.6953 21.484 59.5945 21.566C59.8781 20.6355 59.6766 19.6512 59.5664 18.709Z" fill="#352B1A"/>
<path d="M10.9504 20.6104C13.8121 20.5986 16.6762 20.5986 19.5402 20.6104C19.5473 20.8822 19.552 21.1564 19.559 21.4283C16.9879 21.4939 14.4121 21.4869 11.8387 21.4447C11.7027 24.1119 11.6863 26.7814 11.8129 29.4486C11.541 29.4604 11.2715 29.4744 11.002 29.4861C10.8543 26.5354 10.9574 23.5682 10.9504 20.6104Z" fill="#D1AB82"/>
<path d="M21.865 39.3723C24.4713 39.2762 27.0822 39.3512 29.6908 39.3348C29.6931 39.4777 29.7002 39.7613 29.7025 39.9043V39.9676C27.5205 39.9207 25.3384 39.9957 23.1564 39.9981C23.1283 40.6379 23.1025 41.2777 23.0814 41.9176L22.8447 41.9246C22.5189 41.8965 22.1955 41.8684 21.872 41.8402C21.858 41.0176 21.8556 40.1949 21.865 39.3723Z" fill="#D1AB82"/>
<path d="M40.0274 20.5349C42.8868 20.4833 45.7462 20.5091 48.6056 20.5208C48.6103 20.8395 48.6126 21.1583 48.6173 21.4771C46.0978 21.5028 43.5782 21.5005 41.0563 21.5099C40.897 24.1161 40.8993 26.7294 40.9274 29.338C40.6321 29.3169 40.3368 29.2935 40.0438 29.2724C39.9899 26.3591 40.0181 23.4458 40.0274 20.5349Z" fill="#B7946F"/>
<path d="M11.8424 21.4441C14.4159 21.4863 16.9917 21.4934 19.5627 21.4277C19.5768 24.0949 19.5323 26.7598 19.5862 29.4246C16.9963 29.4832 14.4065 29.4363 11.8166 29.448C11.6901 26.7809 11.7065 24.1113 11.8424 21.4441Z" fill="#FFF3DE"/>
<path d="M23.1609 39.997C25.343 39.9947 27.525 39.9197 29.707 39.9666C29.7023 40.6017 29.6695 41.2392 29.625 41.8744C27.4453 41.9048 25.2633 41.8275 23.0859 41.9166C23.107 41.2767 23.1328 40.6369 23.1609 39.997Z" fill="#FFF3DE"/>
<path d="M41.0576 21.5094C43.5795 21.5 46.0991 21.5023 48.6186 21.4766C48.6186 24.0945 48.635 26.7148 48.6092 29.3328C46.0498 29.3141 43.4905 29.3258 40.9287 29.3375C40.9006 26.7289 40.8983 24.1156 41.0576 21.5094Z" fill="#E0D5C2"/>
<path d="M29.707 39.9037C31.6547 39.9716 33.6023 39.7724 35.55 39.9177C35.5523 40.5693 35.5664 41.2232 35.5523 41.8771C33.5766 41.863 31.6008 41.863 29.625 41.8748C29.6695 41.2396 29.7023 40.6021 29.707 39.967V39.9037Z" fill="#E0D2BB"/>
<path d="M22.8477 41.923L23.0844 41.9159C25.2617 41.8269 27.4438 41.9042 29.6234 41.8738C31.5992 41.862 33.575 41.862 35.5508 41.8761L35.5367 42.1245C33.5984 42.2581 31.6461 42.2066 29.7031 42.1644C27.4227 41.9488 25.1023 42.3636 22.8477 41.923Z" fill="#B46B23"/>
<path d="M21.9055 44.4148C22.2969 44.1852 22.775 44.2578 23.2086 44.2344C25.3578 44.2625 27.5094 44.2273 29.6586 44.2555C29.6633 44.8695 29.668 45.4836 29.675 46.0977C27.3805 46.1281 25.0859 46.0695 22.7961 46.1609C22.0836 48.8187 21.4109 51.4883 20.8344 54.1789C20.968 54.2281 21.2305 54.3289 21.3641 54.3781C20.6586 54.2797 19.9578 54.1672 19.2617 54.0312C19.9391 51.5469 20.5883 49.0555 21.2445 46.5664C21.4461 45.8445 21.5727 45.0922 21.9055 44.4148Z" fill="#D2AC84"/>
<path d="M29.6562 44.2549C31.6273 44.3018 33.6055 44.1635 35.5719 44.3346C35.7453 44.9182 35.9117 45.5041 36.0453 46.0994C33.9195 46.0737 31.7961 46.083 29.6727 46.0971C29.6656 45.483 29.6609 44.869 29.6562 44.2549Z" fill="#AD8356"/>
<path d="M22.7977 46.1609C25.0875 46.0695 27.382 46.1281 29.6766 46.0977C29.6602 49.1094 29.6578 52.1211 29.6766 55.1328C26.9016 54.9477 24.1219 54.7484 21.3656 54.3781C21.232 54.3289 20.9695 54.2281 20.8359 54.1789C21.4125 51.4883 22.0852 48.8188 22.7977 46.1609Z" fill="#FFEDCC"/>
<path d="M29.6773 46.0998C31.8007 46.0858 33.9241 46.0764 36.0499 46.1022C36.7015 48.9967 37.353 51.8936 38.089 54.7694C35.2976 55.0998 32.4851 55.1608 29.6773 55.135C29.6585 52.1233 29.6609 49.1115 29.6773 46.0998Z" fill="#E0CBA6"/>
</g>
<defs>
<clipPath id="clip0_509_26078">
<rect width="60" height="55.3125" fill="white"/>
</clipPath>
</defs>
</svg>
