<svg width="408" height="410" viewBox="0 0 408 410" fill="none" xmlns="http://www.w3.org/2000/svg">
<g clip-path="url(#clip0_489_24313)">
<path opacity="0.53" d="M187.494 0H190.508C191.201 0.6 192.588 1.8 193.268 2.4C192.281 2.18667 190.281 1.77333 189.281 1.57333C187.814 2.26667 186.348 2.96 184.881 3.65333C185.721 2.41333 186.588 1.2 187.494 0Z" fill="#5E311C"/>
<path d="M184.88 3.65422C186.347 2.96089 187.814 2.26755 189.28 1.57422C190.28 1.77422 192.28 2.18755 193.267 2.40089C200.334 11.8809 207.547 21.3076 213.934 31.2676C217.334 38.2142 220.48 45.2942 223.88 52.2542C230.707 43.9342 239.947 37.9076 249.947 34.0809C254.694 32.3476 259.694 29.9476 264.854 31.3342C265.16 35.8809 262.067 39.5342 260.88 43.7342C258.827 48.6276 258.52 54.0276 256.547 58.9476C263.747 54.8276 272.574 56.5742 280.094 58.8676C294.28 63.2942 305.04 74.9475 311.64 87.8942C325.574 82.0942 342 80.5476 356.227 86.1476C368.96 91.1209 375.734 104.574 377.814 117.401C381.174 132.121 376.64 147.121 370.654 160.521C377.6 160.268 385.174 162.028 389.92 167.441C394.547 173.174 396.427 180.721 396.427 187.974C396.107 198.454 393 208.974 386.827 217.508C392.307 223.068 399.974 224.654 406.734 227.948C406.48 232.854 402 235.748 398.76 238.828C392.4 244.508 383.827 246.228 375.747 247.921C375.36 237.948 371.747 227.881 364.64 220.734C359.694 215.761 351.96 213.988 345.294 216.054C340.187 217.641 335.547 220.321 331.08 223.188C323.68 228.174 314.44 232.028 305.467 229.414C298.814 226.948 295.214 220.628 290.84 215.628C285.88 215.174 280.947 216.534 276 216.108C266.067 215.028 256.454 210.521 249.814 202.974C258.587 199.094 267.68 194.841 273.627 187.001C276.36 184.028 276.56 178.708 273.107 176.188C268.44 171.881 261.534 172.748 255.947 174.401C236.734 180.214 218.4 191.481 207.227 208.494C205.574 211.588 202.64 216.281 206.094 219.201C209.6 221.428 213.84 219.254 217.587 218.841C206.667 233.108 190.08 243.401 172.054 245.188C157.187 247.521 142.027 244.761 127.92 239.961C121.6 238.348 115.44 236.188 109.467 233.588C105.534 234.894 103.294 239.028 99.4669 240.668C90.5869 245.294 80.3069 243.588 70.8402 242.308C71.0802 244.641 71.3336 247.001 71.9469 249.281C72.1336 250.068 72.5069 251.654 72.6936 252.441C64.4402 256.134 56.2402 260.734 50.9202 268.308C47.5602 272.774 45.1602 277.894 43.3736 283.174C36.2269 283.761 28.9469 283.628 22.0269 281.561C17.6936 280.254 12.5869 278.868 10.1602 274.708C14.4402 272.748 19.0136 271.161 22.6002 268.001C28.9336 262.668 32.6802 255.108 36.4536 247.894C29.2269 247.521 22.0136 245.334 16.0936 241.094C3.16024 231.614 1.12024 210.788 11.6269 198.828C7.60024 194.841 6.18691 189.161 4.29358 184.001C1.17358 175.481 0.880242 166.014 3.26691 157.281C5.29358 149.414 8.40024 141.441 14.5469 135.868C23.3869 127.828 34.4269 121.388 46.6002 120.681C51.6136 120.548 57.6536 120.761 61.0669 125.028C58.5869 110.348 63.8669 95.5876 70.8402 82.8542C75.5869 75.0409 80.7469 66.9742 88.6002 61.9342C111.374 45.4276 141.374 38.0809 168.88 45.1476C173.187 46.0142 176.48 49.0942 180.534 50.5609C177.734 34.8942 180.547 18.7742 184.88 3.65422ZM337.867 125.988C322.44 132.001 306.347 136.068 290.694 141.414C283.64 144.561 276.36 147.161 269.187 150.014C288.04 150.708 306.72 145.428 324.36 138.988C334.267 135.254 344.36 131.388 352.774 124.774C354.414 123.641 355.134 121.748 355.947 120.028C349.48 119.828 343.974 124.321 337.867 125.988ZM240.494 154.014C238.787 154.694 236.707 156.228 237.56 158.348C243.84 159.614 250.574 157.214 255.974 154.028C250.88 153.214 245.507 152.348 240.494 154.014ZM219.107 160.374C216.734 161.388 217.52 165.068 220.027 165.201C223.92 166.401 226.88 163.241 229.28 160.734C226.054 159.801 222.147 157.974 219.107 160.374ZM135.027 176.361C135.134 177.094 135.347 178.574 135.454 179.308C139.427 181.188 143.067 177.441 145.534 174.748C141.934 174.174 138.094 174.108 135.027 176.361ZM105.374 186.321C112.12 189.468 123.267 189.534 126.054 181.188C119.334 175.801 110.16 180.588 105.374 186.321ZM68.0802 191.748C55.4669 192.214 43.1202 195.001 30.5869 196.201C29.1869 196.588 26.3202 196.481 26.5869 198.654C27.7869 201.468 31.3336 201.374 33.8802 202.014C54.5736 204.668 74.1869 196.174 93.3602 189.721C84.8936 189.814 76.5469 191.534 68.0802 191.748ZM85.7336 197.881C79.3736 199.654 73.1069 205.788 75.2802 212.921C77.9069 220.401 86.3202 223.374 93.4136 224.894C107.147 227.108 120.92 229.014 134.694 230.868C138.827 231.294 143.08 232.081 147.214 231.294C149.6 230.454 152.347 228.281 151.627 225.414C151.36 221.494 147.254 219.988 144.347 218.294C137.08 214.734 131 209.188 123.667 205.734C112.214 199.601 98.8136 194.681 85.7336 197.881Z" fill="#B15C36"/>
<path d="M337.866 125.986C343.972 124.319 349.479 119.826 355.946 120.026C355.132 121.746 354.412 123.639 352.772 124.773C344.359 131.386 334.266 135.253 324.359 138.986C306.719 145.426 288.039 150.706 269.186 150.013C276.359 147.159 283.639 144.559 290.692 141.413C306.346 136.066 322.439 131.999 337.866 125.986Z" fill="#C07453"/>
<path d="M105.373 186.319C110.16 180.586 119.333 175.799 126.053 181.186C123.266 189.532 112.12 189.466 105.373 186.319Z" fill="#C07453"/>
<path d="M68.0791 191.745C76.5458 191.532 84.8924 189.812 93.3591 189.719C74.1858 196.172 54.5724 204.665 33.8791 202.012C31.3324 201.372 27.7858 201.465 26.5858 198.652C26.3191 196.479 29.1858 196.585 30.5858 196.199C43.1191 194.999 55.4658 192.212 68.0791 191.745Z" fill="#C07453"/>
<path d="M240.493 154.014C245.506 152.347 250.879 153.214 255.973 154.027C250.573 157.214 243.839 159.614 237.559 158.347C236.706 156.227 238.786 154.694 240.493 154.014Z" fill="#C07352"/>
<path d="M219.107 160.373C222.147 157.973 226.053 159.8 229.28 160.733C226.88 163.24 223.92 166.4 220.027 165.2C217.52 165.067 216.733 161.387 219.107 160.373Z" fill="#BF7352"/>
<path d="M255.947 174.4C261.533 172.747 268.44 171.88 273.107 176.187C276.56 178.707 276.36 184.027 273.627 187C267.68 194.84 258.587 199.093 249.813 202.973C238.893 207.76 225.787 209.387 217.587 218.84C213.84 219.254 209.6 221.427 206.093 219.2C202.64 216.28 205.573 211.587 207.227 208.493C218.4 191.48 236.733 180.214 255.947 174.4Z" fill="#914A2A"/>
<path d="M85.7327 197.88C98.8127 194.68 112.213 199.6 123.666 205.733C130.999 209.186 137.079 214.733 144.346 218.293C147.253 219.986 151.359 221.493 151.626 225.413C152.346 228.28 149.599 230.453 147.213 231.293C143.079 232.08 138.826 231.293 134.693 230.866C120.919 229.013 107.146 227.106 93.4127 224.893C86.3193 223.373 77.906 220.4 75.2793 212.92C73.106 205.786 79.3727 199.653 85.7327 197.88Z" fill="#914A2A"/>
<path d="M257.746 228.64C266.772 228.04 276.772 227.733 284.666 232.84C288.012 234.96 288.266 240.133 284.866 242.36C278.292 246.64 270.066 245.426 262.679 246.853C249.892 248.613 238.252 254.426 226.746 259.92C220.359 262.386 216.599 253.426 221.426 249.506C231.439 239.72 243.306 230.12 257.746 228.64Z" fill="#914A2A"/>
<path d="M107.225 255.559C123.265 251.666 140.319 256.066 154.145 264.573C156.332 266.239 159.932 266.506 161.012 269.306C162.719 272.159 160.625 276.466 157.252 276.706C151.425 277.586 146.692 273.413 141.359 271.933C132.372 269.173 122.665 267.013 113.345 269.386C108.745 270.346 102.905 271.186 99.3186 267.386C97.4786 265.866 97.5853 263.333 97.9586 261.213C99.7453 257.746 103.759 256.573 107.225 255.559Z" fill="#914A2A"/>
<path d="M135.027 176.36C138.094 174.106 141.934 174.173 145.534 174.746C143.067 177.44 139.427 181.186 135.454 179.306C135.347 178.573 135.134 177.093 135.027 176.36Z" fill="#BD6F4D"/>
<path d="M217.587 218.839C225.787 209.386 238.893 207.759 249.813 202.973C256.453 210.519 266.067 215.026 276 216.106C280.947 216.533 285.88 215.173 290.84 215.626C295.213 220.626 298.813 226.946 305.467 229.413C314.44 232.026 323.68 228.173 331.08 223.186C332.853 232.386 335.96 241.279 337.733 250.479C341.987 268.759 344.413 287.386 347.08 305.946C349.24 320.626 349.053 336.093 343.573 350.053C339.213 358.186 332.88 365.146 325.867 371.079C311.986 380.813 296.28 388.159 279.68 391.759C255.253 398.306 230.4 403.506 205.227 406.173C186.48 409.173 167.413 408.973 148.507 408.146C136.56 406.319 124.187 402.746 115.333 394.079C108.933 387.453 106.227 378.399 103.133 369.959C100.693 363.439 99.0532 356.653 96.4798 350.186C88.8798 323.186 83.7732 295.586 76.7198 268.453C74.8132 262.133 73.7065 255.626 71.9465 249.279C71.3332 246.999 71.0798 244.639 70.8398 242.306C80.3065 243.586 90.5865 245.293 99.4665 240.666C103.293 239.026 105.533 234.893 109.467 233.586C115.44 236.186 121.6 238.346 127.92 239.959C142.027 244.759 157.187 247.519 172.053 245.186C190.08 243.399 206.667 233.106 217.587 218.839ZM257.747 228.639C243.307 230.119 231.44 239.719 221.427 249.506C216.6 253.426 220.36 262.386 226.747 259.919C238.253 254.426 249.893 248.613 262.68 246.853C270.066 245.426 278.293 246.639 284.867 242.359C288.266 240.133 288.013 234.959 284.667 232.839C276.773 227.733 266.773 228.039 257.747 228.639ZM107.227 255.559C103.76 256.573 99.7465 257.746 97.9598 261.213C97.5865 263.333 97.4798 265.866 99.3198 267.386C102.907 271.186 108.747 270.346 113.347 269.386C122.667 267.013 132.373 269.173 141.36 271.933C146.693 273.413 151.427 277.586 157.253 276.706C160.627 276.466 162.72 272.159 161.013 269.306C159.933 266.506 156.333 266.239 154.147 264.573C140.32 256.066 123.267 251.666 107.227 255.559ZM184.747 335.053C182.227 340.973 184.44 348.013 186.467 353.893C188.347 359.279 191.933 364.533 197.413 366.719C203.92 369.133 211.507 366.519 215.893 361.319C220.133 356.399 221.707 349.773 221.8 343.399C221.347 338.439 220.453 333.333 217.613 329.119C213.693 322.253 204.707 319.719 197.293 320.986C191.32 323.199 185.653 328.546 184.747 335.053Z" fill="#FED5A2"/>
<path d="M331.08 223.187C335.547 220.321 340.187 217.641 345.293 216.054C351.96 213.987 359.693 215.761 364.64 220.734C371.747 227.881 375.36 237.947 375.747 247.921C376.093 259.401 374.88 271.321 369.613 281.681C364.36 291.627 355.2 298.494 347.08 305.947C344.413 287.387 341.987 268.761 337.733 250.481C335.96 241.281 332.853 232.387 331.08 223.187Z" fill="#E0BE92"/>
<path d="M71.9466 249.279C73.7066 255.626 74.8132 262.133 76.7199 268.453C83.7732 295.586 88.8799 323.186 96.4799 350.186C88.9066 349.386 81.2532 348.439 74.0532 345.826C61.2266 341.319 49.9199 331.533 45.2266 318.573C40.0666 307.533 38.9466 294.653 43.3732 283.173C45.1599 277.893 47.5599 272.773 50.9199 268.306C56.2399 260.733 64.4399 256.133 72.6932 252.439C72.5066 251.653 72.1332 250.066 71.9466 249.279Z" fill="#E1BE92"/>
<path d="M184.746 335.053C185.653 328.546 191.319 323.199 197.293 320.986C204.706 319.719 213.693 322.253 217.613 329.119C214.573 335.893 206.799 338.399 199.973 339.173C194.693 339.679 188.413 339.506 184.746 335.053Z" fill="white"/>
<path d="M217.614 329.119C220.454 333.332 221.347 338.439 221.801 343.399C215.081 343.586 208.921 346.386 203.947 350.799C197.881 349.519 191.681 350.519 186.467 353.892C184.441 348.012 182.227 340.972 184.747 335.052C188.414 339.506 194.694 339.679 199.974 339.172C206.801 338.399 214.574 335.892 217.614 329.119Z" fill="#B74042"/>
<path d="M203.947 350.8C208.92 346.387 215.08 343.587 221.8 343.4C221.707 349.774 220.133 356.4 215.893 361.32C211.507 366.52 203.92 369.134 197.413 366.72C191.933 364.534 188.347 359.28 186.467 353.894C191.68 350.52 197.88 349.52 203.947 350.8Z" fill="#971618"/>
</g>
<defs>
<clipPath id="clip0_489_24313">
<rect width="408" height="409.333" fill="white"/>
</clipPath>
</defs>
</svg>
