<svg width="60" height="34" viewBox="0 0 60 34" fill="none" xmlns="http://www.w3.org/2000/svg">
<g clip-path="url(#clip0_1738_8697)">
<path d="M24.8013 0.442519C25.109 0.185692 25.5231 0.0993453 25.9149 0.174622C36.8234 1.45875 47.7408 2.69861 58.6493 3.98274C58.9636 4.09123 59.5304 4.05137 59.4751 4.53182L59.6832 4.53625C59.6744 4.73994 59.6589 5.14289 59.65 5.34436C59.588 5.45728 59.4596 5.68089 59.3976 5.79381C58.9349 5.81816 58.4721 5.84695 58.0116 5.80045C47.2957 4.54067 36.5755 3.32518 25.8596 2.06318C18.1393 9.28532 10.5009 16.5938 2.81383 23.8514C2.25369 24.3495 1.69132 25.1399 0.841139 24.8233L0.486896 24.7038L0.599811 24.4536L0.30756 24.458C0.181361 23.3909 1.20203 22.8351 1.83966 22.1754C9.49797 14.9377 17.1408 7.67794 24.8013 0.442519Z" fill="#B5B5B5"/>
<path d="M2.81062 23.8526C10.4977 16.5951 18.1361 9.28659 25.8564 2.06445C36.5722 3.32645 47.2925 4.54194 58.0084 5.80172C58.4689 5.84822 58.9317 5.81943 59.3944 5.79508C56.7221 9.61427 54.0719 13.4467 51.3818 17.2549C50.3191 14.7021 49.2586 12.1493 48.1294 9.62534C47.8638 9.02755 47.1265 8.93899 46.5619 8.82165C42.7184 8.33678 38.7885 8.29693 34.9804 9.07626C30.3376 9.87552 25.7745 11.4497 21.8401 14.08C18.6852 16.2807 15.8955 19.1324 14.1841 22.6084C13.8874 23.277 13.4822 24.0253 13.7789 24.767C14.0999 25.7921 14.4652 26.7995 14.773 27.829C10.5663 27.1316 6.38848 26.2504 2.19069 25.4977C1.61948 25.4335 1.10582 25.1744 0.671875 24.8047L0.837927 24.8246C1.68811 25.1412 2.25047 24.3508 2.81062 23.8526Z" fill="#5B5B5B"/>
<path d="M34.9809 9.07554C38.789 8.2962 42.7189 8.33605 46.5624 8.82092C47.127 8.93827 47.8642 9.02683 48.1299 9.62461C49.2591 12.1486 50.3196 14.7014 51.3823 17.2541C51.5152 17.5176 51.5262 17.8099 51.4 18.08C51.969 18.9722 51.9735 20.0349 52.0709 21.0512C47.1779 23.0969 42.2915 25.1582 37.3919 27.1885C31.2901 29.2718 25.1395 31.2202 19.1085 33.5051C18.4332 33.8349 17.6783 33.7774 16.9499 33.7663C16.4761 31.7028 15.4709 29.8165 14.7735 27.8283C14.4657 26.7988 14.1004 25.7914 13.7794 24.7663C13.4827 24.0246 13.8879 23.2763 14.1845 22.6076C15.896 19.1316 18.6856 16.28 21.8406 14.0792C25.7749 11.449 30.338 9.8748 34.9809 9.07554Z" fill="#8C8C8C"/>
</g>
<defs>
<clipPath id="clip0_1738_8697">
<rect width="60" height="33.8745" fill="white"/>
</clipPath>
</defs>
</svg>
