<svg width="420" height="462" viewBox="0 0 420 462" fill="none" xmlns="http://www.w3.org/2000/svg">
<path d="M126.146 40.6658C162.399 27.8125 198.679 15.0391 234.933 2.19912C236.746 1.35912 238.666 1.70579 240.493 2.25245C239.866 4.06579 239.333 5.91912 238.906 7.78579C238.719 7.34579 238.359 6.46579 238.173 6.02579C206.639 17.1991 175.093 28.3591 143.519 39.4391C136.839 41.6925 130.186 44.0791 123.733 46.9325C113.946 45.5991 104.373 43.1458 94.7193 41.0925C63.9993 34.4791 33.306 27.8258 2.59932 21.1458C2.59932 21.9458 2.61265 23.5191 2.61265 24.3058C1.45265 21.8391 1.66598 19.1058 1.97265 16.4791C3.95932 16.6925 5.93265 16.9991 7.90598 17.3858C45.2527 25.5458 82.6393 33.5991 120.013 41.7191C122.106 42.3591 124.159 41.1991 126.146 40.6658Z" fill="#FDED9E"/>
<path d="M143.521 39.4407C175.094 28.3607 206.641 17.2007 238.174 6.02734C238.361 6.46734 238.721 7.34734 238.907 7.78734C221.334 45.2407 203.054 82.3874 185.334 119.774C183.974 122.761 182.134 125.481 180.161 128.081C165.734 133.214 151.467 138.761 137.081 144.001C132.534 145.507 128.374 148.281 123.494 148.627L123.534 147.787C124.187 138.401 124.147 129.001 123.814 119.601C128.974 117.694 134.934 116.374 138.574 111.921C141.667 107.227 143.761 101.961 145.867 96.774C148.081 91.7607 145.414 86.4407 145.041 81.3207C143.907 74.134 146.521 66.3607 143.081 59.5873C141.054 55.534 138.041 51.294 133.334 50.254C128.267 50.974 126.481 56.5607 124.214 60.414C124.307 55.9073 124.014 51.4273 123.734 46.934C130.187 44.0807 136.841 41.694 143.521 39.4407Z" fill="#E4CA8F"/>
<path d="M2.59961 21.1465C33.3063 27.8265 63.9996 34.4798 94.7196 41.0932C104.373 43.1465 113.946 45.5998 123.733 46.9332C124.013 51.4265 124.306 55.9065 124.213 60.4132C120.76 66.9998 117.226 75.2265 109.306 77.2398C102.946 78.9732 96.4663 80.1598 90.1729 82.1198C90.5596 74.5065 90.9196 66.3998 87.1729 59.4665C84.1063 53.8798 80.1863 48.3331 74.6263 45.0131C69.7329 43.0131 65.0929 47.5331 63.9329 52.0131C61.1196 61.9598 65.1729 72.2265 63.8396 82.3065C62.3863 92.1598 50.9863 97.1331 50.7063 107.453C48.0396 109.373 45.3463 111.266 42.6663 113.186C29.5596 83.4532 15.8263 53.9865 2.61294 24.3065C2.61294 23.5198 2.59961 21.9465 2.59961 21.1465Z" fill="#EFDD85"/>
<path d="M86.506 137.333C98.7327 131 110.599 123.773 123.813 119.6C124.146 129 124.186 138.4 123.533 147.786C109.559 146.093 95.5727 144.293 81.666 142.053C83.266 140.453 84.8527 138.853 86.506 137.333Z" fill="#EFDD85"/>
<path d="M63.9337 52.0124C65.0937 47.5324 69.7337 43.0124 74.627 45.0124C80.187 48.3324 84.107 53.8791 87.1737 59.4658C90.9204 66.3991 90.5604 74.5058 90.1737 82.1191C96.467 80.1591 102.947 78.9724 109.307 77.2391C117.227 75.2258 120.76 66.9991 124.214 60.4124C126.48 56.5591 128.267 50.9724 133.334 50.2524C138.04 51.2924 141.054 55.5324 143.08 59.5858C146.52 66.3591 143.907 74.1324 145.04 81.3191C145.414 86.4391 148.08 91.7591 145.867 96.7724C143.76 101.959 141.667 107.226 138.574 111.919C134.934 116.372 128.974 117.692 123.814 119.599C110.6 123.772 98.7337 130.999 86.507 137.332C75.347 137.559 64.4537 132.599 56.947 124.439C52.6537 119.852 51.5737 113.426 50.707 107.452C50.987 97.1324 62.387 92.1591 63.8404 82.3058C65.1737 72.2258 61.1204 61.9591 63.9337 52.0124Z" fill="#FEFEFE"/>
<path d="M364.934 117.106C367.467 115.213 370.214 113.639 373.281 112.812C380.187 114.493 388.867 119.666 387.574 127.906C385.681 137.159 377.947 144.159 376.267 153.439L376.654 155.013C379.481 158.573 383.174 161.572 385.081 165.786C386.174 170.239 385.467 175.052 387.294 179.346C388.961 183.439 391.334 187.466 391.107 192.039C391.321 197.879 388.307 203.039 385.681 208.012C386.001 209.426 386.347 210.826 386.707 212.239C389.081 218.452 386.707 226.292 380.694 229.452C369.987 234.119 358.187 235.066 346.641 235.653C340.294 235.626 333.867 235.479 327.721 233.773C325.854 231.213 323.747 228.812 322.214 226.039C321.334 221.319 320.654 216.413 321.867 211.693C323.134 208.293 319.787 205.719 319.321 202.559C319.014 200.359 318.827 198.146 318.907 195.932C320.094 193.493 321.841 191.386 323.347 189.133C320.641 183.999 320.454 178.306 321.001 172.653C323.267 170.293 325.267 167.586 327.921 165.639C337.214 162.973 346.801 161.586 356.441 160.879C355.081 157.399 353.614 153.959 352.494 150.399C351.094 138.013 356.787 126.119 364.934 117.106Z" fill="#FEFEFE"/>
<path d="M42.6676 113.186C45.3476 111.266 48.0409 109.373 50.7076 107.453C51.5742 113.426 52.6542 119.853 56.9476 124.44C64.4542 132.6 75.3475 137.56 86.5075 137.333C84.8542 138.853 83.2676 140.453 81.6676 142.053C70.2542 146.066 60.1875 152.946 51.2276 160.986C41.4809 150.026 34.5476 136.72 31.5742 122.333C35.2276 119.24 38.7609 115.986 42.6676 113.186Z" fill="#C5C5C5"/>
<path d="M26.0527 129.187C27.5994 126.681 29.6127 124.521 31.5727 122.334C34.5461 136.721 41.4794 150.027 51.2261 160.987C49.7461 162.294 48.5994 164.227 46.5461 164.707C41.3727 162.347 38.0661 157.467 34.9061 152.974C29.7194 146.041 28.8394 137.161 26.0527 129.187Z" fill="#828282"/>
<path d="M387.586 148.493C392.173 146.72 396.346 143.213 401.399 143.08C411.293 156.947 415.413 173.973 418.479 190.493C419.159 193.293 418.626 196.12 418.119 198.893C414.333 200.947 410.586 203.093 406.466 204.413C406.253 197.013 405.466 189.533 402.719 182.587C398.506 170.867 393.399 159.493 387.586 148.493Z" fill="#B3B3B3"/>
<path d="M376.652 155.014C380.039 152.441 383.679 150.201 387.586 148.494C393.399 159.494 398.506 170.867 402.719 182.587C405.466 189.534 406.252 197.014 406.466 204.414V204.441C399.946 207.294 393.479 210.281 386.879 212.921L386.706 212.241C386.346 210.827 385.999 209.427 385.679 208.014C388.306 203.041 391.319 197.881 391.106 192.041C391.332 187.467 388.959 183.441 387.292 179.347C385.466 175.054 386.172 170.241 385.079 165.787C383.172 161.574 379.479 158.574 376.652 155.014Z" fill="#C9C9C9"/>
<path d="M30.666 345.307C40.1194 338.067 52.7594 337.667 64.1594 337.094C74.5594 337.814 86.3194 339.427 93.7594 347.52C97.9327 352.107 95.066 358.707 91.426 362.627C78.2794 353.627 61.6394 352.414 46.2527 354.294C41.026 355.054 35.9194 356.627 31.1327 358.88C29.3727 354.774 26.146 348.787 30.666 345.307Z" fill="#6A8790"/>
<path d="M249.906 347.108C257.386 341.534 266.812 339.014 276.052 338.414C287.119 337.668 298.719 337.201 309.186 341.508C312.052 342.668 315.292 344.508 315.732 347.894C317.546 352.001 314.066 355.441 312.079 358.641C311.639 358.508 310.786 358.241 310.346 358.094C291.159 353.761 269.332 352.708 252.012 363.494C250.906 362.401 249.799 361.308 248.706 360.228C247.359 355.921 245.532 350.374 249.906 347.108Z" fill="#6A8790"/>
<path d="M19.6531 439.094C32.7198 444.667 47.2798 445.52 61.3065 445.987C73.8131 445.24 87.4132 445.374 98.3065 438.32C99.4931 442.28 100.946 446.814 98.9865 450.76C96.0665 454.68 90.8665 455.2 86.4531 456.254C74.2131 458.307 61.7731 459.04 49.3731 459.08C42.9198 459.254 36.7198 457.254 30.4798 455.907C27.0398 455 23.0398 454.187 20.8931 451.054C18.6265 447.494 19.4398 443.067 19.6531 439.094Z" fill="#6A8790"/>
<path d="M46.2539 354.294C61.6405 352.414 78.2805 353.627 91.4272 362.627C94.6672 365.001 99.3872 368.614 97.4939 373.214C93.9872 382.614 90.4672 392.081 88.8539 402.027C83.1605 395.041 74.6405 391.027 66.1472 388.547C53.2005 385.254 40.2939 392.281 30.8805 400.667C29.9605 393.161 29.0805 385.587 26.7872 378.361C25.5072 373.747 23.3339 368.761 25.5339 364.067C26.2939 361.441 28.9205 360.094 31.1339 358.881C35.9205 356.627 41.0272 355.054 46.2539 354.294Z" fill="#C9DBDF"/>
<path d="M252.014 363.494C269.334 352.708 291.161 353.761 310.348 358.094C314.828 360.108 322.414 363.081 320.161 369.348C316.228 379.561 315.694 390.548 313.281 401.134C306.388 392.961 296.321 386.761 285.348 386.934C273.228 386.534 262.948 394.508 255.108 402.948C254.068 396.481 252.668 390.081 250.708 383.828C249.401 379.868 249.481 375.508 247.428 371.814C247.454 368.468 248.894 365.054 252.014 363.494Z" fill="#C9DBDF"/>
<path d="M255.108 402.946C262.948 394.506 273.228 386.532 285.348 386.932C296.321 386.759 306.388 392.959 313.281 401.132C317.054 406.186 320.841 411.452 322.441 417.652C324.054 422.706 323.708 428.052 323.828 433.292C321.134 436.412 318.241 439.626 314.241 441.039C301.681 445.972 287.921 445.972 274.628 446.506C265.521 446.266 254.894 446.639 247.988 439.626C245.588 433.706 244.081 427.159 245.614 420.812C246.681 413.959 250.788 408.159 255.108 402.946Z" fill="#76C2D0"/>
<path d="M30.8802 400.666C40.2935 392.279 53.2002 385.253 66.1468 388.546C74.6402 391.026 83.1602 395.039 88.8535 402.026C95.0002 412.932 100.72 425.519 98.3069 438.319C87.4135 445.372 73.8135 445.239 61.3068 445.986C47.2802 445.519 32.7202 444.666 19.6535 439.093C19.5335 434.039 18.6935 428.919 20.0002 423.933C22.0402 415.586 24.4268 406.772 30.8802 400.666Z" fill="#76C2D0"/>
<path d="M314.24 441.04C318.24 439.626 321.133 436.413 323.826 433.293C325.133 436.373 326.226 439.56 327.253 442.76C326.093 445.573 325.346 449.026 322.293 450.426C314.586 454.24 305.826 454.973 297.466 456.546C287.32 458.4 276.96 458.12 266.693 457.96C260.506 457.706 253.866 456.4 249.226 452C246.506 448.466 247.893 443.693 247.986 439.626C254.893 446.64 265.52 446.266 274.626 446.506C287.92 445.973 301.68 445.973 314.24 441.04Z" fill="#69868F"/>
</svg>
