<svg width="61" height="34" viewBox="0 0 61 34" fill="none" xmlns="http://www.w3.org/2000/svg">
<g clip-path="url(#clip0_489_36307)">
<path d="M25.2248 0.723654C25.6543 0.170149 26.4115 0.130296 27.0403 0.298562C37.8115 1.54948 48.5872 2.78048 59.3518 4.05133C59.7746 4.10004 60.1311 4.28602 60.3348 4.66904C60.2927 4.99007 60.4831 5.69856 59.9894 5.71849C58.2071 5.96867 56.4425 5.43509 54.6669 5.3421C45.3126 4.23066 35.9495 3.18786 26.5953 2.06757C26.4935 2.12956 26.2898 2.25354 26.1901 2.31554C18.43 9.69044 10.6388 17.0321 2.88091 24.4048C2.5953 24.7104 2.20785 24.8676 1.81375 24.9805C1.53257 25.0115 1.09863 24.9473 1.21818 24.5465L0.994566 24.4779C0.9525 24.055 1.03442 23.6233 1.35767 23.3288C9.31265 15.7923 17.2721 8.26019 25.2248 0.723654Z" fill="#6B6B6B"/>
<path d="M26.1928 2.31438C26.2924 2.25238 26.4961 2.1284 26.598 2.06641C35.9522 3.1867 45.3153 4.22951 54.6695 5.34095C56.4452 5.43393 58.2098 5.96751 59.9921 5.71733C60.0363 6.06272 59.7419 6.27526 59.5847 6.5343C57.074 10.1454 54.5611 13.752 52.0326 17.3498C51.6895 16.8981 51.5146 16.3535 51.302 15.8332C50.485 13.8052 49.5817 11.8103 48.7205 9.8022C48.3662 9.06493 47.4385 9.03393 46.7345 8.94316C44.3079 8.58227 41.8481 8.74168 39.4039 8.72176C33.1913 9.34168 26.9146 11.073 21.8024 14.7771C18.9308 17.0088 16.3426 19.7387 14.7994 23.0686C14.6267 23.5579 14.2791 24.0716 14.4629 24.6074C14.8171 25.7122 15.3242 26.7727 15.519 27.924C10.9692 27.0871 6.43264 26.259 1.89833 25.3358L1.81641 24.9793C2.2105 24.8664 2.59796 24.7092 2.88357 24.4037C10.6415 17.031 18.4326 9.68929 26.1928 2.31438Z" fill="black"/>
<path d="M21.8018 14.7768C26.914 11.0727 33.1907 9.34134 39.4033 8.72142C41.8475 8.74134 44.3073 8.58193 46.7339 8.94282C47.438 9.03359 48.3656 9.06459 48.7199 9.80186C49.5811 11.81 50.4844 13.8048 51.3014 15.8329C51.514 16.3532 51.6889 16.8978 52.032 17.3495C52.2269 17.6019 52.2335 17.8675 52.052 18.1532C52.6697 19.0188 52.6276 20.0926 52.7361 21.1067C52.5147 21.2151 52.2867 21.3126 52.0542 21.3967C50.9582 21.7576 49.8114 21.0424 48.7575 21.5583C47.9693 21.8107 47.128 21.6712 46.3199 21.6115C45.3878 22.6188 44.2962 23.5709 43.7295 24.8594C43.2689 25.114 42.7531 25.2801 42.2682 25.4948C42.1819 24.4543 41.6682 23.4867 41.697 22.4306C41.6594 21.2417 42.173 20.1391 42.6047 19.0609C41.8741 19.5081 41.0062 19.8602 40.4638 20.5377C40.0143 21.8306 39.1442 23.0041 37.8667 23.5664C37.3088 23.779 36.7996 23.3406 36.3125 23.1413C32.4756 25.7008 28.8689 28.5878 25.3243 31.5347C23.2409 32.3185 21.1332 33.0624 19.0365 33.824C18.5671 33.8329 18.0955 33.824 17.6261 33.8306C17.1833 31.776 16.0874 29.9384 15.5184 27.9236C15.3236 26.7723 14.8165 25.7118 14.4623 24.607C14.2785 24.0712 14.6261 23.5576 14.7988 23.0683C16.342 19.7384 18.9302 17.0085 21.8018 14.7768Z" fill="#191919"/>
<path d="M40.4637 20.5393C41.0061 19.8618 41.874 19.5097 42.6047 19.0625C42.1729 20.1407 41.6593 21.2433 41.6969 22.4322C41.6681 23.4883 42.1818 24.4559 42.2681 25.4964C40.8689 26.0832 39.4674 26.6699 38.0681 27.2544C33.8216 28.6891 29.5663 30.095 25.3242 31.5363C28.8689 28.5894 32.4755 25.7024 36.3124 23.1429C36.7995 23.3422 37.3087 23.7806 37.8667 23.568C39.1441 23.0057 40.0143 21.8322 40.4637 20.5393Z" fill="#191919"/>
<path d="M48.7546 21.5597C49.8085 21.0439 50.9553 21.759 52.0513 21.3981C49.2749 22.5472 46.5184 23.7516 43.7266 24.8609C44.2934 23.5723 45.3849 22.6203 46.317 21.6129C47.1251 21.6727 47.9664 21.8121 48.7546 21.5597Z" fill="#191919"/>
</g>
<defs>
<clipPath id="clip0_489_36307">
<rect width="60" height="33.8745" fill="white" transform="translate(0.667969 0.0625)"/>
</clipPath>
</defs>
</svg>
