<svg width="53" height="53" viewBox="0 0 53 53" fill="none" xmlns="http://www.w3.org/2000/svg">
<rect x="0.507812" y="0.5" width="52" height="52" rx="10.4" fill="white"/>
<path d="M32.8408 26.5C30.0808 26.5 27.8408 28.74 27.8408 31.5C27.8408 34.26 30.0808 36.5 32.8408 36.5C35.6008 36.5 37.8408 34.26 37.8408 31.5C37.8408 28.74 35.6008 26.5 32.8408 26.5ZM35.4808 30.9667L32.8142 33.6333C32.6808 33.7667 32.5208 33.8333 32.3475 33.8333C32.1742 33.8333 32.0008 33.7667 31.8675 33.6333L30.5342 32.3C30.2808 32.0467 30.2808 31.62 30.5342 31.3667C30.8008 31.1 31.2275 31.1 31.4808 31.3667L32.3475 32.22L34.5342 30.0333C34.8008 29.7667 35.2275 29.7667 35.4808 30.0333C35.7475 30.2867 35.7475 30.7133 35.4808 30.9667Z" fill="#BD142D"/>
<path d="M32.8408 26.5C30.0808 26.5 27.8408 28.74 27.8408 31.5C27.8408 34.26 30.0808 36.5 32.8408 36.5C35.6008 36.5 37.8408 34.26 37.8408 31.5C37.8408 28.74 35.6008 26.5 32.8408 26.5ZM35.4808 30.9667L32.8142 33.6333C32.6808 33.7667 32.5208 33.8333 32.3475 33.8333C32.1742 33.8333 32.0008 33.7667 31.8675 33.6333L30.5342 32.3C30.2808 32.0467 30.2808 31.62 30.5342 31.3667C30.8008 31.1 31.2275 31.1 31.4808 31.3667L32.3475 32.22L34.5342 30.0333C34.8008 29.7667 35.2275 29.7667 35.4808 30.0333C35.7475 30.2867 35.7475 30.7133 35.4808 30.9667Z" fill="url(#paint0_radial_806_32066)" fill-opacity="0.4"/>
<path d="M15.1748 21.8359V31.8359C15.1748 32.3693 15.3881 32.8759 15.7615 33.2493C16.1348 33.6226 16.6548 33.8359 17.1748 33.8359H26.9615C26.6815 33.1159 26.5081 32.3293 26.5081 31.5026C26.5081 28.0093 29.3481 25.1693 32.8415 25.1693C34.8815 25.1693 36.6815 26.1559 37.8415 27.6626V21.8359H15.1748ZM22.5081 31.1693H18.5081C18.1348 31.1693 17.8415 30.8759 17.8415 30.5026C17.8415 30.1293 18.1348 29.8359 18.5081 29.8359H22.5081C22.8815 29.8359 23.1748 30.1293 23.1748 30.5026C23.1748 30.8759 22.8815 31.1693 22.5081 31.1693Z" fill="#BD142D"/>
<path d="M15.1748 21.8359V31.8359C15.1748 32.3693 15.3881 32.8759 15.7615 33.2493C16.1348 33.6226 16.6548 33.8359 17.1748 33.8359H26.9615C26.6815 33.1159 26.5081 32.3293 26.5081 31.5026C26.5081 28.0093 29.3481 25.1693 32.8415 25.1693C34.8815 25.1693 36.6815 26.1559 37.8415 27.6626V21.8359H15.1748ZM22.5081 31.1693H18.5081C18.1348 31.1693 17.8415 30.8759 17.8415 30.5026C17.8415 30.1293 18.1348 29.8359 18.5081 29.8359H22.5081C22.8815 29.8359 23.1748 30.1293 23.1748 30.5026C23.1748 30.8759 22.8815 31.1693 22.5081 31.1693Z" fill="url(#paint1_radial_806_32066)" fill-opacity="0.4"/>
<path d="M37.8415 18.5V20.5H15.1748V18.5C15.1748 17.98 15.3881 17.46 15.7615 17.0867C16.1348 16.7133 16.6415 16.5 17.1748 16.5H35.8415C36.3748 16.5 36.8815 16.7133 37.2548 17.0867C37.6281 17.46 37.8415 17.9667 37.8415 18.5Z" fill="#BD142D"/>
<path d="M37.8415 18.5V20.5H15.1748V18.5C15.1748 17.98 15.3881 17.46 15.7615 17.0867C16.1348 16.7133 16.6415 16.5 17.1748 16.5H35.8415C36.3748 16.5 36.8815 16.7133 37.2548 17.0867C37.6281 17.46 37.8415 17.9667 37.8415 18.5Z" fill="url(#paint2_radial_806_32066)" fill-opacity="0.4"/>
<defs>
<radialGradient id="paint0_radial_806_32066" cx="0" cy="0" r="1" gradientUnits="userSpaceOnUse" gradientTransform="translate(31.0375 28.4672) rotate(55.9679) scale(7.6159)">
<stop stop-color="white"/>
<stop offset="0.697917" stop-color="white" stop-opacity="0"/>
<stop offset="1" stop-color="white" stop-opacity="0"/>
</radialGradient>
<radialGradient id="paint1_radial_806_32066" cx="0" cy="0" r="1" gradientUnits="userSpaceOnUse" gradientTransform="translate(22.4207 24.1966) rotate(38.0942) scale(12.276 12.8515)">
<stop stop-color="white"/>
<stop offset="0.697917" stop-color="white" stop-opacity="0"/>
<stop offset="1" stop-color="white" stop-opacity="0"/>
</radialGradient>
<radialGradient id="paint2_radial_806_32066" cx="0" cy="0" r="1" gradientUnits="userSpaceOnUse" gradientTransform="translate(22.4207 17.2869) rotate(14.6446) scale(9.98561 5.26642)">
<stop stop-color="white"/>
<stop offset="0.697917" stop-color="white" stop-opacity="0"/>
<stop offset="1" stop-color="white" stop-opacity="0"/>
</radialGradient>
</defs>
</svg>
