<svg width="52" height="53" viewBox="0 0 52 53" fill="none" xmlns="http://www.w3.org/2000/svg">
<rect y="0.5" width="52" height="52" rx="10.4" fill="white"/>
<g clip-path="url(#clip0_806_32823)">
<path d="M29.0881 26.3325C33.4531 26.3325 37.0037 22.7812 37.0037 18.4163C37.0037 14.0513 33.4531 10.5 29.0881 10.5C24.7231 10.5 21.1719 14.0513 21.1719 18.4163C21.1719 22.7812 24.7231 26.3325 29.0881 26.3325ZM28.1506 13.7631V13.5481C28.1506 13.03 28.57 12.6106 29.0881 12.6106C29.6056 12.6106 30.0256 13.03 30.0256 13.5481V13.7644C31.1413 14.0037 31.9806 14.9975 31.9806 16.1838C31.9806 16.7013 31.5606 17.1213 31.0431 17.1213C30.525 17.1213 30.1056 16.7013 30.1056 16.1838C30.1056 15.8531 29.8362 15.5837 29.5056 15.5837H28.665C28.3344 15.5837 28.065 15.8531 28.065 16.1838C28.065 16.3731 28.1556 16.5531 28.3081 16.6656L29.0881 17.2431L30.9831 18.6456C31.6056 19.1062 31.9806 19.8431 31.9856 20.6181V20.6269C31.99 21.2881 31.7369 21.9119 31.2719 22.3825C30.9269 22.7319 30.4956 22.9662 30.0256 23.065V23.2844C30.0256 23.8025 29.6056 24.2219 29.0881 24.2219C28.57 24.2219 28.1506 23.8025 28.1506 23.2844V23.0681C27.6931 22.9706 27.2725 22.7456 26.9325 22.4094C26.4619 21.945 26.2006 21.325 26.1969 20.6637C26.1937 20.1462 26.6106 19.7238 27.1281 19.7206H27.1344C27.6494 19.7206 28.0687 20.1369 28.0719 20.6525C28.0731 20.9761 28.3334 21.2487 28.675 21.2487C29.193 21.2456 29.0001 21.2467 29.5144 21.2437C29.8471 21.2411 30.1132 20.9711 30.1106 20.6394V20.6306C30.1094 20.4431 30.0188 20.2644 29.8675 20.1525L29.0881 19.5756L27.1925 18.1731C26.565 17.7081 26.19 16.9644 26.19 16.1838C26.19 14.995 27.0319 14.0006 28.1506 13.7631Z" fill="#BD142D"/>
<path d="M29.0881 26.3325C33.4531 26.3325 37.0037 22.7812 37.0037 18.4163C37.0037 14.0513 33.4531 10.5 29.0881 10.5C24.7231 10.5 21.1719 14.0513 21.1719 18.4163C21.1719 22.7812 24.7231 26.3325 29.0881 26.3325ZM28.1506 13.7631V13.5481C28.1506 13.03 28.57 12.6106 29.0881 12.6106C29.6056 12.6106 30.0256 13.03 30.0256 13.5481V13.7644C31.1413 14.0037 31.9806 14.9975 31.9806 16.1838C31.9806 16.7013 31.5606 17.1213 31.0431 17.1213C30.525 17.1213 30.1056 16.7013 30.1056 16.1838C30.1056 15.8531 29.8362 15.5837 29.5056 15.5837H28.665C28.3344 15.5837 28.065 15.8531 28.065 16.1838C28.065 16.3731 28.1556 16.5531 28.3081 16.6656L29.0881 17.2431L30.9831 18.6456C31.6056 19.1062 31.9806 19.8431 31.9856 20.6181V20.6269C31.99 21.2881 31.7369 21.9119 31.2719 22.3825C30.9269 22.7319 30.4956 22.9662 30.0256 23.065V23.2844C30.0256 23.8025 29.6056 24.2219 29.0881 24.2219C28.57 24.2219 28.1506 23.8025 28.1506 23.2844V23.0681C27.6931 22.9706 27.2725 22.7456 26.9325 22.4094C26.4619 21.945 26.2006 21.325 26.1969 20.6637C26.1937 20.1462 26.6106 19.7238 27.1281 19.7206H27.1344C27.6494 19.7206 28.0687 20.1369 28.0719 20.6525C28.0731 20.9761 28.3334 21.2487 28.675 21.2487C29.193 21.2456 29.0001 21.2467 29.5144 21.2437C29.8471 21.2411 30.1132 20.9711 30.1106 20.6394V20.6306C30.1094 20.4431 30.0188 20.2644 29.8675 20.1525L29.0881 19.5756L27.1925 18.1731C26.565 17.7081 26.19 16.9644 26.19 16.1838C26.19 14.995 27.0319 14.0006 28.1506 13.7631Z" fill="url(#paint0_radial_806_32823)" fill-opacity="0.4"/>
<path d="M16.2617 30.8354C16.0214 30.4187 15.4875 30.2738 15.0684 30.5156L10.6585 33.0612C10.2409 33.3029 10.0977 33.837 10.3387 34.2551L14.8459 42.0615C15.0871 42.4789 15.6209 42.6223 16.0392 42.3812L20.449 39.835C20.8672 39.5939 21.0099 39.0598 20.7688 38.6417L16.2617 30.8354Z" fill="#BD142D"/>
<path d="M16.2617 30.8354C16.0214 30.4187 15.4875 30.2738 15.0684 30.5156L10.6585 33.0612C10.2409 33.3029 10.0977 33.837 10.3387 34.2551L14.8459 42.0615C15.0871 42.4789 15.6209 42.6223 16.0392 42.3812L20.449 39.835C20.8672 39.5939 21.0099 39.0598 20.7688 38.6417L16.2617 30.8354Z" fill="url(#paint1_radial_806_32823)" fill-opacity="0.4"/>
<path d="M41.5297 29.278C41.1054 28.6886 40.2841 28.5555 39.6954 28.9798C37.9091 30.2667 34.4791 32.738 34.2066 32.9348C34.081 33.0417 33.9491 33.1386 33.8116 33.2242C33.2722 33.5636 32.6466 33.7448 31.9935 33.7448H27.5029C26.9854 33.7448 26.5654 33.3255 26.5654 32.8073C26.5654 32.2886 26.986 31.8698 27.5029 31.8698H32.3054C33.011 31.8698 33.576 31.2823 33.5466 30.5755C33.5191 29.9048 32.9466 29.3848 32.2754 29.3848H28.6197C28.3722 29.123 28.101 28.883 27.8104 28.6686C26.811 27.9317 25.576 27.4961 24.2391 27.4961C21.8622 27.4961 19.4972 28.9936 18.5166 30.9923L22.3516 37.6342H29.5454C30.9579 37.6342 32.3491 37.273 33.5735 36.5686C33.9979 36.3248 34.4522 36.0317 34.9447 35.678C37.0085 34.1955 41.2279 31.1155 41.231 31.1136C41.821 30.6898 41.9547 29.8673 41.5297 29.278Z" fill="#BD142D"/>
<path d="M41.5297 29.278C41.1054 28.6886 40.2841 28.5555 39.6954 28.9798C37.9091 30.2667 34.4791 32.738 34.2066 32.9348C34.081 33.0417 33.9491 33.1386 33.8116 33.2242C33.2722 33.5636 32.6466 33.7448 31.9935 33.7448H27.5029C26.9854 33.7448 26.5654 33.3255 26.5654 32.8073C26.5654 32.2886 26.986 31.8698 27.5029 31.8698H32.3054C33.011 31.8698 33.576 31.2823 33.5466 30.5755C33.5191 29.9048 32.9466 29.3848 32.2754 29.3848H28.6197C28.3722 29.123 28.101 28.883 27.8104 28.6686C26.811 27.9317 25.576 27.4961 24.2391 27.4961C21.8622 27.4961 19.4972 28.9936 18.5166 30.9923L22.3516 37.6342H29.5454C30.9579 37.6342 32.3491 37.273 33.5735 36.5686C33.9979 36.3248 34.4522 36.0317 34.9447 35.678C37.0085 34.1955 41.2279 31.1155 41.231 31.1136C41.821 30.6898 41.9547 29.8673 41.5297 29.278Z" fill="url(#paint2_radial_806_32823)" fill-opacity="0.4"/>
</g>
<defs>
<radialGradient id="paint0_radial_806_32823" cx="0" cy="0" r="1" gradientUnits="userSpaceOnUse" gradientTransform="translate(26.2329 13.6146) rotate(55.9689) scale(12.0577 12.0575)">
<stop stop-color="white"/>
<stop offset="0.697917" stop-color="white" stop-opacity="0"/>
<stop offset="1" stop-color="white" stop-opacity="0"/>
</radialGradient>
<radialGradient id="paint1_radial_806_32823" cx="0" cy="0" r="1" gradientUnits="userSpaceOnUse" gradientTransform="translate(13.6308 32.7787) rotate(59.2387) scale(8.88715 8.42155)">
<stop stop-color="white"/>
<stop offset="0.697917" stop-color="white" stop-opacity="0"/>
<stop offset="1" stop-color="white" stop-opacity="0"/>
</radialGradient>
<radialGradient id="paint2_radial_806_32823" cx="0" cy="0" r="1" gradientUnits="userSpaceOnUse" gradientTransform="translate(25.9527 29.4905) rotate(32.8369) scale(11.8002 11.5917)">
<stop stop-color="white"/>
<stop offset="0.697917" stop-color="white" stop-opacity="0"/>
<stop offset="1" stop-color="white" stop-opacity="0"/>
</radialGradient>
<clipPath id="clip0_806_32823">
<rect width="32" height="32" fill="white" transform="translate(10 10.5)"/>
</clipPath>
</defs>
</svg>
