<svg width="40" height="40" viewBox="0 0 40 40" fill="none" xmlns="http://www.w3.org/2000/svg">
<g clip-path="url(#clip0_1323_9042)">
<rect width="40" height="40" rx="20" fill="#4334DD"/>
<rect width="40" height="40" rx="20" fill="url(#paint0_radial_1323_9042)" fill-opacity="0.7"/>
<path d="M16.4305 3.80346C17.1515 3.44367 17.9243 3.16577 18.7272 3.06567C19.3488 3.01457 19.9844 3.02717 20.5906 3.19167C21.2115 3.36107 21.8345 3.60466 22.3076 4.05616C22.6506 4.33335 22.89 4.73375 22.9348 5.17614C23.0006 5.91113 22.7507 6.65941 22.2936 7.2334C22.1641 7.3783 22.0312 7.5197 21.8989 7.6611C23.128 7.5288 24.4097 7.5043 25.592 7.92079C26.18 8.13149 26.7505 8.40238 27.265 8.75728C27.8929 9.18287 28.3653 9.78906 28.8329 10.3771C29.5861 11.5152 29.9963 12.8627 30.0894 14.2207C30.1412 15.1706 30.06 16.1247 29.8787 17.0577C29.8654 17.1683 29.7772 17.2425 29.6897 17.2978C29.4524 17.1242 29.3138 16.8463 29.0583 16.6965C28.8014 16.5229 28.4927 16.4662 28.2036 16.3703C28.0217 16.3025 27.8334 16.3801 27.6528 16.4116C26.5671 16.6328 25.4443 16.588 24.3551 16.4131C23.8406 16.3627 23.3527 16.194 22.8774 15.9994C22.533 15.8622 22.1718 15.7642 21.8415 15.5934C21.6434 15.48 21.4355 15.3848 21.2325 15.2812C20.6977 14.9886 20.2679 14.5455 19.8759 14.0863C19.5546 14.3313 19.3082 14.6582 18.9904 14.9074C18.6943 15.1545 18.3254 15.2882 18.0195 15.5213C17.6415 15.7131 17.2278 15.8244 16.8246 15.9525C15.6277 16.3242 14.3334 16.4278 13.1112 16.1135C12.7444 16.0064 12.4238 15.7915 12.0885 15.6151C12.0745 15.7257 12.0584 15.837 12.0528 15.949C11.8225 15.9546 11.5838 15.942 11.3647 16.0246C10.9902 16.1534 10.7095 16.4445 10.384 16.6573C10.2539 16.327 10.2336 15.9672 10.1706 15.6207C10.0068 14.0632 10.2769 12.4294 11.1071 11.084C11.6671 10.1062 12.561 9.37467 13.506 8.78808C14.1969 8.38488 14.9284 8.02929 15.7124 7.85149C15.3925 7.5862 14.9977 7.3832 14.7982 7.00101C14.5742 6.56001 14.472 6.01542 14.675 5.54783C14.9984 4.75825 15.7005 4.20105 16.4305 3.80346ZM18.3275 5.99442C17.8277 6.10502 17.3566 6.32762 16.9387 6.62021C16.7847 6.73851 16.5908 6.86591 16.5782 7.08011C16.5796 7.2999 16.7084 7.5407 16.9317 7.603C17.1396 7.6597 17.3356 7.5365 17.5344 7.4952C18.2673 7.3174 19.0317 7.3839 19.7723 7.4721C20.0992 7.5211 20.4751 7.6499 20.7754 7.4469C20.9329 7.3629 21.0456 7.1886 20.9861 7.00731C20.8524 6.70561 20.5892 6.47462 20.2868 6.34932C19.934 6.20512 19.5959 6.00562 19.2123 5.95382C18.9183 5.90623 18.6166 5.92932 18.3275 5.99442ZM27.6423 12.2243C27.4274 12.2474 27.2062 12.2663 27.0039 12.3468C26.782 12.4343 26.817 12.8242 27.0529 12.869C27.3035 12.8935 27.5597 12.8543 27.7984 12.7794C28.0847 12.6786 27.9426 12.1627 27.6423 12.2243ZM11.4676 12.8676C11.7959 13.0671 12.1963 13.0839 12.5673 13.135C13.4724 13.2519 14.3873 13.2064 15.2973 13.1994C15.5437 13.1896 15.8811 13.1742 15.963 12.8865C15.9609 12.7395 15.823 12.6548 15.7285 12.5645C14.5616 12.638 13.38 12.6667 12.2208 12.4889C11.9919 12.4756 11.8008 12.3377 11.5852 12.2845C11.2905 12.2866 11.2177 12.7423 11.4676 12.8676ZM23.8315 12.4994C23.0573 12.5071 22.2754 12.5617 21.509 12.4196C21.4236 12.4952 21.3249 12.5624 21.2717 12.6667C21.229 12.8613 21.4201 13.0034 21.5923 13.03C22.2152 13.1434 22.8522 13.1133 23.4829 13.1091C24.2557 13.0608 25.032 13.0482 25.802 12.9558C25.9546 12.939 26.1478 12.8515 26.1275 12.6674C26.1611 12.5218 26.0449 12.4294 25.9448 12.3475C25.2427 12.4245 24.5371 12.4602 23.8315 12.4994ZM16.9212 12.5057C16.7042 12.5288 16.5866 12.8172 16.749 12.9761C16.9464 13.1462 17.239 13.0825 17.4728 13.0391C17.7017 12.995 17.8053 12.68 17.6128 12.5288C17.4028 12.4063 17.1473 12.4812 16.9212 12.5057Z" fill="#BAD1D6"/>
<path d="M18.3293 5.99359C18.6184 5.9285 18.9201 5.9054 19.2141 5.95299C19.5977 6.00479 19.9358 6.20429 20.2886 6.34849C20.591 6.47379 20.8542 6.70478 20.9879 7.00648C21.0474 7.18777 20.9347 7.36207 20.7772 7.44607C20.4769 7.64907 20.101 7.52027 19.7741 7.47127C19.0335 7.38307 18.2692 7.31657 17.5363 7.49437C17.3375 7.53567 17.1415 7.65887 16.9336 7.60217C16.7103 7.53987 16.5815 7.29907 16.5801 7.07928C16.5927 6.86508 16.7866 6.73768 16.9406 6.61938C17.3585 6.32679 17.8296 6.10419 18.3293 5.99359Z" fill="#BA642F"/>
<path d="M16.3841 27.1905C17.7372 26.9861 19.1071 26.9035 20.4756 26.9063C20.4721 27.2486 20.4707 27.5909 20.4833 27.9332C20.5197 27.9451 20.5925 27.9689 20.6289 27.9801L20.5505 27.9983C20.5141 28.006 20.4399 28.02 20.4035 28.027C19.9926 27.8072 19.5509 27.6168 19.077 27.6112C18.6941 27.6028 18.2475 27.6511 17.9948 27.9759C17.7764 28.2356 17.8471 28.6101 17.9822 28.8922C18.1159 29.2023 18.3651 29.4375 18.6094 29.6622C18.3448 30.0759 18.4393 30.575 18.5366 31.0236C18.4414 31.2574 18.2566 31.4436 18.1152 31.6508C18.1789 31.7355 18.2216 31.8496 18.3294 31.8888C18.8103 32.1177 19.3395 32.2073 19.8463 32.3599C19.9499 32.3991 20.0521 32.3368 20.1494 32.3081C20.2495 32.0617 20.2698 31.76 20.4721 31.5703C20.477 32.9962 20.4777 34.4214 20.4714 35.8466C19.889 35.8466 19.3073 35.8459 18.7249 35.8473C18.7242 36.1735 18.7242 36.4997 18.7249 36.8259C19.308 36.8273 19.8911 36.8259 20.4742 36.8266C20.4756 37.1065 20.4763 37.3865 20.4756 37.6665C19.8197 37.6686 19.1638 37.6616 18.5079 37.6707C18.3357 38.8243 18.1313 39.973 17.9654 41.128C15.5637 40.8067 13.2398 40.0514 11.0376 39.0539C10.8997 39 10.801 38.8775 10.8318 38.7235C10.9424 37.4215 11.088 36.1231 11.2098 34.8218C11.3855 33.3406 11.4758 31.8482 11.6795 30.3706C11.7432 30.0227 11.9049 29.7063 12.0624 29.392C12.3403 28.8957 12.7862 28.5142 13.2678 28.223C14.2184 27.6609 15.3013 27.3669 16.3841 27.1905ZM13.9643 29.7574C13.965 29.8029 13.9664 29.8953 13.9664 29.9415C13.9629 30.7661 13.9657 31.5913 13.965 32.4166C14.7574 32.4166 15.549 32.4173 16.3414 32.4159C16.4352 32.4159 16.5297 32.4159 16.6249 32.4166C16.6249 31.5297 16.6249 30.6436 16.6249 29.7567C15.738 29.7567 14.8512 29.756 13.9643 29.7574Z" fill="#BA642F"/>
<path opacity="0.16" d="M21.9004 7.66207C22.0327 7.52067 22.1657 7.37927 22.2952 7.23438C22.2427 7.35477 22.1699 7.46467 22.0936 7.57107C23.215 7.47867 24.3608 7.42127 25.4675 7.67327C26.8507 8.01626 28.0708 8.94865 28.7792 10.1834C28.7932 10.2317 28.8205 10.329 28.8345 10.378C28.3669 9.79003 27.8944 9.18384 27.2665 8.75825C26.752 8.40335 26.1815 8.13246 25.5935 7.92176C24.4112 7.50527 23.1296 7.52977 21.9004 7.66207Z" fill="black"/>
<path d="M27.6425 12.2238C27.9428 12.1622 28.0849 12.6781 27.7986 12.7789C27.5599 12.8538 27.3037 12.893 27.0531 12.8685C26.8172 12.8237 26.7822 12.4338 27.0041 12.3463C27.2064 12.2658 27.4276 12.2469 27.6425 12.2238Z" fill="#ECFCFF"/>
<path d="M11.468 12.8682C11.2181 12.7429 11.2909 12.2873 11.5856 12.2852C11.8012 12.3384 11.9923 12.4763 12.2212 12.4896C13.3804 12.6673 14.562 12.6387 15.7288 12.5652C15.8233 12.6555 15.9612 12.7401 15.9633 12.8871C15.8814 13.1748 15.544 13.1902 15.2976 13.2C14.3877 13.207 13.4728 13.2525 12.5677 13.1356C12.1967 13.0845 11.7963 13.0677 11.468 12.8682Z" fill="#ECFCFF"/>
<path d="M23.8335 12.4996C24.5391 12.4604 25.2447 12.4247 25.9468 12.3477C26.0469 12.4296 26.1631 12.522 26.1295 12.6676C26.1498 12.8516 25.9566 12.9391 25.804 12.9559C25.034 13.0483 24.2577 13.0609 23.4849 13.1092C22.8542 13.1134 22.2172 13.1435 21.5942 13.0301C21.422 13.0035 21.2309 12.8614 21.2736 12.6669C21.3268 12.5626 21.4255 12.4954 21.5109 12.4198C22.2774 12.5619 23.0593 12.5073 23.8335 12.4996Z" fill="#ECFCFF"/>
<path d="M16.9218 12.5061C17.1479 12.4816 17.4034 12.4067 17.6134 12.5292C17.8059 12.6804 17.7023 12.9954 17.4734 13.0395C17.2396 13.0829 16.947 13.1466 16.7496 12.9765C16.5872 12.8176 16.7048 12.5292 16.9218 12.5061Z" fill="#EBFAFE"/>
<path d="M18.9913 14.907C19.3091 14.6578 19.5555 14.3309 19.8768 14.0859C20.2688 14.5451 20.6986 14.9882 21.2333 15.2808C21.4363 15.3844 21.6442 15.4796 21.8423 15.593C21.654 15.6847 21.4195 15.7673 21.3348 15.9773C21.2746 16.1537 21.4314 16.2993 21.5924 16.3322C22.0439 16.4267 22.5143 16.2678 22.8783 15.999C23.3536 16.1936 23.8415 16.3623 24.356 16.4127C25.4452 16.5877 26.568 16.6325 27.6536 16.4113C27.8342 16.3798 28.0225 16.3021 28.2045 16.37C28.1457 17.0287 28.1569 17.6902 28.0974 18.3482C28.005 19.3212 28.012 20.299 27.998 21.2748C27.9525 22.0616 28.0498 22.889 27.7271 23.6324C27.5808 23.9824 27.3372 24.2848 27.0544 24.5347C26.6555 24.905 26.1662 25.1703 25.6524 25.3439C24.9888 25.5223 24.3035 25.5965 23.6259 25.6973C22.606 25.8541 21.5756 25.9052 20.5453 25.9269C19.3322 25.9318 18.1128 25.9969 16.9067 25.8303C16.2893 25.7393 15.6586 25.7085 15.0602 25.5202C14.3427 25.3201 13.579 25.0877 13.0708 24.5081C12.9714 24.3982 12.8804 24.2813 12.7985 24.1588C12.2147 23.2313 12.074 22.1197 12.0306 21.0466C12.0327 19.4709 11.9676 17.8918 12.0677 16.3182C12.0684 16.1943 12.0579 16.0718 12.0537 15.9486C12.0593 15.8366 12.0754 15.7253 12.0894 15.6147C12.4247 15.7911 12.7453 16.006 13.1121 16.1131C14.3343 16.4274 15.6285 16.3238 16.8255 15.9521C17.326 15.768 17.7915 16.279 18.2997 16.1236C18.432 16.076 18.4733 15.8996 18.397 15.789C18.313 15.6518 18.1576 15.5902 18.0204 15.5209C18.3263 15.2878 18.6952 15.1541 18.9913 14.907ZM15.0461 17.2114C14.5653 17.2912 14.0515 17.462 13.7505 17.8694C13.6189 18.0696 13.8268 18.3069 14.0382 18.3076C14.4785 18.3545 14.8551 18.0514 15.2876 18.029C15.9792 17.9485 16.6274 18.4007 17.319 18.2362C17.5157 18.1795 17.7432 18.0241 17.7264 17.7945C17.7208 17.5838 17.4779 17.5292 17.3253 17.4501C16.5945 17.2093 15.8112 17.1078 15.0461 17.2114ZM23.5937 17.2107C23.1303 17.2814 22.6312 17.4298 22.333 17.8162C22.1874 17.9779 22.3029 18.2327 22.4961 18.2894C22.9406 18.4455 23.4019 18.2712 23.8401 18.1795C24.3182 18.0633 24.8327 18.0381 25.3017 18.2075C25.5173 18.2698 25.7483 18.3916 25.9744 18.3034C26.1942 18.1704 26.1837 17.8148 25.9905 17.6636C25.3108 17.1484 24.4099 17.0896 23.5937 17.2107ZM17.228 21.7578C17.0306 21.7641 16.8199 21.9104 16.843 22.1267C16.9851 22.5964 17.2637 23.0304 17.6431 23.3447C18.152 23.7206 18.8107 23.8088 19.4274 23.8151C20.1232 23.7661 20.8638 23.8333 21.5028 23.4973C22.0866 23.1935 22.3862 22.5502 22.5451 21.9461C22.4597 21.7956 22.2448 21.7634 22.0985 21.6808L22.0733 21.7018C21.2228 21.3441 20.28 21.195 19.3595 21.2608C18.635 21.3553 17.9259 21.545 17.228 21.7578Z" fill="#FECA89"/>
<path d="M16.8242 15.9527C17.2274 15.8246 17.6411 15.7133 18.0191 15.5215C18.1563 15.5908 18.3117 15.6524 18.3957 15.7896C18.472 15.9002 18.4307 16.0766 18.2984 16.1242C17.7902 16.2796 17.3247 15.7686 16.8242 15.9527Z" fill="#4D6672"/>
<path d="M21.3354 15.978C21.4201 15.768 21.6546 15.6854 21.8429 15.5938C22.1733 15.7645 22.5345 15.8625 22.8789 15.9997C22.5149 16.2685 22.0445 16.4274 21.593 16.3329C21.432 16.3 21.2752 16.1544 21.3354 15.978Z" fill="#4D6672"/>
<path d="M15.0458 17.2123C15.8109 17.1087 16.5942 17.2102 17.325 17.4509C17.4776 17.53 17.7205 17.5846 17.7261 17.7953C17.7429 18.0249 17.5154 18.1803 17.3187 18.237C16.6271 18.4015 15.9789 17.9493 15.2873 18.0298C14.8547 18.0522 14.4781 18.3553 14.0378 18.3084C13.8264 18.3077 13.6185 18.0704 13.7501 17.8702C14.0511 17.4628 14.5649 17.2921 15.0458 17.2123Z" fill="#4D6672"/>
<path d="M23.5939 17.2115C24.41 17.0905 25.3109 17.1493 25.9906 17.6644C26.1838 17.8156 26.1943 18.1712 25.9745 18.3042C25.7484 18.3924 25.5174 18.2706 25.3018 18.2083C24.8328 18.0389 24.3183 18.0641 23.8403 18.1803C23.4021 18.272 22.9408 18.4463 22.4963 18.2902C22.3031 18.2335 22.1876 17.9787 22.3332 17.817C22.6314 17.4306 23.1305 17.2822 23.5939 17.2115Z" fill="#4D6672"/>
<path d="M11.3657 16.0248C11.5848 15.9422 11.8235 15.9548 12.0537 15.9492C12.0579 16.0724 12.0684 16.1949 12.0677 16.3188C11.9676 17.8924 12.0327 19.4716 12.0306 21.0472C11.9963 21.0332 11.9271 21.0059 11.8928 20.9919C11.0913 20.6923 10.4914 20.0008 10.1211 19.2483C9.84249 18.5819 9.68639 17.765 10.0623 17.1042C10.1491 16.9425 10.2471 16.7808 10.385 16.6576C10.7105 16.4448 10.9912 16.1536 11.3657 16.0248Z" fill="#E8B370"/>
<path d="M28.2045 16.3711C28.4936 16.467 28.8023 16.5237 29.0592 16.6973C29.3147 16.8471 29.4533 17.125 29.6906 17.2986C29.8103 17.3791 29.8425 17.5268 29.8887 17.6542C29.9573 17.8782 30.042 18.1001 30.0665 18.3346C30.0721 18.7623 30.0553 19.2074 29.8593 19.5973C29.6787 19.9473 29.4498 20.2728 29.1852 20.5647C28.8555 20.8923 28.4411 21.1366 27.998 21.2759C28.012 20.3001 28.005 19.3222 28.0974 18.3493C28.1569 17.6913 28.1457 17.0298 28.2045 16.3711Z" fill="#E8B370"/>
<path opacity="0.24" d="M30.0668 18.334C30.2019 18.9717 30.0528 19.6563 29.6496 20.1708C29.5145 20.3178 29.4207 20.576 29.1855 20.5641C29.4501 20.2723 29.679 19.9468 29.8596 19.5968C30.0556 19.2069 30.0724 18.7617 30.0668 18.334Z" fill="#19130C"/>
<path opacity="0.15" d="M11.8926 20.9922C11.9269 21.0062 11.9962 21.0335 12.0305 21.0475C12.0739 22.1206 12.2146 23.2322 12.7984 24.1596C12.6178 24.1092 12.5324 23.9335 12.4484 23.7837C12.2167 23.3546 12.0102 22.8983 11.9528 22.4097C11.915 21.9379 11.9794 21.4605 11.8926 20.9922Z" fill="black"/>
<path opacity="0.15" d="M29.3392 37.0762C29.4988 37.1952 29.4113 37.4269 29.4372 37.5977C29.475 38.2053 29.5205 38.8128 29.5688 39.4204C29.5562 39.5933 29.6073 39.8061 29.4778 39.9454C29.1782 40.0728 28.8429 40.0721 28.5272 40.1414C28.2388 40.1806 27.9462 40.2968 27.6543 40.2212C28.2269 40.0126 28.7974 39.7963 29.3609 39.5625C29.4491 39.5352 29.5366 39.4533 29.51 39.3518C29.4407 38.5944 29.391 37.835 29.3392 37.0762Z" fill="black"/>
<path d="M17.2285 21.7582C17.9264 21.5454 18.6355 21.3557 19.36 21.2612C20.2805 21.1954 21.2233 21.3445 22.0738 21.7022C21.6412 22.146 20.9882 22.2055 20.403 22.1803C19.7037 22.1649 19.0044 22.153 18.3051 22.1355C17.9215 22.1215 17.4868 22.0823 17.2285 21.7582Z" fill="white"/>
<path d="M20.5505 27.999L20.6289 27.9808C20.974 27.936 21.3471 28.0396 21.5711 28.3175C21.7629 28.519 21.7678 28.8088 21.8308 29.0643C21.7076 29.3709 21.5963 29.6971 21.3597 29.9386C21.2624 30.0569 21.1217 30.1563 21.0944 30.3166C21.037 30.5924 21.0202 30.8787 20.9096 31.1412C20.8046 31.3225 20.6436 31.4569 20.4721 31.571C20.2698 31.7607 20.2495 32.0624 20.1494 32.3088C20.0521 32.3375 19.9499 32.3998 19.8463 32.3606C19.3395 32.208 18.8103 32.1184 18.3294 31.8895C18.2216 31.8503 18.1789 31.7362 18.1152 31.6515C18.2566 31.4443 18.4414 31.2581 18.5366 31.0243C18.4393 30.5756 18.3448 30.0765 18.6094 29.6628C18.8747 29.1917 19.2569 28.8018 19.6608 28.4484C19.9135 28.2244 20.2292 28.0914 20.5505 27.999Z" fill="white"/>
<path d="M13.9648 29.7587C14.8517 29.7573 15.7386 29.758 16.6255 29.758C16.6255 30.6449 16.6255 31.5311 16.6255 32.4179C16.5303 32.4172 16.4358 32.4172 16.342 32.4172C16.3413 31.6046 16.3378 30.7919 16.328 29.9792C15.5419 29.9386 14.7537 29.9589 13.9669 29.9428C13.9669 29.8966 13.9655 29.8042 13.9648 29.7587Z" fill="white"/>
<path d="M23.7656 29.7578C24.6525 29.7578 25.5387 29.7578 26.4256 29.7578C26.4256 30.6447 26.4256 31.5316 26.4256 32.4178C26.3388 32.4171 26.2534 32.4164 26.168 32.4171C26.175 31.5855 26.1995 30.7518 26.1372 29.923C25.3469 29.9034 24.5559 29.9363 23.7656 29.9272C23.7656 29.8852 23.7656 29.8005 23.7656 29.7578Z" fill="white"/>
<path d="M21.9538 35.8496C22.0434 35.8496 22.1337 35.8496 22.2247 35.8496C22.2247 36.1765 22.2247 36.5027 22.2247 36.8296C22.1337 36.8289 22.0434 36.8289 21.9531 36.8296C21.9552 36.5027 21.9552 36.1765 21.9538 35.8496Z" fill="white"/>
<path d="M22.0719 21.7007L22.0971 21.6797C22.2434 21.7623 22.4583 21.7945 22.5437 21.945C22.3848 22.5491 22.0852 23.1924 21.5014 23.4962C20.8623 23.8322 20.1217 23.765 19.4259 23.814C18.8093 23.8077 18.1506 23.7195 17.6417 23.3436C17.2623 23.0293 16.9837 22.5953 16.8416 22.1256C16.8185 21.9093 17.0292 21.763 17.2266 21.7567C17.4849 22.0808 17.9196 22.12 18.3032 22.134C19.0025 22.1515 19.7017 22.1634 20.401 22.1788C20.9862 22.204 21.6393 22.1445 22.0719 21.7007Z" fill="#BA4850"/>
<path d="M13.0703 24.5098C13.5785 25.0894 14.3422 25.3218 15.0597 25.5219C15.6582 25.7102 16.2888 25.741 16.9062 25.832C18.1123 25.9986 19.3317 25.9335 20.5448 25.9286C20.5462 26.2555 20.5448 26.5824 20.5427 26.9086L20.4755 26.9093C19.107 26.9065 17.7371 26.9891 16.384 27.1935C15.3012 27.3699 14.2183 27.6639 13.2677 28.226C12.7861 28.5172 12.3402 28.8987 12.0623 29.395C11.9048 29.7093 11.7431 30.0257 11.6794 30.3736C11.6822 30.3148 11.6892 30.1979 11.692 30.1391C11.6486 30.1426 11.5611 30.1489 11.5177 30.1524C11.1852 30.1405 10.8485 30.1727 10.5188 30.1272C10.3291 30.0355 10.3641 29.7933 10.3634 29.6197C10.4215 28.7706 10.6301 27.9271 11.0109 27.1641C11.4652 26.1274 12.1708 25.2 13.0703 24.5098Z" fill="#ECB457"/>
<path d="M25.6522 25.3443C26.166 25.1707 26.6553 24.9054 27.0543 24.5352C27.8711 24.9803 28.5417 25.6649 29.0247 26.4559C29.6568 27.4548 30.0201 28.6063 30.1629 29.7753C30.172 29.8656 30.1216 29.9671 30.0488 30.0196C29.7422 30.1624 29.3558 30.0518 29.0695 30.2366C28.9414 30.2282 28.7818 30.2709 28.6894 30.1547C28.5382 29.9937 28.4458 29.79 28.3261 29.6066C27.9537 29.0186 27.4806 28.4768 26.8779 28.117C26.1002 27.6459 25.2077 27.4114 24.3222 27.2441C23.0755 27.0208 21.8092 26.9102 20.543 26.9074C20.5451 26.5812 20.5465 26.2543 20.5451 25.9274C21.5755 25.9057 22.6058 25.8546 23.6257 25.6978C24.3033 25.597 24.9886 25.5228 25.6522 25.3443Z" fill="#E0A549"/>
<path d="M20.4749 26.907L20.5421 26.9062C21.8084 26.909 23.0747 27.0196 24.3213 27.2429C25.2068 27.4102 26.0993 27.6447 26.877 28.1158C27.4797 28.4756 27.9529 29.0174 28.3253 29.6054C28.445 29.7888 28.5374 29.9925 28.6886 30.1535C28.781 30.2697 28.9406 30.227 29.0687 30.2354C29.2269 30.297 28.9714 30.3495 28.9168 30.3642C28.7677 30.591 28.963 30.8451 28.9511 31.0901C28.9406 32.0736 29.0659 33.0507 29.1191 34.0314C29.1954 35.0464 29.271 36.0607 29.3389 37.0757C29.3907 37.8345 29.4404 38.594 29.5096 39.3513C29.5362 39.4528 29.4488 39.5347 29.3606 39.562C28.7971 39.7958 28.2266 40.0121 27.654 40.2207C26.275 40.6981 24.8456 41.0271 23.3967 41.2007C23.1062 40.0233 22.7982 38.8495 22.5091 37.6714C22.3936 37.6693 22.2788 37.6679 22.1647 37.6672C21.6012 37.6665 21.0377 37.6672 20.4749 37.6672C20.4756 37.3872 20.4749 37.1072 20.4735 36.8272C20.967 36.8272 21.4598 36.8272 21.9526 36.8272C22.0429 36.8265 22.1332 36.8265 22.2242 36.8272C22.2242 36.5003 22.2242 36.1741 22.2242 35.8472C22.1332 35.8472 22.0429 35.8472 21.9533 35.8472C21.4591 35.8465 20.9649 35.8472 20.4707 35.8472C20.477 34.422 20.4763 32.9968 20.4714 31.571C20.6429 31.4569 20.8039 31.3225 20.9089 31.1412C21.1476 31.1881 21.3919 31.193 21.6348 31.2084C21.8637 31.2399 22.0667 31.501 22.3061 31.3799C22.4013 31.2875 22.4244 31.1503 22.4685 31.0313C22.5728 30.6869 22.6939 30.3474 22.7954 30.0016C22.8283 29.8791 22.8689 29.7328 22.7863 29.6215C22.5784 29.4766 22.3117 29.4913 22.0828 29.4038C21.9813 29.3037 21.9078 29.1812 21.8301 29.0643C21.7671 28.8088 21.7622 28.519 21.5704 28.3174C21.3464 28.0395 20.9733 27.9359 20.6282 27.9807C20.5918 27.9695 20.519 27.9457 20.4826 27.9338C20.47 27.5915 20.4714 27.2492 20.4749 26.907ZM23.7641 29.7573C23.7641 29.8 23.7641 29.8847 23.7641 29.9267C23.7641 30.7569 23.7634 31.5871 23.7641 32.4173C24.5649 32.4173 25.3657 32.4187 26.1665 32.4166C26.2519 32.4159 26.3373 32.4166 26.4241 32.4173C26.4241 31.5311 26.4241 30.6442 26.4241 29.7573C25.5372 29.7573 24.651 29.7573 23.7641 29.7573Z" fill="#985224"/>
<path d="M17.9933 27.9788C18.246 27.654 18.6925 27.6057 19.0754 27.6141C19.5493 27.6197 19.991 27.8101 20.4019 28.0299C20.4383 28.0229 20.5125 28.0089 20.5489 28.0012C20.2276 28.0936 19.9119 28.2266 19.6592 28.4506C19.2553 28.8041 18.8731 29.194 18.6078 29.6651C18.3635 29.4404 18.1144 29.2052 17.9807 28.8951C17.8456 28.613 17.7749 28.2385 17.9933 27.9788Z" fill="#E0F0F4"/>
<path d="M21.3603 29.9407C21.5968 29.6992 21.7081 29.373 21.8313 29.0664C21.909 29.1833 21.9825 29.3058 22.084 29.4059C22.3129 29.4934 22.5796 29.4787 22.7875 29.6236C22.8701 29.7349 22.8295 29.8812 22.7966 30.0037C22.6951 30.3495 22.574 30.689 22.4697 31.0334C22.4256 31.1524 22.4025 31.2896 22.3073 31.382C22.0679 31.5031 21.8649 31.242 21.636 31.2105C21.3931 31.1951 21.1489 31.1902 20.9102 31.1433C21.0208 30.8808 21.0376 30.5945 21.095 30.3187C21.1223 30.1584 21.263 30.059 21.3603 29.9407Z" fill="#E0F0F4"/>
<path d="M23.7659 29.9285C24.5562 29.9376 25.3472 29.9047 26.1375 29.9243C26.1998 30.7531 26.1753 31.5868 26.1683 32.4184C25.3675 32.4205 24.5667 32.4191 23.7659 32.4191C23.7652 31.5889 23.7659 30.7587 23.7659 29.9285Z" fill="#FFE8BF"/>
<path d="M13.9666 29.9434C14.7534 29.9595 15.5416 29.9392 16.3277 29.9798C16.3375 30.7924 16.341 31.6051 16.3417 32.4178C15.5493 32.4192 14.7576 32.4185 13.9652 32.4185C13.9659 31.5932 13.9631 30.7679 13.9666 29.9434Z" fill="#FFE8BF"/>
<path d="M18.7251 35.8506C19.3075 35.8492 19.8892 35.8499 20.4716 35.8499C20.9658 35.8499 21.46 35.8492 21.9542 35.8499C21.9556 36.1768 21.9556 36.503 21.9535 36.8299C21.4607 36.8299 20.9679 36.8299 20.4744 36.8299C19.8913 36.8292 19.3082 36.8306 18.7251 36.8292C18.7244 36.503 18.7244 36.1768 18.7251 35.8506Z" fill="#FFE8BF"/>
<path d="M18.5073 37.6728C19.1632 37.6637 19.8191 37.6707 20.475 37.6686C21.0378 37.6686 21.6013 37.6679 22.1648 37.6686C22.4735 38.8488 22.7843 40.0289 23.0349 41.2224L23.0398 41.2497C21.3493 41.3897 19.6455 41.3666 17.9648 41.13C18.1307 39.975 18.3351 38.8264 18.5073 37.6728Z" fill="#FFE8BF"/>
<path opacity="0.16" d="M11.5167 30.15C11.5601 30.1465 11.6476 30.1402 11.691 30.1367C11.6882 30.1955 11.6812 30.3124 11.6784 30.3712C11.4747 31.8489 11.3844 33.3413 11.2087 34.8224C11.1058 34.6425 11.1555 34.4325 11.1639 34.2379C11.2563 33.1411 11.341 32.0435 11.4425 30.9473C11.4635 30.6813 11.4565 30.4111 11.5167 30.15Z" fill="#010100"/>
<path d="M22.166 37.668C22.2801 37.6687 22.3949 37.6701 22.5104 37.6722C22.7995 38.8502 23.1075 40.0241 23.398 41.2015C23.2769 41.2092 23.1565 41.2183 23.0361 41.2218C22.7855 40.0283 22.4747 38.8481 22.166 37.668Z" fill="#FFFEFE"/>
</g>
<defs>
<radialGradient id="paint0_radial_1323_9042" cx="0" cy="0" r="1" gradientUnits="userSpaceOnUse" gradientTransform="translate(12.7869 7.86885) rotate(55.9679) scale(30.4636 30.4636)">
<stop stop-color="white"/>
<stop offset="0.697917" stop-color="white" stop-opacity="0"/>
<stop offset="1" stop-color="white" stop-opacity="0"/>
</radialGradient>
<clipPath id="clip0_1323_9042">
<rect width="40" height="40" rx="20" fill="white"/>
</clipPath>
</defs>
</svg>
