<svg width="52" height="53" viewBox="0 0 52 53" fill="none" xmlns="http://www.w3.org/2000/svg">
<rect y="0.5" width="52" height="52" rx="10.4" fill="white"/>
<path fill-rule="evenodd" clip-rule="evenodd" d="M12.3079 28.8241V23.9797C12.3079 23.9177 12.2331 23.8868 12.1892 23.9306L11.4134 24.7064C11.0564 25.0634 10.4322 24.8164 10.4322 24.2996C10.4322 24.1464 10.4913 24.0013 10.5998 23.8928L15.3063 19.1863C16.0046 18.488 17.1511 18.4859 17.852 19.185L22.5992 23.92C22.8977 24.2182 22.7131 24.874 22.167 24.874C22.0136 24.874 21.8688 24.8149 21.7602 24.7064L20.9844 23.9305C20.9405 23.8867 20.8657 23.9176 20.8657 23.9796V28.824C20.8657 28.8624 20.8345 28.8936 20.7962 28.8936H12.3774C12.3391 28.8936 12.3079 28.8624 12.3079 28.8241ZM29.0522 25.3832C29.3991 26.3006 30.1371 27.1299 31.1118 27.1299H34.7659C34.8042 27.1299 34.8354 27.1611 34.8354 27.1994V28.8808C34.8354 28.9111 34.817 28.9368 34.7884 28.9466L28.8918 30.9583C28.8619 30.9685 28.83 30.9579 28.8121 30.9318C28.0658 29.8445 26.5068 29.6905 25.5648 30.6325C25.1484 31.0491 24.9128 31.6292 24.9472 32.2504C24.949 32.282 24.9302 32.3099 24.9003 32.32L17.1278 34.9716C17.0825 34.987 17.0359 34.9536 17.0359 34.9058V31.7264C17.0359 31.688 17.0671 31.6568 17.1054 31.6568H20.8878C21.8624 31.6568 22.6005 30.8276 22.9474 29.9101C22.9647 29.8644 22.9312 29.816 22.8824 29.816H10.1468C10.098 29.816 10.0645 29.8644 10.0817 29.9101C10.4286 30.8276 11.1666 31.6568 12.1413 31.6568H15.9237C15.962 31.6568 15.9932 31.688 15.9932 31.7264V35.7306C15.9932 36.0581 16.2987 36.3524 16.7153 36.212L25.2361 33.305C25.266 33.2948 25.2979 33.3053 25.3158 33.3314C25.4812 33.572 25.6948 33.7765 25.9427 33.9312C25.9693 33.9479 25.9813 33.979 25.9727 34.0092L24.6368 38.6968C24.6282 38.7271 24.6015 38.7472 24.57 38.7472H22.1808C20.9494 38.7472 20.0968 39.9188 19.8188 41.1083C19.8086 41.152 19.8415 41.1936 19.8865 41.1936H34.2413C34.2864 41.1936 34.3192 41.152 34.309 41.1083C34.0311 39.9188 33.1784 38.7472 31.947 38.7472H29.5579C29.5264 38.7472 29.4996 38.727 29.4911 38.6968L28.1552 34.0092C28.1466 33.979 28.1586 33.9479 28.1853 33.9312C28.8313 33.5282 29.2246 32.8016 29.1808 32.0128C29.1791 31.9812 29.1979 31.9534 29.2278 31.9432L35.5239 29.7952C35.7408 29.7218 35.8774 29.5193 35.8774 29.3024H35.8783V27.1992C35.8783 27.1609 35.9095 27.1297 35.9478 27.1297H39.8585C40.8332 27.1297 41.5712 26.3005 41.9181 25.383C41.9353 25.3373 41.9019 25.2889 41.8531 25.2889H29.1172C29.0684 25.2891 29.035 25.3375 29.0522 25.3832ZM28.3301 38.7472H25.7978C25.7514 38.7472 25.7183 38.7033 25.731 38.6587L26.9729 34.3008C26.993 34.2303 27.1349 34.2303 27.155 34.3008L28.3969 38.6587C28.4096 38.7032 28.3764 38.7472 28.3301 38.7472ZM38.9056 21.0935V21.8671C38.9056 21.9882 38.9814 22.1194 39.0899 22.1194H40.4036C40.4419 22.1194 40.4731 22.0882 40.4731 22.0499V20.9107C40.4731 20.8724 40.4419 20.8412 40.4036 20.8412H39.0899C38.9813 20.8412 38.9056 20.9724 38.9056 21.0935ZM30.4971 19.5101C30.4971 19.4718 30.5283 19.4406 30.5666 19.4406H31.3616C31.4 19.4406 31.4312 19.4094 31.4312 19.3711V13.2624C31.4312 12.4596 32.0861 11.8047 32.8889 11.8047H37.8518C38.6546 11.8047 39.3096 12.4596 39.3096 13.2624V18.6448C39.3096 18.6832 39.3408 18.7144 39.3791 18.7144H40.0854C40.2652 18.7144 40.4731 18.8194 40.4731 18.9707V19.7291C40.4731 19.7674 40.4419 19.7986 40.4036 19.7986H39.0899C38.3976 19.7986 37.8629 20.3998 37.8629 21.0936V21.8672C37.8629 22.561 38.3976 23.1623 39.0899 23.1623H40.4036C40.4419 23.1623 40.4731 23.1935 40.4731 23.2318V23.9902C40.4731 24.1415 40.2652 24.2465 40.0854 24.2465H30.8848C30.7049 24.2465 30.4971 24.1415 30.4971 23.9902V19.5101ZM38.1973 18.7143C38.2356 18.7143 38.2668 18.6831 38.2668 18.6448V13.2624C38.2668 13.0352 38.0791 12.8473 37.8518 12.8473H32.8889C32.6617 12.8473 32.4739 13.0351 32.4739 13.2624V19.371C32.4739 19.4093 32.5051 19.4405 32.5434 19.4405H36.0374C36.214 19.4405 36.3701 19.3526 36.4644 19.2182L36.8496 18.7401C36.8632 18.7232 36.8819 18.7142 36.9036 18.7142L38.1973 18.7143ZM17.9911 22.7351C17.7296 22.6078 17.4564 22.5217 17.1629 22.4711C17.1316 22.4656 17.1087 22.441 17.1056 22.4094C17.0445 21.7897 16.1187 21.773 16.0673 22.4317C16.0612 22.5112 15.9382 22.5039 15.743 22.5896L15.7428 22.5892C14.6372 23.0582 14.6088 24.3332 15.7391 24.8407L15.7388 24.8414C16.3621 25.1096 16.6147 24.9241 17.0431 25.1029C17.1208 25.1354 17.2435 25.2236 17.2441 25.2708C17.2448 25.328 17.1174 25.4075 17.0349 25.4448C16.6249 25.6308 15.9922 25.4823 15.6226 25.3111C15.3616 25.1908 15.0525 25.3047 14.9322 25.5656C14.8119 25.8266 14.9258 26.1357 15.1868 26.256C15.4509 26.3784 15.7264 26.4652 16.011 26.516C16.0421 26.5216 16.0648 26.5462 16.068 26.5776C16.1287 27.1979 17.0534 27.2114 17.1061 26.5594C17.1085 26.5294 17.1287 26.5054 17.1578 26.4978C17.7473 26.3434 18.2433 25.9477 18.2881 25.3064H18.2879C18.2892 25.285 18.2894 25.2633 18.2881 25.2413C18.2578 24.7361 17.9199 24.3454 17.4504 24.1458C16.8048 23.8713 16.5704 24.065 16.1501 23.8843L16.15 23.8845C15.9068 23.7652 15.8574 23.6688 16.146 23.5464L16.1458 23.546C16.5646 23.3672 17.1614 23.4902 17.5348 23.672C17.7935 23.798 18.1054 23.6904 18.2313 23.4317C18.3572 23.173 18.2498 22.861 17.9911 22.7351ZM36.7747 14.1147C36.5132 13.9874 36.24 13.9012 35.9465 13.8507C35.9152 13.8452 35.8923 13.8206 35.8892 13.789C35.8281 13.1693 34.9023 13.1526 34.8509 13.8113C34.8448 13.8908 34.7218 13.8835 34.5266 13.9692L34.5264 13.9688C33.4208 14.4378 33.3924 15.7128 34.5227 16.2203L34.5224 16.221C35.1457 16.4892 35.3983 16.3038 35.8267 16.4825C35.9044 16.515 36.0271 16.6032 36.0277 16.6504C36.0284 16.7076 35.901 16.7871 35.8185 16.8244C35.4085 17.0104 34.7758 16.8619 34.4062 16.6907C34.1452 16.5704 33.8361 16.6843 33.7158 16.9452C33.5955 17.2062 33.7094 17.5153 33.9704 17.6356C34.2345 17.758 34.51 17.8448 34.7946 17.8956C34.8257 17.9012 34.8484 17.9258 34.8516 17.9572C34.9123 18.5774 35.837 18.591 35.8897 17.939C35.8921 17.909 35.9123 17.885 35.9414 17.8774C36.5309 17.723 37.0269 17.3273 37.0717 16.686H37.0715C37.0728 16.6646 37.073 16.6429 37.0717 16.6209C37.0414 16.1157 36.7035 15.725 36.234 15.5254C35.5884 15.2509 35.354 15.4446 34.9337 15.2639L34.9336 15.2641C34.6904 15.1448 34.641 15.0484 34.9296 14.926L34.9294 14.9256C35.3482 14.7468 35.945 14.8698 36.3184 15.0516C36.5771 15.1776 36.889 15.07 37.0149 14.8113C37.1409 14.5525 37.0333 14.2407 36.7747 14.1147ZM13.3506 22.798V27.7813C13.3506 27.8196 13.3818 27.8508 13.4201 27.8508H19.7536C19.7919 27.8508 19.8231 27.8196 19.8231 27.7813V22.798C19.8231 22.7788 19.8163 22.7624 19.8028 22.7488L17.1528 20.0988C16.8412 19.7872 16.3328 19.7872 16.0211 20.0988L13.3711 22.7488C13.3574 22.7624 13.3506 22.7788 13.3506 22.798Z" fill="#BD142D"/>
<path fill-rule="evenodd" clip-rule="evenodd" d="M12.3079 28.8241V23.9797C12.3079 23.9177 12.2331 23.8868 12.1892 23.9306L11.4134 24.7064C11.0564 25.0634 10.4322 24.8164 10.4322 24.2996C10.4322 24.1464 10.4913 24.0013 10.5998 23.8928L15.3063 19.1863C16.0046 18.488 17.1511 18.4859 17.852 19.185L22.5992 23.92C22.8977 24.2182 22.7131 24.874 22.167 24.874C22.0136 24.874 21.8688 24.8149 21.7602 24.7064L20.9844 23.9305C20.9405 23.8867 20.8657 23.9176 20.8657 23.9796V28.824C20.8657 28.8624 20.8345 28.8936 20.7962 28.8936H12.3774C12.3391 28.8936 12.3079 28.8624 12.3079 28.8241ZM29.0522 25.3832C29.3991 26.3006 30.1371 27.1299 31.1118 27.1299H34.7659C34.8042 27.1299 34.8354 27.1611 34.8354 27.1994V28.8808C34.8354 28.9111 34.817 28.9368 34.7884 28.9466L28.8918 30.9583C28.8619 30.9685 28.83 30.9579 28.8121 30.9318C28.0658 29.8445 26.5068 29.6905 25.5648 30.6325C25.1484 31.0491 24.9128 31.6292 24.9472 32.2504C24.949 32.282 24.9302 32.3099 24.9003 32.32L17.1278 34.9716C17.0825 34.987 17.0359 34.9536 17.0359 34.9058V31.7264C17.0359 31.688 17.0671 31.6568 17.1054 31.6568H20.8878C21.8624 31.6568 22.6005 30.8276 22.9474 29.9101C22.9647 29.8644 22.9312 29.816 22.8824 29.816H10.1468C10.098 29.816 10.0645 29.8644 10.0817 29.9101C10.4286 30.8276 11.1666 31.6568 12.1413 31.6568H15.9237C15.962 31.6568 15.9932 31.688 15.9932 31.7264V35.7306C15.9932 36.0581 16.2987 36.3524 16.7153 36.212L25.2361 33.305C25.266 33.2948 25.2979 33.3053 25.3158 33.3314C25.4812 33.572 25.6948 33.7765 25.9427 33.9312C25.9693 33.9479 25.9813 33.979 25.9727 34.0092L24.6368 38.6968C24.6282 38.7271 24.6015 38.7472 24.57 38.7472H22.1808C20.9494 38.7472 20.0968 39.9188 19.8188 41.1083C19.8086 41.152 19.8415 41.1936 19.8865 41.1936H34.2413C34.2864 41.1936 34.3192 41.152 34.309 41.1083C34.0311 39.9188 33.1784 38.7472 31.947 38.7472H29.5579C29.5264 38.7472 29.4996 38.727 29.4911 38.6968L28.1552 34.0092C28.1466 33.979 28.1586 33.9479 28.1853 33.9312C28.8313 33.5282 29.2246 32.8016 29.1808 32.0128C29.1791 31.9812 29.1979 31.9534 29.2278 31.9432L35.5239 29.7952C35.7408 29.7218 35.8774 29.5193 35.8774 29.3024H35.8783V27.1992C35.8783 27.1609 35.9095 27.1297 35.9478 27.1297H39.8585C40.8332 27.1297 41.5712 26.3005 41.9181 25.383C41.9353 25.3373 41.9019 25.2889 41.8531 25.2889H29.1172C29.0684 25.2891 29.035 25.3375 29.0522 25.3832ZM28.3301 38.7472H25.7978C25.7514 38.7472 25.7183 38.7033 25.731 38.6587L26.9729 34.3008C26.993 34.2303 27.1349 34.2303 27.155 34.3008L28.3969 38.6587C28.4096 38.7032 28.3764 38.7472 28.3301 38.7472ZM38.9056 21.0935V21.8671C38.9056 21.9882 38.9814 22.1194 39.0899 22.1194H40.4036C40.4419 22.1194 40.4731 22.0882 40.4731 22.0499V20.9107C40.4731 20.8724 40.4419 20.8412 40.4036 20.8412H39.0899C38.9813 20.8412 38.9056 20.9724 38.9056 21.0935ZM30.4971 19.5101C30.4971 19.4718 30.5283 19.4406 30.5666 19.4406H31.3616C31.4 19.4406 31.4312 19.4094 31.4312 19.3711V13.2624C31.4312 12.4596 32.0861 11.8047 32.8889 11.8047H37.8518C38.6546 11.8047 39.3096 12.4596 39.3096 13.2624V18.6448C39.3096 18.6832 39.3408 18.7144 39.3791 18.7144H40.0854C40.2652 18.7144 40.4731 18.8194 40.4731 18.9707V19.7291C40.4731 19.7674 40.4419 19.7986 40.4036 19.7986H39.0899C38.3976 19.7986 37.8629 20.3998 37.8629 21.0936V21.8672C37.8629 22.561 38.3976 23.1623 39.0899 23.1623H40.4036C40.4419 23.1623 40.4731 23.1935 40.4731 23.2318V23.9902C40.4731 24.1415 40.2652 24.2465 40.0854 24.2465H30.8848C30.7049 24.2465 30.4971 24.1415 30.4971 23.9902V19.5101ZM38.1973 18.7143C38.2356 18.7143 38.2668 18.6831 38.2668 18.6448V13.2624C38.2668 13.0352 38.0791 12.8473 37.8518 12.8473H32.8889C32.6617 12.8473 32.4739 13.0351 32.4739 13.2624V19.371C32.4739 19.4093 32.5051 19.4405 32.5434 19.4405H36.0374C36.214 19.4405 36.3701 19.3526 36.4644 19.2182L36.8496 18.7401C36.8632 18.7232 36.8819 18.7142 36.9036 18.7142L38.1973 18.7143ZM17.9911 22.7351C17.7296 22.6078 17.4564 22.5217 17.1629 22.4711C17.1316 22.4656 17.1087 22.441 17.1056 22.4094C17.0445 21.7897 16.1187 21.773 16.0673 22.4317C16.0612 22.5112 15.9382 22.5039 15.743 22.5896L15.7428 22.5892C14.6372 23.0582 14.6088 24.3332 15.7391 24.8407L15.7388 24.8414C16.3621 25.1096 16.6147 24.9241 17.0431 25.1029C17.1208 25.1354 17.2435 25.2236 17.2441 25.2708C17.2448 25.328 17.1174 25.4075 17.0349 25.4448C16.6249 25.6308 15.9922 25.4823 15.6226 25.3111C15.3616 25.1908 15.0525 25.3047 14.9322 25.5656C14.8119 25.8266 14.9258 26.1357 15.1868 26.256C15.4509 26.3784 15.7264 26.4652 16.011 26.516C16.0421 26.5216 16.0648 26.5462 16.068 26.5776C16.1287 27.1979 17.0534 27.2114 17.1061 26.5594C17.1085 26.5294 17.1287 26.5054 17.1578 26.4978C17.7473 26.3434 18.2433 25.9477 18.2881 25.3064H18.2879C18.2892 25.285 18.2894 25.2633 18.2881 25.2413C18.2578 24.7361 17.9199 24.3454 17.4504 24.1458C16.8048 23.8713 16.5704 24.065 16.1501 23.8843L16.15 23.8845C15.9068 23.7652 15.8574 23.6688 16.146 23.5464L16.1458 23.546C16.5646 23.3672 17.1614 23.4902 17.5348 23.672C17.7935 23.798 18.1054 23.6904 18.2313 23.4317C18.3572 23.173 18.2498 22.861 17.9911 22.7351ZM36.7747 14.1147C36.5132 13.9874 36.24 13.9012 35.9465 13.8507C35.9152 13.8452 35.8923 13.8206 35.8892 13.789C35.8281 13.1693 34.9023 13.1526 34.8509 13.8113C34.8448 13.8908 34.7218 13.8835 34.5266 13.9692L34.5264 13.9688C33.4208 14.4378 33.3924 15.7128 34.5227 16.2203L34.5224 16.221C35.1457 16.4892 35.3983 16.3038 35.8267 16.4825C35.9044 16.515 36.0271 16.6032 36.0277 16.6504C36.0284 16.7076 35.901 16.7871 35.8185 16.8244C35.4085 17.0104 34.7758 16.8619 34.4062 16.6907C34.1452 16.5704 33.8361 16.6843 33.7158 16.9452C33.5955 17.2062 33.7094 17.5153 33.9704 17.6356C34.2345 17.758 34.51 17.8448 34.7946 17.8956C34.8257 17.9012 34.8484 17.9258 34.8516 17.9572C34.9123 18.5774 35.837 18.591 35.8897 17.939C35.8921 17.909 35.9123 17.885 35.9414 17.8774C36.5309 17.723 37.0269 17.3273 37.0717 16.686H37.0715C37.0728 16.6646 37.073 16.6429 37.0717 16.6209C37.0414 16.1157 36.7035 15.725 36.234 15.5254C35.5884 15.2509 35.354 15.4446 34.9337 15.2639L34.9336 15.2641C34.6904 15.1448 34.641 15.0484 34.9296 14.926L34.9294 14.9256C35.3482 14.7468 35.945 14.8698 36.3184 15.0516C36.5771 15.1776 36.889 15.07 37.0149 14.8113C37.1409 14.5525 37.0333 14.2407 36.7747 14.1147ZM13.3506 22.798V27.7813C13.3506 27.8196 13.3818 27.8508 13.4201 27.8508H19.7536C19.7919 27.8508 19.8231 27.8196 19.8231 27.7813V22.798C19.8231 22.7788 19.8163 22.7624 19.8028 22.7488L17.1528 20.0988C16.8412 19.7872 16.3328 19.7872 16.0211 20.0988L13.3711 22.7488C13.3574 22.7624 13.3506 22.7788 13.3506 22.798Z" fill="url(#paint0_radial_806_32981)" fill-opacity="0.4"/>
<defs>
<radialGradient id="paint0_radial_806_32981" cx="0" cy="0" r="1" gradientUnits="userSpaceOnUse" gradientTransform="translate(20.2573 17.5861) rotate(53.8042) scale(22.9847 23.6176)">
<stop stop-color="white"/>
<stop offset="0.697917" stop-color="white" stop-opacity="0"/>
<stop offset="1" stop-color="white" stop-opacity="0"/>
</radialGradient>
</defs>
</svg>
