<svg width="101" height="100" viewBox="0 0 101 100" fill="none" xmlns="http://www.w3.org/2000/svg">
<path d="M40.8168 91.6617C48.0173 91.6617 53.5923 90.9726 58.0642 89.5637C57.9695 89.0551 57.9059 88.5351 57.9059 87.9998C57.9059 85.608 58.9002 83.449 60.4896 81.8965C58.9002 80.344 57.9059 78.1849 57.9059 75.7932C57.9059 73.4015 58.9002 71.2425 60.4896 69.6899C58.9002 68.1374 57.9059 65.9784 57.9059 63.5867C57.9059 61.195 58.9002 59.0359 60.4896 57.4834C58.9002 55.9309 57.9059 53.7718 57.9059 51.3801C57.9059 48.5548 59.3008 46.0646 61.421 44.5082C59.969 43.1789 58.4177 41.9874 56.7902 40.9391C57.4514 40.1062 57.9059 39.0986 57.9059 37.9529C57.9059 35.256 55.7202 33.0703 53.0233 33.0703H28.6102C25.9133 33.0703 23.7276 35.256 23.7276 37.9529C23.7276 39.096 24.1809 40.1005 24.8383 40.9321C15.3604 47.0379 8.91699 58.0944 8.91699 69.6899C8.91699 89.3851 27.1918 91.6617 40.8168 91.6617ZM40.7907 67.9639C36.7517 67.9639 33.4668 64.6789 33.4668 60.6399C33.4668 57.4516 35.5266 54.7617 38.3755 53.7579V50.1595C38.3755 48.8104 39.4677 47.7182 40.8168 47.7182C42.1658 47.7182 43.2581 48.8104 43.2581 50.1595V53.7744C46.0802 54.7922 48.1146 57.4713 48.1146 60.6399C48.1146 61.9896 47.0224 63.0812 45.6733 63.0812C44.3236 63.0812 43.232 61.9896 43.232 60.6399C43.232 59.2928 42.1372 58.1986 40.7907 58.1986C39.4435 58.1986 38.3494 59.2928 38.3494 60.6399C38.3494 61.9871 39.4435 63.0812 40.7907 63.0812C44.829 63.0812 48.1146 66.3668 48.1146 70.4052C48.1146 73.5738 46.0802 76.2529 43.2581 77.2714V79.4552C43.2581 80.8043 42.1658 81.8965 40.8168 81.8965C39.4677 81.8965 38.3755 80.8043 38.3755 79.4552V77.2872C35.5266 76.284 33.4668 73.5935 33.4668 70.4052C33.4668 69.0561 34.5584 67.9639 35.9081 67.9639C37.2572 67.9639 38.3494 69.0561 38.3494 70.4052C38.3494 71.7523 39.4435 72.8465 40.7907 72.8465C42.1372 72.8465 43.232 71.7523 43.232 70.4052C43.232 69.058 42.1372 67.9639 40.7907 67.9639Z" fill="#BD142D"/>
<path d="M40.8168 91.6617C48.0173 91.6617 53.5923 90.9726 58.0642 89.5637C57.9695 89.0551 57.9059 88.5351 57.9059 87.9998C57.9059 85.608 58.9002 83.449 60.4896 81.8965C58.9002 80.344 57.9059 78.1849 57.9059 75.7932C57.9059 73.4015 58.9002 71.2425 60.4896 69.6899C58.9002 68.1374 57.9059 65.9784 57.9059 63.5867C57.9059 61.195 58.9002 59.0359 60.4896 57.4834C58.9002 55.9309 57.9059 53.7718 57.9059 51.3801C57.9059 48.5548 59.3008 46.0646 61.421 44.5082C59.969 43.1789 58.4177 41.9874 56.7902 40.9391C57.4514 40.1062 57.9059 39.0986 57.9059 37.9529C57.9059 35.256 55.7202 33.0703 53.0233 33.0703H28.6102C25.9133 33.0703 23.7276 35.256 23.7276 37.9529C23.7276 39.096 24.1809 40.1005 24.8383 40.9321C15.3604 47.0379 8.91699 58.0944 8.91699 69.6899C8.91699 89.3851 27.1918 91.6617 40.8168 91.6617ZM40.7907 67.9639C36.7517 67.9639 33.4668 64.6789 33.4668 60.6399C33.4668 57.4516 35.5266 54.7617 38.3755 53.7579V50.1595C38.3755 48.8104 39.4677 47.7182 40.8168 47.7182C42.1658 47.7182 43.2581 48.8104 43.2581 50.1595V53.7744C46.0802 54.7922 48.1146 57.4713 48.1146 60.6399C48.1146 61.9896 47.0224 63.0812 45.6733 63.0812C44.3236 63.0812 43.232 61.9896 43.232 60.6399C43.232 59.2928 42.1372 58.1986 40.7907 58.1986C39.4435 58.1986 38.3494 59.2928 38.3494 60.6399C38.3494 61.9871 39.4435 63.0812 40.7907 63.0812C44.829 63.0812 48.1146 66.3668 48.1146 70.4052C48.1146 73.5738 46.0802 76.2529 43.2581 77.2714V79.4552C43.2581 80.8043 42.1658 81.8965 40.8168 81.8965C39.4677 81.8965 38.3755 80.8043 38.3755 79.4552V77.2872C35.5266 76.284 33.4668 73.5935 33.4668 70.4052C33.4668 69.0561 34.5584 67.9639 35.9081 67.9639C37.2572 67.9639 38.3494 69.0561 38.3494 70.4052C38.3494 71.7523 39.4435 72.8465 40.7907 72.8465C42.1372 72.8465 43.232 71.7523 43.232 70.4052C43.232 69.058 42.1372 67.9639 40.7907 67.9639Z" fill="url(#paint0_radial_806_38068)" fill-opacity="0.4"/>
<path d="M88.5846 84.3398H66.45C64.4277 84.3398 62.7881 85.9795 62.7881 88.0018C62.7881 90.0242 64.4277 91.6638 66.45 91.6638H88.5846C90.6069 91.6638 92.2465 90.0242 92.2465 88.0018C92.2465 85.9795 90.6069 84.3398 88.5846 84.3398Z" fill="#BD142D"/>
<path d="M88.5846 84.3398H66.45C64.4277 84.3398 62.7881 85.9795 62.7881 88.0018C62.7881 90.0242 64.4277 91.6638 66.45 91.6638H88.5846C90.6069 91.6638 92.2465 90.0242 92.2465 88.0018C92.2465 85.9795 90.6069 84.3398 88.5846 84.3398Z" fill="url(#paint1_radial_806_38068)" fill-opacity="0.4"/>
<path d="M88.5846 72.1328H66.45C64.4277 72.1328 62.7881 73.7724 62.7881 75.7948C62.7881 77.8171 64.4277 79.4567 66.45 79.4567H88.5846C90.6069 79.4567 92.2465 77.8171 92.2465 75.7948C92.2465 73.7724 90.6069 72.1328 88.5846 72.1328Z" fill="#BD142D"/>
<path d="M88.5846 72.1328H66.45C64.4277 72.1328 62.7881 73.7724 62.7881 75.7948C62.7881 77.8171 64.4277 79.4567 66.45 79.4567H88.5846C90.6069 79.4567 92.2465 77.8171 92.2465 75.7948C92.2465 73.7724 90.6069 72.1328 88.5846 72.1328Z" fill="url(#paint2_radial_806_38068)" fill-opacity="0.4"/>
<path d="M88.5846 59.9258H66.45C64.4277 59.9258 62.7881 61.5654 62.7881 63.5877C62.7881 65.6101 64.4277 67.2497 66.45 67.2497H88.5846C90.6069 67.2497 92.2465 65.6101 92.2465 63.5877C92.2465 61.5654 90.6069 59.9258 88.5846 59.9258Z" fill="#BD142D"/>
<path d="M88.5846 59.9258H66.45C64.4277 59.9258 62.7881 61.5654 62.7881 63.5877C62.7881 65.6101 64.4277 67.2497 66.45 67.2497H88.5846C90.6069 67.2497 92.2465 65.6101 92.2465 63.5877C92.2465 61.5654 90.6069 59.9258 88.5846 59.9258Z" fill="url(#paint3_radial_806_38068)" fill-opacity="0.4"/>
<path d="M88.5846 47.7188H66.45C64.4277 47.7188 62.7881 49.3584 62.7881 51.3807C62.7881 53.4031 64.4277 55.0427 66.45 55.0427H88.5846C90.6069 55.0427 92.2465 53.4031 92.2465 51.3807C92.2465 49.3584 90.6069 47.7188 88.5846 47.7188Z" fill="#BD142D"/>
<path d="M88.5846 47.7188H66.45C64.4277 47.7188 62.7881 49.3584 62.7881 51.3807C62.7881 53.4031 64.4277 55.0427 66.45 55.0427H88.5846C90.6069 55.0427 92.2465 53.4031 92.2465 51.3807C92.2465 49.3584 90.6069 47.7188 88.5846 47.7188Z" fill="url(#paint4_radial_806_38068)" fill-opacity="0.4"/>
<path d="M47.6912 13.2146C46.6797 10.3792 43.9955 8.33203 40.8167 8.33203C37.6341 8.33203 34.9188 10.3728 33.9099 13.2146H26.1689C25.3844 13.2146 24.6475 13.591 24.1879 14.228C23.7301 14.8644 23.6036 15.6846 23.8541 16.4284L27.6655 28.188H53.9687L57.7794 16.4284C58.0299 15.6846 57.9034 14.8644 57.4456 14.228C56.986 13.591 56.2491 13.2146 55.4646 13.2146H47.6912Z" fill="#BD142D"/>
<path d="M47.6912 13.2146C46.6797 10.3792 43.9955 8.33203 40.8167 8.33203C37.6341 8.33203 34.9188 10.3728 33.9099 13.2146H26.1689C25.3844 13.2146 24.6475 13.591 24.1879 14.228C23.7301 14.8644 23.6036 15.6846 23.8541 16.4284L27.6655 28.188H53.9687L57.7794 16.4284C58.0299 15.6846 57.9034 14.8644 57.4456 14.228C56.986 13.591 56.2491 13.2146 55.4646 13.2146H47.6912Z" fill="url(#paint5_radial_806_38068)" fill-opacity="0.4"/>
<defs>
<radialGradient id="paint0_radial_806_38068" cx="0" cy="0" r="1" gradientUnits="userSpaceOnUse" gradientTransform="translate(25.7011 44.5965) rotate(58.8193) scale(43.224 41.2804)">
<stop stop-color="white"/>
<stop offset="0.697917" stop-color="white" stop-opacity="0"/>
<stop offset="1" stop-color="white" stop-opacity="0"/>
</radialGradient>
<radialGradient id="paint1_radial_806_38068" cx="0" cy="0" r="1" gradientUnits="userSpaceOnUse" gradientTransform="translate(72.2051 85.7806) rotate(20.211) scale(13.3799 9.35282)">
<stop stop-color="white"/>
<stop offset="0.697917" stop-color="white" stop-opacity="0"/>
<stop offset="1" stop-color="white" stop-opacity="0"/>
</radialGradient>
<radialGradient id="paint2_radial_806_38068" cx="0" cy="0" r="1" gradientUnits="userSpaceOnUse" gradientTransform="translate(72.2051 73.5736) rotate(20.211) scale(13.3799 9.35282)">
<stop stop-color="white"/>
<stop offset="0.697917" stop-color="white" stop-opacity="0"/>
<stop offset="1" stop-color="white" stop-opacity="0"/>
</radialGradient>
<radialGradient id="paint3_radial_806_38068" cx="0" cy="0" r="1" gradientUnits="userSpaceOnUse" gradientTransform="translate(72.2051 61.3666) rotate(20.211) scale(13.3799 9.35282)">
<stop stop-color="white"/>
<stop offset="0.697917" stop-color="white" stop-opacity="0"/>
<stop offset="1" stop-color="white" stop-opacity="0"/>
</radialGradient>
<radialGradient id="paint4_radial_806_38068" cx="0" cy="0" r="1" gradientUnits="userSpaceOnUse" gradientTransform="translate(72.2051 49.1595) rotate(20.211) scale(13.3799 9.35282)">
<stop stop-color="white"/>
<stop offset="0.697917" stop-color="white" stop-opacity="0"/>
<stop offset="1" stop-color="white" stop-opacity="0"/>
</radialGradient>
<radialGradient id="paint5_radial_806_38068" cx="0" cy="0" r="1" gradientUnits="userSpaceOnUse" gradientTransform="translate(34.6534 12.2381) rotate(40.7039) scale(19.2165 20.4838)">
<stop stop-color="white"/>
<stop offset="0.697917" stop-color="white" stop-opacity="0"/>
<stop offset="1" stop-color="white" stop-opacity="0"/>
</radialGradient>
</defs>
</svg>
