<svg width="52" height="52" viewBox="0 0 52 52" fill="none" xmlns="http://www.w3.org/2000/svg">
<rect x="0.5" y="0.5" width="51" height="51" rx="9.9" fill="white"/>
<rect x="0.5" y="0.5" width="51" height="51" rx="9.9" stroke="#E5E5E5"/>
<g clip-path="url(#clip0_629_53439)">
<path d="M25.5077 19.7617C24.1417 19.7617 23.0303 20.8731 23.0303 22.2391C23.0303 23.6051 24.1416 24.7165 25.5077 24.7165C26.8738 24.7165 27.9851 23.6052 27.9851 22.2391C27.9851 20.8731 26.8737 19.7617 25.5077 19.7617Z" fill="#333333"/>
<path d="M18.1419 13C17.1612 13 16.3633 13.7979 16.3633 14.7786V31.5851C16.8771 31.2551 17.4873 31.0629 18.1419 31.0629H34.651V13H18.1419ZM30.5868 22.9978H29.4344C29.3302 23.5356 29.1188 24.0356 28.8221 24.4738L29.6377 25.2893L28.5604 26.3665L27.7449 25.551C27.3067 25.8477 26.8067 26.0592 26.2689 26.1633V27.3157H24.7454V26.1633C24.2076 26.0591 23.7075 25.8477 23.2694 25.551L22.4539 26.3665L21.3767 25.2893L22.1923 24.4738C21.8955 24.0356 21.6841 23.5356 21.58 22.9978H20.4275V21.4744H21.5799C21.6841 20.9365 21.8955 20.4365 22.1922 19.9984L21.3767 19.1828L22.4538 18.1056L23.2694 18.9211C23.7075 18.6244 24.2076 18.413 24.7454 18.3089V17.1564H26.2689V18.3089C26.8067 18.413 27.3068 18.6244 27.7449 18.9211L28.5604 18.1056L29.6377 19.1828L28.8221 19.9984C29.1188 20.4365 29.3303 20.9366 29.4344 21.4744H30.5868V22.9978Z" fill="#333333"/>
<path d="M18.1419 32.5859C17.1612 32.5859 16.3633 33.3838 16.3633 34.3646C16.3633 35.3453 17.1612 36.1432 18.1419 36.1432H19.6648V34.4496H25.7043V36.1432H34.651V32.5859H18.1419Z" fill="#333333"/>
<path d="M21.1895 35.9766V39.0032L22.6858 38.3298L24.1822 39.0032V35.9766H21.1895Z" fill="#333333"/>
</g>
<defs>
<clipPath id="clip0_629_53439">
<rect width="26" height="26" fill="white" transform="translate(12.5078 13)"/>
</clipPath>
</defs>
</svg>
