<svg width="101" height="100" viewBox="0 0 101 100" fill="none" xmlns="http://www.w3.org/2000/svg">
<path d="M7.08204 57.8658C7.08143 58.1013 7.13435 58.3339 7.23682 58.546C7.33928 58.7581 7.48861 58.9441 7.67351 59.09L11.7695 62.3385V58.5145L7.08204 54.7969V57.8658Z" fill="#4334DD"/>
<path d="M7.08204 57.8658C7.08143 58.1013 7.13435 58.3339 7.23682 58.546C7.33928 58.7581 7.48861 58.9441 7.67351 59.09L11.7695 62.3385V58.5145L7.08204 54.7969V57.8658Z" fill="url(#paint0_radial_806_38022)" fill-opacity="0.7"/>
<path d="M14.8945 64.816L21.1445 69.773V65.949L14.8945 60.9922V64.816Z" fill="#4334DD"/>
<path d="M14.8945 64.816L21.1445 69.773V65.949L14.8945 60.9922V64.816Z" fill="url(#paint1_radial_806_38022)" fill-opacity="0.7"/>
<path d="M38.5447 32.8125H25.6194C25.3998 33.4942 25.0212 34.1138 24.5148 34.6202C24.0084 35.1267 23.3887 35.5053 22.707 35.7248V39.2752C23.3887 39.4947 24.0084 39.8733 24.5148 40.3798C25.0212 40.8862 25.3998 41.5058 25.6194 42.1875H38.5447C38.7642 41.5058 39.1429 40.8862 39.6493 40.3798C40.1557 39.8733 40.7753 39.4947 41.457 39.2752V35.7248C40.7753 35.5053 40.1557 35.1267 39.6493 34.6202C39.1429 34.1138 38.7642 33.4942 38.5447 32.8125ZM35.207 39.0625H28.957V35.9375H35.207V39.0625Z" fill="#4334DD"/>
<path d="M38.5447 32.8125H25.6194C25.3998 33.4942 25.0212 34.1138 24.5148 34.6202C24.0084 35.1267 23.3887 35.5053 22.707 35.7248V39.2752C23.3887 39.4947 24.0084 39.8733 24.5148 40.3798C25.0212 40.8862 25.3998 41.5058 25.6194 42.1875H38.5447C38.7642 41.5058 39.1429 40.8862 39.6493 40.3798C40.1557 39.8733 40.7753 39.4947 41.457 39.2752V35.7248C40.7753 35.5053 40.1557 35.1267 39.6493 34.6202C39.1429 34.1138 38.7642 33.4942 38.5447 32.8125ZM35.207 39.0625H28.957V35.9375H35.207V39.0625Z" fill="url(#paint2_radial_806_38022)" fill-opacity="0.7"/>
<path d="M16.457 20.3125H27.3945V23.4375H16.457V20.3125Z" fill="#4334DD"/>
<path d="M16.457 20.3125H27.3945V23.4375H16.457V20.3125Z" fill="url(#paint3_radial_806_38022)" fill-opacity="0.7"/>
<path d="M43.0195 83.2969V87.1208L49.2695 92.0777V87.5719C48.4234 87.3517 47.6327 86.9569 46.9483 86.4128L43.0195 83.2969Z" fill="#4334DD"/>
<path d="M43.0195 83.2969V87.1208L49.2695 92.0777V87.5719C48.4234 87.3517 47.6327 86.9569 46.9483 86.4128L43.0195 83.2969Z" fill="url(#paint4_radial_806_38022)" fill-opacity="0.7"/>
<path d="M33.6445 79.6871L39.8945 84.6441V80.8201L33.6445 75.8633V79.6871Z" fill="#4334DD"/>
<path d="M33.6445 79.6871L39.8945 84.6441V80.8201L33.6445 75.8633V79.6871Z" fill="url(#paint5_radial_806_38022)" fill-opacity="0.7"/>
<path d="M24.2695 72.2496L30.5195 77.2066V73.3826L24.2695 68.4258V72.2496Z" fill="#4334DD"/>
<path d="M24.2695 72.2496L30.5195 77.2066V73.3826L24.2695 68.4258V72.2496Z" fill="url(#paint6_radial_806_38022)" fill-opacity="0.7"/>
<path d="M36.7695 20.3125H47.707V23.4375H36.7695V20.3125Z" fill="#4334DD"/>
<path d="M36.7695 20.3125H47.707V23.4375H36.7695V20.3125Z" fill="url(#paint7_radial_806_38022)" fill-opacity="0.7"/>
<path d="M16.457 14.0625H27.3945V17.1875H16.457V14.0625Z" fill="#4334DD"/>
<path d="M16.457 14.0625H27.3945V17.1875H16.457V14.0625Z" fill="url(#paint8_radial_806_38022)" fill-opacity="0.7"/>
<path d="M36.7695 7.8125H47.707V10.9375H36.7695V7.8125Z" fill="#4334DD"/>
<path d="M36.7695 7.8125H47.707V10.9375H36.7695V7.8125Z" fill="url(#paint9_radial_806_38022)" fill-opacity="0.7"/>
<path d="M36.7695 14.0625H47.707V17.1875H36.7695V14.0625Z" fill="#4334DD"/>
<path d="M36.7695 14.0625H47.707V17.1875H36.7695V14.0625Z" fill="url(#paint10_radial_806_38022)" fill-opacity="0.7"/>
<path d="M30.5195 7.8125H33.6445V23.4375H30.5195V7.8125Z" fill="#4334DD"/>
<path d="M30.5195 7.8125H33.6445V23.4375H30.5195V7.8125Z" fill="url(#paint11_radial_806_38022)" fill-opacity="0.7"/>
<path d="M16.457 7.8125H27.3945V10.9375H16.457V7.8125Z" fill="#4334DD"/>
<path d="M16.457 7.8125H27.3945V10.9375H16.457V7.8125Z" fill="url(#paint12_radial_806_38022)" fill-opacity="0.7"/>
<path d="M93.5863 51.597L82.0819 42.9688V14.8987L78.9569 12.8154V3.125H75.8319V10.732L69.5819 6.56538L57.0819 14.8987V42.1875H47.7069V26.5625H16.4569V48.4375H46.4131C46.7816 47.395 47.5068 46.5163 48.4606 45.9568C49.4143 45.3973 50.5351 45.193 51.6249 45.38C52.7147 45.567 53.7033 46.1333 54.416 46.9787C55.1286 47.8241 55.5194 48.8943 55.5194 50V51.1936C55.5214 51.8237 55.3957 52.4477 55.1498 53.0279C54.9039 53.608 54.543 54.1323 54.0887 54.5691L56.0531 55.5512C56.8336 55.9382 57.4901 56.5361 57.9481 57.2771C58.4061 58.0182 58.6473 58.8727 58.6444 59.7439V66.5907L55.5194 68.1532V78.125H46.1444V68.1532L43.0194 66.5907V59.7439C43.0164 58.8727 43.2576 58.0182 43.7156 57.2771C44.1736 56.5361 44.8301 55.9382 45.6106 55.5512L47.575 54.5691C46.7493 53.7752 46.2456 52.7047 46.1601 51.5625H13.3319V47.0861L7.99609 51.5325L48.89 83.9656C49.4414 84.4059 50.1262 84.6458 50.8319 84.6458C51.5375 84.6458 52.2223 84.4059 52.7737 83.9656L93.5863 51.597ZM44.5819 42.1875H42.824C42.4616 42.1879 42.1141 42.3321 41.8577 42.5884C41.6014 42.8447 41.4573 43.1922 41.4569 43.5547V45.3125H22.7069V43.5547C22.7064 43.1922 22.5623 42.8447 22.306 42.5884C22.0497 42.3321 21.7021 42.1879 21.3397 42.1875H19.5819V32.8125H21.3397C21.7021 32.8121 22.0497 32.6679 22.306 32.4116C22.5623 32.1553 22.7064 31.8078 22.7069 31.4453V29.6875H41.4569V31.4453C41.4573 31.8078 41.6014 32.1553 41.8577 32.4116C42.1141 32.6679 42.4616 32.8121 42.824 32.8125H44.5819V42.1875ZM63.3319 15.625H75.8319V18.75H63.3319V15.625ZM61.7694 39.4314C61.7664 38.5602 62.0076 37.7057 62.4656 36.9646C62.9236 36.2236 63.5801 35.6257 64.3606 35.2387L66.325 34.2566C65.8707 33.8198 65.5098 33.2955 65.2639 32.7154C65.018 32.1352 64.8923 31.5112 64.8944 30.8811V29.6875C64.8944 28.4443 65.3882 27.252 66.2673 26.3729C67.1464 25.4939 68.3386 25 69.5819 25C70.8251 25 72.0173 25.4939 72.8964 26.3729C73.7755 27.252 74.2694 28.4443 74.2694 29.6875V30.8811C74.2714 31.5112 74.1457 32.1352 73.8998 32.7154C73.6539 33.2955 73.293 33.8198 72.8387 34.2566L74.8031 35.2387C75.5836 35.6257 76.2401 36.2236 76.6981 36.9646C77.1561 37.7057 77.3973 38.5602 77.3944 39.4314V46.2782L74.2694 47.8407V57.8125H64.8944V47.8407L61.7694 46.2782V39.4314ZM36.7694 63.7937V68.75H33.6444V63.7937C32.6018 63.4251 31.7232 62.6999 31.1637 61.7461C30.6042 60.7923 30.3999 59.6715 30.5869 58.5816C30.7738 57.4918 31.3401 56.5032 32.1855 55.7904C33.0309 55.0777 34.1011 54.6868 35.2069 54.6868C36.3126 54.6868 37.3828 55.0777 38.2282 55.7904C39.0736 56.5032 39.6399 57.4918 39.8268 58.5816C40.0138 59.6715 39.8095 60.7923 39.25 61.7461C38.6905 62.6999 37.8119 63.4251 36.7694 63.7937Z" fill="#4334DD"/>
<path d="M93.5863 51.597L82.0819 42.9688V14.8987L78.9569 12.8154V3.125H75.8319V10.732L69.5819 6.56538L57.0819 14.8987V42.1875H47.7069V26.5625H16.4569V48.4375H46.4131C46.7816 47.395 47.5068 46.5163 48.4606 45.9568C49.4143 45.3973 50.5351 45.193 51.6249 45.38C52.7147 45.567 53.7033 46.1333 54.416 46.9787C55.1286 47.8241 55.5194 48.8943 55.5194 50V51.1936C55.5214 51.8237 55.3957 52.4477 55.1498 53.0279C54.9039 53.608 54.543 54.1323 54.0887 54.5691L56.0531 55.5512C56.8336 55.9382 57.4901 56.5361 57.9481 57.2771C58.4061 58.0182 58.6473 58.8727 58.6444 59.7439V66.5907L55.5194 68.1532V78.125H46.1444V68.1532L43.0194 66.5907V59.7439C43.0164 58.8727 43.2576 58.0182 43.7156 57.2771C44.1736 56.5361 44.8301 55.9382 45.6106 55.5512L47.575 54.5691C46.7493 53.7752 46.2456 52.7047 46.1601 51.5625H13.3319V47.0861L7.99609 51.5325L48.89 83.9656C49.4414 84.4059 50.1262 84.6458 50.8319 84.6458C51.5375 84.6458 52.2223 84.4059 52.7737 83.9656L93.5863 51.597ZM44.5819 42.1875H42.824C42.4616 42.1879 42.1141 42.3321 41.8577 42.5884C41.6014 42.8447 41.4573 43.1922 41.4569 43.5547V45.3125H22.7069V43.5547C22.7064 43.1922 22.5623 42.8447 22.306 42.5884C22.0497 42.3321 21.7021 42.1879 21.3397 42.1875H19.5819V32.8125H21.3397C21.7021 32.8121 22.0497 32.6679 22.306 32.4116C22.5623 32.1553 22.7064 31.8078 22.7069 31.4453V29.6875H41.4569V31.4453C41.4573 31.8078 41.6014 32.1553 41.8577 32.4116C42.1141 32.6679 42.4616 32.8121 42.824 32.8125H44.5819V42.1875ZM63.3319 15.625H75.8319V18.75H63.3319V15.625ZM61.7694 39.4314C61.7664 38.5602 62.0076 37.7057 62.4656 36.9646C62.9236 36.2236 63.5801 35.6257 64.3606 35.2387L66.325 34.2566C65.8707 33.8198 65.5098 33.2955 65.2639 32.7154C65.018 32.1352 64.8923 31.5112 64.8944 30.8811V29.6875C64.8944 28.4443 65.3882 27.252 66.2673 26.3729C67.1464 25.4939 68.3386 25 69.5819 25C70.8251 25 72.0173 25.4939 72.8964 26.3729C73.7755 27.252 74.2694 28.4443 74.2694 29.6875V30.8811C74.2714 31.5112 74.1457 32.1352 73.8998 32.7154C73.6539 33.2955 73.293 33.8198 72.8387 34.2566L74.8031 35.2387C75.5836 35.6257 76.2401 36.2236 76.6981 36.9646C77.1561 37.7057 77.3973 38.5602 77.3944 39.4314V46.2782L74.2694 47.8407V57.8125H64.8944V47.8407L61.7694 46.2782V39.4314ZM36.7694 63.7937V68.75H33.6444V63.7937C32.6018 63.4251 31.7232 62.6999 31.1637 61.7461C30.6042 60.7923 30.3999 59.6715 30.5869 58.5816C30.7738 57.4918 31.3401 56.5032 32.1855 55.7904C33.0309 55.0777 34.1011 54.6868 35.2069 54.6868C36.3126 54.6868 37.3828 55.0777 38.2282 55.7904C39.0736 56.5032 39.6399 57.4918 39.8268 58.5816C40.0138 59.6715 39.8095 60.7923 39.25 61.7461C38.6905 62.6999 37.8119 63.4251 36.7694 63.7937Z" fill="url(#paint13_radial_806_38022)" fill-opacity="0.7"/>
<path d="M35.207 60.9375C36.07 60.9375 36.7695 60.2379 36.7695 59.375C36.7695 58.5121 36.07 57.8125 35.207 57.8125C34.3441 57.8125 33.6445 58.5121 33.6445 59.375C33.6445 60.2379 34.3441 60.9375 35.207 60.9375Z" fill="#4334DD"/>
<path d="M35.207 60.9375C36.07 60.9375 36.7695 60.2379 36.7695 59.375C36.7695 58.5121 36.07 57.8125 35.207 57.8125C34.3441 57.8125 33.6445 58.5121 33.6445 59.375C33.6445 60.2379 34.3441 60.9375 35.207 60.9375Z" fill="url(#paint14_radial_806_38022)" fill-opacity="0.7"/>
<path d="M61.7695 84.6439L68.0195 79.6871V75.8633L61.7695 80.8201V84.6439Z" fill="#4334DD"/>
<path d="M61.7695 84.6439L68.0195 79.6871V75.8633L61.7695 80.8201V84.6439Z" fill="url(#paint15_radial_806_38022)" fill-opacity="0.7"/>
<path d="M71.1445 77.2066L77.3945 72.2496V68.4258L71.1445 73.3826V77.2066Z" fill="#4334DD"/>
<path d="M71.1445 77.2066L77.3945 72.2496V68.4258L71.1445 73.3826V77.2066Z" fill="url(#paint16_radial_806_38022)" fill-opacity="0.7"/>
<path d="M50.832 52.9406L51.5308 52.5912C51.791 52.4622 52.0098 52.2629 52.1625 52.0159C52.3151 51.7689 52.3955 51.484 52.3945 51.1936V50C52.3945 49.5856 52.2299 49.1882 51.9369 48.8951C51.6439 48.6021 51.2464 48.4375 50.832 48.4375C50.4176 48.4375 50.0202 48.6021 49.7272 48.8951C49.4342 49.1882 49.2695 49.5856 49.2695 50V51.1936C49.2686 51.484 49.349 51.7689 49.5016 52.0159C49.6543 52.2629 49.8731 52.4622 50.1333 52.5912L50.832 52.9406Z" fill="#4334DD"/>
<path d="M50.832 52.9406L51.5308 52.5912C51.791 52.4622 52.0098 52.2629 52.1625 52.0159C52.3151 51.7689 52.3955 51.484 52.3945 51.1936V50C52.3945 49.5856 52.2299 49.1882 51.9369 48.8951C51.6439 48.6021 51.2464 48.4375 50.832 48.4375C50.4176 48.4375 50.0202 48.6021 49.7272 48.8951C49.4342 49.1882 49.2695 49.5856 49.2695 50V51.1936C49.2686 51.484 49.349 51.7689 49.5016 52.0159C49.6543 52.2629 49.8731 52.4622 50.1333 52.5912L50.832 52.9406Z" fill="url(#paint17_radial_806_38022)" fill-opacity="0.7"/>
<path d="M52.3945 87.5718V92.0777L58.6445 87.1208V83.2969L54.7158 86.4128C54.0313 86.9568 53.2406 87.3516 52.3945 87.5718Z" fill="#4334DD"/>
<path d="M52.3945 87.5718V92.0777L58.6445 87.1208V83.2969L54.7158 86.4128C54.0313 86.9568 53.2406 87.3516 52.3945 87.5718Z" fill="url(#paint18_radial_806_38022)" fill-opacity="0.7"/>
<path d="M46.1445 59.743V64.6585L49.2695 66.221V74.9992H52.3945V66.221L55.5195 64.6585V59.743C55.5205 59.4526 55.4401 59.1678 55.2875 58.9208C55.1348 58.6737 54.916 58.4744 54.6558 58.3454L50.832 56.4336L47.0083 58.3454C46.7481 58.4744 46.5293 58.6737 46.3766 58.9208C46.224 59.1678 46.1436 59.4526 46.1445 59.743Z" fill="#4334DD"/>
<path d="M46.1445 59.743V64.6585L49.2695 66.221V74.9992H52.3945V66.221L55.5195 64.6585V59.743C55.5205 59.4526 55.4401 59.1678 55.2875 58.9208C55.1348 58.6737 54.916 58.4744 54.6558 58.3454L50.832 56.4336L47.0083 58.3454C46.7481 58.4744 46.5293 58.6737 46.3766 58.9208C46.224 59.1678 46.1436 59.4526 46.1445 59.743Z" fill="url(#paint19_radial_806_38022)" fill-opacity="0.7"/>
<path d="M80.5195 69.7729L86.7695 64.816V60.9922L80.5195 65.949V69.7729Z" fill="#4334DD"/>
<path d="M80.5195 69.7729L86.7695 64.816V60.9922L80.5195 65.949V69.7729Z" fill="url(#paint20_radial_806_38022)" fill-opacity="0.7"/>
<path d="M89.8945 58.5145V62.3385L93.9905 59.09C94.1754 58.9441 94.3247 58.7581 94.4272 58.546C94.5297 58.3339 94.5826 58.1014 94.582 57.8658V54.7969L89.8945 58.5145Z" fill="#4334DD"/>
<path d="M89.8945 58.5145V62.3385L93.9905 59.09C94.1754 58.9441 94.3247 58.7581 94.4272 58.546C94.5297 58.3339 94.5826 58.1014 94.582 57.8658V54.7969L89.8945 58.5145Z" fill="url(#paint21_radial_806_38022)" fill-opacity="0.7"/>
<path d="M68.8833 32.2787L69.582 32.6281L70.2808 32.2787C70.541 32.1497 70.7598 31.9504 70.9125 31.7034C71.0651 31.4564 71.1455 31.1715 71.1445 30.8811V29.6875C71.1445 29.2731 70.9799 28.8757 70.6869 28.5826C70.3939 28.2896 69.9964 28.125 69.582 28.125C69.1676 28.125 68.7702 28.2896 68.4772 28.5826C68.1842 28.8757 68.0195 29.2731 68.0195 29.6875V30.8811C68.0186 31.1715 68.099 31.4564 68.2516 31.7034C68.4043 31.9504 68.6231 32.1497 68.8833 32.2787Z" fill="#4334DD"/>
<path d="M68.8833 32.2787L69.582 32.6281L70.2808 32.2787C70.541 32.1497 70.7598 31.9504 70.9125 31.7034C71.0651 31.4564 71.1455 31.1715 71.1445 30.8811V29.6875C71.1445 29.2731 70.9799 28.8757 70.6869 28.5826C70.3939 28.2896 69.9964 28.125 69.582 28.125C69.1676 28.125 68.7702 28.2896 68.4772 28.5826C68.1842 28.8757 68.0195 29.2731 68.0195 29.6875V30.8811C68.0186 31.1715 68.099 31.4564 68.2516 31.7034C68.4043 31.9504 68.6231 32.1497 68.8833 32.2787Z" fill="url(#paint22_radial_806_38022)" fill-opacity="0.7"/>
<path d="M68.0195 54.6867H71.1445V45.9085L74.2695 44.346V39.4305C74.2705 39.1401 74.1901 38.8553 74.0375 38.6083C73.8848 38.3612 73.666 38.1619 73.4058 38.0329L69.582 36.1211L65.7583 38.0329C65.4981 38.1619 65.2793 38.3612 65.1266 38.6083C64.974 38.8553 64.8936 39.1401 64.8945 39.4305V44.346L68.0195 45.9085V54.6867Z" fill="#4334DD"/>
<path d="M68.0195 54.6867H71.1445V45.9085L74.2695 44.346V39.4305C74.2705 39.1401 74.1901 38.8553 74.0375 38.6083C73.8848 38.3612 73.666 38.1619 73.4058 38.0329L69.582 36.1211L65.7583 38.0329C65.4981 38.1619 65.2793 38.3612 65.1266 38.6083C64.974 38.8553 64.8936 39.1401 64.8945 39.4305V44.346L68.0195 45.9085V54.6867Z" fill="url(#paint23_radial_806_38022)" fill-opacity="0.7"/>
<defs>
<radialGradient id="paint0_radial_806_38022" cx="0" cy="0" r="1" gradientUnits="userSpaceOnUse" gradientTransform="translate(8.5805 56.2805) rotate(67.2299) scale(5.16221 3.97205)">
<stop stop-color="white"/>
<stop offset="0.697917" stop-color="white" stop-opacity="0"/>
<stop offset="1" stop-color="white" stop-opacity="0"/>
</radialGradient>
<radialGradient id="paint1_radial_806_38022" cx="0" cy="0" r="1" gradientUnits="userSpaceOnUse" gradientTransform="translate(16.8925 62.7196) rotate(64.3274) scale(6.14903 5.1767)">
<stop stop-color="white"/>
<stop offset="0.697917" stop-color="white" stop-opacity="0"/>
<stop offset="1" stop-color="white" stop-opacity="0"/>
</radialGradient>
<radialGradient id="paint2_radial_806_38022" cx="0" cy="0" r="1" gradientUnits="userSpaceOnUse" gradientTransform="translate(28.7009 34.6568) rotate(36.5157) scale(9.94384 10.2532)">
<stop stop-color="white"/>
<stop offset="0.697917" stop-color="white" stop-opacity="0"/>
<stop offset="1" stop-color="white" stop-opacity="0"/>
</radialGradient>
<radialGradient id="paint3_radial_806_38022" cx="0" cy="0" r="1" gradientUnits="userSpaceOnUse" gradientTransform="translate(19.9534 20.9273) rotate(22.9321) scale(5.06194 3.91645)">
<stop stop-color="white"/>
<stop offset="0.697917" stop-color="white" stop-opacity="0"/>
<stop offset="1" stop-color="white" stop-opacity="0"/>
</radialGradient>
<radialGradient id="paint4_radial_806_38022" cx="0" cy="0" r="1" gradientUnits="userSpaceOnUse" gradientTransform="translate(45.0175 85.0243) rotate(64.3274) scale(6.14903 5.1767)">
<stop stop-color="white"/>
<stop offset="0.697917" stop-color="white" stop-opacity="0"/>
<stop offset="1" stop-color="white" stop-opacity="0"/>
</radialGradient>
<radialGradient id="paint5_radial_806_38022" cx="0" cy="0" r="1" gradientUnits="userSpaceOnUse" gradientTransform="translate(35.6425 77.5907) rotate(64.3274) scale(6.14903 5.1767)">
<stop stop-color="white"/>
<stop offset="0.697917" stop-color="white" stop-opacity="0"/>
<stop offset="1" stop-color="white" stop-opacity="0"/>
</radialGradient>
<radialGradient id="paint6_radial_806_38022" cx="0" cy="0" r="1" gradientUnits="userSpaceOnUse" gradientTransform="translate(26.2675 70.1532) rotate(64.3274) scale(6.14903 5.1767)">
<stop stop-color="white"/>
<stop offset="0.697917" stop-color="white" stop-opacity="0"/>
<stop offset="1" stop-color="white" stop-opacity="0"/>
</radialGradient>
<radialGradient id="paint7_radial_806_38022" cx="0" cy="0" r="1" gradientUnits="userSpaceOnUse" gradientTransform="translate(40.2659 20.9273) rotate(22.9321) scale(5.06194 3.91645)">
<stop stop-color="white"/>
<stop offset="0.697917" stop-color="white" stop-opacity="0"/>
<stop offset="1" stop-color="white" stop-opacity="0"/>
</radialGradient>
<radialGradient id="paint8_radial_806_38022" cx="0" cy="0" r="1" gradientUnits="userSpaceOnUse" gradientTransform="translate(19.9534 14.6773) rotate(22.9321) scale(5.06194 3.91645)">
<stop stop-color="white"/>
<stop offset="0.697917" stop-color="white" stop-opacity="0"/>
<stop offset="1" stop-color="white" stop-opacity="0"/>
</radialGradient>
<radialGradient id="paint9_radial_806_38022" cx="0" cy="0" r="1" gradientUnits="userSpaceOnUse" gradientTransform="translate(40.2659 8.42725) rotate(22.9321) scale(5.06194 3.91645)">
<stop stop-color="white"/>
<stop offset="0.697917" stop-color="white" stop-opacity="0"/>
<stop offset="1" stop-color="white" stop-opacity="0"/>
</radialGradient>
<radialGradient id="paint10_radial_806_38022" cx="0" cy="0" r="1" gradientUnits="userSpaceOnUse" gradientTransform="translate(40.2659 14.6773) rotate(22.9321) scale(5.06194 3.91645)">
<stop stop-color="white"/>
<stop offset="0.697917" stop-color="white" stop-opacity="0"/>
<stop offset="1" stop-color="white" stop-opacity="0"/>
</radialGradient>
<radialGradient id="paint11_radial_806_38022" cx="0" cy="0" r="1" gradientUnits="userSpaceOnUse" gradientTransform="translate(31.5185 10.8863) rotate(82.3079) scale(9.95122 2.846)">
<stop stop-color="white"/>
<stop offset="0.697917" stop-color="white" stop-opacity="0"/>
<stop offset="1" stop-color="white" stop-opacity="0"/>
</radialGradient>
<radialGradient id="paint12_radial_806_38022" cx="0" cy="0" r="1" gradientUnits="userSpaceOnUse" gradientTransform="translate(19.9534 8.42725) rotate(22.9321) scale(5.06194 3.91645)">
<stop stop-color="white"/>
<stop offset="0.697917" stop-color="white" stop-opacity="0"/>
<stop offset="1" stop-color="white" stop-opacity="0"/>
</radialGradient>
<radialGradient id="paint13_radial_806_38022" cx="0" cy="0" r="1" gradientUnits="userSpaceOnUse" gradientTransform="translate(35.3569 19.1619) rotate(54.662) scale(63.0725 64.1644)">
<stop stop-color="white"/>
<stop offset="0.697917" stop-color="white" stop-opacity="0"/>
<stop offset="1" stop-color="white" stop-opacity="0"/>
</radialGradient>
<radialGradient id="paint14_radial_806_38022" cx="0" cy="0" r="1" gradientUnits="userSpaceOnUse" gradientTransform="translate(34.6435 58.4273) rotate(55.9679) scale(2.37997)">
<stop stop-color="white"/>
<stop offset="0.697917" stop-color="white" stop-opacity="0"/>
<stop offset="1" stop-color="white" stop-opacity="0"/>
</radialGradient>
<radialGradient id="paint15_radial_806_38022" cx="0" cy="0" r="1" gradientUnits="userSpaceOnUse" gradientTransform="translate(63.7675 77.5906) rotate(64.3269) scale(6.14891 5.17668)">
<stop stop-color="white"/>
<stop offset="0.697917" stop-color="white" stop-opacity="0"/>
<stop offset="1" stop-color="white" stop-opacity="0"/>
</radialGradient>
<radialGradient id="paint16_radial_806_38022" cx="0" cy="0" r="1" gradientUnits="userSpaceOnUse" gradientTransform="translate(73.1425 70.1532) rotate(64.3274) scale(6.14903 5.1767)">
<stop stop-color="white"/>
<stop offset="0.697917" stop-color="white" stop-opacity="0"/>
<stop offset="1" stop-color="white" stop-opacity="0"/>
</radialGradient>
<radialGradient id="paint17_radial_806_38022" cx="0" cy="0" r="1" gradientUnits="userSpaceOnUse" gradientTransform="translate(50.2685 49.3233) rotate(64.8894) scale(3.13874 2.60044)">
<stop stop-color="white"/>
<stop offset="0.697917" stop-color="white" stop-opacity="0"/>
<stop offset="1" stop-color="white" stop-opacity="0"/>
</radialGradient>
<radialGradient id="paint18_radial_806_38022" cx="0" cy="0" r="1" gradientUnits="userSpaceOnUse" gradientTransform="translate(54.3925 85.0243) rotate(64.3274) scale(6.14903 5.1767)">
<stop stop-color="white"/>
<stop offset="0.697917" stop-color="white" stop-opacity="0"/>
<stop offset="1" stop-color="white" stop-opacity="0"/>
</radialGradient>
<radialGradient id="paint19_radial_806_38022" cx="0" cy="0" r="1" gradientUnits="userSpaceOnUse" gradientTransform="translate(49.1415 60.0858) rotate(71.1697) scale(12.3802 8.15444)">
<stop stop-color="white"/>
<stop offset="0.697917" stop-color="white" stop-opacity="0"/>
<stop offset="1" stop-color="white" stop-opacity="0"/>
</radialGradient>
<radialGradient id="paint20_radial_806_38022" cx="0" cy="0" r="1" gradientUnits="userSpaceOnUse" gradientTransform="translate(82.5175 62.7195) rotate(64.3269) scale(6.14891 5.17668)">
<stop stop-color="white"/>
<stop offset="0.697917" stop-color="white" stop-opacity="0"/>
<stop offset="1" stop-color="white" stop-opacity="0"/>
</radialGradient>
<radialGradient id="paint21_radial_806_38022" cx="0" cy="0" r="1" gradientUnits="userSpaceOnUse" gradientTransform="translate(91.393 56.2805) rotate(67.2297) scale(5.16217 3.97204)">
<stop stop-color="white"/>
<stop offset="0.697917" stop-color="white" stop-opacity="0"/>
<stop offset="1" stop-color="white" stop-opacity="0"/>
</radialGradient>
<radialGradient id="paint22_radial_806_38022" cx="0" cy="0" r="1" gradientUnits="userSpaceOnUse" gradientTransform="translate(69.0185 29.0108) rotate(64.8894) scale(3.13874 2.60044)">
<stop stop-color="white"/>
<stop offset="0.697917" stop-color="white" stop-opacity="0"/>
<stop offset="1" stop-color="white" stop-opacity="0"/>
</radialGradient>
<radialGradient id="paint23_radial_806_38022" cx="0" cy="0" r="1" gradientUnits="userSpaceOnUse" gradientTransform="translate(67.8915 39.7733) rotate(71.1697) scale(12.3802 8.15444)">
<stop stop-color="white"/>
<stop offset="0.697917" stop-color="white" stop-opacity="0"/>
<stop offset="1" stop-color="white" stop-opacity="0"/>
</radialGradient>
</defs>
</svg>
