<svg width="101" height="100" viewBox="0 0 101 100" fill="none" xmlns="http://www.w3.org/2000/svg">
<path fill-rule="evenodd" clip-rule="evenodd" d="M20.5972 4.10078H27.9729C28.8323 4.10078 29.5354 4.80371 29.5354 5.66328V7.46699L19.0347 12.2064V5.66309C19.0347 4.80371 19.7376 4.10078 20.5972 4.10078ZM76.3811 59.1094C65.9524 59.1094 57.4983 67.5635 57.4983 77.9922C57.4983 88.4209 65.9524 96.875 76.3811 96.875C86.8099 96.875 95.264 88.4209 95.264 77.9922C95.264 67.5635 86.8099 59.1094 76.3811 59.1094ZM87.0493 74.3242C83.3263 78.082 79.628 81.8645 75.8876 85.6051C74.794 86.6986 73.0202 86.6986 71.9267 85.6051L65.721 79.3994C64.6274 78.3059 64.6274 76.5322 65.721 75.4387C66.8145 74.3451 68.5884 74.3451 69.6817 75.4387L73.9011 79.6578L83.0829 70.3846C84.1696 69.2869 85.9429 69.2838 87.0374 70.3723C88.1317 71.4604 88.135 73.2285 87.0493 74.3242ZM46.7507 32.8217C38.7909 32.8217 32.3384 39.2744 32.3384 47.234C32.3384 55.1937 38.7909 61.6463 46.7507 61.6463C54.7104 61.6463 61.1632 55.1937 61.1632 47.234C61.1632 39.2744 54.7104 32.8217 46.7507 32.8217ZM48.3134 55.7338V56.3543C48.3134 57.2172 47.6138 57.9168 46.7509 57.9168C45.888 57.9168 45.1884 57.2172 45.1884 56.3543V55.7027C42.9726 55.2189 41.1767 53.7416 40.6138 51.4834C40.4081 50.6475 40.919 49.8029 41.755 49.5975C42.5909 49.3918 43.4354 49.9029 43.6409 50.7389C44.003 52.1918 45.5282 52.7924 46.9026 52.7596C47.0356 52.7564 47.2024 52.7428 47.402 52.7188C48.338 52.6051 49.845 52.1537 49.8171 50.976C49.8165 50.9477 49.8104 50.8865 49.7989 50.7914C49.6204 49.3201 47.7183 48.9184 46.514 48.7207C43.8251 48.2793 41.2011 46.9945 41.0518 43.9178C40.9251 41.3082 42.7679 39.3902 45.1886 38.7904V38.1145C45.1886 37.2516 45.8882 36.552 46.7511 36.552C47.614 36.552 48.3136 37.2516 48.3136 38.1145V38.7684C50.2169 39.2361 51.6716 40.4348 52.4345 42.2521C52.7683 43.0477 52.3938 43.9631 51.5983 44.2969C50.8028 44.6307 49.8874 44.2562 49.5536 43.4607C48.9688 42.0682 47.5052 41.4922 46.0833 41.7785C45.0829 41.9799 44.1097 42.6389 44.1645 43.7715C44.2284 45.0896 45.9708 45.4734 47.0143 45.6447C49.7921 46.1008 52.5171 47.2756 52.8995 50.4254C52.9155 50.5564 52.9255 50.7162 52.93 50.9029C52.9952 53.6465 50.7817 55.2613 48.3134 55.7338ZM66.1454 22.6303C66.3046 22.7029 66.4513 22.8061 66.5847 22.9395L75.0036 31.3584C75.137 31.4918 75.2399 31.6383 75.3128 31.7975H66.8952C66.4823 31.7975 66.1454 31.4607 66.1454 31.0479V22.6303ZM30.6204 73.6734H54.7983C56.7464 63.8846 65.1868 56.4361 75.4429 56.0057V34.9225H66.8952C64.7575 34.9225 63.0206 33.1855 63.0206 31.0479V22.5004H19.5583C18.7323 22.5004 18.0589 23.174 18.0589 23.9998V95.3756C18.0589 96.2016 18.7325 96.875 19.5583 96.875H65.0729C61.6415 94.8156 58.8186 91.8473 56.9352 88.3033H30.6204C29.7575 88.3033 29.0579 87.6037 29.0579 86.7408C29.0579 85.8779 29.7575 85.1783 30.6204 85.1783H55.5747C54.7966 82.9264 54.3733 80.5088 54.3733 77.992C54.3733 77.5914 54.3847 77.1936 54.406 76.7982H30.6204C29.7575 76.7982 29.0579 76.0986 29.0579 75.2357C29.0579 74.373 29.7575 73.6734 30.6204 73.6734ZM27.8767 47.2342C27.8767 36.8104 36.3269 28.3602 46.7507 28.3602C57.1747 28.3602 65.6249 36.8104 65.6249 47.2342C65.6249 57.658 57.1747 66.1082 46.7507 66.1082C36.3269 66.1082 27.8767 57.658 27.8767 47.2342ZM81.1876 23.8881H87.4673C88.6862 23.8881 89.0464 22.2156 87.9352 21.7143L46.7509 3.125L5.5663 21.7141C4.45537 22.2154 4.81533 23.8879 6.03427 23.8879H12.3136V65.5453H14.9337V23.9998C14.9337 21.4492 17.0073 19.3754 19.5581 19.3754H65.5241C66.7657 19.3754 67.9161 19.852 68.794 20.7299L77.213 29.1488C78.0909 30.0268 78.5675 31.1771 78.5675 32.4187V56.0924C79.4573 56.1807 80.3317 56.3217 81.1874 56.5123V23.8881H81.1876ZM7.4204 68.6705H14.9339V75.9883H7.4204C6.56083 75.9883 5.8579 75.2852 5.8579 74.4258V70.2328C5.8579 69.3736 6.56083 68.6705 7.4204 68.6705Z" fill="#BD142D"/>
<path fill-rule="evenodd" clip-rule="evenodd" d="M20.5972 4.10078H27.9729C28.8323 4.10078 29.5354 4.80371 29.5354 5.66328V7.46699L19.0347 12.2064V5.66309C19.0347 4.80371 19.7376 4.10078 20.5972 4.10078ZM76.3811 59.1094C65.9524 59.1094 57.4983 67.5635 57.4983 77.9922C57.4983 88.4209 65.9524 96.875 76.3811 96.875C86.8099 96.875 95.264 88.4209 95.264 77.9922C95.264 67.5635 86.8099 59.1094 76.3811 59.1094ZM87.0493 74.3242C83.3263 78.082 79.628 81.8645 75.8876 85.6051C74.794 86.6986 73.0202 86.6986 71.9267 85.6051L65.721 79.3994C64.6274 78.3059 64.6274 76.5322 65.721 75.4387C66.8145 74.3451 68.5884 74.3451 69.6817 75.4387L73.9011 79.6578L83.0829 70.3846C84.1696 69.2869 85.9429 69.2838 87.0374 70.3723C88.1317 71.4604 88.135 73.2285 87.0493 74.3242ZM46.7507 32.8217C38.7909 32.8217 32.3384 39.2744 32.3384 47.234C32.3384 55.1937 38.7909 61.6463 46.7507 61.6463C54.7104 61.6463 61.1632 55.1937 61.1632 47.234C61.1632 39.2744 54.7104 32.8217 46.7507 32.8217ZM48.3134 55.7338V56.3543C48.3134 57.2172 47.6138 57.9168 46.7509 57.9168C45.888 57.9168 45.1884 57.2172 45.1884 56.3543V55.7027C42.9726 55.2189 41.1767 53.7416 40.6138 51.4834C40.4081 50.6475 40.919 49.8029 41.755 49.5975C42.5909 49.3918 43.4354 49.9029 43.6409 50.7389C44.003 52.1918 45.5282 52.7924 46.9026 52.7596C47.0356 52.7564 47.2024 52.7428 47.402 52.7188C48.338 52.6051 49.845 52.1537 49.8171 50.976C49.8165 50.9477 49.8104 50.8865 49.7989 50.7914C49.6204 49.3201 47.7183 48.9184 46.514 48.7207C43.8251 48.2793 41.2011 46.9945 41.0518 43.9178C40.9251 41.3082 42.7679 39.3902 45.1886 38.7904V38.1145C45.1886 37.2516 45.8882 36.552 46.7511 36.552C47.614 36.552 48.3136 37.2516 48.3136 38.1145V38.7684C50.2169 39.2361 51.6716 40.4348 52.4345 42.2521C52.7683 43.0477 52.3938 43.9631 51.5983 44.2969C50.8028 44.6307 49.8874 44.2562 49.5536 43.4607C48.9688 42.0682 47.5052 41.4922 46.0833 41.7785C45.0829 41.9799 44.1097 42.6389 44.1645 43.7715C44.2284 45.0896 45.9708 45.4734 47.0143 45.6447C49.7921 46.1008 52.5171 47.2756 52.8995 50.4254C52.9155 50.5564 52.9255 50.7162 52.93 50.9029C52.9952 53.6465 50.7817 55.2613 48.3134 55.7338ZM66.1454 22.6303C66.3046 22.7029 66.4513 22.8061 66.5847 22.9395L75.0036 31.3584C75.137 31.4918 75.2399 31.6383 75.3128 31.7975H66.8952C66.4823 31.7975 66.1454 31.4607 66.1454 31.0479V22.6303ZM30.6204 73.6734H54.7983C56.7464 63.8846 65.1868 56.4361 75.4429 56.0057V34.9225H66.8952C64.7575 34.9225 63.0206 33.1855 63.0206 31.0479V22.5004H19.5583C18.7323 22.5004 18.0589 23.174 18.0589 23.9998V95.3756C18.0589 96.2016 18.7325 96.875 19.5583 96.875H65.0729C61.6415 94.8156 58.8186 91.8473 56.9352 88.3033H30.6204C29.7575 88.3033 29.0579 87.6037 29.0579 86.7408C29.0579 85.8779 29.7575 85.1783 30.6204 85.1783H55.5747C54.7966 82.9264 54.3733 80.5088 54.3733 77.992C54.3733 77.5914 54.3847 77.1936 54.406 76.7982H30.6204C29.7575 76.7982 29.0579 76.0986 29.0579 75.2357C29.0579 74.373 29.7575 73.6734 30.6204 73.6734ZM27.8767 47.2342C27.8767 36.8104 36.3269 28.3602 46.7507 28.3602C57.1747 28.3602 65.6249 36.8104 65.6249 47.2342C65.6249 57.658 57.1747 66.1082 46.7507 66.1082C36.3269 66.1082 27.8767 57.658 27.8767 47.2342ZM81.1876 23.8881H87.4673C88.6862 23.8881 89.0464 22.2156 87.9352 21.7143L46.7509 3.125L5.5663 21.7141C4.45537 22.2154 4.81533 23.8879 6.03427 23.8879H12.3136V65.5453H14.9337V23.9998C14.9337 21.4492 17.0073 19.3754 19.5581 19.3754H65.5241C66.7657 19.3754 67.9161 19.852 68.794 20.7299L77.213 29.1488C78.0909 30.0268 78.5675 31.1771 78.5675 32.4187V56.0924C79.4573 56.1807 80.3317 56.3217 81.1874 56.5123V23.8881H81.1876ZM7.4204 68.6705H14.9339V75.9883H7.4204C6.56083 75.9883 5.8579 75.2852 5.8579 74.4258V70.2328C5.8579 69.3736 6.56083 68.6705 7.4204 68.6705Z" fill="url(#paint0_radial_806_38052)" fill-opacity="0.4"/>
<defs>
<radialGradient id="paint0_radial_806_38052" cx="0" cy="0" r="1" gradientUnits="userSpaceOnUse" gradientTransform="translate(33.7864 21.5676) rotate(56.9384) scale(70.6016 69.598)">
<stop stop-color="white"/>
<stop offset="0.697917" stop-color="white" stop-opacity="0"/>
<stop offset="1" stop-color="white" stop-opacity="0"/>
</radialGradient>
</defs>
</svg>
