<svg width="101" height="100" viewBox="0 0 101 100" fill="none" xmlns="http://www.w3.org/2000/svg">
<path fill-rule="evenodd" clip-rule="evenodd" d="M48.2659 9.21588C49.7734 8.03742 51.8901 8.03742 53.3976 9.21588L60.3113 14.6198L69.0009 13.3967C70.8959 13.13 72.7288 14.1883 73.4455 15.9627L76.7309 24.0996L84.8676 27.3851C86.6421 28.1016 87.7005 29.9345 87.4338 31.8295L86.2105 40.519L91.6146 47.4329C92.793 48.9404 92.793 51.057 91.6146 52.5645L86.2105 59.4783L87.4338 68.1679C87.7005 70.0629 86.6421 71.8958 84.8676 72.6125L76.7309 75.8979L73.4455 84.0345C72.7288 85.8091 70.8959 86.8675 69.0009 86.6008L60.3113 85.3775L53.3976 90.7816C51.8901 91.96 49.7734 91.96 48.2659 90.7816L41.352 85.3775L32.6625 86.6008C30.7676 86.8675 28.9346 85.8091 28.2181 84.0345L24.9326 75.8979L16.7957 72.6125C15.0213 71.8958 13.963 70.0629 14.2298 68.1679L15.4528 59.4783L10.0489 52.5645C8.87042 51.057 8.87042 48.9404 10.0489 47.4329L15.4528 40.519L14.2298 31.8295C13.963 29.9345 15.0213 28.1016 16.7957 27.3851L24.9326 24.0996L28.2181 15.9627C28.9346 14.1883 30.7676 13.13 32.6625 13.3967L41.352 14.6198L48.2659 9.21588ZM66.278 44.6116C67.9051 42.9845 67.9051 40.3463 66.278 38.7191C64.6509 37.0919 62.0126 37.0919 60.3855 38.7191L46.6651 52.4395L41.278 47.0525C39.6508 45.4254 37.0126 45.4254 35.3854 47.0525C33.7583 48.6795 33.7583 51.3179 35.3854 52.945L43.7188 61.2783C45.3459 62.9054 47.9842 62.9054 49.6113 61.2783L66.278 44.6116Z" fill="#4334DD"/>
<path fill-rule="evenodd" clip-rule="evenodd" d="M48.2659 9.21588C49.7734 8.03742 51.8901 8.03742 53.3976 9.21588L60.3113 14.6198L69.0009 13.3967C70.8959 13.13 72.7288 14.1883 73.4455 15.9627L76.7309 24.0996L84.8676 27.3851C86.6421 28.1016 87.7005 29.9345 87.4338 31.8295L86.2105 40.519L91.6146 47.4329C92.793 48.9404 92.793 51.057 91.6146 52.5645L86.2105 59.4783L87.4338 68.1679C87.7005 70.0629 86.6421 71.8958 84.8676 72.6125L76.7309 75.8979L73.4455 84.0345C72.7288 85.8091 70.8959 86.8675 69.0009 86.6008L60.3113 85.3775L53.3976 90.7816C51.8901 91.96 49.7734 91.96 48.2659 90.7816L41.352 85.3775L32.6625 86.6008C30.7676 86.8675 28.9346 85.8091 28.2181 84.0345L24.9326 75.8979L16.7957 72.6125C15.0213 71.8958 13.963 70.0629 14.2298 68.1679L15.4528 59.4783L10.0489 52.5645C8.87042 51.057 8.87042 48.9404 10.0489 47.4329L15.4528 40.519L14.2298 31.8295C13.963 29.9345 15.0213 28.1016 16.7957 27.3851L24.9326 24.0996L28.2181 15.9627C28.9346 14.1883 30.7676 13.13 32.6625 13.3967L41.352 14.6198L48.2659 9.21588ZM66.278 44.6116C67.9051 42.9845 67.9051 40.3463 66.278 38.7191C64.6509 37.0919 62.0126 37.0919 60.3855 38.7191L46.6651 52.4395L41.278 47.0525C39.6508 45.4254 37.0126 45.4254 35.3854 47.0525C33.7583 48.6795 33.7583 51.3179 35.3854 52.945L43.7188 61.2783C45.3459 62.9054 47.9842 62.9054 49.6113 61.2783L66.278 44.6116Z" fill="url(#paint0_radial_806_29828)" fill-opacity="0.7"/>
<defs>
<radialGradient id="paint0_radial_806_29828" cx="0" cy="0" r="1" gradientUnits="userSpaceOnUse" gradientTransform="translate(35.8044 24.7255) rotate(55.9679) scale(63.4658 63.4658)">
<stop stop-color="white"/>
<stop offset="0.697917" stop-color="white" stop-opacity="0"/>
<stop offset="1" stop-color="white" stop-opacity="0"/>
</radialGradient>
</defs>
</svg>
