<svg width="151" height="153" viewBox="0 0 151 153" fill="none" xmlns="http://www.w3.org/2000/svg">
<path d="M73.6875 129.062C102.73 129.062 126.274 105.518 126.274 76.475C126.274 47.4322 102.73 23.8884 73.6875 23.8884C44.6449 23.8884 21.1013 47.4322 21.1013 76.475C21.1013 105.518 44.6449 129.062 73.6875 129.062Z" fill="white"/>
<path d="M73.6875 129.062C102.73 129.062 126.274 105.518 126.274 76.475C126.274 47.4322 102.73 23.8884 73.6875 23.8884C44.6449 23.8884 21.1013 47.4322 21.1013 76.475C21.1013 105.518 44.6449 129.062 73.6875 129.062Z" stroke="#BD142D" stroke-width="5.17243"/>
<path d="M73.6875 129.062C102.73 129.062 126.274 105.518 126.274 76.475C126.274 47.4322 102.73 23.8884 73.6875 23.8884C44.6449 23.8884 21.1013 47.4322 21.1013 76.475C21.1013 105.518 44.6449 129.062 73.6875 129.062Z" stroke="url(#paint0_radial_3033_21017)" stroke-opacity="0.4" stroke-width="5.17243"/>
<ellipse cx="73.6879" cy="76.4675" rx="41.3793" ry="41.3796" fill="#BD142D"/>
<ellipse cx="73.6879" cy="76.4675" rx="41.3793" ry="41.3796" fill="url(#paint1_radial_3033_21017)" fill-opacity="0.4"/>
<g clip-path="url(#clip0_3033_21017)">
<path d="M98.5171 70.9351C98.1898 69.9226 97.2918 69.2035 96.2294 69.1078L81.798 67.7974L76.0915 54.4406C75.6707 53.4618 74.7124 52.8281 73.6477 52.8281C72.583 52.8281 71.6247 53.4618 71.204 54.4429L65.4974 67.7974L51.0637 69.1078C50.0032 69.2058 49.1075 69.9226 48.7783 70.9351C48.4491 71.9475 48.7531 73.058 49.5554 73.758L60.4638 83.3247L57.2471 97.494C57.0118 98.5359 57.4161 99.6128 58.2806 100.238C58.7452 100.573 59.2888 100.744 59.837 100.744C60.3097 100.744 60.7785 100.617 61.1993 100.365L73.6477 92.9251L86.0916 100.365C87.0022 100.913 88.15 100.863 89.0126 100.238C89.8774 99.6109 90.2814 98.5336 90.046 97.494L86.8294 83.3247L97.7378 73.7599C98.54 73.058 98.8463 71.9494 98.5171 70.9351Z" fill="white"/>
</g>
<path d="M137.935 82.47C138.206 79.1292 140.855 76.6994 144.422 76.989C147.989 77.2786 150.212 80.1038 149.941 83.4446C149.774 85.4979 148.667 86.8442 147.287 87.6605L146.707 86.3874C147.735 85.8053 148.546 84.6626 148.653 83.3401C148.859 80.7997 147.067 78.71 144.301 78.4854C141.551 78.2623 139.428 80.0341 139.222 82.5746C139.115 83.897 139.713 85.1541 140.652 85.8958L139.873 87.0762C138.629 85.9944 137.768 84.5233 137.935 82.47Z" fill="black"/>
<path d="M137.08 89.48L137.335 88.1958L148.756 90.4648L148.501 91.749L137.08 89.48Z" fill="black"/>
<path d="M145.665 95.0389C145.785 94.583 146.258 94.2923 146.731 94.4166C147.204 94.5409 147.49 95.0313 147.37 95.4872C147.246 95.9599 146.756 96.2462 146.283 96.1219C145.81 95.9976 145.541 95.5116 145.665 95.0389ZM136.176 93.2306L136.509 91.9643L144.664 94.1079L144.331 95.3743L136.176 93.2306Z" fill="black"/>
<path d="M134.165 98.7721C135.021 96.4086 137.404 95.4709 139.767 96.3275C142.114 97.1781 143.342 99.4245 142.486 101.788C141.962 103.232 141.062 103.872 140.054 104.193L139.597 103.099C140.509 102.836 141.065 102.276 141.362 101.455C141.975 99.7645 141.059 98.2442 139.303 97.6077C137.547 96.9712 135.853 97.5458 135.24 99.2363C134.943 100.057 135.027 100.849 135.543 101.63L134.49 102.177C133.923 101.284 133.641 100.216 134.165 98.7721Z" fill="black"/>
<path d="M129.323 109.533L130.094 108.045L134.855 107.091L134.274 105.217L132.135 104.108L132.737 102.946L143.075 108.304L142.473 109.467L135.638 105.924L137.58 111.925L136.817 113.398L135.142 108.322L129.323 109.533Z" fill="black"/>
<path d="M120.485 121.061L121.412 119.948L125.517 123.367L129.874 118.135L125.77 114.716L126.697 113.603L135.644 121.055L134.717 122.169L130.867 118.962L126.509 124.193L130.359 127.4L129.432 128.514L120.485 121.061Z" fill="black"/>
<path d="M116.078 124.686C117.96 123.047 120.497 123.222 122.228 125.21C123.833 127.054 123.812 129.688 121.995 131.27C120.072 132.944 117.633 132.428 115.971 130.519L115.753 130.269L120.902 125.787C119.779 124.657 118.065 124.39 116.696 125.583C115.972 126.213 115.487 127.145 115.434 128.094L114.398 127.861C114.48 126.679 115.037 125.592 116.078 124.686ZM117.358 130.145C118.197 131.081 119.849 131.703 121.297 130.442C122.653 129.261 122.328 127.531 121.532 126.511L117.358 130.145Z" fill="black"/>
<path d="M110.858 129.002L111.936 128.259L116.72 135.202L115.642 135.945L114.869 134.824C114.814 135.943 114.375 137.03 113.426 137.684L112.664 136.577C112.813 136.516 112.952 136.442 113.124 136.323C113.786 135.867 114.315 134.697 114.245 133.918L110.858 129.002Z" fill="black"/>
<path d="M104.201 132.82C106.4 131.638 108.835 132.371 110.083 134.693C111.24 136.846 110.636 139.41 108.513 140.55C106.268 141.757 104.004 140.714 102.806 138.484L102.649 138.192L108.662 134.961C107.817 133.612 106.205 132.972 104.606 133.831C103.76 134.285 103.081 135.086 102.819 136L101.86 135.544C102.202 134.409 102.986 133.472 104.201 132.82ZM104.241 138.426C104.851 139.525 106.325 140.497 108.016 139.589C109.6 138.738 109.666 136.978 109.116 135.807L104.241 138.426Z" fill="black"/>
<path d="M91.6101 138.085L93.0012 137.68L95.8978 147.618L99.4342 146.588L99.7957 147.828L91.315 150.3L90.9535 149.059L94.5067 148.024L91.6101 138.085Z" fill="black"/>
<path d="M83.0829 139.636C85.6246 139.282 87.4903 141.031 87.8282 143.451C88.166 145.872 86.8481 148.048 84.3064 148.402C81.7648 148.757 79.9014 147.025 79.5636 144.605C79.2257 142.184 80.5413 139.991 83.0829 139.636ZM83.2446 140.795C81.4637 141.043 80.6906 142.702 80.9295 144.414C81.166 146.109 82.3639 147.492 84.1447 147.244C85.9256 146.995 86.7161 145.334 86.4796 143.639C86.2407 141.928 85.0255 140.546 83.2446 140.795Z" fill="black"/>
<path d="M69.3671 140.054C71.3867 140.202 72.8104 141.077 73.6887 142.227L72.755 143.261C72.0516 142.352 70.8568 141.459 69.2202 141.338C67.1483 141.186 66.4049 142.252 66.3397 143.14C66.1198 146.135 73.1185 144.986 72.8143 149.129C72.6737 151.045 70.8715 152.225 68.5907 152.058C66.8148 151.927 65.4828 151.234 64.5833 150.135L65.5318 149.137C66.332 150.159 67.5188 150.684 68.7898 150.777C70.1826 150.879 71.23 150.203 71.3106 149.106C71.5023 146.495 64.5151 147.487 64.8334 143.152C64.9574 141.463 66.2331 139.824 69.3671 140.054Z" fill="black"/>
<path d="M61.3296 138.935C62.5472 139.167 63.0304 139.988 62.7949 141.223L61.7613 146.642L63.1332 146.903L62.9173 148.035L61.5455 147.774L61.1137 150.037L59.8276 149.792L60.2593 147.528L58.5788 147.208L58.7947 146.076L60.4752 146.397L61.4565 141.252C61.5742 140.635 61.3849 140.136 60.819 140.028C60.4589 139.96 60.0864 140.049 59.879 140.205L59.6849 139.172C60.0696 138.926 60.5751 138.791 61.3296 138.935Z" fill="black"/>
<path d="M52.498 136.76L53.7522 137.136L53.4766 138.055C54.366 137.52 55.401 137.411 56.488 137.737C57.8593 138.148 59.0386 139.503 58.5124 141.259C57.9712 143.065 56.2607 143.482 54.8894 143.071C53.7857 142.741 52.9712 142.114 52.5445 141.166L52.1085 142.621C51.7828 143.708 52.467 144.587 53.6376 144.938C54.6075 145.229 55.4987 145.113 56.4483 144.559L56.773 145.604C55.6328 146.247 54.4657 146.371 53.1446 145.975C51.4389 145.464 50.2479 144.268 50.8343 142.312L52.498 136.76ZM55.7659 138.505C54.8796 138.239 53.9265 138.318 53.2411 138.841L52.785 140.363C53.0696 141.177 53.8222 141.767 54.7085 142.033C55.8791 142.384 56.919 141.894 57.2297 140.857C57.5354 139.837 56.9365 138.855 55.7659 138.505Z" fill="black"/>
<path d="M49.3369 135.424L50.5409 135.939L47.2272 143.692L46.0232 143.178L46.5583 141.926C45.5824 142.477 44.4295 142.687 43.37 142.234L43.8983 140.998C44.0291 141.092 44.1667 141.169 44.3593 141.252C45.0978 141.567 46.3698 141.389 46.9905 140.914L49.3369 135.424Z" fill="black"/>
<path d="M43.8491 132.56C44.9475 133.135 45.1726 134.06 44.59 135.174L42.0332 140.062L43.2707 140.71L42.7367 141.731L41.4992 141.083L40.4311 143.125L39.2709 142.518L40.339 140.476L38.823 139.684L39.357 138.663L40.873 139.456L43.3004 134.815C43.5917 134.258 43.5545 133.726 43.044 133.459C42.7192 133.289 42.337 133.267 42.0933 133.356L42.2061 132.312C42.6456 132.187 43.1685 132.204 43.8491 132.56Z" fill="black"/>
<path d="M33.9118 125.904C36.5411 127.982 37.0931 131.535 34.8734 134.342C32.6538 137.149 29.0701 137.431 26.4408 135.353C24.8249 134.075 24.3191 132.406 24.4054 130.806L25.7862 131.029C25.7003 132.208 26.2013 133.516 27.242 134.339C29.2414 135.92 31.9741 135.588 33.6957 133.411C35.4065 131.247 35.1099 128.498 33.1105 126.917C32.0698 126.094 30.6918 125.895 29.5542 126.264L29.0042 124.961C30.594 124.527 32.2958 124.626 33.9118 125.904Z" fill="black"/>
<path d="M28.5948 121.349L29.524 122.272L21.3203 130.535L20.3911 129.613L28.5948 121.349Z" fill="black"/>
<path d="M19.3098 125.533C19.6245 125.884 19.6065 126.439 19.2426 126.765C18.8786 127.092 18.3116 127.061 17.997 126.71C17.6707 126.346 17.7016 125.779 18.0656 125.452C18.4295 125.126 18.9835 125.169 19.3098 125.533ZM26.0422 118.606L26.9163 119.581L20.6379 125.21L19.7639 124.235L26.0422 118.606Z" fill="black"/>
<path d="M22.4884 113.828C23.9894 115.844 23.46 118.349 21.4434 119.85C19.4408 121.341 16.8892 121.129 15.3882 119.112C14.471 117.88 14.4331 116.776 14.7196 115.758L15.885 115.979C15.6024 116.885 15.7637 117.658 16.2848 118.358C17.3584 119.8 19.1319 119.873 20.6303 118.758C22.1288 117.643 22.582 115.912 21.5084 114.47C20.9873 113.77 20.2798 113.404 19.3441 113.404L19.4671 112.224C20.525 112.242 21.5711 112.595 22.4884 113.828Z" fill="black"/>
<path d="M16.2014 103.936L17.0217 105.397L15.205 109.9L17.0913 110.443L19.1921 109.264L19.833 110.406L9.67894 116.105L9.03808 114.963L15.7516 111.195L9.66879 109.524L8.85703 108.078L14.0196 109.465L16.2014 103.936Z" fill="black"/>
<path d="M11.4591 90.3078L11.8803 91.6942L6.7689 93.247L8.74796 99.7615L13.8593 98.2087L14.2805 99.5951L3.13906 102.98L2.71788 101.593L7.51188 100.137L5.53281 93.6225L0.738815 95.0789L0.31763 93.6925L11.4591 90.3078Z" fill="black"/>
<path d="M10.8517 84.5594C11.1778 87.0345 9.62992 89.0521 7.0164 89.3964C4.59328 89.7157 2.40943 88.2426 2.09473 85.8541C1.7618 83.3271 3.5388 81.5786 6.04847 81.248L6.37732 81.2046L7.26895 87.9721C8.8303 87.6607 9.99977 86.3797 9.76261 84.5797C9.63719 83.6277 9.12871 82.7086 8.36704 82.1399L9.13304 81.405C10.0733 82.1264 10.6715 83.1921 10.8517 84.5594ZM5.59413 82.6109C4.35023 82.7924 2.91927 83.8261 3.17011 85.73C3.40499 87.5127 5.02709 88.197 6.31701 88.0975L5.59413 82.6109Z" fill="black"/>
<path d="M10.1311 77.8446L10.1563 79.1536L1.72586 79.3164L1.70059 78.0073L3.06203 77.981C2.15872 77.3175 1.49404 76.3525 1.47181 75.2005L2.81579 75.1746C2.78392 75.3323 2.76949 75.4897 2.77354 75.6992C2.78904 76.5021 3.47353 77.5889 4.16166 77.9598L10.1311 77.8446Z" fill="black"/>
<path d="M10.6128 70.1529C10.3821 72.6387 8.42551 74.2629 5.80069 74.0193C3.36708 73.7934 1.56415 71.8728 1.7868 69.474C2.02236 66.9361 4.14276 65.6251 6.66328 65.859L6.99356 65.8897L6.36272 72.6864C7.95425 72.7289 9.37861 71.739 9.5464 69.9312C9.63513 68.9751 9.34306 67.9662 8.72644 67.2427L9.63628 66.696C10.3932 67.6078 10.7403 68.7796 10.6128 70.1529ZM5.91811 67.0873C4.66492 66.9885 3.0404 67.6793 2.86293 69.5914C2.69675 71.3818 4.12678 72.4087 5.40666 72.5976L5.91811 67.0873Z" fill="black"/>
<path d="M13.1838 56.607L12.7521 57.9902L2.8698 54.9063L1.77247 58.4226L0.539263 58.0377L3.17078 49.6052L4.40399 49.9901L3.30146 53.5231L13.1838 56.607Z" fill="black"/>
<path d="M16.5378 48.7513C15.4249 51.0637 12.9351 51.6478 10.7328 50.5879C8.53051 49.528 7.44947 47.2253 8.56237 44.9129C9.67528 42.6005 12.1493 42.0088 14.3516 43.0687C16.5539 44.1286 17.6507 46.4389 16.5378 48.7513ZM15.4838 48.244C16.2636 46.6238 15.3109 45.0609 13.7535 44.3114C12.2119 43.5694 10.3961 43.7999 9.61632 45.4201C8.83653 47.0404 9.78172 48.619 11.3233 49.3609C12.8807 50.1104 14.704 49.8643 15.4838 48.244Z" fill="black"/>
<path d="M23.7213 37.1163C22.4769 38.714 20.9591 39.4127 19.5152 39.5051L19.1731 38.1544C20.32 38.074 21.7259 37.5758 22.7343 36.2812C24.0109 34.6422 23.537 33.4323 22.8346 32.8852C20.4657 31.0401 17.5368 37.4995 14.2589 34.9463C12.7438 33.7663 12.7622 31.612 14.1675 29.8078C15.2617 28.4029 16.5774 27.6796 17.9907 27.5413L18.2945 28.8843C17.0006 28.9829 15.9054 29.6788 15.1223 30.6842C14.2641 31.7861 14.2449 33.0324 15.1125 33.7082C17.1785 35.3173 20.2313 28.9545 23.6608 31.6256C24.9967 32.6662 25.6522 34.6372 23.7213 37.1163Z" fill="black"/>
<path d="M28.8623 31.2549C27.9987 32.144 27.0474 32.0961 26.1458 31.2203L22.1886 27.3765L21.2156 28.3783L20.3891 27.5755L21.3622 26.5737L19.7092 24.9681L20.6215 24.0289L22.2744 25.6345L23.4665 24.4073L24.293 25.2101L23.1009 26.4374L26.8577 30.0865C27.3085 30.5244 27.8287 30.6403 28.2301 30.227C28.4855 29.964 28.6161 29.6041 28.6 29.3451L29.5689 29.7508C29.5631 30.2076 29.3975 30.7039 28.8623 31.2549Z" fill="black"/>
<path d="M35.6646 24.9448L34.6585 25.7828L34.044 25.045C33.9991 26.0821 33.5183 27.0052 32.6464 27.7314C31.5465 28.6476 29.7649 28.8819 28.5918 27.4735C27.3851 26.0248 27.9822 24.3686 29.0822 23.4524C29.9675 22.715 30.9399 22.3822 31.9658 22.55L30.9938 21.383C30.2675 20.5111 29.1566 20.5958 28.2176 21.3779C27.4396 22.026 27.0438 22.8328 26.981 23.9303L25.9305 23.6238C26.0247 22.3185 26.5658 21.277 27.6255 20.3943C28.9937 19.2547 30.6479 18.922 31.9551 20.4914L35.6646 24.9448ZM32.4052 26.7054C33.1161 26.1132 33.5768 25.2751 33.5189 24.4146L32.5021 23.1939C31.6662 22.9814 30.7586 23.2829 30.0477 23.8751C29.1087 24.6572 28.9431 25.7949 29.6358 26.6266C30.3174 27.4448 31.4662 27.4875 32.4052 26.7054Z" fill="black"/>
<path d="M38.6463 22.9188L37.5547 23.6418L32.8985 16.6119L33.9901 15.8889L34.7421 17.0242C34.818 15.9059 35.2764 14.8276 36.237 14.1913L36.9793 15.312C36.829 15.3697 36.6884 15.4419 36.5138 15.5576C35.8442 16.001 35.2936 17.1614 35.3494 17.9411L38.6463 22.9188Z" fill="black"/>
<path d="M43.8245 20.033C42.7414 20.6357 41.8442 20.3158 41.233 19.2175L38.5506 14.3969L37.3302 15.076L36.7699 14.0692L37.9903 13.3901L36.8698 11.3765L38.0139 10.7398L39.1344 12.7535L40.6294 11.9216L41.1897 12.9284L39.6947 13.7603L42.2413 18.3367C42.5469 18.8859 43.0117 19.1467 43.5151 18.8666C43.8354 18.6883 44.0641 18.3813 44.1233 18.1286L44.9343 18.7961C44.7972 19.232 44.4957 19.6595 43.8245 20.033Z" fill="black"/>
<path d="M54.7613 15.3634C51.581 16.4221 48.3079 14.9358 47.1775 11.5402C46.0471 8.14456 47.7763 4.99298 50.9566 3.93428C52.9111 3.28362 54.5836 3.77561 55.8751 4.72566L54.9307 5.75763C53.9924 5.03959 52.6235 4.74094 51.3646 5.16001C48.9463 5.96507 47.7252 8.43229 48.602 11.066C49.4732 13.6831 51.9349 14.9427 54.3532 14.1377C55.6121 13.7186 56.5344 12.6756 56.8496 11.5219L58.2406 11.7764C57.7321 13.344 56.7158 14.7127 54.7613 15.3634Z" fill="black"/>
<path d="M61.7414 13.3501L60.4592 13.615L58.1031 2.21166L59.3853 1.94673L61.7414 13.3501Z" fill="black"/>
<path d="M63.21 3.31687C62.7437 3.38561 62.2904 3.0642 62.2191 2.58061C62.1479 2.09703 62.4865 1.64124 62.9528 1.5725C63.4364 1.50122 63.8922 1.8399 63.9635 2.32349C64.0348 2.80707 63.6936 3.24559 63.21 3.31687ZM65.2716 12.7537L63.9762 12.9447L62.7466 4.60277L64.0419 4.41183L65.2716 12.7537Z" fill="black"/>
<path d="M71.3459 12.4007C68.8357 12.5364 67.041 10.7103 66.9053 8.2001C66.7705 5.7073 68.3577 3.69833 70.868 3.5626C72.402 3.47964 73.3424 4.05819 74.0326 4.86005L73.2044 5.70906C72.6051 4.97221 71.8725 4.67965 71.0009 4.72678C69.2053 4.82387 68.1642 6.26134 68.265 8.12658C68.3659 9.99182 69.5569 11.3261 71.3525 11.229C72.2241 11.1818 72.9199 10.7946 73.4372 10.0148L74.3522 10.7696C73.7525 11.6412 72.8799 12.3177 71.3459 12.4007Z" fill="black"/>
<path d="M83.0347 12.5962L81.3633 12.4735L78.6112 8.47294L77.1174 9.74612L76.9409 12.1488L75.6351 12.0529L76.4878 0.439948L77.7936 0.535827L77.2299 8.21397L81.9807 4.06412L83.6348 4.18556L79.6289 7.72494L83.0347 12.5962Z" fill="black"/>
<path d="M97.1383 16.1425L95.7503 15.7265L97.2838 10.6093L90.7619 8.65491L89.2284 13.7721L87.8404 13.3562L91.1829 2.202L92.5709 2.61794L91.1327 7.41741L97.6546 9.37183L99.0929 4.57235L100.481 4.98829L97.1383 16.1425Z" fill="black"/>
<path d="M102.543 18.9093C100.301 17.81 99.4786 15.4038 100.639 13.037C101.716 10.8426 104.152 9.84021 106.315 10.9011C108.603 12.0234 109.075 14.4714 107.96 16.7441L107.814 17.0419L101.685 14.0361C101.08 15.5086 101.499 17.1918 103.129 17.9913C103.991 18.4141 105.038 18.4998 105.933 18.1806L106.121 19.2254C105 19.6087 103.781 19.5166 102.543 18.9093ZM107.077 15.611C107.615 14.4748 107.547 12.7108 105.822 11.8652C104.208 11.0734 102.74 12.0449 102.108 13.1741L107.077 15.611Z" fill="black"/>
<path d="M108.306 21.8873L107.201 21.1845L111.728 14.0704L112.832 14.7732L112.101 15.9221C113.154 15.5364 114.325 15.5162 115.297 16.1348L114.576 17.2689C114.462 17.1551 114.339 17.056 114.162 16.9436C113.484 16.5125 112.2 16.4818 111.511 16.85L108.306 21.8873Z" fill="black"/>
<path d="M114.523 26.5902C112.582 25.0206 112.314 22.4918 113.972 20.4419C115.508 18.5414 118.106 18.1051 119.98 19.6198C121.962 21.2224 121.878 23.714 120.286 25.6823L120.078 25.9403L114.77 21.6484C113.852 22.9496 113.887 24.6839 115.299 25.8254C116.045 26.4291 117.047 26.7452 117.991 26.6328L117.942 27.6932C116.763 27.8179 115.595 27.4574 114.523 26.5902ZM119.677 24.3814C120.453 23.393 120.779 21.6579 119.285 20.4505C117.887 19.3199 116.24 19.9412 115.373 20.9018L119.677 24.3814Z" fill="black"/>
<path d="M124.185 35.9677L123.266 34.8476L131.268 28.2801L128.931 25.4327L129.93 24.6131L135.534 31.4415L134.535 32.261L132.187 29.4001L124.185 35.9677Z" fill="black"/>
<path d="M129.034 43.2403C127.713 41.0404 128.592 38.6388 130.687 37.3802C132.782 36.1217 135.3 36.4826 136.622 38.6825C137.943 40.8824 137.079 43.275 134.984 44.5336C132.889 45.7921 130.356 45.4402 129.034 43.2403ZM130.037 42.638C130.963 44.1794 132.792 44.2413 134.274 43.3513C135.74 42.4703 136.545 40.8262 135.619 39.2848C134.693 37.7434 132.855 37.6665 131.388 38.5475C129.907 39.4375 129.111 41.0966 130.037 42.638Z" fill="black"/>
<path d="M134.759 55.468C134.105 53.5515 134.353 51.899 135.067 50.6407L136.384 51.0951C135.823 52.0983 135.469 53.5473 135.999 55.1003C136.67 57.0664 137.942 57.3334 138.784 57.0458C141.626 56.076 137.829 50.0855 141.761 48.7435C143.579 48.1232 145.371 49.3194 146.109 51.4838C146.684 53.169 146.568 54.666 145.909 55.9239L144.619 55.4418C145.246 54.3055 145.264 53.008 144.853 51.8019C144.402 50.4802 143.37 49.7809 142.329 50.1362C139.851 50.982 143.499 57.0232 139.385 58.4272C137.782 58.9742 135.774 58.442 134.759 55.468Z" fill="black"/>
<path d="M136.916 63.331C136.652 62.1201 137.217 61.3532 138.445 61.0848L143.834 59.9068L143.536 58.5424L144.661 58.2964L144.96 59.6608L147.211 59.1687L147.491 60.4478L145.239 60.9399L145.605 62.6113L144.479 62.8573L144.114 61.1859L138.997 62.3043C138.383 62.4385 137.999 62.8083 138.122 63.3711C138.201 63.7293 138.429 64.0368 138.654 64.1664L137.781 64.7503C137.403 64.4934 137.08 64.0814 136.916 63.331Z" fill="black"/>
<path d="M138.386 72.2319L138.24 70.9308L139.194 70.8237C138.353 70.2154 137.847 69.306 137.721 68.1783C137.561 66.7558 138.346 65.1393 140.167 64.9348C142.041 64.7245 143.095 66.1345 143.255 67.5571C143.383 68.7021 143.126 69.6972 142.421 70.4614L143.931 70.292C145.058 70.1654 145.599 69.1912 145.463 67.9768C145.35 66.9706 144.894 66.1961 144.012 65.5397L144.846 64.8312C145.884 65.6282 146.456 66.6532 146.61 68.0237C146.808 69.7933 146.176 71.3575 144.146 71.5854L138.386 72.2319ZM138.71 68.5416C138.813 69.4611 139.259 70.3069 140.01 70.7321L141.589 70.5549C142.226 69.9739 142.474 69.0502 142.371 68.1307C142.234 66.9163 141.375 66.1519 140.3 66.2726C139.242 66.3914 138.574 67.3272 138.71 68.5416Z" fill="black"/>
<defs>
<radialGradient id="paint0_radial_3033_21017" cx="0" cy="0" r="1" gradientUnits="userSpaceOnUse" gradientTransform="translate(55.6547 46.1469) rotate(55.9681) scale(76.1593 76.1591)">
<stop stop-color="white"/>
<stop offset="0.697917" stop-color="white" stop-opacity="0"/>
<stop offset="1" stop-color="white" stop-opacity="0"/>
</radialGradient>
<radialGradient id="paint1_radial_3033_21017" cx="0" cy="0" r="1" gradientUnits="userSpaceOnUse" gradientTransform="translate(58.7642 51.3684) rotate(55.968) scale(63.0284 63.0282)">
<stop stop-color="white"/>
<stop offset="0.697917" stop-color="white" stop-opacity="0"/>
<stop offset="1" stop-color="white" stop-opacity="0"/>
</radialGradient>
<clipPath id="clip0_3033_21017">
<rect width="50" height="50" fill="white" transform="translate(48.6475 51.7559)"/>
</clipPath>
</defs>
</svg>
