<svg width="33" height="33" viewBox="0 0 33 33" fill="none" xmlns="http://www.w3.org/2000/svg">
<path d="M16.5078 3.5C13.9367 3.5 11.4232 4.26244 9.28541 5.6909C7.14757 7.11935 5.48132 9.14968 4.49738 11.5251C3.51345 13.9006 3.256 16.5144 3.75761 19.0362C4.25922 21.5579 5.49735 23.8743 7.31543 25.6924C9.13351 27.5105 11.4499 28.7486 13.9716 29.2502C16.4934 29.7518 19.1073 29.4944 21.4827 28.5104C23.8581 27.5265 25.8885 25.8603 27.3169 23.7224C28.7454 21.5846 29.5078 19.0712 29.5078 16.5C29.5043 13.0533 28.1335 9.74872 25.6963 7.31151C23.2591 4.8743 19.9545 3.50353 16.5078 3.5ZM22.3878 13.5L15.8678 20.8333C15.7805 20.9325 15.6741 21.0131 15.555 21.0704C15.4359 21.1276 15.3065 21.1604 15.1745 21.1667C15.0513 21.1684 14.9289 21.1458 14.8145 21.1C14.7001 21.0542 14.5958 20.9863 14.5078 20.9L10.6945 17.4867C10.5104 17.2975 10.4074 17.044 10.4074 16.78C10.4074 16.516 10.5104 16.2625 10.6945 16.0733C10.882 15.8861 11.1362 15.7809 11.4012 15.7809C11.6662 15.7809 11.9203 15.8861 12.1078 16.0733L15.1078 18.74L20.9478 12.1667C21.1264 11.9715 21.3741 11.8539 21.6382 11.839C21.9023 11.824 22.1617 11.9129 22.3612 12.0867C22.552 12.2706 22.662 12.5228 22.667 12.7878C22.672 13.0528 22.5716 13.309 22.3878 13.5Z" fill="#BD142D"/>
<path d="M16.5078 3.5C13.9367 3.5 11.4232 4.26244 9.28541 5.6909C7.14757 7.11935 5.48132 9.14968 4.49738 11.5251C3.51345 13.9006 3.256 16.5144 3.75761 19.0362C4.25922 21.5579 5.49735 23.8743 7.31543 25.6924C9.13351 27.5105 11.4499 28.7486 13.9716 29.2502C16.4934 29.7518 19.1073 29.4944 21.4827 28.5104C23.8581 27.5265 25.8885 25.8603 27.3169 23.7224C28.7454 21.5846 29.5078 19.0712 29.5078 16.5C29.5043 13.0533 28.1335 9.74872 25.6963 7.31151C23.2591 4.8743 19.9545 3.50353 16.5078 3.5ZM22.3878 13.5L15.8678 20.8333C15.7805 20.9325 15.6741 21.0131 15.555 21.0704C15.4359 21.1276 15.3065 21.1604 15.1745 21.1667C15.0513 21.1684 14.9289 21.1458 14.8145 21.1C14.7001 21.0542 14.5958 20.9863 14.5078 20.9L10.6945 17.4867C10.5104 17.2975 10.4074 17.044 10.4074 16.78C10.4074 16.516 10.5104 16.2625 10.6945 16.0733C10.882 15.8861 11.1362 15.7809 11.4012 15.7809C11.6662 15.7809 11.9203 15.8861 12.1078 16.0733L15.1078 18.74L20.9478 12.1667C21.1264 11.9715 21.3741 11.8539 21.6382 11.839C21.9023 11.824 22.1617 11.9129 22.3612 12.0867C22.552 12.2706 22.662 12.5228 22.667 12.7878C22.672 13.0528 22.5716 13.309 22.3878 13.5Z" fill="url(#paint0_radial_806_32061)" fill-opacity="0.4"/>
<defs>
<radialGradient id="paint0_radial_806_32061" cx="0" cy="0" r="1" gradientUnits="userSpaceOnUse" gradientTransform="translate(11.8193 8.61476) rotate(55.9679) scale(19.8013 19.8013)">
<stop stop-color="white"/>
<stop offset="0.697917" stop-color="white" stop-opacity="0"/>
<stop offset="1" stop-color="white" stop-opacity="0"/>
</radialGradient>
</defs>
</svg>
