<svg width="101" height="100" viewBox="0 0 101 100" fill="none" xmlns="http://www.w3.org/2000/svg">
<path d="M91.997 49.997C91.997 51.8199 91.997 53.3823 91.7366 55.2052C91.4762 56.7676 91.2158 58.33 90.9554 59.8925C88.8721 68.7463 83.9244 76.2981 77.1538 82.027C76.8934 82.2874 76.3726 82.5478 76.1122 82.8082C73.7686 84.6311 71.1645 86.1935 68.3 87.4955C67.7792 87.7559 67.2584 88.0163 66.7376 88.2768C64.3939 89.3184 62.3107 90.0996 59.7066 90.6204C58.4046 90.8808 57.363 91.1412 56.0609 91.4016C53.9777 91.662 52.1548 91.662 50.332 91.662C27.4162 91.662 8.66699 72.9128 8.66699 49.997C8.66699 27.0813 27.4162 8.33203 50.332 8.33203C73.2477 8.33203 91.997 27.0813 91.997 49.997Z" fill="#BD142D"/>
<path d="M91.997 49.997C91.997 51.8199 91.997 53.3823 91.7366 55.2052C91.4762 56.7676 91.2158 58.33 90.9554 59.8925C88.8721 68.7463 83.9244 76.2981 77.1538 82.027C76.8934 82.2874 76.3726 82.5478 76.1122 82.8082C73.7686 84.6311 71.1645 86.1935 68.3 87.4955C67.7792 87.7559 67.2584 88.0163 66.7376 88.2768C64.3939 89.3184 62.3107 90.0996 59.7066 90.6204C58.4046 90.8808 57.363 91.1412 56.0609 91.4016C53.9777 91.662 52.1548 91.662 50.332 91.662C27.4162 91.662 8.66699 72.9128 8.66699 49.997C8.66699 27.0813 27.4162 8.33203 50.332 8.33203C73.2477 8.33203 91.997 27.0813 91.997 49.997Z" fill="url(#paint0_radial_806_29834)" fill-opacity="0.4"/>
<path d="M91.7362 55.21C91.4758 56.7724 91.2154 58.3348 90.955 59.8973C88.8717 68.7511 83.924 76.3029 77.1534 82.0318C76.893 82.2922 76.3722 82.5526 76.1118 82.813C73.7682 84.6359 71.1641 86.1983 68.2996 87.5003C67.7788 87.7607 67.258 88.0211 66.7372 88.2816C64.3935 89.3232 62.3103 90.1044 59.7062 90.6252C58.4042 90.8856 57.3626 91.146 56.0605 91.4064L32.624 67.9699C31.0615 66.4074 31.0615 63.8034 32.624 61.9805L44.6027 50.0018L32.624 38.0231C31.0615 36.4607 31.0615 33.8566 32.624 32.0338C34.1864 30.4714 36.7905 30.4714 38.6133 32.0338L39.1341 32.5546L40.1758 33.5962L43.561 36.9815L44.6027 38.0231L47.9879 41.4084L49.0296 42.45L50.8524 44.2729L62.3103 31.7734C63.8727 30.211 66.4768 30.211 68.2996 31.7734L91.7362 55.21Z" fill="#930A1F"/>
<path d="M68.3006 61.7123C69.863 63.2747 69.863 65.8788 68.3006 67.7016C67.5194 68.4829 66.4778 69.0037 65.4361 69.0037C64.3945 69.0037 63.3529 68.4829 62.5717 67.7016L50.3326 55.723L38.3539 67.7016C37.5727 68.4829 36.531 69.0037 35.4894 69.0037C34.4478 69.0037 33.4062 68.4829 32.625 67.7016C31.0625 66.1392 31.0625 63.5351 32.625 61.7123L44.6036 49.7336L32.625 37.7549C31.0625 36.1925 31.0625 33.5884 32.625 31.7656C34.1874 30.2031 36.7915 30.2031 38.6143 31.7656L50.593 43.7443L62.3113 31.7656C63.8737 30.2031 66.4778 30.2031 68.3006 31.7656C69.863 33.328 69.863 35.9321 68.3006 37.7549L56.3219 49.7336L68.3006 61.7123Z" fill="white"/>
<defs>
<radialGradient id="paint0_radial_806_29834" cx="0" cy="0" r="1" gradientUnits="userSpaceOnUse" gradientTransform="translate(35.3053 24.7248) rotate(55.9679) scale(63.4633 63.4633)">
<stop stop-color="white"/>
<stop offset="0.697917" stop-color="white" stop-opacity="0"/>
<stop offset="1" stop-color="white" stop-opacity="0"/>
</radialGradient>
</defs>
</svg>
