<svg width="52" height="53" viewBox="0 0 52 53" fill="none" xmlns="http://www.w3.org/2000/svg">
<rect y="0.5" width="52" height="52" rx="10.4" fill="white"/>
<g clip-path="url(#clip0_806_31572)">
<path d="M32.0703 27.418C28.7382 27.418 26.0273 30.1288 26.0273 33.4609C26.0273 36.7931 28.7382 39.5039 32.0703 39.5039C35.4304 39.5039 38.1641 36.7931 38.1641 33.4609C38.1641 30.1288 35.4304 27.418 32.0703 27.418ZM33.925 32.7298L31.8937 35.1673C31.7481 35.3421 31.5331 35.4414 31.3086 35.4414C31.2794 35.4414 31.2501 35.4397 31.2207 35.4363C30.9654 35.4067 30.7422 35.2503 30.6273 35.0203L29.8148 33.3953C29.6266 33.0191 29.7792 32.5615 30.1554 32.3734C30.5316 32.1852 30.9892 32.3378 31.1774 32.714L31.469 33.2973L32.7546 31.7545C33.024 31.4314 33.5043 31.3878 33.8274 31.657C34.1507 31.9263 34.1943 32.4066 33.925 32.7298Z" fill="#BD142D"/>
<path d="M32.0703 27.418C28.7382 27.418 26.0273 30.1288 26.0273 33.4609C26.0273 36.7931 28.7382 39.5039 32.0703 39.5039C35.4304 39.5039 38.1641 36.7931 38.1641 33.4609C38.1641 30.1288 35.4304 27.418 32.0703 27.418ZM33.925 32.7298L31.8937 35.1673C31.7481 35.3421 31.5331 35.4414 31.3086 35.4414C31.2794 35.4414 31.2501 35.4397 31.2207 35.4363C30.9654 35.4067 30.7422 35.2503 30.6273 35.0203L29.8148 33.3953C29.6266 33.0191 29.7792 32.5615 30.1554 32.3734C30.5316 32.1852 30.9892 32.3378 31.1774 32.714L31.469 33.2973L32.7546 31.7545C33.024 31.4314 33.5043 31.3878 33.8274 31.657C34.1507 31.9263 34.1943 32.4066 33.925 32.7298Z" fill="url(#paint0_radial_806_31572)" fill-opacity="0.4"/>
<path d="M31.742 17.8433L28.6514 14.6472C28.6499 14.6457 28.6484 14.6441 28.6469 14.6426C27.9353 13.9189 26.9451 13.5039 25.9304 13.5039H16.125C14.865 13.5039 13.8398 14.529 13.8398 15.7891V35.543C13.8398 36.803 14.865 37.8281 16.125 37.8281H25.8948C25.0192 36.5935 24.5039 35.0863 24.5039 33.4609C24.5039 29.2888 27.8982 25.8945 32.0703 25.8945C32.3274 25.8945 32.5814 25.9074 32.832 25.9323V20.5107C32.832 19.5068 32.4449 18.5597 31.742 17.8433ZM21.9141 30.5156H17.8516C17.4309 30.5156 17.0898 30.1746 17.0898 29.7539C17.0898 29.3332 17.4309 28.9922 17.8516 28.9922H21.9141C22.3347 28.9922 22.6758 29.3332 22.6758 29.7539C22.6758 30.1746 22.3347 30.5156 21.9141 30.5156ZM21.9141 26.4531H17.8516C17.4309 26.4531 17.0898 26.1121 17.0898 25.6914C17.0898 25.2707 17.4309 24.9297 17.8516 24.9297H21.9141C22.3347 24.9297 22.6758 25.2707 22.6758 25.6914C22.6758 26.1121 22.3347 26.4531 21.9141 26.4531ZM21.9141 22.3906H17.8516C17.4309 22.3906 17.0898 22.0496 17.0898 21.6289C17.0898 21.2082 17.4309 20.8672 17.8516 20.8672H21.9141C22.3347 20.8672 22.6758 21.2082 22.6758 21.6289C22.6758 22.0496 22.3347 22.3906 21.9141 22.3906ZM26.7891 26.4531H25.9766C25.5559 26.4531 25.2148 26.1121 25.2148 25.6914C25.2148 25.2707 25.5559 24.9297 25.9766 24.9297H26.7891C27.2097 24.9297 27.5508 25.2707 27.5508 25.6914C27.5508 26.1121 27.2097 26.4531 26.7891 26.4531ZM26.7891 22.3906H25.9766C25.5559 22.3906 25.2148 22.0496 25.2148 21.6289C25.2148 21.2082 25.5559 20.8672 25.9766 20.8672H26.7891C27.2097 20.8672 27.5508 21.2082 27.5508 21.6289C27.5508 22.0496 27.2097 22.3906 26.7891 22.3906Z" fill="#BD142D"/>
<path d="M31.742 17.8433L28.6514 14.6472C28.6499 14.6457 28.6484 14.6441 28.6469 14.6426C27.9353 13.9189 26.9451 13.5039 25.9304 13.5039H16.125C14.865 13.5039 13.8398 14.529 13.8398 15.7891V35.543C13.8398 36.803 14.865 37.8281 16.125 37.8281H25.8948C25.0192 36.5935 24.5039 35.0863 24.5039 33.4609C24.5039 29.2888 27.8982 25.8945 32.0703 25.8945C32.3274 25.8945 32.5814 25.9074 32.832 25.9323V20.5107C32.832 19.5068 32.4449 18.5597 31.742 17.8433ZM21.9141 30.5156H17.8516C17.4309 30.5156 17.0898 30.1746 17.0898 29.7539C17.0898 29.3332 17.4309 28.9922 17.8516 28.9922H21.9141C22.3347 28.9922 22.6758 29.3332 22.6758 29.7539C22.6758 30.1746 22.3347 30.5156 21.9141 30.5156ZM21.9141 26.4531H17.8516C17.4309 26.4531 17.0898 26.1121 17.0898 25.6914C17.0898 25.2707 17.4309 24.9297 17.8516 24.9297H21.9141C22.3347 24.9297 22.6758 25.2707 22.6758 25.6914C22.6758 26.1121 22.3347 26.4531 21.9141 26.4531ZM21.9141 22.3906H17.8516C17.4309 22.3906 17.0898 22.0496 17.0898 21.6289C17.0898 21.2082 17.4309 20.8672 17.8516 20.8672H21.9141C22.3347 20.8672 22.6758 21.2082 22.6758 21.6289C22.6758 22.0496 22.3347 22.3906 21.9141 22.3906ZM26.7891 26.4531H25.9766C25.5559 26.4531 25.2148 26.1121 25.2148 25.6914C25.2148 25.2707 25.5559 24.9297 25.9766 24.9297H26.7891C27.2097 24.9297 27.5508 25.2707 27.5508 25.6914C27.5508 26.1121 27.2097 26.4531 26.7891 26.4531ZM26.7891 22.3906H25.9766C25.5559 22.3906 25.2148 22.0496 25.2148 21.6289C25.2148 21.2082 25.5559 20.8672 25.9766 20.8672H26.7891C27.2097 20.8672 27.5508 21.2082 27.5508 21.6289C27.5508 22.0496 27.2097 22.3906 26.7891 22.3906Z" fill="url(#paint1_radial_806_31572)" fill-opacity="0.4"/>
</g>
<defs>
<radialGradient id="paint0_radial_806_31572" cx="0" cy="0" r="1" gradientUnits="userSpaceOnUse" gradientTransform="translate(29.9071 29.7955) rotate(55.8564) scale(9.21666 9.23103)">
<stop stop-color="white"/>
<stop offset="0.697917" stop-color="white" stop-opacity="0"/>
<stop offset="1" stop-color="white" stop-opacity="0"/>
</radialGradient>
<radialGradient id="paint1_radial_806_31572" cx="0" cy="0" r="1" gradientUnits="userSpaceOnUse" gradientTransform="translate(19.9111 18.289) rotate(62.1978) scale(17.3557 15.4389)">
<stop stop-color="white"/>
<stop offset="0.697917" stop-color="white" stop-opacity="0"/>
<stop offset="1" stop-color="white" stop-opacity="0"/>
</radialGradient>
<clipPath id="clip0_806_31572">
<rect width="26" height="26" fill="white" transform="translate(13 13.5)"/>
</clipPath>
</defs>
</svg>
