<svg width="53" height="53" viewBox="0 0 53 53" fill="none" xmlns="http://www.w3.org/2000/svg">
<rect x="0.507812" y="0.5" width="52" height="52" rx="10.4" fill="white"/>
<g clip-path="url(#clip0_806_32051)">
<path d="M32.5781 27.418C29.246 27.418 26.5352 30.1288 26.5352 33.4609C26.5352 36.7931 29.246 39.5039 32.5781 39.5039C35.9382 39.5039 38.6719 36.7931 38.6719 33.4609C38.6719 30.1288 35.9382 27.418 32.5781 27.418ZM34.4328 32.7298L32.4016 35.1673C32.2559 35.3421 32.041 35.4414 31.8165 35.4414C31.7873 35.4414 31.758 35.4397 31.7286 35.4363C31.4732 35.4067 31.25 35.2503 31.1351 35.0203L30.3226 33.3953C30.1344 33.0191 30.287 32.5615 30.6632 32.3734C31.0395 32.1852 31.497 32.3378 31.6852 32.714L31.9768 33.2973L33.2625 31.7545C33.5318 31.4314 34.0121 31.3878 34.3353 31.657C34.6585 31.9263 34.7022 32.4066 34.4328 32.7298Z" fill="#333333"/>
<path d="M32.2498 17.8433L29.1592 14.6472C29.1577 14.6457 29.1562 14.6441 29.1547 14.6426C28.4431 13.9189 27.4529 13.5039 26.4382 13.5039H16.6328C15.3728 13.5039 14.3477 14.529 14.3477 15.7891V35.543C14.3477 36.803 15.3728 37.8281 16.6328 37.8281H26.4026C25.527 36.5935 25.0117 35.0863 25.0117 33.4609C25.0117 29.2888 28.406 25.8945 32.5781 25.8945C32.8352 25.8945 33.0892 25.9074 33.3398 25.9323V20.5107C33.3398 19.5068 32.9527 18.5597 32.2498 17.8433ZM22.4219 30.5156H18.3594C17.9387 30.5156 17.5977 30.1746 17.5977 29.7539C17.5977 29.3332 17.9387 28.9922 18.3594 28.9922H22.4219C22.8425 28.9922 23.1836 29.3332 23.1836 29.7539C23.1836 30.1746 22.8425 30.5156 22.4219 30.5156ZM22.4219 26.4531H18.3594C17.9387 26.4531 17.5977 26.1121 17.5977 25.6914C17.5977 25.2707 17.9387 24.9297 18.3594 24.9297H22.4219C22.8425 24.9297 23.1836 25.2707 23.1836 25.6914C23.1836 26.1121 22.8425 26.4531 22.4219 26.4531ZM22.4219 22.3906H18.3594C17.9387 22.3906 17.5977 22.0496 17.5977 21.6289C17.5977 21.2082 17.9387 20.8672 18.3594 20.8672H22.4219C22.8425 20.8672 23.1836 21.2082 23.1836 21.6289C23.1836 22.0496 22.8425 22.3906 22.4219 22.3906ZM27.2969 26.4531H26.4844C26.0637 26.4531 25.7227 26.1121 25.7227 25.6914C25.7227 25.2707 26.0637 24.9297 26.4844 24.9297H27.2969C27.7175 24.9297 28.0586 25.2707 28.0586 25.6914C28.0586 26.1121 27.7175 26.4531 27.2969 26.4531ZM27.2969 22.3906H26.4844C26.0637 22.3906 25.7227 22.0496 25.7227 21.6289C25.7227 21.2082 26.0637 20.8672 26.4844 20.8672H27.2969C27.7175 20.8672 28.0586 21.2082 28.0586 21.6289C28.0586 22.0496 27.7175 22.3906 27.2969 22.3906Z" fill="#333333"/>
</g>
<defs>
<clipPath id="clip0_806_32051">
<rect width="26" height="26" fill="white" transform="translate(13.5078 13.5)"/>
</clipPath>
</defs>
</svg>
