<svg width="31" height="31" viewBox="0 0 31 31" fill="none" xmlns="http://www.w3.org/2000/svg">
<path d="M14.9984 2.02579H4.99837C3.15742 2.02579 1.66504 3.51817 1.66504 5.35912V25.3591C1.66504 27.2001 3.15742 28.6925 4.99837 28.6925H24.9984C26.8393 28.6925 28.3317 27.2001 28.3317 25.3591V15.3591M25.6887 9.38279L27.4983 7.5732C28.8 6.27145 28.8 4.16091 27.4983 2.85917C26.1965 1.55742 24.086 1.55743 22.7842 2.85919L20.9747 4.66875M25.6887 9.38279L15.6283 19.4434C15.163 19.9087 14.5703 20.2259 13.925 20.355L9.02208 21.3356L10.0027 16.4326C10.1317 15.7874 10.4489 15.1947 10.9142 14.7294L20.9747 4.66875M25.6887 9.38279L20.9747 4.66875" stroke="#BD142D" stroke-width="3.33333" stroke-linecap="round" stroke-linejoin="round"/>
<path d="M14.9984 2.02579H4.99837C3.15742 2.02579 1.66504 3.51817 1.66504 5.35912V25.3591C1.66504 27.2001 3.15742 28.6925 4.99837 28.6925H24.9984C26.8393 28.6925 28.3317 27.2001 28.3317 25.3591V15.3591M25.6887 9.38279L27.4983 7.5732C28.8 6.27145 28.8 4.16091 27.4983 2.85917C26.1965 1.55742 24.086 1.55743 22.7842 2.85919L20.9747 4.66875M25.6887 9.38279L15.6283 19.4434C15.163 19.9087 14.5703 20.2259 13.925 20.355L9.02208 21.3356L10.0027 16.4326C10.1317 15.7874 10.4489 15.1947 10.9142 14.7294L20.9747 4.66875M25.6887 9.38279L20.9747 4.66875" stroke="url(#paint0_radial_472_75000)" stroke-opacity="0.4" stroke-width="3.33333" stroke-linecap="round" stroke-linejoin="round"/>
<defs>
<radialGradient id="paint0_radial_472_75000" cx="0" cy="0" r="1" gradientUnits="userSpaceOnUse" gradientTransform="translate(10.2353 7.15684) rotate(55.9679) scale(20.4179 20.4179)">
<stop stop-color="white"/>
<stop offset="0.697917" stop-color="white" stop-opacity="0"/>
<stop offset="1" stop-color="white" stop-opacity="0"/>
</radialGradient>
</defs>
</svg>
