<svg width="31" height="30" viewBox="0 0 31 30" fill="none" xmlns="http://www.w3.org/2000/svg">
<g clip-path="url(#clip0_472_72415)">
<path d="M26.9034 14.6924C26.895 14.7106 26.8865 14.7288 26.8779 14.7469C26.5441 15.4574 25.476 15.1753 25.5418 14.3931C25.6621 12.9634 25.4852 11.4857 24.9701 10.0468C23.2981 5.37602 17.6843 0.0577612 12.7131 4.63441e-05C12.1823 -0.006106 11.8775 0.601628 12.1908 1.03018C12.6085 1.60147 12.9477 2.24548 13.1879 2.95188C13.9762 5.27073 13.4909 7.73952 12.1028 9.57374C11.5242 10.3384 10.2954 9.96075 10.2752 9.00204C10.2751 8.99512 10.2749 8.98815 10.2748 8.98118C10.2667 8.47294 10.3501 7.98497 10.51 7.53303C10.5806 7.33376 10.3958 7.13764 10.1934 7.19864C7.37525 8.04807 5.2323 12.1951 5.2323 15.1531C5.2323 15.3691 5.24432 15.5824 5.26664 15.7925C5.26939 16.1853 5.33578 16.5849 5.47459 16.9779C5.47957 16.9921 5.48461 17.0061 5.48965 17.0202C5.53289 17.141 5.57883 17.2601 5.62605 17.3782C4.95861 16.5623 4.39084 15.6616 3.94178 14.6945C3.73312 14.2452 3.07271 14.3344 2.99162 14.8232C2.84713 15.6935 2.77148 16.5424 2.77148 17.3494C2.77148 24.3361 8.43533 30 15.4221 30C22.4088 30 28.0726 24.3361 28.0726 17.3494C28.0726 16.5424 27.997 15.6934 27.8524 14.8229C27.7715 14.3354 27.1115 14.244 26.9034 14.6924Z" fill="url(#paint0_linear_472_72415)"/>
<path d="M5.2323 15.154C5.2323 15.3701 5.24432 15.5833 5.26664 15.7934C5.26939 16.1863 5.33578 16.5858 5.47459 16.9789C5.47957 16.993 5.48461 17.0071 5.48965 17.0211C5.53289 17.1419 5.57883 17.261 5.62605 17.3791C4.95861 16.5632 4.39084 15.6625 3.94178 14.6954C3.73312 14.2461 3.07271 14.3353 2.99162 14.824C2.84713 15.6944 2.77148 16.5433 2.77148 17.3503C2.77143 24.3371 8.43527 30.0009 15.422 30.0009C22.4087 30.0009 28.0726 24.3371 28.0726 17.3504C28.0726 16.5433 27.9969 15.6943 27.8524 14.8239C27.7714 14.3363 27.1114 14.245 26.9033 14.6933C26.8949 14.7115 26.8864 14.7297 26.8778 14.7479C26.544 15.4583 25.4759 15.1762 25.5417 14.394C25.5696 14.0631 25.5807 13.7295 25.5762 13.3945H5.44857C5.3076 14.0031 5.2323 14.5995 5.2323 15.154Z" fill="url(#paint1_linear_472_72415)"/>
<path d="M5.2323 15.154C5.2323 15.3701 5.24432 15.5833 5.26664 15.7934C5.26939 16.1863 5.33578 16.5858 5.47459 16.9789C5.47957 16.993 5.48461 17.0071 5.48965 17.0211C5.53289 17.1419 5.57883 17.261 5.62605 17.3791C4.95861 16.5632 4.39084 15.6625 3.94178 14.6954C3.73312 14.2461 3.07271 14.3353 2.99162 14.824C2.84713 15.6944 2.77148 16.5433 2.77148 17.3503C2.77143 24.3371 8.43527 30.0009 15.422 30.0009C22.4087 30.0009 28.0726 24.3371 28.0726 17.3504C28.0726 16.5433 27.9969 15.6943 27.8524 14.8239C27.7714 14.3363 27.1114 14.245 26.9033 14.6933C26.8949 14.7115 26.8864 14.7297 26.8778 14.7479C26.544 15.4583 25.4759 15.1762 25.5417 14.394C25.5696 14.0631 25.5807 13.7295 25.5762 13.3945H5.44857C5.3076 14.0031 5.2323 14.5995 5.2323 15.154Z" fill="url(#paint2_linear_472_72415)"/>
<path d="M28.0727 17.3494C28.0727 16.5424 27.997 15.6934 27.8525 14.8229C27.7715 14.3354 27.1115 14.244 26.9034 14.6924C26.895 14.7106 26.8865 14.7288 26.8779 14.7469C26.5441 15.4574 25.476 15.1753 25.5418 14.3931C25.6621 12.9634 25.4852 11.4857 24.9701 10.0468C23.2981 5.37602 17.6843 0.0577612 12.7132 4.63441e-05C12.1823 -0.006106 11.8775 0.601628 12.1908 1.03024C12.6085 1.60153 12.9477 2.24553 13.1879 2.95194C13.9762 5.27079 13.491 7.73958 12.1029 9.5738C11.8147 9.95454 11.3654 10.0519 10.9844 9.9355V29.1989C12.3653 29.7163 13.8605 30 15.4221 30C22.4088 30 28.0727 24.3361 28.0727 17.3494Z" fill="url(#paint3_linear_472_72415)"/>
<path d="M27.108 22.2004L18.8841 13.9766L10.4902 26.0442L14.4059 29.9599C14.741 29.9865 15.0795 30.0005 15.4214 30.0005C20.6896 30.0005 25.2051 26.7799 27.108 22.2004Z" fill="url(#paint4_linear_472_72415)"/>
<path d="M21.832 19.5061C21.8273 19.5163 21.8226 19.5264 21.8178 19.5366C21.6315 19.9331 21.0353 19.7757 21.072 19.339C21.139 18.541 21.0404 17.7162 20.7528 16.9129C19.8195 14.3057 16.6858 11.3369 13.9109 11.3047C13.6145 11.3013 13.4444 11.6405 13.6193 11.8798C13.8524 12.1987 14.0418 12.5582 14.1759 12.9525C14.6159 14.2469 14.345 15.625 13.5702 16.6489C13.2472 17.0757 12.5613 16.8649 12.55 16.3297C12.55 16.3258 12.5498 16.322 12.5498 16.3181C12.5452 16.0343 12.5918 15.7619 12.6811 15.5097C12.7205 15.3985 12.6173 15.289 12.5044 15.323C10.9313 15.7972 9.73506 18.1121 9.73506 19.7632C9.73506 19.8838 9.7418 20.0028 9.75422 20.1201C9.75574 20.3395 9.79283 20.5625 9.87029 20.7818C9.87311 20.7897 9.87586 20.7976 9.87867 20.8055C9.90281 20.8729 9.92848 20.9393 9.95479 21.0053C9.58219 20.5498 9.26531 20.047 9.01459 19.5073C8.89811 19.2564 8.52949 19.3063 8.4842 19.579C8.40352 20.0649 8.36133 20.5387 8.36133 20.9892C8.36133 24.8893 11.5229 28.0509 15.423 28.0509C19.323 28.0509 22.4846 24.8893 22.4846 20.9892C22.4846 20.5387 22.4424 20.0648 22.3617 19.5789C22.3166 19.3068 21.9482 19.2558 21.832 19.5061Z" fill="url(#paint5_linear_472_72415)"/>
<path d="M22.4861 20.9893C22.4861 20.5387 22.4438 20.0648 22.3632 19.579C22.318 19.3068 21.9496 19.2558 21.8334 19.5061C21.8287 19.5163 21.824 19.5264 21.8192 19.5366C21.6329 19.9331 21.0367 19.7757 21.0733 19.339C21.1404 18.541 21.0418 17.7162 20.7542 16.9129C19.8208 14.3057 16.6872 11.3369 13.9122 11.3047C13.6159 11.3013 13.4458 11.6405 13.6207 11.8798C13.8538 12.1987 14.0432 12.5582 14.1773 12.9525C14.6173 14.2469 14.3464 15.625 13.5716 16.6489C13.4107 16.8614 13.16 16.9158 12.9473 16.8508V27.6037C13.7181 27.8925 14.5527 28.0509 15.4244 28.0509C19.3245 28.0509 22.4861 24.8893 22.4861 20.9893Z" fill="url(#paint6_linear_472_72415)"/>
<path d="M9.73506 19.7635C9.73506 19.884 9.7418 20.003 9.75422 20.1204C9.75574 20.3397 9.79283 20.5627 9.87029 20.7821C9.87311 20.7899 9.87586 20.7978 9.87867 20.8057C9.90281 20.8731 9.92848 20.9395 9.95479 21.0055C9.58219 20.55 9.26531 20.0472 9.01459 19.5075C8.89811 19.2566 8.52949 19.3065 8.4842 19.5792C8.40352 20.0651 8.36133 20.5389 8.36133 20.9894C8.36133 24.8895 11.5229 28.0511 15.423 28.0511C19.323 28.0511 22.4846 24.8895 22.4846 20.9894C22.4846 20.5389 22.4424 20.065 22.3617 19.5791C22.3165 19.307 21.9481 19.256 21.832 19.5062C21.8272 19.5164 21.8225 19.5266 21.8177 19.5367C21.6314 19.9333 21.0352 19.7758 21.0719 19.3392C21.0874 19.1544 21.0936 18.9683 21.0911 18.7812H9.85582C9.77713 19.121 9.73506 19.4539 9.73506 19.7635Z" fill="url(#paint7_linear_472_72415)"/>
<path d="M9.73506 19.7635C9.73506 19.884 9.7418 20.003 9.75422 20.1204C9.75574 20.3397 9.79283 20.5627 9.87029 20.7821C9.87311 20.7899 9.87586 20.7978 9.87867 20.8057C9.90281 20.8731 9.92848 20.9395 9.95479 21.0055C9.58219 20.55 9.26531 20.0472 9.01459 19.5075C8.89811 19.2566 8.52949 19.3065 8.4842 19.5792C8.40352 20.0651 8.36133 20.5389 8.36133 20.9894C8.36133 24.8895 11.5229 28.0511 15.423 28.0511C19.323 28.0511 22.4846 24.8895 22.4846 20.9894C22.4846 20.5389 22.4424 20.065 22.3617 19.5791C22.3165 19.307 21.9481 19.256 21.832 19.5062C21.8272 19.5164 21.8225 19.5266 21.8177 19.5367C21.6314 19.9333 21.0352 19.7758 21.0719 19.3392C21.0874 19.1544 21.0936 18.9683 21.0911 18.7812H9.85582C9.77713 19.121 9.73506 19.4539 9.73506 19.7635Z" fill="url(#paint8_linear_472_72415)"/>
<path d="M4.12394 10.5069C5.04954 10.6968 5.78712 9.74484 5.41763 8.87519C5.14148 8.22527 5.18483 7.45382 5.60138 6.81913C5.60208 6.81808 5.60278 6.81703 5.60343 6.81597C5.70872 6.65613 5.62464 6.44097 5.4379 6.3989C4.57505 6.20454 3.64411 6.54884 3.13013 7.33195C2.46778 8.34117 2.74898 9.69626 3.75819 10.3587C3.87122 10.4327 3.99456 10.4804 4.12394 10.5069Z" fill="url(#paint9_linear_472_72415)"/>
<path d="M4.12394 10.5069C5.04954 10.6968 5.78712 9.74484 5.41763 8.87519C5.14148 8.22527 5.18483 7.45382 5.60138 6.81913C5.60208 6.81808 5.60278 6.81703 5.60343 6.81597C5.70872 6.65613 5.62464 6.44097 5.4379 6.3989C4.57505 6.20454 3.64411 6.54884 3.13013 7.33195C2.46778 8.34117 2.74898 9.69626 3.75819 10.3587C3.87122 10.4327 3.99456 10.4804 4.12394 10.5069Z" fill="url(#paint10_linear_472_72415)"/>
<path d="M4.12394 10.5069C5.04954 10.6968 5.78712 9.74484 5.41763 8.87519C5.14148 8.22527 5.18483 7.45382 5.60138 6.81913C5.60208 6.81808 5.60278 6.81703 5.60343 6.81597C5.70872 6.65613 5.62464 6.44097 5.4379 6.3989C4.57505 6.20454 3.64411 6.54884 3.13013 7.33195C2.46778 8.34117 2.74898 9.69626 3.75819 10.3587C3.87122 10.4327 3.99456 10.4804 4.12394 10.5069Z" fill="url(#paint11_linear_472_72415)"/>
</g>
<defs>
<linearGradient id="paint0_linear_472_72415" x1="8.86752" y1="10.3463" x2="21.2411" y2="22.7199" gradientUnits="userSpaceOnUse">
<stop stop-color="#FFA1AE"/>
<stop offset="1" stop-color="#FF4565"/>
</linearGradient>
<linearGradient id="paint1_linear_472_72415" x1="18.2408" y1="21.8505" x2="22.6266" y2="27.1553" gradientUnits="userSpaceOnUse">
<stop stop-color="#FE0364" stop-opacity="0"/>
<stop offset="0.2343" stop-color="#F90362" stop-opacity="0.234"/>
<stop offset="0.5173" stop-color="#EA035B" stop-opacity="0.517"/>
<stop offset="0.8243" stop-color="#D20250" stop-opacity="0.824"/>
<stop offset="1" stop-color="#C00148"/>
</linearGradient>
<linearGradient id="paint2_linear_472_72415" x1="15.0246" y1="21.6374" x2="14.231" y2="30.2419" gradientUnits="userSpaceOnUse">
<stop stop-color="#FE0364" stop-opacity="0"/>
<stop offset="0.2343" stop-color="#F90362" stop-opacity="0.234"/>
<stop offset="0.5173" stop-color="#EA035B" stop-opacity="0.517"/>
<stop offset="0.8243" stop-color="#D20250" stop-opacity="0.824"/>
<stop offset="1" stop-color="#C00148"/>
</linearGradient>
<linearGradient id="paint3_linear_472_72415" x1="18.5269" y1="13.558" x2="26.3796" y2="9.96579" gradientUnits="userSpaceOnUse">
<stop stop-color="#FE0364" stop-opacity="0"/>
<stop offset="0.2343" stop-color="#F90362" stop-opacity="0.234"/>
<stop offset="0.5173" stop-color="#EA035B" stop-opacity="0.517"/>
<stop offset="0.8243" stop-color="#D20250" stop-opacity="0.824"/>
<stop offset="1" stop-color="#C00148"/>
</linearGradient>
<linearGradient id="paint4_linear_472_72415" x1="24.9298" y1="28.0918" x2="15.3228" y2="20.9909" gradientUnits="userSpaceOnUse">
<stop stop-color="#FE0364" stop-opacity="0"/>
<stop offset="0.2343" stop-color="#F90362" stop-opacity="0.234"/>
<stop offset="0.5173" stop-color="#EA035B" stop-opacity="0.517"/>
<stop offset="0.8243" stop-color="#D20250" stop-opacity="0.824"/>
<stop offset="1" stop-color="#C00148"/>
</linearGradient>
<linearGradient id="paint5_linear_472_72415" x1="12.5229" y1="17.5084" x2="18.2036" y2="24.108" gradientUnits="userSpaceOnUse">
<stop stop-color="#FEF0AE"/>
<stop offset="1" stop-color="#FAC600"/>
</linearGradient>
<linearGradient id="paint6_linear_472_72415" x1="18.6418" y1="18.4928" x2="20.5632" y2="17.8244" gradientUnits="userSpaceOnUse">
<stop stop-color="#FE9738" stop-opacity="0"/>
<stop offset="1" stop-color="#FE9738"/>
</linearGradient>
<linearGradient id="paint7_linear_472_72415" x1="13.4622" y1="24.5536" x2="12.0421" y2="26.8648" gradientUnits="userSpaceOnUse">
<stop stop-color="#FE9738" stop-opacity="0"/>
<stop offset="1" stop-color="#FE9738"/>
</linearGradient>
<linearGradient id="paint8_linear_472_72415" x1="17.1144" y1="24.7869" x2="18.2283" y2="27.1538" gradientUnits="userSpaceOnUse">
<stop stop-color="#FE9738" stop-opacity="0"/>
<stop offset="1" stop-color="#FE9738"/>
</linearGradient>
<linearGradient id="paint9_linear_472_72415" x1="3.3986" y1="7.36271" x2="5.98833" y2="9.53478" gradientUnits="userSpaceOnUse">
<stop stop-color="#FFA1AE"/>
<stop offset="1" stop-color="#FF4565"/>
</linearGradient>
<linearGradient id="paint10_linear_472_72415" x1="4.08849" y1="8.98857" x2="3.50366" y2="10.5132" gradientUnits="userSpaceOnUse">
<stop stop-color="#FE0364" stop-opacity="0"/>
<stop offset="0.2343" stop-color="#F90362" stop-opacity="0.234"/>
<stop offset="0.5173" stop-color="#EA035B" stop-opacity="0.517"/>
<stop offset="0.8243" stop-color="#D20250" stop-opacity="0.824"/>
<stop offset="1" stop-color="#C00148"/>
</linearGradient>
<linearGradient id="paint11_linear_472_72415" x1="4.07349" y1="8.2449" x2="5.97398" y2="8.8088" gradientUnits="userSpaceOnUse">
<stop stop-color="#FE0364" stop-opacity="0"/>
<stop offset="0.2343" stop-color="#F90362" stop-opacity="0.234"/>
<stop offset="0.5173" stop-color="#EA035B" stop-opacity="0.517"/>
<stop offset="0.8243" stop-color="#D20250" stop-opacity="0.824"/>
<stop offset="1" stop-color="#C00148"/>
</linearGradient>
<clipPath id="clip0_472_72415">
<rect width="30" height="30" fill="white" transform="translate(0.421875)"/>
</clipPath>
</defs>
</svg>
