<svg width="89" height="90" viewBox="0 0 89 90" fill="none" xmlns="http://www.w3.org/2000/svg">
<rect y="0.359375" width="89" height="89" rx="12" fill="#EEF5FF"/>
<g clip-path="url(#clip0_472_75052)">
<path d="M67.4631 44.248C67.4462 44.2845 67.4293 44.3208 67.4121 44.3571C66.7444 45.778 64.6083 45.2139 64.7399 43.6494C64.9804 40.7902 64.6267 37.8347 63.5965 34.9568C60.2525 25.6153 49.0248 14.9788 39.0825 14.8634C38.0208 14.8511 37.4112 16.0665 38.0378 16.9236C38.8732 18.0662 39.5516 19.3542 40.032 20.767C41.6086 25.4047 40.6381 30.3423 37.8619 34.0108C36.7046 35.5401 34.2471 34.7848 34.2067 32.8674C34.2064 32.8535 34.2061 32.8396 34.2059 32.8256C34.1896 31.8092 34.3564 30.8332 34.6763 29.9293C34.8174 29.5308 34.4479 29.1386 34.0431 29.2606C28.4068 30.9594 24.1209 39.2535 24.1209 45.1695C24.1209 45.6015 24.1449 46.028 24.1895 46.4482C24.195 47.234 24.3278 48.0332 24.6054 48.8192C24.6154 48.8474 24.6255 48.8755 24.6355 48.9038C24.722 49.1453 24.8139 49.3834 24.9084 49.6197C23.5735 47.9878 22.4379 46.1864 21.5398 44.2524C21.1225 43.3538 19.8017 43.5321 19.6395 44.5096C19.3505 46.2503 19.1992 47.9481 19.1992 49.5621C19.1992 63.5356 30.5269 74.8633 44.5003 74.8633C58.4738 74.8633 69.8015 63.5356 69.8015 49.5621C69.8015 47.948 69.6502 46.2501 69.3611 44.5091C69.1993 43.534 67.8793 43.3513 67.4631 44.248Z" fill="url(#paint0_linear_472_75052)"/>
<path d="M24.1209 45.1714C24.1209 45.6034 24.1449 46.0299 24.1895 46.4501C24.195 47.2359 24.3278 48.035 24.6054 48.8211C24.6154 48.8493 24.6255 48.8774 24.6355 48.9055C24.722 49.1471 24.8139 49.3852 24.9084 49.6214C23.5735 47.9896 22.4379 46.1882 21.5398 44.2541C21.1225 43.3555 19.8017 43.5339 19.6395 44.5114C19.3505 46.2521 19.1992 47.9499 19.1992 49.5639C19.1991 63.5375 30.5268 74.8652 44.5002 74.8652C58.4737 74.8652 69.8014 63.5375 69.8014 49.564C69.8014 47.9499 69.6501 46.252 69.361 44.511C69.199 43.5359 67.879 43.3532 67.4629 44.2499C67.446 44.2864 67.429 44.3227 67.4119 44.359C66.7442 45.7799 64.6081 45.2158 64.7397 43.6513C64.7954 42.9895 64.8176 42.3223 64.8086 41.6523H24.5534C24.2714 42.8696 24.1209 44.0622 24.1209 45.1714Z" fill="url(#paint1_linear_472_75052)"/>
<path d="M24.1209 45.1714C24.1209 45.6034 24.1449 46.0299 24.1895 46.4501C24.195 47.2359 24.3278 48.035 24.6054 48.8211C24.6154 48.8493 24.6255 48.8774 24.6355 48.9055C24.722 49.1471 24.8139 49.3852 24.9084 49.6214C23.5735 47.9896 22.4379 46.1882 21.5398 44.2541C21.1225 43.3555 19.8017 43.5339 19.6395 44.5114C19.3505 46.2521 19.1992 47.9499 19.1992 49.5639C19.1991 63.5375 30.5268 74.8652 44.5002 74.8652C58.4737 74.8652 69.8014 63.5375 69.8014 49.564C69.8014 47.9499 69.6501 46.252 69.361 44.511C69.199 43.5359 67.879 43.3532 67.4629 44.2499C67.446 44.2864 67.429 44.3227 67.4119 44.359C66.7442 45.7799 64.6081 45.2158 64.7397 43.6513C64.7954 42.9895 64.8176 42.3223 64.8086 41.6523H24.5534C24.2714 42.8696 24.1209 44.0622 24.1209 45.1714Z" fill="url(#paint2_linear_472_75052)"/>
<path d="M69.8016 49.5621C69.8016 47.948 69.6503 46.2501 69.3612 44.5091C69.1992 43.534 67.8792 43.3513 67.4631 44.248C67.4462 44.2845 67.4292 44.3208 67.4121 44.3571C66.7444 45.778 64.6083 45.2139 64.7399 43.6494C64.9804 40.7902 64.6267 37.8347 63.5965 34.9568C60.2525 25.6153 49.0249 14.9788 39.0826 14.8634C38.0209 14.8511 37.4113 16.0665 38.0379 16.9238C38.8733 18.0663 39.5517 19.3544 40.0321 20.7672C41.6087 25.4049 40.6382 30.3424 37.862 34.0109C37.2857 34.7724 36.3871 34.9671 35.625 34.7343V73.2611C38.3869 74.2959 41.3773 74.8633 44.5004 74.8633C58.4739 74.8633 69.8016 63.5356 69.8016 49.5621Z" fill="url(#paint3_linear_472_75052)"/>
<path d="M67.8722 59.2602L51.4244 42.8125L34.6367 66.9477L42.4681 74.7791C43.1382 74.8323 43.8153 74.8604 44.4991 74.8604C55.0355 74.8604 64.0664 68.4191 67.8722 59.2602Z" fill="url(#paint4_linear_472_75052)"/>
<path d="M57.3203 53.8735C57.3108 53.8939 57.3014 53.9142 57.2918 53.9344C56.9192 54.7276 55.7268 54.4127 55.8002 53.5394C55.9343 51.9433 55.737 50.2936 55.1618 48.6871C53.2952 43.4726 47.0279 37.5352 41.478 37.4708C40.8852 37.4638 40.545 38.1424 40.8948 38.6208C41.3611 39.2587 41.7399 39.9776 42.008 40.7663C42.8881 43.3551 42.3463 46.1113 40.7966 48.1591C40.1506 49.0128 38.7789 48.5911 38.7563 47.5208C38.7562 47.513 38.7559 47.5053 38.7558 47.4974C38.7467 46.93 38.8398 46.3852 39.0184 45.8807C39.0972 45.6583 38.8909 45.4393 38.665 45.5074C35.5188 46.4558 33.1264 51.0855 33.1264 54.3878C33.1264 54.629 33.1398 54.867 33.1647 55.1016C33.1677 55.5402 33.2419 55.9863 33.3968 56.425C33.4025 56.4407 33.408 56.4565 33.4136 56.4722C33.4619 56.6071 33.5132 56.7399 33.5658 56.8719C32.8206 55.961 32.1869 54.9554 31.6854 53.8758C31.4525 53.3742 30.7152 53.4739 30.6246 54.0194C30.4633 54.9911 30.3789 55.9388 30.3789 56.8397C30.3789 64.6399 36.7021 70.9631 44.5022 70.9631C52.3023 70.9631 58.6255 64.6399 58.6255 56.8397C58.6255 55.9387 58.5411 54.9909 58.3797 54.0192C58.2895 53.4749 57.5526 53.373 57.3203 53.8735Z" fill="url(#paint5_linear_472_75052)"/>
<path d="M58.6284 56.8399C58.6284 55.9388 58.5439 54.991 58.3826 54.0193C58.2922 53.4749 57.5554 53.373 57.3231 53.8735C57.3136 53.8939 57.3042 53.9142 57.2946 53.9344C56.922 54.7276 55.7296 54.4127 55.8029 53.5394C55.9371 51.9433 55.7398 50.2936 55.1646 48.6871C53.2979 43.4726 47.0306 37.5352 41.4807 37.4708C40.888 37.4638 40.5478 38.1424 40.8976 38.6208C41.3639 39.2587 41.7427 39.9776 42.0108 40.7663C42.8909 43.3551 42.3491 46.1113 40.7994 48.1591C40.4777 48.5841 39.9762 48.6929 39.5508 48.5629V70.0688C41.0925 70.6464 42.7617 70.9632 44.5051 70.9632C52.3052 70.9632 58.6284 64.6399 58.6284 56.8399Z" fill="url(#paint6_linear_472_75052)"/>
<path d="M33.1264 54.3882C33.1264 54.6294 33.1398 54.8674 33.1647 55.102C33.1677 55.5407 33.2419 55.9867 33.3968 56.4254C33.4025 56.4411 33.408 56.457 33.4136 56.4727C33.4619 56.6075 33.5132 56.7403 33.5658 56.8723C32.8206 55.9614 32.1869 54.9558 31.6854 53.8763C31.4525 53.3746 30.7152 53.4743 30.6246 54.0198C30.4633 54.9915 30.3789 55.9392 30.3789 56.8402C30.3789 64.6403 36.7021 70.9635 44.5022 70.9635C52.3023 70.9635 58.6255 64.6403 58.6255 56.8402C58.6255 55.9391 58.5411 54.9913 58.3797 54.0196C58.2893 53.4752 57.5525 53.3733 57.3202 53.8738C57.3107 53.8942 57.3013 53.9145 57.2917 53.9347C56.9191 54.7279 55.7267 54.413 55.8 53.5397C55.8311 53.1702 55.8435 52.7979 55.8385 52.4238H33.3679C33.2105 53.1034 33.1264 53.7691 33.1264 54.3882Z" fill="url(#paint7_linear_472_75052)"/>
<path d="M33.1264 54.3882C33.1264 54.6294 33.1398 54.8674 33.1647 55.102C33.1677 55.5407 33.2419 55.9867 33.3968 56.4254C33.4025 56.4411 33.408 56.457 33.4136 56.4727C33.4619 56.6075 33.5132 56.7403 33.5658 56.8723C32.8206 55.9614 32.1869 54.9558 31.6854 53.8763C31.4525 53.3746 30.7152 53.4743 30.6246 54.0198C30.4633 54.9915 30.3789 55.9392 30.3789 56.8402C30.3789 64.6403 36.7021 70.9635 44.5022 70.9635C52.3023 70.9635 58.6255 64.6403 58.6255 56.8402C58.6255 55.9391 58.5411 54.9913 58.3797 54.0196C58.2893 53.4752 57.5525 53.3733 57.3202 53.8738C57.3107 53.8942 57.3013 53.9145 57.2917 53.9347C56.9191 54.7279 55.7267 54.413 55.8 53.5397C55.8311 53.1702 55.8435 52.7979 55.8385 52.4238H33.3679C33.2105 53.1034 33.1264 53.7691 33.1264 54.3882Z" fill="url(#paint8_linear_472_75052)"/>
<path d="M21.9041 35.8771C23.7553 36.2568 25.2305 34.353 24.4915 32.6137C23.9392 31.3138 24.0259 29.7709 24.859 28.5016C24.8604 28.4994 24.8618 28.4973 24.8631 28.4952C25.0737 28.1755 24.9055 27.7452 24.5321 27.6611C22.8063 27.2724 20.9445 27.961 19.9165 29.5272C18.5918 31.5456 19.1542 34.2558 21.1726 35.5806C21.3987 35.7287 21.6454 35.824 21.9041 35.8771Z" fill="url(#paint9_linear_472_75052)"/>
<path d="M21.9041 35.8771C23.7553 36.2568 25.2305 34.353 24.4915 32.6137C23.9392 31.3138 24.0259 29.7709 24.859 28.5016C24.8604 28.4994 24.8618 28.4973 24.8631 28.4952C25.0737 28.1755 24.9055 27.7452 24.5321 27.6611C22.8063 27.2724 20.9445 27.961 19.9165 29.5272C18.5918 31.5456 19.1542 34.2558 21.1726 35.5806C21.3987 35.7287 21.6454 35.824 21.9041 35.8771Z" fill="url(#paint10_linear_472_75052)"/>
<path d="M21.9041 35.8771C23.7553 36.2568 25.2305 34.353 24.4915 32.6137C23.9392 31.3138 24.0259 29.7709 24.859 28.5016C24.8604 28.4994 24.8618 28.4973 24.8631 28.4952C25.0737 28.1755 24.9055 27.7452 24.5321 27.6611C22.8063 27.2724 20.9445 27.961 19.9165 29.5272C18.5918 31.5456 19.1542 34.2558 21.1726 35.5806C21.3987 35.7287 21.6454 35.824 21.9041 35.8771Z" fill="url(#paint11_linear_472_75052)"/>
</g>
<defs>
<linearGradient id="paint0_linear_472_75052" x1="31.3913" y1="35.5559" x2="56.1385" y2="60.3031" gradientUnits="userSpaceOnUse">
<stop stop-color="#FFA1AE"/>
<stop offset="1" stop-color="#FF4565"/>
</linearGradient>
<linearGradient id="paint1_linear_472_75052" x1="50.1378" y1="58.5644" x2="58.9095" y2="69.1739" gradientUnits="userSpaceOnUse">
<stop stop-color="#FE0364" stop-opacity="0"/>
<stop offset="0.2343" stop-color="#F90362" stop-opacity="0.234"/>
<stop offset="0.5173" stop-color="#EA035B" stop-opacity="0.517"/>
<stop offset="0.8243" stop-color="#D20250" stop-opacity="0.824"/>
<stop offset="1" stop-color="#C00148"/>
</linearGradient>
<linearGradient id="paint2_linear_472_75052" x1="43.7054" y1="58.138" x2="42.1182" y2="75.3472" gradientUnits="userSpaceOnUse">
<stop stop-color="#FE0364" stop-opacity="0"/>
<stop offset="0.2343" stop-color="#F90362" stop-opacity="0.234"/>
<stop offset="0.5173" stop-color="#EA035B" stop-opacity="0.517"/>
<stop offset="0.8243" stop-color="#D20250" stop-opacity="0.824"/>
<stop offset="1" stop-color="#C00148"/>
</linearGradient>
<linearGradient id="paint3_linear_472_75052" x1="50.71" y1="41.9793" x2="66.4154" y2="34.7949" gradientUnits="userSpaceOnUse">
<stop stop-color="#FE0364" stop-opacity="0"/>
<stop offset="0.2343" stop-color="#F90362" stop-opacity="0.234"/>
<stop offset="0.5173" stop-color="#EA035B" stop-opacity="0.517"/>
<stop offset="0.8243" stop-color="#D20250" stop-opacity="0.824"/>
<stop offset="1" stop-color="#C00148"/>
</linearGradient>
<linearGradient id="paint4_linear_472_75052" x1="63.5159" y1="71.043" x2="44.3019" y2="56.8412" gradientUnits="userSpaceOnUse">
<stop stop-color="#FE0364" stop-opacity="0"/>
<stop offset="0.2343" stop-color="#F90362" stop-opacity="0.234"/>
<stop offset="0.5173" stop-color="#EA035B" stop-opacity="0.517"/>
<stop offset="0.8243" stop-color="#D20250" stop-opacity="0.824"/>
<stop offset="1" stop-color="#C00148"/>
</linearGradient>
<linearGradient id="paint5_linear_472_75052" x1="38.702" y1="49.8782" x2="50.0634" y2="63.0774" gradientUnits="userSpaceOnUse">
<stop stop-color="#FEF0AE"/>
<stop offset="1" stop-color="#FAC600"/>
</linearGradient>
<linearGradient id="paint6_linear_472_75052" x1="50.9398" y1="51.8469" x2="54.7826" y2="50.5102" gradientUnits="userSpaceOnUse">
<stop stop-color="#FE9738" stop-opacity="0"/>
<stop offset="1" stop-color="#FE9738"/>
</linearGradient>
<linearGradient id="paint7_linear_472_75052" x1="40.5807" y1="63.9684" x2="37.7404" y2="68.591" gradientUnits="userSpaceOnUse">
<stop stop-color="#FE9738" stop-opacity="0"/>
<stop offset="1" stop-color="#FE9738"/>
</linearGradient>
<linearGradient id="paint8_linear_472_75052" x1="47.8851" y1="64.4351" x2="50.1128" y2="69.169" gradientUnits="userSpaceOnUse">
<stop stop-color="#FE9738" stop-opacity="0"/>
<stop offset="1" stop-color="#FE9738"/>
</linearGradient>
<linearGradient id="paint9_linear_472_75052" x1="20.4535" y1="29.5887" x2="25.6329" y2="33.9328" gradientUnits="userSpaceOnUse">
<stop stop-color="#FFA1AE"/>
<stop offset="1" stop-color="#FF4565"/>
</linearGradient>
<linearGradient id="paint10_linear_472_75052" x1="21.8332" y1="32.8404" x2="20.6636" y2="35.8896" gradientUnits="userSpaceOnUse">
<stop stop-color="#FE0364" stop-opacity="0"/>
<stop offset="0.2343" stop-color="#F90362" stop-opacity="0.234"/>
<stop offset="0.5173" stop-color="#EA035B" stop-opacity="0.517"/>
<stop offset="0.8243" stop-color="#D20250" stop-opacity="0.824"/>
<stop offset="1" stop-color="#C00148"/>
</linearGradient>
<linearGradient id="paint11_linear_472_75052" x1="21.8032" y1="31.3531" x2="25.6042" y2="32.4809" gradientUnits="userSpaceOnUse">
<stop stop-color="#FE0364" stop-opacity="0"/>
<stop offset="0.2343" stop-color="#F90362" stop-opacity="0.234"/>
<stop offset="0.5173" stop-color="#EA035B" stop-opacity="0.517"/>
<stop offset="0.8243" stop-color="#D20250" stop-opacity="0.824"/>
<stop offset="1" stop-color="#C00148"/>
</linearGradient>
<clipPath id="clip0_472_75052">
<rect width="60" height="60" fill="white" transform="translate(14.5 14.8594)"/>
</clipPath>
</defs>
</svg>
