<svg width="40" height="41" viewBox="0 0 40 41" fill="none" xmlns="http://www.w3.org/2000/svg">
<g clip-path="url(#clip0_472_75024)">
<path d="M35.3087 19.9512C35.2975 19.9755 35.2862 19.9997 35.2748 20.0239C34.8296 20.9712 33.4055 20.5951 33.4933 19.5521C33.6536 17.6459 33.4178 15.6756 32.731 13.757C30.5016 7.52936 23.0166 0.438343 16.3884 0.36139C15.6805 0.353187 15.2741 1.1635 15.6919 1.73491C16.2488 2.49662 16.7011 3.3553 17.0213 4.29717C18.0724 7.38897 17.4254 10.6807 15.5746 13.1263C14.803 14.1458 13.1648 13.6423 13.1378 12.364C13.1376 12.3548 13.1374 12.3455 13.1373 12.3362C13.1264 11.6586 13.2376 11.008 13.4509 10.4054C13.5449 10.1397 13.2986 9.87819 13.0287 9.95951C9.27117 11.0921 6.41391 16.6215 6.41391 20.5655C6.41391 20.8535 6.42992 21.1378 6.45969 21.4179C6.46336 21.9418 6.55187 22.4746 6.73695 22.9986C6.74359 23.0174 6.75031 23.0362 6.75703 23.055C6.81469 23.216 6.87594 23.3747 6.93891 23.5322C6.04898 22.4444 5.29195 21.2434 4.6932 19.954C4.415 19.355 3.53445 19.4739 3.42633 20.1255C3.23367 21.286 3.13281 22.4179 3.13281 23.4939C3.13281 32.8095 10.6846 40.3613 20.0002 40.3613C29.3159 40.3613 36.8677 32.8095 36.8677 23.4939C36.8677 22.4178 36.7668 21.2858 36.5741 20.1252C36.4662 19.4751 35.5862 19.3533 35.3087 19.9512Z" fill="url(#paint0_linear_472_75024)"/>
<path d="M6.41391 20.5648C6.41391 20.8528 6.42992 21.1371 6.45969 21.4173C6.46336 21.9411 6.55188 22.4738 6.73695 22.9979C6.74359 23.0167 6.75031 23.0355 6.75703 23.0542C6.81469 23.2152 6.87594 23.374 6.93891 23.5315C6.04898 22.4436 5.29195 21.2427 4.6932 19.9533C4.415 19.3542 3.53445 19.4731 3.42633 20.1248C3.23367 21.2852 3.13281 22.4171 3.13281 23.4931C3.13273 32.8088 10.6845 40.3606 20.0002 40.3606C29.3158 40.3606 36.8676 32.8088 36.8676 23.4932C36.8676 22.4171 36.7667 21.2852 36.574 20.1245C36.466 19.4745 35.586 19.3527 35.3086 19.9505C35.2973 19.9748 35.286 19.999 35.2746 20.0232C34.8295 20.9705 33.4054 20.5944 33.4931 19.5514C33.5302 19.1102 33.5451 18.6654 33.5391 18.2188H6.70227C6.5143 19.0302 6.41391 19.8253 6.41391 20.5648Z" fill="url(#paint1_linear_472_75024)"/>
<path d="M6.41391 20.5648C6.41391 20.8528 6.42992 21.1371 6.45969 21.4173C6.46336 21.9411 6.55188 22.4738 6.73695 22.9979C6.74359 23.0167 6.75031 23.0355 6.75703 23.0542C6.81469 23.2152 6.87594 23.374 6.93891 23.5315C6.04898 22.4436 5.29195 21.2427 4.6932 19.9533C4.415 19.3542 3.53445 19.4731 3.42633 20.1248C3.23367 21.2852 3.13281 22.4171 3.13281 23.4931C3.13273 32.8088 10.6845 40.3606 20.0002 40.3606C29.3158 40.3606 36.8676 32.8088 36.8676 23.4932C36.8676 22.4171 36.7667 21.2852 36.574 20.1245C36.466 19.4745 35.586 19.3527 35.3086 19.9505C35.2973 19.9748 35.286 19.999 35.2746 20.0232C34.8295 20.9705 33.4054 20.5944 33.4931 19.5514C33.5302 19.1102 33.5451 18.6654 33.5391 18.2188H6.70227C6.5143 19.0302 6.41391 19.8253 6.41391 20.5648Z" fill="url(#paint2_linear_472_75024)"/>
<path d="M36.8674 23.4939C36.8674 22.4178 36.7665 21.2858 36.5738 20.1252C36.4658 19.4751 35.5858 19.3533 35.3084 19.9512C35.2971 19.9755 35.2858 19.9997 35.2744 20.0239C34.8293 20.9712 33.4052 20.5951 33.4929 19.5521C33.6532 17.6459 33.4175 15.6756 32.7307 13.757C30.5014 7.52936 23.0163 0.438343 16.3881 0.36139C15.6803 0.353187 15.2739 1.1635 15.6916 1.73498C16.2486 2.4967 16.7008 3.35537 17.0211 4.29725C18.0721 7.38905 17.4251 10.6808 15.5743 13.1264C15.1901 13.634 14.5911 13.7639 14.083 13.6087V39.2932C15.9243 39.9831 17.9179 40.3613 20 40.3613C29.3156 40.3613 36.8674 32.8095 36.8674 23.4939Z" fill="url(#paint3_linear_472_75024)"/>
<path d="M35.5818 29.9613L24.6166 18.9961L13.4248 35.0863L18.6457 40.3072C19.0925 40.3427 19.5439 40.3613 19.9997 40.3613C27.024 40.3613 33.0446 36.0672 35.5818 29.9613Z" fill="url(#paint4_linear_472_75024)"/>
<path d="M28.5469 26.3688C28.5405 26.3824 28.5343 26.3959 28.5279 26.4094C28.2795 26.9382 27.4845 26.7282 27.5334 26.1461C27.6229 25.082 27.4913 23.9822 27.1079 22.9112C25.8634 19.4349 21.6852 15.4766 17.9853 15.4336C17.5902 15.429 17.3634 15.8814 17.5966 16.2003C17.9074 16.6256 18.1599 17.1049 18.3387 17.6307C18.9254 19.3565 18.5642 21.194 17.5311 22.5592C17.1004 23.1283 16.1859 22.8472 16.1709 22.1336C16.1708 22.1285 16.1706 22.1233 16.1705 22.1181C16.1645 21.7398 16.2266 21.3766 16.3456 21.0403C16.3981 20.892 16.2606 20.746 16.11 20.7914C14.0125 21.4236 12.4176 24.5101 12.4176 26.7117C12.4176 26.8725 12.4266 27.0311 12.4431 27.1875C12.4452 27.48 12.4946 27.7773 12.5979 28.0698C12.6016 28.0803 12.6053 28.0908 12.6091 28.1013C12.6413 28.1912 12.6755 28.2797 12.7105 28.3677C12.2138 27.7604 11.7913 27.09 11.457 26.3703C11.3016 26.0359 10.8102 26.1024 10.7498 26.4661C10.6422 27.1139 10.5859 27.7457 10.5859 28.3463C10.5859 33.5464 14.8014 37.7618 20.0015 37.7618C25.2016 37.7618 29.417 33.5464 29.417 28.3463C29.417 27.7456 29.3607 27.1137 29.2531 26.4659C29.193 26.1031 28.7017 26.0351 28.5469 26.3688Z" fill="url(#paint5_linear_472_75024)"/>
<path d="M29.4186 28.3464C29.4186 27.7457 29.3623 27.1138 29.2547 26.466C29.1945 26.1031 28.7032 26.0351 28.5484 26.3688C28.5421 26.3824 28.5358 26.3959 28.5294 26.4094C28.281 26.9382 27.4861 26.7282 27.535 26.1461C27.6244 25.082 27.4929 23.9822 27.1094 22.9112C25.865 19.4349 21.6868 15.4766 17.9868 15.4336C17.5917 15.429 17.3649 15.8814 17.5981 16.2003C17.9089 16.6256 18.1614 17.1049 18.3402 17.6307C18.9269 19.3565 18.5657 21.194 17.5326 22.5592C17.3182 22.8425 16.9838 22.915 16.7002 22.8284V37.1657C17.728 37.5507 18.8408 37.7619 20.0031 37.7619C25.2032 37.7619 29.4186 33.5464 29.4186 28.3464Z" fill="url(#paint6_linear_472_75024)"/>
<path d="M12.4176 26.712C12.4176 26.8727 12.4266 27.0314 12.4431 27.1878C12.4452 27.4802 12.4946 27.7776 12.5979 28.0701C12.6016 28.0805 12.6053 28.0911 12.6091 28.1016C12.6413 28.1915 12.6755 28.28 12.7105 28.368C12.2138 27.7607 11.7913 27.0903 11.457 26.3706C11.3016 26.0362 10.8102 26.1027 10.7498 26.4663C10.6422 27.1141 10.5859 27.7459 10.5859 28.3466C10.5859 33.5466 14.8014 37.7621 20.0015 37.7621C25.2016 37.7621 29.417 33.5466 29.417 28.3466C29.417 27.7459 29.3607 27.114 29.2531 26.4662C29.1929 26.1033 28.7016 26.0353 28.5468 26.369C28.5405 26.3826 28.5342 26.3961 28.5278 26.4096C28.2794 26.9384 27.4845 26.7284 27.5334 26.1463C27.5541 25.8999 27.5623 25.6517 27.559 25.4023H12.5786C12.4737 25.8554 12.4176 26.2992 12.4176 26.712Z" fill="url(#paint7_linear_472_75024)"/>
<path d="M12.4176 26.712C12.4176 26.8727 12.4266 27.0314 12.4431 27.1878C12.4452 27.4802 12.4946 27.7776 12.5979 28.0701C12.6016 28.0805 12.6053 28.0911 12.6091 28.1016C12.6413 28.1915 12.6755 28.28 12.7105 28.368C12.2138 27.7607 11.7913 27.0903 11.457 26.3706C11.3016 26.0362 10.8102 26.1027 10.7498 26.4663C10.6422 27.1141 10.5859 27.7459 10.5859 28.3466C10.5859 33.5466 14.8014 37.7621 20.0015 37.7621C25.2016 37.7621 29.417 33.5466 29.417 28.3466C29.417 27.7459 29.3607 27.114 29.2531 26.4662C29.1929 26.1033 28.7016 26.0353 28.5468 26.369C28.5405 26.3826 28.5342 26.3961 28.5278 26.4096C28.2794 26.9384 27.4845 26.7284 27.5334 26.1463C27.5541 25.8999 27.5623 25.6517 27.559 25.4023H12.5786C12.4737 25.8554 12.4176 26.2992 12.4176 26.712Z" fill="url(#paint8_linear_472_75024)"/>
<path d="M4.93608 14.3705C6.17022 14.6237 7.15366 13.3544 6.661 12.1949C6.2928 11.3284 6.35061 10.2998 6.906 9.45351C6.90694 9.4521 6.90788 9.45069 6.90874 9.44929C7.04913 9.23616 6.93702 8.94929 6.68803 8.89319C5.53757 8.63405 4.29632 9.09312 3.611 10.1373C2.72788 11.4829 3.1028 13.2897 4.44843 14.1729C4.59913 14.2716 4.76358 14.3351 4.93608 14.3705Z" fill="url(#paint9_linear_472_75024)"/>
<path d="M4.93608 14.3705C6.17022 14.6237 7.15366 13.3544 6.661 12.1949C6.2928 11.3284 6.35061 10.2998 6.906 9.45351C6.90694 9.4521 6.90788 9.45069 6.90874 9.44929C7.04913 9.23616 6.93702 8.94929 6.68803 8.89319C5.53757 8.63405 4.29632 9.09312 3.611 10.1373C2.72788 11.4829 3.1028 13.2897 4.44843 14.1729C4.59913 14.2716 4.76358 14.3351 4.93608 14.3705Z" fill="url(#paint10_linear_472_75024)"/>
<path d="M4.93608 14.3705C6.17022 14.6237 7.15366 13.3544 6.661 12.1949C6.2928 11.3284 6.35061 10.2998 6.906 9.45351C6.90694 9.4521 6.90788 9.45069 6.90874 9.44929C7.04913 9.23616 6.93702 8.94929 6.68803 8.89319C5.53757 8.63405 4.29632 9.09312 3.611 10.1373C2.72788 11.4829 3.1028 13.2897 4.44843 14.1729C4.59913 14.2716 4.76358 14.3351 4.93608 14.3705Z" fill="url(#paint11_linear_472_75024)"/>
</g>
<defs>
<linearGradient id="paint0_linear_472_75024" x1="11.2609" y1="14.1564" x2="27.759" y2="30.6545" gradientUnits="userSpaceOnUse">
<stop stop-color="#FFA1AE"/>
<stop offset="1" stop-color="#FF4565"/>
</linearGradient>
<linearGradient id="paint1_linear_472_75024" x1="23.7585" y1="29.4934" x2="29.6063" y2="36.5665" gradientUnits="userSpaceOnUse">
<stop stop-color="#FE0364" stop-opacity="0"/>
<stop offset="0.2343" stop-color="#F90362" stop-opacity="0.234"/>
<stop offset="0.5173" stop-color="#EA035B" stop-opacity="0.517"/>
<stop offset="0.8243" stop-color="#D20250" stop-opacity="0.824"/>
<stop offset="1" stop-color="#C00148"/>
</linearGradient>
<linearGradient id="paint2_linear_472_75024" x1="19.4702" y1="29.2092" x2="18.4121" y2="40.682" gradientUnits="userSpaceOnUse">
<stop stop-color="#FE0364" stop-opacity="0"/>
<stop offset="0.2343" stop-color="#F90362" stop-opacity="0.234"/>
<stop offset="0.5173" stop-color="#EA035B" stop-opacity="0.517"/>
<stop offset="0.8243" stop-color="#D20250" stop-opacity="0.824"/>
<stop offset="1" stop-color="#C00148"/>
</linearGradient>
<linearGradient id="paint3_linear_472_75024" x1="24.1396" y1="18.4387" x2="34.61" y2="13.649" gradientUnits="userSpaceOnUse">
<stop stop-color="#FE0364" stop-opacity="0"/>
<stop offset="0.2343" stop-color="#F90362" stop-opacity="0.234"/>
<stop offset="0.5173" stop-color="#EA035B" stop-opacity="0.517"/>
<stop offset="0.8243" stop-color="#D20250" stop-opacity="0.824"/>
<stop offset="1" stop-color="#C00148"/>
</linearGradient>
<linearGradient id="paint4_linear_472_75024" x1="32.6776" y1="37.8164" x2="19.8682" y2="28.3486" gradientUnits="userSpaceOnUse">
<stop stop-color="#FE0364" stop-opacity="0"/>
<stop offset="0.2343" stop-color="#F90362" stop-opacity="0.234"/>
<stop offset="0.5173" stop-color="#EA035B" stop-opacity="0.517"/>
<stop offset="0.8243" stop-color="#D20250" stop-opacity="0.824"/>
<stop offset="1" stop-color="#C00148"/>
</linearGradient>
<linearGradient id="paint5_linear_472_75024" x1="16.1347" y1="23.7053" x2="23.7089" y2="32.5047" gradientUnits="userSpaceOnUse">
<stop stop-color="#FEF0AE"/>
<stop offset="1" stop-color="#FAC600"/>
</linearGradient>
<linearGradient id="paint6_linear_472_75024" x1="24.2929" y1="25.0177" x2="26.8547" y2="24.1266" gradientUnits="userSpaceOnUse">
<stop stop-color="#FE9738" stop-opacity="0"/>
<stop offset="1" stop-color="#FE9738"/>
</linearGradient>
<linearGradient id="paint7_linear_472_75024" x1="17.3871" y1="33.0988" x2="15.4936" y2="36.1805" gradientUnits="userSpaceOnUse">
<stop stop-color="#FE9738" stop-opacity="0"/>
<stop offset="1" stop-color="#FE9738"/>
</linearGradient>
<linearGradient id="paint8_linear_472_75024" x1="22.2567" y1="33.4098" x2="23.7419" y2="36.5658" gradientUnits="userSpaceOnUse">
<stop stop-color="#FE9738" stop-opacity="0"/>
<stop offset="1" stop-color="#FE9738"/>
</linearGradient>
<linearGradient id="paint9_linear_472_75024" x1="3.96897" y1="10.1783" x2="7.42194" y2="13.0744" gradientUnits="userSpaceOnUse">
<stop stop-color="#FFA1AE"/>
<stop offset="1" stop-color="#FF4565"/>
</linearGradient>
<linearGradient id="paint10_linear_472_75024" x1="4.88882" y1="12.3461" x2="4.10905" y2="14.3789" gradientUnits="userSpaceOnUse">
<stop stop-color="#FE0364" stop-opacity="0"/>
<stop offset="0.2343" stop-color="#F90362" stop-opacity="0.234"/>
<stop offset="0.5173" stop-color="#EA035B" stop-opacity="0.517"/>
<stop offset="0.8243" stop-color="#D20250" stop-opacity="0.824"/>
<stop offset="1" stop-color="#C00148"/>
</linearGradient>
<linearGradient id="paint11_linear_472_75024" x1="4.86882" y1="11.3545" x2="7.4028" y2="12.1064" gradientUnits="userSpaceOnUse">
<stop stop-color="#FE0364" stop-opacity="0"/>
<stop offset="0.2343" stop-color="#F90362" stop-opacity="0.234"/>
<stop offset="0.5173" stop-color="#EA035B" stop-opacity="0.517"/>
<stop offset="0.8243" stop-color="#D20250" stop-opacity="0.824"/>
<stop offset="1" stop-color="#C00148"/>
</linearGradient>
<clipPath id="clip0_472_75024">
<rect width="40" height="40" fill="white" transform="translate(0 0.359375)"/>
</clipPath>
</defs>
</svg>
