<svg width="41" height="40" viewBox="0 0 41 40" fill="none" xmlns="http://www.w3.org/2000/svg">
<path d="M34.1042 16.6801L31.7088 16.3756C31.5113 15.7678 31.268 15.1817 30.9839 14.6249L32.4631 12.7201C33.062 11.9493 32.9919 10.8612 32.3077 10.1986L30.3009 8.19186C29.632 7.50128 28.5439 7.43248 27.7718 8.03004L25.8695 9.50931C25.3127 9.22518 24.7266 8.98182 24.1176 8.78433L23.8131 6.39279C23.6984 5.43337 22.8842 4.71094 21.9197 4.71094H19.0657C18.1011 4.71094 17.287 5.43337 17.1723 6.38897L16.8678 8.78433C16.2587 8.98182 15.6726 9.2239 15.1159 9.50931L13.2123 8.03004C12.4427 7.43248 11.3546 7.50128 10.6908 8.18549L8.68405 10.191C7.99347 10.8612 7.92339 11.9493 8.52223 12.7214L10.0015 14.6249C9.71609 15.1817 9.47401 15.7678 9.27652 16.3756L6.88498 16.6801C5.92556 16.7948 5.20312 17.609 5.20312 18.5735V21.4275C5.20312 22.392 5.92556 23.2062 6.88115 23.3209L9.27652 23.6254C9.47401 24.2332 9.71737 24.8193 10.0015 25.376L8.52223 27.2809C7.92339 28.0517 7.99347 29.1398 8.67768 29.8024L10.6844 31.8091C11.3546 32.4984 12.4415 32.5672 13.2136 31.9697L15.1171 30.4904C15.6739 30.7758 16.26 31.0192 16.8678 31.2154L17.1723 33.6056C17.287 34.5676 18.1011 35.29 19.0657 35.29H21.9197C22.8842 35.29 23.6984 34.5676 23.8131 33.612L24.1176 31.2167C24.7253 31.0192 25.3114 30.7758 25.8682 30.4917L27.7731 31.9709C28.5439 32.5698 29.632 32.4997 30.2946 31.8155L32.3013 29.8087C32.9919 29.1385 33.062 28.0517 32.4631 27.2796L30.9839 25.376C31.2693 24.8193 31.5126 24.2332 31.7088 23.6254L34.0991 23.3209C35.0585 23.2062 35.781 22.392 35.781 21.4275V18.5735C35.7822 17.609 35.0598 16.7948 34.1042 16.6801ZM20.4927 26.3711C16.9799 26.3711 14.122 23.5133 14.122 20.0005C14.122 16.4877 16.9799 13.6298 20.4927 13.6298C24.0055 13.6298 26.8633 16.4877 26.8633 20.0005C26.8633 23.5133 24.0055 26.3711 20.4927 26.3711Z" fill="white"/>
</svg>
