<svg width="40" height="40" viewBox="0 0 40 40" fill="none" xmlns="http://www.w3.org/2000/svg">
<path d="M33.612 16.6801L31.2167 16.3756C31.0192 15.7678 30.7758 15.1817 30.4917 14.6249L31.9709 12.7201C32.5698 11.9493 32.4997 10.8612 31.8155 10.1986L29.8087 8.19186C29.1398 7.50128 28.0517 7.43248 27.2796 8.03004L25.3773 9.50931C24.8205 9.22518 24.2344 8.98182 23.6254 8.78433L23.3209 6.39279C23.2062 5.43337 22.392 4.71094 21.4275 4.71094H18.5735C17.6089 4.71094 16.7948 5.43337 16.6801 6.38897L16.3756 8.78433C15.7666 8.98182 15.1805 9.2239 14.6237 9.50931L12.7201 8.03004C11.9505 7.43248 10.8624 7.50128 10.1986 8.18549L8.19186 10.191C7.50128 10.8612 7.4312 11.9493 8.03004 12.7214L9.50931 14.6249C9.2239 15.1817 8.98182 15.7678 8.78433 16.3756L6.39279 16.6801C5.43337 16.7948 4.71094 17.609 4.71094 18.5735V21.4275C4.71094 22.392 5.43337 23.2062 6.38897 23.3209L8.78433 23.6254C8.98182 24.2332 9.22518 24.8193 9.50931 25.376L8.03004 27.2809C7.4312 28.0517 7.50128 29.1398 8.18549 29.8024L10.1922 31.8091C10.8624 32.4984 11.9493 32.5672 12.7214 31.9697L14.6249 30.4904C15.1817 30.7758 15.7678 31.0192 16.3756 31.2154L16.6801 33.6056C16.7948 34.5676 17.6089 35.29 18.5735 35.29H21.4275C22.392 35.29 23.2062 34.5676 23.3209 33.612L23.6254 31.2167C24.2331 31.0192 24.8192 30.7758 25.376 30.4917L27.2809 31.9709C28.0517 32.5698 29.1398 32.4997 29.8024 31.8155L31.8091 29.8087C32.4997 29.1385 32.5698 28.0517 31.9709 27.2796L30.4917 25.376C30.7771 24.8193 31.0204 24.2332 31.2167 23.6254L33.6069 23.3209C34.5663 23.2062 35.2888 22.392 35.2888 21.4275V18.5735C35.29 17.609 34.5676 16.7948 33.612 16.6801ZM20.0005 26.3711C16.4877 26.3711 13.6298 23.5133 13.6298 20.0005C13.6298 16.4877 16.4877 13.6298 20.0005 13.6298C23.5133 13.6298 26.3711 16.4877 26.3711 20.0005C26.3711 23.5133 23.5133 26.3711 20.0005 26.3711Z" fill="#2E2E2E"/>
</svg>
