<svg width="77" height="77" viewBox="0 0 77 77" fill="none" xmlns="http://www.w3.org/2000/svg">
<path d="M0.507812 38.0312C0.507812 17.0444 17.521 0.03125 38.5078 0.03125C59.4946 0.03125 76.5078 17.0444 76.5078 38.0312C76.5078 59.0181 59.4946 76.0312 38.5078 76.0312C17.521 76.0312 0.507812 59.0181 0.507812 38.0312Z" fill="#F9C000"/>
<rect x="3.50781" y="3.03125" width="70" height="70" rx="35" fill="white"/>
<path d="M38.9896 7.99217C39.6773 7.42605 40.681 7.06992 41.5341 7.47417C42.3452 7.79005 42.7748 8.7263 42.6366 9.56192C43.3838 8.81905 44.4111 8.31767 45.4838 8.39905C45.7262 8.44717 46.0482 8.3203 46.2276 8.53292C46.2241 8.59855 46.2153 8.72805 46.211 8.7928C46.0456 9.31692 45.6186 9.70542 45.1268 9.92417C45.5215 9.85942 45.9178 9.80517 46.3151 9.76317C48.409 9.55667 50.5825 9.96705 52.3955 11.0538C53.4988 11.7345 54.4832 12.6332 55.1963 13.7217C56.1763 15.2984 56.5622 17.1464 56.858 18.955C57.0382 20.0068 57.0986 21.0734 57.2088 22.1339C57.278 22.9949 57.2351 23.8621 57.3121 24.7231C57.3156 25.1719 57.2736 25.6584 57.5413 26.0504C57.9193 26.6375 58.3665 27.2089 58.9658 27.5852C59.0568 27.6455 59.2695 27.7383 59.1373 27.8783C58.6421 28.3534 57.8966 28.433 57.2403 28.4155C57.3515 29.2424 56.8833 30.1927 56.0171 30.3712C55.7056 30.428 55.3862 30.4456 55.0747 30.3747C55.0511 30.3204 55.003 30.211 54.9793 30.1568C55.3573 29.4445 55.8211 28.7131 55.7852 27.8731C55.8053 27.2317 55.3687 26.5991 54.7475 26.4214C54.2645 26.2806 53.771 26.4844 53.3492 26.7111C52.6632 27.1503 52.1391 27.7995 51.4653 28.2572C51.321 28.377 51.0725 28.2598 51.1923 28.0682C51.5231 27.5012 51.6088 26.8379 51.5808 26.1904C51.2772 26.4713 51.1757 26.8747 50.9981 27.2317C50.7977 27.2492 50.7076 27.061 50.6253 26.9149C50.292 26.2587 50.1336 25.5035 50.2526 24.7712C49.5272 25.4563 48.4422 25.7669 47.4876 25.4064C47.4666 24.9987 47.9688 24.9707 48.1255 24.66C48.4553 24.0852 48.3871 23.3659 48.2278 22.7491C47.8647 21.6684 46.7815 21.118 45.861 20.5817C44.874 19.9009 43.9342 19.1344 43.1205 18.2524C42.8168 18.5674 42.6156 18.9682 42.3487 19.3147C41.64 20.3227 41.4352 21.5923 41.521 22.7998C41.5577 23.267 41.7887 23.68 41.9243 24.1193C41.8893 24.2995 41.6785 24.2435 41.5533 24.2348C40.9741 24.1438 40.394 24.0292 39.8445 23.8236C39.134 23.5541 38.5617 23.0255 38.0735 22.4585C38.0927 22.679 38.1225 22.9013 38.1023 23.1236C37.9466 23.246 37.769 23.1104 37.615 23.0553C36.7023 22.5994 35.8475 21.9502 35.354 21.0384C34.7791 21.6964 33.8218 21.8023 33.2452 22.4594C32.7001 23.0185 32.7211 24.0003 33.3205 24.5148C34.7283 23.0929 37.412 23.3852 38.4987 25.0573C38.637 25.2673 38.7402 25.6269 38.5022 25.8019C38.3281 25.9235 38.1916 25.7022 38.0656 25.6138C37.6605 25.2419 37.1801 24.9637 36.6857 24.7292L36.7295 24.8762C36.488 24.5962 36.1082 24.5332 35.7617 24.4947C35.2866 24.4457 34.7975 24.5655 34.3976 24.8254C33.9513 24.9497 33.6057 25.2778 33.289 25.5998C33.1595 25.7792 32.9118 25.7757 32.7386 25.6628C32.6371 25.3058 32.9232 25.0162 33.1017 24.7423C32.7535 24.555 32.3938 24.3757 32.0981 24.1097C31.8575 23.8909 31.714 23.5934 31.5547 23.316C31.4777 23.5925 31.3648 23.8568 31.2441 24.1175C30.6412 24.4247 29.9701 24.5577 29.3068 24.6609C28.6436 24.7178 27.9681 24.6189 27.3425 24.3958C27.2112 24.2829 27.3398 24.0992 27.4545 24.0231C27.9243 23.6363 28.291 23.1209 28.4625 22.5347C28.571 22.0972 28.5281 21.6413 28.5806 21.1968C28.7433 19.7513 28.7862 18.2909 29.033 16.855C29.313 15.4708 29.9491 14.1592 30.8687 13.0882C31.434 12.4424 32.1515 11.9542 32.8838 11.5193C34.1342 10.8552 35.4861 10.3757 36.8756 10.1053C38.182 9.90055 39.5373 9.86467 40.8297 10.1779C40.6608 9.23117 39.7255 8.6563 38.8662 8.40342C38.8067 8.25292 38.8505 8.08055 38.9896 7.99217ZM29.936 17.4929C29.9491 17.6854 29.8887 17.9479 30.1145 18.0415C30.7331 18.3207 31.4305 18.3425 32.0955 18.4335C32.8226 18.479 33.548 18.5692 34.2777 18.5552C34.4352 18.5543 34.5831 18.4939 34.7318 18.4475C34.773 18.3285 34.8158 18.2104 34.8605 18.0932C34.7537 17.961 34.675 17.7397 34.4693 17.7607C33.2741 17.6933 32.0675 17.6819 30.8915 17.436C30.5808 17.3678 30.1827 17.1945 29.936 17.4929ZM35.893 18.0687C35.8387 18.2979 36.0137 18.5105 36.2062 18.6103C36.5378 18.647 36.8756 18.6392 37.2081 18.6208C37.3096 18.5595 37.3962 18.4755 37.4881 18.4003C37.4732 18.2122 37.5231 17.9619 37.307 17.8709C36.985 17.7519 36.6297 17.7895 36.292 17.7834C36.1143 17.7747 35.9665 17.9208 35.893 18.0687ZM38.4567 17.9558C38.413 18.1063 38.3001 18.2664 38.3998 18.4204C38.5127 18.6812 38.8531 18.7267 39.1007 18.6759C39.3265 18.6628 39.5618 18.4073 39.4402 18.1842C39.3457 17.7405 38.7735 17.8359 38.4567 17.9558ZM52.7813 18.2157C52.5145 18.3513 52.5328 18.8317 52.8338 18.9174C53.1156 19.0075 53.4262 19.004 53.715 18.9463C54.0527 18.8982 54.1245 18.3828 53.8427 18.2192C53.5015 18.1255 53.1191 18.0993 52.7813 18.2157ZM46.3895 18.4484C46.407 18.6164 46.3685 18.8299 46.5347 18.9367C46.7412 19.0574 46.9932 19.06 47.2268 19.081C48.4536 19.1335 49.6803 19.0259 50.908 19.0662C51.1495 19.0994 51.3568 18.9752 51.5012 18.7914C51.4951 18.5788 51.4391 18.2708 51.1722 18.2577C49.9498 18.1597 48.724 18.3294 47.4998 18.2708C47.1236 18.2445 46.6756 18.1247 46.3895 18.4484Z" fill="#8E4229"/>
<path d="M43.1375 22.1194C43.6852 21.59 44.4474 21.2225 45.2261 21.3555C46.3094 21.541 47.2535 22.3285 47.7024 23.3225C47.8415 23.599 47.7811 24.0111 47.4959 24.166C47.1747 24.2885 46.9647 23.9682 46.8029 23.7512C46.536 23.3304 46.151 23.0084 45.7861 22.6767C45.3119 22.2594 44.5489 22.0791 44.0029 22.465C43.7316 22.647 43.3816 22.7389 43.0797 22.5709C43.0736 22.4195 43.0027 22.2366 43.1375 22.1194Z" fill="#8E4229"/>
<path d="M42.4986 25.9418C43.1829 25.3206 44.1209 25.003 45.0414 25.0423C46.01 25.073 46.9436 25.5892 47.5124 26.3697C47.7145 26.6392 47.9481 26.9192 47.9866 27.2666C48.0164 27.5483 47.6734 27.7723 47.4319 27.6131C47.1283 27.1616 46.7083 26.8098 46.2891 26.4712C45.6828 25.9567 44.8279 25.8456 44.0658 25.9768C43.56 26.081 43.1383 26.3925 42.6631 26.5736C42.3551 26.543 42.2571 26.1247 42.4986 25.9418Z" fill="#8E4229"/>
<path opacity="0.15" d="M46.2101 8.79297C46.4052 8.80697 46.5969 8.85247 46.7614 8.96359C46.7316 9.29872 46.3011 9.42909 46.3142 9.76334C45.917 9.80534 45.5206 9.85959 45.126 9.92434C45.6177 9.70559 46.0447 9.31709 46.2101 8.79297Z" fill="black"/>
<path opacity="0.15" d="M20.9076 12.6635C21.5822 12.2427 22.3644 11.9592 23.1668 11.9732C23.8834 11.9985 24.5554 12.3625 25.0253 12.8945C25.1198 12.9777 25.1496 13.0993 25.1531 13.22C24.8337 12.9418 24.4399 12.7764 24.0436 12.6425C23.8169 12.2934 23.3646 12.2855 22.9927 12.2899C22.6768 12.317 22.3006 12.2943 22.0687 12.5524C21.5463 12.6478 21.0344 12.8097 20.5654 13.0617C20.5794 12.863 20.7606 12.7624 20.9076 12.6635Z" fill="black"/>
<path opacity="0.15" d="M55.1943 13.5977C55.5312 13.959 55.7578 14.4053 55.9853 14.8393C56.5585 15.9365 56.9478 17.1335 57.0826 18.3664C57.1797 19.3149 57.2908 20.2652 57.2672 21.2207C57.2532 21.5234 57.3232 21.8428 57.2086 22.1333C57.0983 21.0728 57.038 20.0062 56.8577 18.9544C56.562 17.1458 56.1761 15.2978 55.1961 13.721L55.1943 13.5977Z" fill="black"/>
<path opacity="0.15" d="M28.9946 16.5977C29.0086 16.6834 29.0217 16.7683 29.0322 16.8549C28.7855 18.2908 28.7426 19.7512 28.5799 21.1967C28.5335 21.3795 28.4862 21.5615 28.4565 21.7479C28.3279 20.0198 28.369 18.2357 28.9946 16.5977Z" fill="black"/>
<path opacity="0.15" d="M24.0974 22.7207C24.4623 22.2578 24.6644 21.6943 25.0039 21.2148C24.9961 21.6777 24.8578 22.1275 24.6531 22.5396C24.4151 23.0112 24.2156 23.5187 23.8279 23.8915C23.1761 24.539 22.2634 24.9843 21.3281 24.9056C20.6053 24.8828 19.9307 24.5092 19.4591 23.9728C18.9139 23.4496 18.6541 22.7172 18.4327 22.0137C18.3723 21.802 18.2621 21.5832 18.3321 21.3592C18.5324 21.8151 18.7713 22.2578 19.1029 22.6332C19.0688 23.0165 19.3086 23.3411 19.5501 23.6123C19.9071 23.9965 20.3139 24.3753 20.8346 24.5127C21.7183 24.7813 22.6887 24.4576 23.3738 23.8775C23.6888 23.5537 24.1263 23.2238 24.0974 22.7207Z" fill="black"/>
<path opacity="0.15" d="M53.7464 31.3235C54.2136 31.0059 54.6896 30.6533 54.9792 30.1562C55.0029 30.2105 55.051 30.3199 55.0746 30.3741C55.3861 30.445 55.7055 30.4275 56.017 30.3706C55.8254 30.5666 55.5235 30.459 55.2811 30.5063C55.0536 30.5036 54.9408 30.739 54.7903 30.8738C54.2548 31.4933 53.4445 31.796 52.6474 31.88C52.5984 31.8721 52.5013 31.8564 52.4531 31.8485C52.9011 31.7225 53.3579 31.5913 53.7464 31.3235Z" fill="black"/>
<path opacity="0.15" d="M31.832 33.6094C32.1208 34.0023 32.3693 34.4397 32.7657 34.7381C32.5513 35.2097 32.3387 35.691 32.2652 36.209C32.1654 36.1591 32.1103 36.069 32.1313 35.9579C32.1523 35.5597 32.2967 35.1712 32.546 34.8589C32.3737 34.4039 31.8364 34.1283 31.832 33.6094Z" fill="black"/>
<path opacity="0.15" d="M48.793 36.7858C49.3827 36.3886 49.9331 35.9353 50.4467 35.4453C50.4555 35.5503 50.4275 35.6422 50.3618 35.7192C49.9375 36.2013 49.4658 36.6484 48.9058 36.9696C48.8778 36.9232 48.821 36.8322 48.793 36.7858Z" fill="black"/>
<path opacity="0.15" d="M30.7562 53.5688C30.8717 52.9073 30.737 52.2274 30.8621 51.5703C30.8726 52.6256 30.8656 53.6808 30.8682 54.7361C30.8682 55.0896 30.87 55.4439 30.8656 55.7983C30.7667 55.7589 30.6057 55.7546 30.611 55.6102C30.5935 54.9259 30.7256 54.2504 30.7562 53.5688Z" fill="black"/>
<path opacity="0.15" d="M34.5146 55.7955C37.5334 55.7745 40.553 55.7981 43.5726 55.7832C44.6524 55.7937 45.7321 55.785 46.8119 55.7876C46.916 55.7867 47.021 55.7867 47.126 55.7876C47.9538 55.7876 48.7815 55.7876 49.6093 55.7876C49.5804 55.9162 49.6451 56.142 49.4824 56.1936C48.092 56.1446 46.6981 56.1761 45.3095 56.0842C44.2271 56.0702 43.1439 56.0746 42.0633 56.0247C41.4551 55.9722 40.8453 56.0037 40.2371 55.9845C39.0095 55.9705 37.7819 55.9206 36.5543 55.9311C36.2034 55.9346 35.8604 55.8375 35.5095 55.8488C35.1779 55.8401 34.8358 55.9022 34.5146 55.7955Z" fill="black"/>
<path opacity="0.15" d="M43.7842 61.5236C44.0703 61.3819 44.4133 61.3565 44.7187 61.4493C44.8368 61.6208 44.6977 61.8054 44.6242 61.962C44.5498 61.9576 44.4019 61.9498 44.3284 61.9463C44.1902 61.7564 44.0003 61.612 43.7842 61.5236Z" fill="black"/>
<path opacity="0.15" d="M42.1559 61.9205C42.239 61.623 42.5208 61.546 42.799 61.5827C42.6372 61.6965 42.5173 61.8548 42.4158 62.0228C42.148 62.0412 41.8785 62.0631 41.623 62.1488C41.749 61.9773 41.9599 61.9485 42.1559 61.9205Z" fill="black"/>
<path opacity="0.15" d="M45.542 65.4727C45.7336 65.7317 45.6146 66.0808 45.6339 66.3792C45.5831 66.9488 45.794 67.5867 45.4484 68.0968C45.3329 68.3173 45.0844 68.3908 44.87 68.4774C44.6591 68.5492 44.4395 68.6804 44.2129 68.5912C44.898 68.2963 45.3906 67.6383 45.4921 66.9015C45.5744 66.4299 45.5753 65.9478 45.542 65.4727Z" fill="black"/>
<path d="M20.5658 13.059C21.0348 12.807 21.5466 12.6451 22.069 12.5497C22.727 12.4736 23.3955 12.4998 24.0439 12.6398C24.4403 12.7737 24.834 12.9391 25.1534 13.2173C25.8726 13.8666 26.2078 14.8501 26.2568 15.7986C26.2979 16.8993 26.101 18.0106 25.6749 19.0273C26.3399 19.4412 26.9603 19.9338 27.4958 20.507C27.6034 20.5988 27.6506 20.7598 27.5789 20.8902C27.5028 21.0258 27.3199 20.9777 27.1939 20.9873C26.4554 20.9593 25.7274 21.0897 25.0046 21.2148C24.6651 21.6943 24.463 22.2578 24.0981 22.7207C23.2459 23.6692 21.8249 24.1627 20.5929 23.7366C19.9848 23.5511 19.5245 23.0856 19.1036 22.6332C18.772 22.2578 18.5331 21.8151 18.3328 21.3592C18.0046 20.5691 17.8673 19.7116 17.8436 18.8602C17.7929 17.5276 18.0265 16.16 18.6583 14.9761C19.101 14.1781 19.7643 13.4991 20.5658 13.059ZM20.2201 15.6446C20.1116 15.8126 20.2175 15.9981 20.2656 16.1661C20.4118 16.2098 20.5649 16.3183 20.7198 16.2396C20.9333 16.1057 21.0409 15.8563 21.2544 15.7216C21.6709 15.4372 22.2046 15.4109 22.6868 15.4958C22.9948 15.5649 23.3474 15.726 23.4419 16.0567C23.5268 16.4592 23.308 16.8678 23.0053 17.1225C22.6238 17.4322 22.118 17.5503 21.761 17.896C21.3874 18.2328 21.2465 18.7377 21.1398 19.2111C21.0916 19.3747 21.1861 19.5287 21.229 19.6818C21.4101 19.6871 21.6193 19.7641 21.7846 19.667C22.0769 19.3467 21.999 18.834 22.3175 18.5268C22.5695 18.2915 22.9073 18.1838 23.1986 18.0071C23.6808 17.7393 24.0596 17.2861 24.2215 16.7567C24.3668 16.258 24.3186 15.6665 23.9511 15.2718C23.4113 14.6803 22.5345 14.5316 21.7715 14.6444C21.159 14.7538 20.5071 15.0627 20.2201 15.6446ZM21.0041 20.549C20.606 20.7248 20.613 21.3688 21.0059 21.5473C21.3323 21.7363 21.7601 21.41 21.7234 21.0521C21.7461 20.6977 21.3358 20.3635 21.0041 20.549Z" fill="#FEFEFE"/>
<path d="M20.2201 15.6463C20.5071 15.0645 21.159 14.7556 21.7715 14.6462C22.5345 14.5333 23.4112 14.6821 23.9511 15.2736C24.3186 15.6682 24.3667 16.2597 24.2215 16.7585C24.0596 17.2878 23.6807 17.7411 23.1986 18.0088C22.9072 18.1856 22.5695 18.2932 22.3175 18.5286C21.999 18.8357 22.0768 19.3485 21.7846 19.6687C21.6192 19.7658 21.4101 19.6888 21.229 19.6836C21.1861 19.5305 21.0916 19.3765 21.1397 19.2128C21.2465 18.7395 21.3873 18.2346 21.761 17.8977C22.118 17.5521 22.6237 17.434 23.0052 17.1242C23.308 16.8696 23.5267 16.461 23.4418 16.0585C23.3473 15.7277 22.9947 15.5667 22.6867 15.4976C22.2046 15.4127 21.6708 15.439 21.2543 15.7233C21.0408 15.8581 20.9332 16.1075 20.7197 16.2413C20.5648 16.3201 20.4117 16.2116 20.2656 16.1678C20.2175 15.9998 20.1116 15.8143 20.2201 15.6463Z" fill="#39425A"/>
<path d="M21.0038 20.551C21.3354 20.3655 21.7458 20.6997 21.723 21.0541C21.7598 21.412 21.3319 21.7384 21.0055 21.5494C20.6126 21.3709 20.6056 20.7269 21.0038 20.551Z" fill="#39425A"/>
<path d="M29.9365 17.4934C30.1833 17.195 30.5814 17.3682 30.892 17.4365C32.068 17.6824 33.2746 17.6937 34.4699 17.7611C34.6755 17.7401 34.7543 17.9615 34.861 18.0936C34.8164 18.2109 34.7735 18.329 34.7324 18.448C34.5836 18.4944 34.4358 18.5547 34.2783 18.5556C33.5485 18.5696 32.8231 18.4795 32.096 18.434C31.431 18.343 30.7336 18.3211 30.115 18.042C29.8893 17.9484 29.9496 17.6859 29.9365 17.4934Z" fill="#D69170"/>
<path d="M46.3896 18.4485C46.6758 18.1247 47.1238 18.2446 47.5 18.2709C48.7241 18.3295 49.95 18.1597 51.1724 18.2577C51.4393 18.2709 51.4953 18.5789 51.5014 18.7915C51.357 18.9752 51.1496 19.0995 50.9081 19.0662C49.6805 19.026 48.4538 19.1336 47.227 19.0811C46.9934 19.0601 46.7414 19.0575 46.5349 18.9367C46.3686 18.83 46.4071 18.6165 46.3896 18.4485Z" fill="#D69170"/>
<path d="M35.8928 18.0676C35.9663 17.9197 36.1142 17.7736 36.2918 17.7823C36.6296 17.7884 36.9848 17.7508 37.3068 17.8698C37.5229 17.9608 37.4731 18.2111 37.4879 18.3992C37.3961 18.4744 37.3094 18.5584 37.2079 18.6197C36.8754 18.6381 36.5377 18.6459 36.2061 18.6092C36.0136 18.5094 35.8386 18.2968 35.8928 18.0676Z" fill="#D48F70"/>
<path d="M38.4572 17.9557C38.774 17.8358 39.3462 17.7404 39.4407 18.184C39.5624 18.4072 39.327 18.6627 39.1012 18.6758C38.8536 18.7265 38.5132 18.681 38.4004 18.4203C38.3006 18.2663 38.4135 18.1062 38.4572 17.9557Z" fill="#D38E6E"/>
<path d="M52.7823 18.2141C53.12 18.0977 53.5024 18.124 53.8436 18.2176C54.1254 18.3812 54.0536 18.8966 53.7159 18.9447C53.4271 19.0025 53.1165 19.006 52.8348 18.9159C52.5338 18.8301 52.5154 18.3497 52.7823 18.2141Z" fill="#D38E6E"/>
<path d="M42.3488 19.3162C42.6157 18.9697 42.8169 18.5689 43.1206 18.2539C43.9343 19.1359 44.8741 19.9024 45.8611 20.5832C46.7816 21.1195 47.8648 21.6699 48.2279 22.7505C48.3872 23.3674 48.4554 24.0867 48.1256 24.6615C47.9689 24.9722 47.4667 25.0002 47.4877 25.4079C48.4423 25.7684 49.5273 25.4578 50.2527 24.7727C50.1337 25.505 50.2921 26.2602 50.6254 26.9164C50.7077 27.0625 50.7978 27.2507 50.9982 27.2332C51.1758 26.8762 51.2773 26.4728 51.5809 26.1919C51.6089 26.8394 51.5232 27.5027 51.1924 28.0697C51.0726 28.2613 51.3211 28.3785 51.4654 28.2587C52.1392 27.801 52.6633 27.1518 53.3493 26.7125C53.3869 26.723 53.4613 26.744 53.4989 26.7545C53.3484 27.5692 53.1358 28.3715 52.9897 29.187C52.8208 30.0857 52.6721 30.9922 52.3964 31.8663C52.1042 32.8078 51.7131 33.7222 51.2038 34.5674C51.0017 34.8999 50.7261 35.1782 50.4469 35.4459C49.9333 35.9359 49.3829 36.3892 48.7932 36.7864C48.5044 36.978 48.1929 37.132 47.8762 37.272C47.5349 37.4199 47.2217 37.6343 46.8594 37.7314C46.5243 37.8242 46.1822 37.8872 45.8471 37.9773C44.4208 38.4008 42.9123 38.2748 41.4519 38.161C40.7397 38.1269 40.0502 37.9388 39.3484 37.832C38.7989 37.7454 38.2704 37.566 37.7489 37.3779C37.6317 37.0778 37.5074 36.7278 37.1688 36.6175C36.7786 36.502 36.7234 36.0269 36.3839 35.8449C36.1757 35.7067 35.9088 35.69 35.7041 35.5527C35.6113 35.3759 35.5693 35.1764 35.4608 35.0084C35.3401 34.8395 35.1397 34.7625 34.9664 34.6628C35.4416 34.3023 35.9464 33.9015 36.1293 33.3065C36.2054 33.023 36.2553 32.6617 36.0287 32.4324C35.8668 32.2312 35.5536 32.2137 35.3497 32.3572C34.4301 33.0755 33.2821 33.6277 32.7667 34.7398C32.3703 34.4414 32.1218 34.0039 31.8331 33.611C31.1803 32.61 30.7962 31.4183 30.8216 30.2187C30.7244 28.1773 31.0036 26.142 31.2442 24.119C31.3649 23.8583 31.4778 23.594 31.5548 23.3175C31.7141 23.5949 31.8576 23.8924 32.0982 24.1112C32.3939 24.3772 32.7536 24.5565 33.1018 24.7438C32.9233 25.0177 32.6372 25.3073 32.7387 25.6643C32.9119 25.7772 33.1596 25.7807 33.2891 25.6013C33.4273 26.0178 33.7502 26.3477 34.1553 26.5122C35.4547 27.1002 37.2108 26.8219 38.0657 25.6153C38.1917 25.7037 38.3282 25.925 38.5023 25.8034C38.7403 25.6284 38.6371 25.2688 38.4988 25.0588C37.4121 23.3867 34.7284 23.0944 33.3206 24.5163C32.7212 24.0018 32.7002 23.02 33.2453 22.4609C33.8219 21.8038 34.7792 21.6979 35.3541 21.0399C35.8476 21.9517 36.7024 22.6009 37.6151 23.0568C37.7691 23.1119 37.9467 23.2475 38.1024 23.125C38.1226 22.9028 38.0928 22.6805 38.0736 22.46C38.5618 23.027 39.1341 23.5555 39.8446 23.825C40.3941 24.0307 40.9742 24.1453 41.5534 24.2363C41.6786 24.245 41.8894 24.301 41.9244 24.1208C41.7888 23.6815 41.5578 23.2685 41.5211 22.8013C41.4353 21.5938 41.6401 20.3242 42.3488 19.3162ZM43.1372 22.1197C43.0024 22.2369 43.0733 22.4198 43.0794 22.5712C43.3813 22.7392 43.7313 22.6473 44.0026 22.4653C44.5486 22.0794 45.3116 22.2597 45.7858 22.677C46.1507 23.0087 46.5357 23.3307 46.8026 23.7515C46.9644 23.9685 47.1744 24.2888 47.4956 24.1663C47.7808 24.0114 47.8412 23.5993 47.7021 23.3228C47.2532 22.3288 46.3091 21.5413 45.2258 21.3558C44.4471 21.2228 43.6849 21.5903 43.1372 22.1197ZM42.4984 25.9443C42.2569 26.1272 42.3549 26.5454 42.6629 26.576C42.7163 26.9033 42.9053 27.185 43.1179 27.4309C43.5012 27.8378 43.9614 28.2193 44.5267 28.3252C45.5469 28.5745 46.6276 28.2499 47.4938 27.6995L47.4317 27.6155C47.6732 27.7748 48.0162 27.5508 47.9864 27.269C47.9479 26.9217 47.7143 26.6417 47.5122 26.3722C46.9434 25.5917 46.0098 25.0754 45.0412 25.0448C44.1207 25.0054 43.1827 25.323 42.4984 25.9443ZM38.2862 31.9205C37.9493 32.2093 37.7507 32.6748 37.8443 33.1167C37.9274 33.4562 38.1672 33.7239 38.3894 33.9829C38.8558 34.3732 39.4438 34.6094 40.0476 34.6698C40.4991 34.7179 41.0031 34.6532 41.3356 34.3137C41.5561 34.1203 41.6199 33.8245 41.6558 33.548C41.6103 33.3302 41.5456 33.1167 41.4257 32.9285C41.0643 32.3047 40.3932 31.9039 39.6949 31.7735C39.2259 31.7079 38.6992 31.6265 38.2862 31.9205Z" fill="#F4C482"/>
<path d="M29.3068 24.6606C29.9701 24.5573 30.6412 24.4243 31.2441 24.1172C31.0035 26.1402 30.7243 28.1754 30.8215 30.2168C29.8948 30.1346 29.2403 29.3663 28.8011 28.6156C28.2166 27.6338 28.3338 26.3843 28.7993 25.3807C28.942 25.1278 29.0601 24.8294 29.3068 24.6606Z" fill="#E5B26D"/>
<path d="M53.3494 26.711C53.7711 26.4844 54.2646 26.2805 54.7476 26.4214C55.3689 26.599 55.8055 27.2317 55.7854 27.873C55.8212 28.713 55.3575 29.4445 54.9795 30.1568C54.6899 30.6538 54.2139 31.0064 53.7466 31.324C53.3581 31.5918 52.9014 31.723 52.4534 31.849L52.3965 31.8648C52.6721 30.9907 52.8209 30.0842 52.9897 29.1855C53.1359 28.37 53.3485 27.5677 53.499 26.753C53.4614 26.7425 53.387 26.7215 53.3494 26.711Z" fill="#E5B26D"/>
<path d="M34.3977 24.8259C34.7976 24.566 35.2867 24.4461 35.7618 24.4951C36.1083 24.5336 36.4881 24.5966 36.7296 24.8766C36.9081 25.3894 36.7856 26.0824 36.251 26.3291C35.7207 26.561 35.0093 26.5251 34.599 26.0789C34.2927 25.7429 34.2761 25.2424 34.3977 24.8259Z" fill="#5D2D18"/>
<path d="M44.0654 25.9782C44.8276 25.847 45.6824 25.9581 46.2888 26.4726C46.3177 26.8208 46.2888 27.2023 46.0456 27.4762C45.5494 28.0301 44.6193 28.1395 44.0304 27.6652C43.5028 27.2627 43.5693 26.3772 44.0654 25.9782Z" fill="#5D2D18"/>
<path d="M33.2891 25.6011C33.6058 25.2791 33.9514 24.951 34.3977 24.8267C34.2761 25.2432 34.2927 25.7437 34.5989 26.0797C35.0093 26.526 35.7207 26.5618 36.2509 26.33C36.7856 26.0832 36.9081 25.3902 36.7296 24.8775L36.6858 24.7305C37.1802 24.965 37.6606 25.2432 38.0657 25.6151C37.2108 26.8217 35.4547 27.1 34.1553 26.512C33.7502 26.3475 33.4273 26.0176 33.2891 25.6011Z" fill="white"/>
<path d="M42.6631 26.5772C43.1382 26.3961 43.56 26.0846 44.0657 25.9805C43.5696 26.3795 43.5031 27.265 44.0307 27.6675C44.6196 28.1417 45.5497 28.0323 46.0458 27.4785C46.2891 27.2046 46.318 26.8231 46.2891 26.4748C46.7082 26.8135 47.1282 27.1652 47.4318 27.6167L47.494 27.7007C46.6277 28.2511 45.5471 28.5757 44.5268 28.3263C43.9616 28.2205 43.5013 27.839 43.1181 27.4321C42.9055 27.1862 42.7165 26.9045 42.6631 26.5772Z" fill="white"/>
<path d="M38.2861 31.9205C38.6991 31.6265 39.2259 31.7078 39.6949 31.7735C40.3931 31.9038 41.0643 32.3046 41.4256 32.9285C40.5918 33.0982 39.7238 32.9215 38.9678 32.5513C38.6851 32.4096 38.4821 32.1611 38.2861 31.9205Z" fill="white"/>
<path d="M37.8435 33.1141C37.7499 32.6722 37.9485 32.2067 38.2854 31.918C38.4814 32.1586 38.6844 32.4071 38.967 32.5488C39.723 32.919 40.591 33.0957 41.4249 32.926C41.5447 33.1141 41.6095 33.3276 41.655 33.5455C41.0224 33.3626 40.3504 33.3722 39.7081 33.5026C39.2496 33.5988 38.771 33.6916 38.3886 33.9803C38.1664 33.7213 37.9266 33.4536 37.8435 33.1141Z" fill="#BA4850"/>
<path d="M35.3491 32.3557C35.5529 32.2122 35.8662 32.2297 36.0281 32.431C36.2547 32.6602 36.2048 33.0216 36.1287 33.3051C35.9458 33.9001 35.4409 34.3008 34.9658 34.6613C34.6062 34.9361 34.1801 35.1531 33.9613 35.5705C34.2711 35.7446 34.5957 35.8995 34.8748 36.1226C35.0787 36.2783 35.1732 36.5242 35.3272 36.7211C35.5696 36.855 35.8942 36.8768 36.0534 37.1332C36.2171 37.4071 36.2634 37.7317 36.3728 38.0292C34.8022 38.0056 33.2289 38.0572 31.6592 38.0003C31.8779 37.7571 32.1466 37.5436 32.2901 37.2435C32.3329 36.8987 32.2034 36.554 32.2656 36.2092C32.3391 35.6912 32.5517 35.21 32.7661 34.7383C33.2814 33.6262 34.4294 33.0741 35.3491 32.3557Z" fill="#BFE5E2"/>
<path d="M38.961 41.8298C39.7302 41.7939 40.3383 42.3382 40.7898 42.8982C41.1451 43.3523 41.2553 43.9342 41.5222 44.4373C41.6998 44.7611 41.6779 45.1364 41.6552 45.4917C40.9158 46.0552 40.3777 46.8156 39.8544 47.5724C39.5631 47.2793 39.1221 47.3301 38.7546 47.2154C38.1771 47.0999 37.6538 46.8199 37.1489 46.5277C36.8716 46.3527 36.5819 46.1716 36.3877 45.9012C36.2914 45.7227 36.2993 45.4296 36.5128 45.3394C36.7429 45.2598 36.9906 45.3263 37.1979 45.4392C37.5768 45.6404 37.9627 45.8321 38.3722 45.9642C38.3249 45.8233 38.3048 45.6728 38.2278 45.5451C37.7045 45.2913 37.1463 45.1146 36.6178 44.8722C36.238 44.7024 35.9738 44.2273 36.147 43.8266C36.2827 43.5212 36.7071 43.4722 36.9661 43.6428C37.4176 43.9289 37.8586 44.2352 38.3354 44.4784C38.4369 44.5371 38.5446 44.5476 38.6583 44.5099C38.7423 44.3551 38.6916 44.1704 38.5708 44.0541C38.1464 43.6034 37.603 43.2876 37.0334 43.0566C36.7088 42.9393 36.5093 42.5176 36.7158 42.2157C36.9267 41.9199 37.3493 41.9523 37.6416 42.0967C38.1946 42.3662 38.6592 42.7818 39.1081 43.1939C39.3426 43.4398 39.5683 43.6962 39.7713 43.9692C39.7529 43.7959 39.7669 43.6157 39.7118 43.4503C39.5211 43.2368 39.2752 43.0837 39.0477 42.9139C39.0249 42.7923 39.0004 42.6689 38.9803 42.5499C38.9584 42.3102 38.9593 42.0696 38.961 41.8298Z" fill="#BFE5E2"/>
<path d="M39.7082 33.5026C40.3504 33.3722 41.0224 33.3626 41.655 33.5455C41.6192 33.822 41.5553 34.1177 41.3348 34.3111C41.0023 34.6506 40.4983 34.7154 40.0468 34.6672C39.443 34.6069 38.855 34.3706 38.3887 33.9804C38.771 33.6916 39.2497 33.5989 39.7082 33.5026Z" fill="#943235"/>
<path d="M33.9619 35.5693C34.1807 35.1519 34.6068 34.9349 34.9664 34.6602C35.1397 34.7599 35.34 34.8369 35.4608 35.0058C35.5693 35.1738 35.6113 35.3733 35.704 35.55C35.9088 35.6874 36.1757 35.704 36.3839 35.8423C36.7234 36.0243 36.7785 36.4994 37.1688 36.6149C37.5074 36.7252 37.6317 37.0752 37.7489 37.3753C37.6947 37.5835 37.6413 37.7918 37.594 38.0027C37.188 38.0342 36.7803 38.0289 36.3734 38.028C36.264 37.7305 36.2177 37.4059 36.054 37.132C35.8948 36.8757 35.5702 36.8538 35.3278 36.7199C35.1738 36.523 35.0793 36.2772 34.8754 36.1214C34.5963 35.8983 34.2717 35.7434 33.9619 35.5693Z" fill="#9ECECB"/>
<path d="M41.6555 45.4902C41.8533 45.5095 42.1 45.464 42.2374 45.6469C42.4693 45.9479 42.6565 46.3049 42.7081 46.6846C42.6154 47.2761 42.2216 47.7696 41.8253 48.1966C41.4893 48.5449 41.1016 48.9421 40.5784 48.9334C40.2958 48.9701 40.105 48.7312 39.9668 48.5221C39.8749 48.2141 39.8373 47.8912 39.8548 47.571C40.378 46.8141 40.9161 46.0537 41.6555 45.4902Z" fill="#9ECECB"/>
<path d="M47.8759 37.2708C48.1926 37.1308 48.5041 36.9768 48.7929 36.7852C48.8209 36.8315 48.8778 36.9225 48.9058 36.9689C49.6845 38.2263 50.4501 39.4915 51.2376 40.7437C50.983 40.5739 50.6733 40.5564 50.3775 40.5512C49.5638 40.5162 48.7465 40.5477 47.9345 40.4689C47.0306 40.384 46.1215 40.4575 45.2185 40.37C44.6393 40.314 44.0565 40.3368 43.4755 40.3263C42.9181 40.3219 42.3651 40.2292 41.8069 40.244C40.7438 40.2685 39.6833 40.1417 38.6193 40.1854C38.53 39.677 38.4495 39.1669 38.3576 38.6594C38.3839 38.4949 38.4845 38.3024 38.3524 38.158C38.1756 37.9227 37.8458 38.0014 37.5938 38.004C37.641 37.7932 37.6944 37.5849 37.7486 37.3767C38.2701 37.5648 38.7986 37.7442 39.3481 37.8308C40.0499 37.9375 40.7394 38.1257 41.4516 38.1598C42.912 38.2735 44.4205 38.3995 45.8468 37.976C46.1819 37.8859 46.524 37.8229 46.8591 37.7302C47.2214 37.633 47.5346 37.4187 47.8759 37.2708Z" fill="#36D6F7"/>
<path d="M32.7091 49.918C33.6646 49.9617 34.621 49.9468 35.5765 49.9766C35.5756 50.8052 35.5651 51.6338 35.5476 52.4633C34.6 52.4633 33.6533 52.4633 32.7056 52.4633C32.7065 51.6146 32.7021 50.7658 32.7091 49.918Z" fill="#36D6F7"/>
<path d="M35.9171 49.9805C36.7265 49.9866 37.535 49.9988 38.3443 50.0321C38.3522 50.8423 38.3277 51.6526 38.3146 52.4628C37.507 52.4628 36.6993 52.4637 35.8926 52.462C35.897 51.6342 35.9136 50.8073 35.9171 49.9805Z" fill="#36D6F7"/>
<path d="M36.8815 61.7344C36.9034 61.8315 36.9244 61.9295 36.9428 62.0301C37.1143 62.0678 37.2858 62.1089 37.4573 62.1526C37.5001 62.2699 37.571 62.3906 37.5316 62.5219C37.4188 63.2061 37.2595 63.8842 37.0766 64.5536C36.9716 65.0646 36.4633 65.3193 36.017 65.4811C34.5925 65.8574 33.0534 65.8591 31.6438 65.4172C31.2421 65.3061 30.9105 65.048 30.5946 64.789C30.5675 65.1399 30.5623 65.4916 30.5693 65.8434C30.5168 65.4697 30.5553 65.0935 30.5413 64.719C30.5334 64.5186 30.5325 64.3086 30.634 64.1292C30.8361 63.7416 31.068 63.3505 31.4119 63.0714C31.859 62.7677 32.4111 62.5481 32.9589 62.6522C33.3509 62.7397 33.6606 63.0136 34.0176 63.1834C34.1314 63.158 34.2355 63.1046 34.3431 63.0609C34.9679 62.7109 35.7204 62.8535 36.2874 63.2464C36.4956 62.7467 36.7249 62.2533 36.8815 61.7344Z" fill="#36D6F7"/>
<path d="M44.3209 62.0294C44.6035 61.969 44.8923 61.9795 45.1714 62.0539C45.2423 62.347 45.0401 62.599 44.9701 62.8711C44.8301 63.3454 44.6578 63.8607 44.7741 64.3499C45.1189 64.6526 45.4768 64.993 45.5424 65.4734C45.5756 65.9485 45.5748 66.4306 45.4925 66.9022C45.496 66.7491 45.4934 66.5977 45.4925 66.4464C45.0148 67.4412 43.9044 68.1719 42.78 67.996C41.9943 67.8227 41.2103 67.3319 40.9408 66.5374C40.7491 65.8645 41.177 65.2511 41.576 64.7532C41.7816 64.559 41.6924 64.2624 41.681 64.0165C41.6031 63.4302 41.5218 62.8431 41.4964 62.2516C41.5279 62.2262 41.5918 62.1755 41.6233 62.1501C41.8788 62.0644 42.1483 62.0425 42.416 62.0241C42.6146 62.6252 42.6453 63.2622 42.7748 63.8782C43.1379 63.8275 43.5054 63.866 43.8563 63.9692C43.9683 63.313 44.0724 62.6515 44.3209 62.0294Z" fill="#36D6F7"/>
<path d="M31.3107 38.0461C31.4279 38.0426 31.5434 38.0207 31.6589 38.0015C33.2287 38.0583 34.8019 38.0067 36.3726 38.0303C36.7794 38.0312 37.1872 38.0365 37.5932 38.005C37.8452 38.0023 38.1751 37.9236 38.3518 38.159C38.4839 38.3033 38.3833 38.4958 38.3571 38.6603C38.0797 38.7146 37.7979 38.7496 37.5162 38.74C35.4459 38.705 33.3757 38.761 31.3054 38.7566C30.3674 38.768 29.4294 38.74 28.4923 38.782C28.3654 38.7723 28.2394 38.761 28.1126 38.7478C28.0181 38.5317 27.8982 38.1318 28.2403 38.0785C29.2632 38.0583 30.2878 38.0583 31.3107 38.0461Z" fill="#FFED94"/>
<path d="M37.517 38.7398C37.7988 38.7494 38.0805 38.7144 38.3579 38.6602C38.4498 39.1677 38.5303 39.6778 38.6195 40.1862C38.6615 40.4382 38.7035 40.6902 38.7429 40.9422C38.8103 41.461 38.952 41.9738 38.9249 42.5014C38.9389 42.5137 38.9669 42.5382 38.9809 42.5504C39.001 42.6694 39.0255 42.7928 39.0483 42.9144C39.064 42.9844 39.0938 43.1244 39.1087 43.1944C38.6598 42.7823 38.1952 42.3667 37.6422 42.0972C37.3499 41.9528 36.9273 41.9204 36.7164 42.2162C36.5099 42.518 36.7094 42.9398 37.034 43.057C37.6037 43.288 38.147 43.6039 38.5714 44.0545C38.6922 44.1709 38.7429 44.3555 38.6589 44.5104C38.5452 44.548 38.4375 44.5375 38.336 44.4789C37.8592 44.2357 37.4182 43.9294 36.9667 43.6433C36.7077 43.4727 36.2833 43.5217 36.1477 43.827C35.9744 44.2278 36.2387 44.7029 36.6184 44.8727C37.1469 45.115 37.7052 45.2918 38.2284 45.5455C38.3054 45.6733 38.3255 45.8238 38.3728 45.9647C37.9633 45.8325 37.5774 45.6409 37.1985 45.4397C36.9912 45.3268 36.7435 45.2603 36.5134 45.3399C36.2999 45.43 36.292 45.7232 36.3883 45.9017C36.5825 46.172 36.8722 46.3532 37.1495 46.5282C37.6544 46.8204 38.1777 47.1004 38.7552 47.2159C39.1227 47.3305 39.5637 47.2798 39.855 47.5729C39.8375 47.8932 39.8752 48.216 39.967 48.524C40.0729 49.0053 40.1875 49.4944 40.1945 49.9897C39.7054 50.1349 39.1647 49.9923 38.6563 50.0343C38.5522 50.0334 38.448 50.0325 38.3448 50.0325C37.5354 49.9993 36.7269 49.987 35.9175 49.9809C35.8038 49.9792 35.6909 49.9774 35.5772 49.9765C34.6217 49.9468 33.6653 49.9617 32.7098 49.9179C32.2215 49.9022 31.7324 49.896 31.2442 49.9127C31.2879 49.756 31.3229 49.5933 31.2748 49.4349C30.3753 45.9139 29.5423 42.3772 28.6428 38.857C28.6052 38.8378 28.5308 38.801 28.4932 38.7818C29.4303 38.7398 30.3683 38.7678 31.3063 38.7564C33.3765 38.7608 35.4468 38.7048 37.517 38.7398Z" fill="#EBD464"/>
<path d="M28.1133 38.7461C28.2402 38.7592 28.3662 38.7706 28.493 38.7802C28.5307 38.7995 28.605 38.8362 28.6427 38.8555C29.5422 42.3756 30.3752 45.9123 31.2747 49.4333C31.3228 49.5917 31.2878 49.7545 31.244 49.9111C31.118 49.9015 30.992 49.8883 30.8669 49.8743C29.963 46.1617 29.0303 42.4561 28.1133 38.7461Z" fill="#DDBC70"/>
<path d="M38.6191 40.185C39.6831 40.1413 40.7436 40.2682 41.8068 40.2437C42.365 40.2288 42.918 40.3215 43.4754 40.3259C44.0564 40.3364 44.6391 40.3137 45.2184 40.3697C46.1214 40.4572 47.0305 40.3837 47.9344 40.4685C48.7464 40.5473 49.5636 40.5158 50.3774 40.5508C50.6731 40.556 50.9829 40.5735 51.2375 40.7433C51.2918 40.8492 51.3145 40.9655 51.3058 41.0933C51.2743 41.1414 51.2113 41.2377 51.1798 41.2858C50.765 41.466 50.3004 41.305 49.8638 41.3304C46.1573 41.1904 42.449 41.0732 38.7425 40.941C38.7031 40.689 38.6611 40.437 38.6191 40.185Z" fill="#77EAFF"/>
<path d="M43.2944 45.8262C44.4757 45.8559 45.6595 45.8165 46.839 45.862C46.9773 46.1184 46.8758 46.4772 46.8924 46.7738C45.6928 46.7747 44.4932 46.7755 43.2935 46.7738C43.2927 46.4579 43.2927 46.142 43.2944 45.8262Z" fill="#77EAFF"/>
<path d="M43.2937 47.5C44.4846 47.5149 45.6754 47.5114 46.8654 47.5044C46.9022 47.9882 46.8786 48.4739 46.8681 48.9586C46.8549 51.2345 46.8331 53.5104 46.8121 55.7863C45.7323 55.7836 44.6526 55.7924 43.5728 55.7819C43.4801 55.7644 43.3873 55.7469 43.2954 55.7285C43.2937 55.3969 43.2919 55.0652 43.2937 54.7345C43.2946 52.323 43.2937 49.9115 43.2937 47.5Z" fill="#77EAFF"/>
<path d="M36.017 65.4802C36.4632 65.3184 36.9716 65.0637 37.0766 64.5527C37.0538 64.9736 37.0923 65.4277 36.8858 65.8119C36.7371 66.091 36.4011 66.1549 36.1185 66.2065C35.1953 66.3622 34.2652 66.5285 33.3255 66.4917C32.3813 66.4436 31.3847 66.371 30.5692 65.8425C30.5622 65.4907 30.5675 65.139 30.5946 64.7881C30.9105 65.0471 31.2421 65.3052 31.6437 65.4164C33.0533 65.8582 34.5925 65.8565 36.017 65.4802Z" fill="#77EAFF"/>
<path d="M38.7426 40.9414C42.4491 41.0735 46.1573 41.1908 49.8638 41.3308C49.8481 45.7994 49.8594 50.268 49.8559 54.7367C48.9468 54.7454 48.0368 54.7235 47.1277 54.7437C47.1391 52.263 47.1373 49.7815 47.1434 47.3C45.8598 47.3 44.5771 47.3 43.2934 47.3C43.2934 47.3499 43.2934 47.4505 43.2934 47.5013C43.2934 49.9128 43.2943 52.3243 43.2934 54.7358C39.1512 54.7375 35.0098 54.7402 30.8684 54.7358C30.8658 53.6805 30.8728 52.6253 30.8623 51.57C30.8676 51.0048 30.8702 50.4395 30.8667 49.8752C30.9918 49.8892 31.1178 49.9023 31.2438 49.9119C31.7321 49.8953 32.2212 49.9014 32.7094 49.9172C32.7024 50.765 32.7068 51.6138 32.7059 52.4625C33.6536 52.4625 34.6003 52.4625 35.5479 52.4625C35.6626 52.4608 35.7772 52.4608 35.8927 52.4617C36.6994 52.4634 37.5071 52.4625 38.3147 52.4625C38.4276 52.4617 38.5413 52.4617 38.6551 52.4625C38.6559 51.6532 38.6559 50.8429 38.6559 50.0335C39.1643 49.9915 39.7051 50.1342 40.1942 49.9889C40.1872 49.4937 40.0726 49.0045 39.9667 48.5233C40.1049 48.7324 40.2957 48.9713 40.5783 48.9345C41.1016 48.9433 41.4892 48.546 41.8252 48.1978C42.2216 47.7708 42.6153 47.2773 42.7081 46.6858C42.6564 46.306 42.4692 45.949 42.2373 45.648C42.0999 45.4652 41.8532 45.5107 41.6554 45.4914C41.6782 45.1362 41.7001 44.7608 41.5224 44.437C41.2556 43.9339 41.1453 43.352 40.7901 42.8979C40.3386 42.3379 39.7304 41.7937 38.9613 41.8295C38.9596 42.0693 38.9587 42.3099 38.9806 42.5497C38.9666 42.5374 38.9386 42.5129 38.9246 42.5007C38.9517 41.973 38.8099 41.4603 38.7426 40.9414ZM43.2926 45.6393C43.2934 45.6857 43.2943 45.7802 43.2943 45.8265C43.2926 46.1424 43.2926 46.4583 43.2934 46.7742C44.4931 46.7759 45.6927 46.775 46.8923 46.7742C46.9553 46.7742 47.0804 46.775 47.1426 46.775C47.1417 46.3953 47.1426 46.0164 47.1434 45.6375C45.8598 45.6384 44.5762 45.6358 43.2926 45.6393Z" fill="#2D6098"/>
<path d="M39.0479 42.9141C39.2754 43.0838 39.5212 43.2369 39.712 43.4504C39.7671 43.6158 39.7531 43.7961 39.7715 43.9693C39.5685 43.6963 39.3427 43.4399 39.1082 43.1941C39.0934 43.1241 39.0636 42.9841 39.0479 42.9141Z" fill="#2D6098"/>
<path d="M43.293 45.6386C44.5766 45.6351 45.8602 45.6377 47.1438 45.6369C47.143 46.0157 47.1421 46.3946 47.143 46.7744C47.0808 46.7744 46.9557 46.7735 46.8927 46.7735C46.8761 46.4768 46.9776 46.1181 46.8393 45.8617C45.6598 45.8162 44.476 45.8556 43.2947 45.8258C43.2947 45.7795 43.2938 45.685 43.293 45.6386Z" fill="#CEF7FF"/>
<path d="M43.2939 47.3008C44.5776 47.3008 45.8603 47.3008 47.1439 47.3008C47.1378 49.7823 47.1396 52.2638 47.1282 54.7444C47.1238 55.0927 47.1229 55.44 47.1264 55.7883C47.0214 55.7874 46.9164 55.7874 46.8123 55.7883C46.8333 53.5124 46.8552 51.2365 46.8683 48.9607C46.8788 48.4759 46.9024 47.9903 46.8657 47.5064C45.6757 47.5134 44.4848 47.5169 43.2939 47.502C43.2939 47.4513 43.2939 47.3507 43.2939 47.3008Z" fill="#CEF7FF"/>
<path d="M35.5767 49.9766C35.6905 49.9774 35.8034 49.9792 35.9171 49.9809C35.9136 50.8078 35.897 51.6347 35.8926 52.4624C35.7771 52.4616 35.6625 52.4616 35.5479 52.4633C35.5654 51.6338 35.5759 50.8052 35.5767 49.9766Z" fill="#CEF4FF"/>
<path d="M38.3442 50.0312C38.4475 50.0312 38.5516 50.0321 38.6557 50.033C38.6557 50.8424 38.6557 51.6526 38.6548 52.462C38.5411 52.4611 38.4273 52.4611 38.3145 52.462C38.3276 51.6518 38.3521 50.8415 38.3442 50.0312Z" fill="#CEF4FF"/>
<path d="M30.8688 54.7344C35.0102 54.7388 39.1516 54.7361 43.2938 54.7344C43.2921 55.0651 43.2938 55.3968 43.2956 55.7284C43.3875 55.7468 43.4802 55.7643 43.573 55.7818C40.5533 55.7966 37.5337 55.773 34.515 55.794C33.2987 55.7923 32.0825 55.7756 30.8662 55.7966C30.8706 55.4423 30.8688 55.0879 30.8688 54.7344Z" fill="#5C8CAB"/>
<path d="M47.1279 54.7432C48.0371 54.7231 48.9471 54.7449 49.8562 54.7362C49.8562 55.0862 49.8562 55.4362 49.8562 55.7871C49.7949 55.7871 49.6716 55.7871 49.6094 55.7871C48.7817 55.7871 47.9539 55.7871 47.1262 55.7871C47.1227 55.4388 47.1236 55.0914 47.1279 54.7432Z" fill="#5C8CAB"/>
<path d="M34.4136 61.7274C34.5458 61.3555 35.0086 61.38 35.3306 61.338C35.8583 61.3135 36.5119 61.2838 36.8811 61.7344C36.7245 62.2533 36.4953 62.7468 36.287 63.2464C35.72 62.8535 34.9675 62.7109 34.3428 63.0609C34.3664 62.6164 34.3139 62.164 34.4136 61.7274Z" fill="#6BD0E7"/>
<path d="M42.7993 61.5846C43.102 61.4236 43.4625 61.4192 43.7845 61.5242C44.0006 61.6126 44.1905 61.7569 44.3288 61.9468L44.3209 62.0299C44.0724 62.6521 43.9683 63.3136 43.8563 63.9698C43.5054 63.8666 43.1379 63.8281 42.7748 63.8788C42.6453 63.2628 42.6146 62.6258 42.416 62.0247C42.5175 61.8567 42.6374 61.6983 42.7993 61.5846Z" fill="#6BD0E7"/>
<path d="M42.7807 67.9949C43.905 68.1708 45.0154 67.4402 45.4932 66.4453C45.494 66.5967 45.4967 66.7481 45.4932 66.9012C45.3917 67.6379 44.899 68.2959 44.2139 68.5908C43.506 68.8577 42.6905 68.8043 42.022 68.4499C41.6169 68.2364 41.1768 67.9731 41.0167 67.5172C40.9169 67.2004 40.9694 66.8618 40.9414 66.5363C41.2109 67.3308 41.9949 67.8217 42.7807 67.9949Z" fill="#76E9FE"/>
<path d="M27.2816 65.6677C27.2816 70.914 23.0283 75.1671 17.7816 75.1671C12.5348 75.1671 8.28153 70.914 8.28153 65.6677C8.28153 60.4213 12.5348 56.1682 17.7816 56.1682C23.0283 56.1682 27.2816 60.4213 27.2816 65.6677Z" fill="#FB6424" stroke="white" stroke-width="1.4615"/>
</svg>
