<svg width="52" height="52" viewBox="0 0 52 52" fill="none" xmlns="http://www.w3.org/2000/svg">
<rect x="0.5" y="0.5" width="51" height="51" rx="9.9" fill="white"/>
<rect x="0.5" y="0.5" width="51" height="51" rx="9.9" stroke="#E5E5E5"/>
<path d="M21.8264 14C21.3783 14 20.9847 14.2005 20.717 14.4919C20.4493 14.7833 20.2897 15.1542 20.2124 15.5417C20.0789 16.21 19.8757 17.0844 19.7053 17.8655C19.5349 18.6465 19.3906 19.2809 19.3906 19.6965C19.3906 20.2932 19.7212 20.8126 20.2044 21.0959V26.2067H21.0182V21.324C21.5053 21.324 21.9397 21.1018 22.2389 20.759C22.538 21.1018 22.9724 21.324 23.4595 21.324C23.9466 21.324 24.381 21.1018 24.6802 20.759C24.9793 21.1018 25.4138 21.324 25.9009 21.324C26.3879 21.324 26.8224 21.1018 27.1215 20.759C27.4207 21.1018 27.8551 21.324 28.3422 21.324C28.8293 21.324 29.2637 21.1018 29.5629 20.759C29.862 21.1018 30.2964 21.324 30.7835 21.324V26.2067H31.5973V21.0959C32.0805 20.8126 32.4111 20.2932 32.4111 19.6965C32.4111 19.2809 32.2668 18.6465 32.0964 17.8655C31.9259 17.0844 31.7228 16.21 31.5894 15.5417C31.512 15.1542 31.3524 14.7833 31.0847 14.4919C30.817 14.2005 30.4234 14 29.9753 14H21.8264Z" fill="#4334DD"/>
<path d="M21.8264 14C21.3783 14 20.9847 14.2005 20.717 14.4919C20.4493 14.7833 20.2897 15.1542 20.2124 15.5417C20.0789 16.21 19.8757 17.0844 19.7053 17.8655C19.5349 18.6465 19.3906 19.2809 19.3906 19.6965C19.3906 20.2932 19.7212 20.8126 20.2044 21.0959V26.2067H21.0182V21.324C21.5053 21.324 21.9397 21.1018 22.2389 20.759C22.538 21.1018 22.9724 21.324 23.4595 21.324C23.9466 21.324 24.381 21.1018 24.6802 20.759C24.9793 21.1018 25.4138 21.324 25.9009 21.324C26.3879 21.324 26.8224 21.1018 27.1215 20.759C27.4207 21.1018 27.8551 21.324 28.3422 21.324C28.8293 21.324 29.2637 21.1018 29.5629 20.759C29.862 21.1018 30.2964 21.324 30.7835 21.324V26.2067H31.5973V21.0959C32.0805 20.8126 32.4111 20.2932 32.4111 19.6965C32.4111 19.2809 32.2668 18.6465 32.0964 17.8655C31.9259 17.0844 31.7228 16.21 31.5894 15.5417C31.512 15.1542 31.3524 14.7833 31.0847 14.4919C30.817 14.2005 30.4234 14 29.9753 14H21.8264Z" fill="url(#paint0_radial_806_33752)" fill-opacity="0.7"/>
<path d="M23.0527 22.1367C22.3835 22.1367 21.832 22.6882 21.832 23.3574V26.2056H22.6458V23.3574C22.6458 23.1249 22.8202 22.9505 23.0527 22.9505H23.8665C24.0989 22.9505 24.2734 23.1249 24.2734 23.3574V25.3918H25.0871V23.3574C25.0871 22.6882 24.5357 22.1367 23.8665 22.1367H23.0527Z" fill="#4334DD"/>
<path d="M23.0527 22.1367C22.3835 22.1367 21.832 22.6882 21.832 23.3574V26.2056H22.6458V23.3574C22.6458 23.1249 22.8202 22.9505 23.0527 22.9505H23.8665C24.0989 22.9505 24.2734 23.1249 24.2734 23.3574V25.3918H25.0871V23.3574C25.0871 22.6882 24.5357 22.1367 23.8665 22.1367H23.0527Z" fill="url(#paint1_radial_806_33752)" fill-opacity="0.7"/>
<path d="M26.0056 25.8008C25.6676 25.8008 25.3754 25.9428 25.0591 26.1314C24.7429 26.32 24.4077 26.5711 24.0506 26.8562C23.8304 27.032 23.5919 27.2336 23.3585 27.4284H18.5012C18.3314 26.9575 17.8821 26.6146 17.356 26.6146H15.7285C15.0592 26.6146 14.5078 27.1661 14.5078 27.8353V33.5311C14.5078 34.2003 15.0592 34.7519 15.7285 34.7519H17.356C17.8824 34.7519 18.3315 34.4092 18.5012 33.938H19.6376L23.0094 37.2457C23.2279 37.46 23.5326 37.6002 23.8687 37.6002C24.3855 37.6002 24.8273 37.2694 25.0033 36.811L25.4507 37.2465C25.6688 37.4588 25.9725 37.6002 26.3092 37.6002C26.8292 37.6002 27.2738 37.2656 27.4478 36.8031L27.4854 36.8397C27.7035 37.052 28.0069 37.1933 28.3437 37.1933C28.8634 37.1933 29.309 36.8592 29.4833 36.397L29.5198 36.4328C29.7379 36.6451 30.0414 36.7865 30.3781 36.7865C31.0469 36.7865 31.598 36.2353 31.598 35.5665V35.3226L32.1686 34.752H32.488C32.6579 35.2228 33.1063 35.5657 33.6324 35.5657H35.26C35.9292 35.5657 36.4807 35.0142 36.4807 34.3451V28.6492C36.4807 27.98 35.9292 27.4284 35.26 27.4284H33.6324C33.2759 27.4284 32.9561 27.5879 32.732 27.8353H32.4308C31.107 27.6402 30.1784 27.1675 29.4602 26.7259C29.0995 26.5042 28.7936 26.2899 28.5066 26.1188C28.2195 25.9477 27.9458 25.8009 27.6078 25.8009L26.0056 25.8008ZM16.5431 28.2413C16.5965 28.2413 16.6492 28.2519 16.6986 28.2723C16.748 28.2928 16.793 28.3227 16.8307 28.3605C16.8685 28.3983 16.8985 28.4432 16.919 28.4926C16.9394 28.5419 16.95 28.5949 16.9499 28.6483C16.9499 28.7562 16.907 28.8597 16.8307 28.936C16.7544 29.0123 16.651 29.0552 16.5431 29.0552C16.4351 29.0552 16.3315 29.0123 16.2552 28.936C16.1789 28.8597 16.1362 28.7562 16.1362 28.6483C16.1362 28.5949 16.1465 28.5419 16.167 28.4926C16.1874 28.4432 16.2174 28.3983 16.2552 28.3605C16.293 28.3227 16.3379 28.2928 16.3873 28.2723C16.4367 28.2519 16.4896 28.2413 16.5431 28.2413ZM18.5767 28.2413H22.3738C22.1676 28.4091 21.9607 28.574 21.7547 28.731C21.5495 28.8873 21.424 29.1445 21.4257 29.3944C21.4257 29.6444 21.5363 29.8757 21.7055 30.0653C22.0438 30.4443 22.6271 30.6828 23.4197 30.6828C24.4827 30.6828 25.1127 30.2577 25.4477 29.9922L30.7842 35.3312V35.5656C30.7842 35.7945 30.6073 35.9717 30.3781 35.9717C30.2659 35.9717 30.1672 35.9265 30.0872 35.8486L27.4107 33.2426C27.3328 33.1647 27.2267 33.1217 27.1166 33.1234C26.7512 33.1283 26.5769 33.5749 26.8425 33.8259L28.7497 35.6825V35.9725C28.7497 36.2014 28.5729 36.3786 28.3437 36.3786C28.2314 36.3786 28.1328 36.3334 28.0528 36.2554L25.3762 33.6495C25.2984 33.5716 25.1923 33.5286 25.0822 33.5303C24.7168 33.5352 24.5425 33.9818 24.808 34.2328L26.7153 36.0893V36.3794C26.7153 36.6083 26.5384 36.7856 26.3092 36.7856C26.197 36.7856 26.0983 36.7403 26.0183 36.6623L23.3418 34.0564C23.2639 33.9785 23.1578 33.9355 23.0477 33.9372C22.6823 33.9421 22.508 34.3888 22.7736 34.6398L24.274 36.1005V36.3794C24.274 36.6085 24.0972 36.7856 23.8687 36.7856C23.7561 36.7856 23.6578 36.7409 23.5794 36.664L20.0882 33.2394C20.0122 33.1651 19.9101 33.1234 19.8037 33.1234H18.5767V28.2413ZM33.6324 28.2413H35.26C35.4925 28.2413 35.6669 28.4159 35.6669 28.6483V34.345C35.6669 34.5774 35.4925 34.7519 35.26 34.7519H33.6324C33.4 34.7519 33.2255 34.5774 33.2255 34.345V34.3384V28.6489C33.2255 28.4165 33.4 28.242 33.6324 28.242V28.2413Z" fill="#4334DD"/>
<path d="M26.0056 25.8008C25.6676 25.8008 25.3754 25.9428 25.0591 26.1314C24.7429 26.32 24.4077 26.5711 24.0506 26.8562C23.8304 27.032 23.5919 27.2336 23.3585 27.4284H18.5012C18.3314 26.9575 17.8821 26.6146 17.356 26.6146H15.7285C15.0592 26.6146 14.5078 27.1661 14.5078 27.8353V33.5311C14.5078 34.2003 15.0592 34.7519 15.7285 34.7519H17.356C17.8824 34.7519 18.3315 34.4092 18.5012 33.938H19.6376L23.0094 37.2457C23.2279 37.46 23.5326 37.6002 23.8687 37.6002C24.3855 37.6002 24.8273 37.2694 25.0033 36.811L25.4507 37.2465C25.6688 37.4588 25.9725 37.6002 26.3092 37.6002C26.8292 37.6002 27.2738 37.2656 27.4478 36.8031L27.4854 36.8397C27.7035 37.052 28.0069 37.1933 28.3437 37.1933C28.8634 37.1933 29.309 36.8592 29.4833 36.397L29.5198 36.4328C29.7379 36.6451 30.0414 36.7865 30.3781 36.7865C31.0469 36.7865 31.598 36.2353 31.598 35.5665V35.3226L32.1686 34.752H32.488C32.6579 35.2228 33.1063 35.5657 33.6324 35.5657H35.26C35.9292 35.5657 36.4807 35.0142 36.4807 34.3451V28.6492C36.4807 27.98 35.9292 27.4284 35.26 27.4284H33.6324C33.2759 27.4284 32.9561 27.5879 32.732 27.8353H32.4308C31.107 27.6402 30.1784 27.1675 29.4602 26.7259C29.0995 26.5042 28.7936 26.2899 28.5066 26.1188C28.2195 25.9477 27.9458 25.8009 27.6078 25.8009L26.0056 25.8008ZM16.5431 28.2413C16.5965 28.2413 16.6492 28.2519 16.6986 28.2723C16.748 28.2928 16.793 28.3227 16.8307 28.3605C16.8685 28.3983 16.8985 28.4432 16.919 28.4926C16.9394 28.5419 16.95 28.5949 16.9499 28.6483C16.9499 28.7562 16.907 28.8597 16.8307 28.936C16.7544 29.0123 16.651 29.0552 16.5431 29.0552C16.4351 29.0552 16.3315 29.0123 16.2552 28.936C16.1789 28.8597 16.1362 28.7562 16.1362 28.6483C16.1362 28.5949 16.1465 28.5419 16.167 28.4926C16.1874 28.4432 16.2174 28.3983 16.2552 28.3605C16.293 28.3227 16.3379 28.2928 16.3873 28.2723C16.4367 28.2519 16.4896 28.2413 16.5431 28.2413ZM18.5767 28.2413H22.3738C22.1676 28.4091 21.9607 28.574 21.7547 28.731C21.5495 28.8873 21.424 29.1445 21.4257 29.3944C21.4257 29.6444 21.5363 29.8757 21.7055 30.0653C22.0438 30.4443 22.6271 30.6828 23.4197 30.6828C24.4827 30.6828 25.1127 30.2577 25.4477 29.9922L30.7842 35.3312V35.5656C30.7842 35.7945 30.6073 35.9717 30.3781 35.9717C30.2659 35.9717 30.1672 35.9265 30.0872 35.8486L27.4107 33.2426C27.3328 33.1647 27.2267 33.1217 27.1166 33.1234C26.7512 33.1283 26.5769 33.5749 26.8425 33.8259L28.7497 35.6825V35.9725C28.7497 36.2014 28.5729 36.3786 28.3437 36.3786C28.2314 36.3786 28.1328 36.3334 28.0528 36.2554L25.3762 33.6495C25.2984 33.5716 25.1923 33.5286 25.0822 33.5303C24.7168 33.5352 24.5425 33.9818 24.808 34.2328L26.7153 36.0893V36.3794C26.7153 36.6083 26.5384 36.7856 26.3092 36.7856C26.197 36.7856 26.0983 36.7403 26.0183 36.6623L23.3418 34.0564C23.2639 33.9785 23.1578 33.9355 23.0477 33.9372C22.6823 33.9421 22.508 34.3888 22.7736 34.6398L24.274 36.1005V36.3794C24.274 36.6085 24.0972 36.7856 23.8687 36.7856C23.7561 36.7856 23.6578 36.7409 23.5794 36.664L20.0882 33.2394C20.0122 33.1651 19.9101 33.1234 19.8037 33.1234H18.5767V28.2413ZM33.6324 28.2413H35.26C35.4925 28.2413 35.6669 28.4159 35.6669 28.6483V34.345C35.6669 34.5774 35.4925 34.7519 35.26 34.7519H33.6324C33.4 34.7519 33.2255 34.5774 33.2255 34.345V34.3384V28.6489C33.2255 28.4165 33.4 28.242 33.6324 28.242V28.2413Z" fill="url(#paint2_radial_806_33752)" fill-opacity="0.7"/>
<defs>
<radialGradient id="paint0_radial_806_33752" cx="0" cy="0" r="1" gradientUnits="userSpaceOnUse" gradientTransform="translate(23.5529 16.4013) rotate(54.2331) scale(9.49496 9.70898)">
<stop stop-color="white"/>
<stop offset="0.697917" stop-color="white" stop-opacity="0"/>
<stop offset="1" stop-color="white" stop-opacity="0"/>
</radialGradient>
<radialGradient id="paint1_radial_806_33752" cx="0" cy="0" r="1" gradientUnits="userSpaceOnUse" gradientTransform="translate(22.8726 22.9372) rotate(61.6194) scale(2.9189 2.63188)">
<stop stop-color="white"/>
<stop offset="0.697917" stop-color="white" stop-opacity="0"/>
<stop offset="1" stop-color="white" stop-opacity="0"/>
</radialGradient>
<radialGradient id="paint2_radial_806_33752" cx="0" cy="0" r="1" gradientUnits="userSpaceOnUse" gradientTransform="translate(21.5319 28.122) rotate(38.4908) scale(11.9655 12.5678)">
<stop stop-color="white"/>
<stop offset="0.697917" stop-color="white" stop-opacity="0"/>
<stop offset="1" stop-color="white" stop-opacity="0"/>
</radialGradient>
</defs>
</svg>
