<svg width="31" height="30" viewBox="0 0 31 30" fill="none" xmlns="http://www.w3.org/2000/svg">
<path d="M23.6241 3.80763C23.2257 3.67872 22.8038 3.59669 22.3702 3.54981C16.839 2.98731 15.421 8.26075 15.421 8.26075C15.421 8.26075 14.003 2.98731 8.48348 3.54981C3.35067 4.06544 0.655359 10.5342 4.01864 15.9717C4.97958 17.5303 6.47958 19.2061 8.08505 20.7647C11.3077 23.8936 14.9405 26.4951 15.421 26.4951C16.1475 26.4951 23.9171 20.6709 26.8233 15.9834C29.9054 11.0029 27.9132 5.15528 23.6241 3.80763Z" fill="#FC4F4F"/>
<path opacity="0.15" d="M26.8242 15.9727C29.9062 11.0039 27.9141 5.15625 23.625 3.80859C23.625 3.80859 27.9023 7.93359 25.4414 12.1758C22.9805 16.418 14.7539 21.6914 13.5938 21.8789C12.6328 22.0312 10.1953 21.8086 8.08594 20.7773C11.3086 23.9062 14.9414 26.5078 15.4219 26.5078C16.1484 26.4961 23.918 20.6719 26.8242 15.9727Z" fill="black"/>
<path opacity="0.3" d="M7.48007 8.62856C8.51952 7.39734 8.8571 5.97284 8.23407 5.44685C7.61104 4.92086 6.26334 5.49257 5.22389 6.7238C4.18444 7.95502 3.84686 9.37952 4.46989 9.90551C5.09292 10.4315 6.44062 9.85979 7.48007 8.62856Z" fill="white"/>
</svg>
