<svg width="101" height="100" viewBox="0 0 101 100" fill="none" xmlns="http://www.w3.org/2000/svg">
<path d="M85.8988 63.6068V57.8125H81.0162V63.6068H74.9179V57.8125H70.0353V63.6068H58.2636V57.8125H53.381V63.6068H47.2828V57.8125H42.4002V63.6068H30.6285V57.8125H25.7459V63.6068H19.6478V57.8125H14.7652V63.6068H8.66699V91.6661H91.997V63.6068H85.8988ZM19.6478 80.3816H14.7652V69.4009H19.6478V80.3816ZM30.6287 85.8718H25.7461V74.8913H30.6287V85.8718ZM41.6094 80.3816H36.7267V69.4009H41.6094V80.3816ZM63.9372 80.3816H59.0546V69.4009H63.9372V80.3816ZM74.9179 85.8718H70.0353V74.8913H74.9179V85.8718ZM85.8988 80.3816H81.0162V69.4009H85.8988V80.3816Z" fill="#4334DD"/>
<path d="M85.8988 63.6068V57.8125H81.0162V63.6068H74.9179V57.8125H70.0353V63.6068H58.2636V57.8125H53.381V63.6068H47.2828V57.8125H42.4002V63.6068H30.6285V57.8125H25.7459V63.6068H19.6478V57.8125H14.7652V63.6068H8.66699V91.6661H91.997V63.6068H85.8988ZM19.6478 80.3816H14.7652V69.4009H19.6478V80.3816ZM30.6287 85.8718H25.7461V74.8913H30.6287V85.8718ZM41.6094 80.3816H36.7267V69.4009H41.6094V80.3816ZM63.9372 80.3816H59.0546V69.4009H63.9372V80.3816ZM74.9179 85.8718H70.0353V74.8913H74.9179V85.8718ZM85.8988 80.3816H81.0162V69.4009H85.8988V80.3816Z" fill="url(#paint0_radial_806_38058)" fill-opacity="0.7"/>
<path d="M52.7732 52.4416C52.7732 41.856 54.6985 36.7007 56.7368 31.2429C58.8371 25.6187 61.0089 19.8032 61.0089 8.33594H56.1263C56.1263 18.9214 54.2011 24.0768 52.1628 29.5346C50.0624 35.1588 47.8906 40.9743 47.8906 52.4416H52.7732Z" fill="#4334DD"/>
<path d="M52.7732 52.4416C52.7732 41.856 54.6985 36.7007 56.7368 31.2429C58.8371 25.6187 61.0089 19.8032 61.0089 8.33594H56.1263C56.1263 18.9214 54.2011 24.0768 52.1628 29.5346C50.0624 35.1588 47.8906 40.9743 47.8906 52.4416H52.7732Z" fill="url(#paint1_radial_806_38058)" fill-opacity="0.7"/>
<path d="M45.7563 31.2429C47.8567 25.6187 50.0284 19.8032 50.0284 8.33594H45.1458C45.1458 18.9214 43.2206 24.0768 41.1823 29.5346C39.0819 35.1588 36.9102 40.9743 36.9102 52.4416H41.7928C41.7928 41.856 43.718 36.7007 45.7563 31.2429Z" fill="#4334DD"/>
<path d="M45.7563 31.2429C47.8567 25.6187 50.0284 19.8032 50.0284 8.33594H45.1458C45.1458 18.9214 43.2206 24.0768 41.1823 29.5346C39.0819 35.1588 36.9102 40.9743 36.9102 52.4416H41.7928C41.7928 41.856 43.718 36.7007 45.7563 31.2429Z" fill="url(#paint2_radial_806_38058)" fill-opacity="0.7"/>
<path d="M63.7549 52.4416C63.7549 41.856 65.6801 36.7007 67.7184 31.2429C69.8187 25.6187 71.9904 19.8032 71.9904 8.33594H67.1077C67.1077 18.9214 65.1825 24.0768 63.1442 29.5346C61.0439 35.1588 58.8721 40.9743 58.8721 52.4416H63.7549Z" fill="#4334DD"/>
<path d="M63.7549 52.4416C63.7549 41.856 65.6801 36.7007 67.7184 31.2429C69.8187 25.6187 71.9904 19.8032 71.9904 8.33594H67.1077C67.1077 18.9214 65.1825 24.0768 63.1442 29.5346C61.0439 35.1588 58.8721 40.9743 58.8721 52.4416H63.7549Z" fill="url(#paint3_radial_806_38058)" fill-opacity="0.7"/>
<defs>
<radialGradient id="paint0_radial_806_38058" cx="0" cy="0" r="1" gradientUnits="userSpaceOnUse" gradientTransform="translate(35.3053 64.4722) rotate(31.0301) scale(41.4492 39.4759)">
<stop stop-color="white"/>
<stop offset="0.697917" stop-color="white" stop-opacity="0"/>
<stop offset="1" stop-color="white" stop-opacity="0"/>
</radialGradient>
<radialGradient id="paint1_radial_806_38058" cx="0" cy="0" r="1" gradientUnits="userSpaceOnUse" gradientTransform="translate(52.0842 17.0125) rotate(78.6426) scale(28.3931 11.8195)">
<stop stop-color="white"/>
<stop offset="0.697917" stop-color="white" stop-opacity="0"/>
<stop offset="1" stop-color="white" stop-opacity="0"/>
</radialGradient>
<radialGradient id="paint2_radial_806_38058" cx="0" cy="0" r="1" gradientUnits="userSpaceOnUse" gradientTransform="translate(41.1037 17.0125) rotate(78.6426) scale(28.3931 11.8195)">
<stop stop-color="white"/>
<stop offset="0.697917" stop-color="white" stop-opacity="0"/>
<stop offset="1" stop-color="white" stop-opacity="0"/>
</radialGradient>
<radialGradient id="paint3_radial_806_38058" cx="0" cy="0" r="1" gradientUnits="userSpaceOnUse" gradientTransform="translate(63.0656 17.0125) rotate(78.6426) scale(28.3931 11.8195)">
<stop stop-color="white"/>
<stop offset="0.697917" stop-color="white" stop-opacity="0"/>
<stop offset="1" stop-color="white" stop-opacity="0"/>
</radialGradient>
</defs>
</svg>
