<svg width="52" height="52" viewBox="0 0 52 52" fill="none" xmlns="http://www.w3.org/2000/svg">
<rect x="0.5" y="0.5" width="51" height="51" rx="9.9" fill="white"/>
<rect x="0.5" y="0.5" width="51" height="51" rx="9.9" stroke="#E5E5E5"/>
<g clip-path="url(#clip0_806_34125)">
<path d="M25.8506 29.5742H28.201V38.9982H25.8506V29.5742Z" fill="#333333"/>
<path d="M17.4091 25.8495C17.4091 25.1393 17.7476 24.4593 18.3146 24.0305L22.8304 20.6157L20.2057 18.6308C19.9338 18.4251 19.5579 18.4251 19.286 18.6308L12.8097 23.5282C12.6195 23.6721 12.5078 23.8965 12.5078 24.1346V35.0811C12.5078 35.5011 12.8489 35.8417 13.2695 35.8417H17.4091V25.8495Z" fill="#333333"/>
<path d="M38.2062 18.0517L31.73 13.1543C31.4581 12.9486 31.0823 12.9486 30.8103 13.1543L24.3341 18.0517C24.1439 18.1954 24.0322 18.4198 24.0322 18.658V19.6139L24.0923 19.6594L25.6464 18.4842C26.0409 18.1858 26.5309 18.0214 27.026 18.0214C27.5211 18.0214 28.011 18.1858 28.4057 18.4843L35.7371 24.0284C36.3041 24.4572 36.6426 25.1372 36.6426 25.8474V30.3652H37.7464C38.167 30.3652 38.5081 30.0246 38.5081 29.6045V18.658C38.5081 18.4198 38.3964 18.1954 38.2062 18.0517Z" fill="#333333"/>
<path d="M34.8171 25.2415L27.4857 19.6973C27.2137 19.4915 26.8379 19.4915 26.566 19.6973L19.2345 25.2415C19.0443 25.3852 18.9326 25.6096 18.9326 25.8478V38.2399C18.9326 38.6599 19.2737 39.0005 19.6943 39.0005H24.3272V28.8159C24.3272 28.3958 24.6682 28.0553 25.0889 28.0553H28.9628C29.3834 28.0553 29.7245 28.3958 29.7245 28.8159V39.0004H34.3573C34.778 39.0004 35.119 38.6599 35.119 38.2398V25.8477C35.119 25.6096 35.0073 25.3852 34.8171 25.2415Z" fill="#333333"/>
</g>
<defs>
<clipPath id="clip0_806_34125">
<rect width="26" height="26" fill="white" transform="translate(12.5078 13)"/>
</clipPath>
</defs>
</svg>
