<svg width="52" height="53" viewBox="0 0 52 53" fill="none" xmlns="http://www.w3.org/2000/svg">
<rect y="0.5" width="52" height="52" rx="10.4" fill="white"/>
<g clip-path="url(#clip0_806_34709)">
<path d="M10.333 32.2566V40.6099C10.333 41.1338 10.7576 41.5579 11.281 41.5579H15.1648V31.3086H11.281C10.7576 31.3086 10.333 31.7332 10.333 32.2566Z" fill="#BD142D"/>
<path d="M10.333 32.2566V40.6099C10.333 41.1338 10.7576 41.5579 11.281 41.5579H15.1648V31.3086H11.281C10.7576 31.3086 10.333 31.7332 10.333 32.2566Z" fill="url(#paint0_radial_806_34709)" fill-opacity="0.4"/>
<path d="M31.1277 27.2551C31.1277 27.8062 30.6812 28.2527 30.1301 28.2527C29.5793 28.2527 29.1328 27.8062 29.1328 27.2551C29.1328 26.7043 29.5793 26.2578 30.1301 26.2578C30.6812 26.2578 31.1277 26.7043 31.1277 27.2551Z" fill="#BD142D"/>
<path d="M31.1277 27.2551C31.1277 27.8062 30.6812 28.2527 30.1301 28.2527C29.5793 28.2527 29.1328 27.8062 29.1328 27.2551C29.1328 26.7043 29.5793 26.2578 30.1301 26.2578C30.6812 26.2578 31.1277 26.7043 31.1277 27.2551Z" fill="url(#paint1_radial_806_34709)" fill-opacity="0.4"/>
<path d="M13.2471 24.705H17.7261V28.8669C17.7166 28.8701 17.7073 28.873 17.6978 28.8762C18.1926 28.7177 18.7468 28.633 19.3484 28.633C20.0598 28.7309 23.1677 28.1242 24.5296 30.3759C24.7551 30.7487 25.1348 30.9711 25.5444 30.9711H28.7027C30.6597 30.9711 32.0715 32.9135 31.4251 34.7741C33.4597 34.549 34.5386 33.756 36.5127 32.9401V24.705H40.9912C41.8745 24.705 42.2764 23.5998 41.6008 23.0317L36.5127 18.7541V12.0969C36.5127 11.5729 36.0879 11.1489 35.5647 11.1489H31.8731C31.3491 11.1489 30.9251 11.5729 30.9251 12.0969V14.0576L27.729 11.3705C27.377 11.0744 26.8618 11.0744 26.5093 11.3705L12.6372 23.0317C11.9629 23.5983 12.3635 24.705 13.2471 24.705ZM33.0234 27.256C33.0244 28.8503 31.7339 30.1489 30.1306 30.1489C28.5361 30.1496 27.2378 28.8593 27.2378 27.256C27.2378 25.6606 28.5354 24.3632 30.1306 24.3632C31.7312 24.3632 33.0244 25.6598 33.0234 27.256ZM29.4693 20.5544C29.8396 20.184 30.44 20.184 30.8101 20.5544C31.1804 20.9247 31.1804 21.5251 30.8101 21.8954L24.7691 27.936C24.3987 28.3063 23.7996 28.3068 23.4287 27.936C23.0584 27.5663 23.0584 26.966 23.4287 26.5956L29.4693 20.5544ZM24.1099 18.3415C25.7088 18.3415 27.0047 19.6374 27.0047 21.2363C27.0047 22.8351 25.7088 24.131 24.1099 24.131C22.511 24.131 21.2151 22.8351 21.2151 21.2363C21.2151 19.6374 22.511 18.3415 24.1099 18.3415Z" fill="#BD142D"/>
<path d="M13.2471 24.705H17.7261V28.8669C17.7166 28.8701 17.7073 28.873 17.6978 28.8762C18.1926 28.7177 18.7468 28.633 19.3484 28.633C20.0598 28.7309 23.1677 28.1242 24.5296 30.3759C24.7551 30.7487 25.1348 30.9711 25.5444 30.9711H28.7027C30.6597 30.9711 32.0715 32.9135 31.4251 34.7741C33.4597 34.549 34.5386 33.756 36.5127 32.9401V24.705H40.9912C41.8745 24.705 42.2764 23.5998 41.6008 23.0317L36.5127 18.7541V12.0969C36.5127 11.5729 36.0879 11.1489 35.5647 11.1489H31.8731C31.3491 11.1489 30.9251 11.5729 30.9251 12.0969V14.0576L27.729 11.3705C27.377 11.0744 26.8618 11.0744 26.5093 11.3705L12.6372 23.0317C11.9629 23.5983 12.3635 24.705 13.2471 24.705ZM33.0234 27.256C33.0244 28.8503 31.7339 30.1489 30.1306 30.1489C28.5361 30.1496 27.2378 28.8593 27.2378 27.256C27.2378 25.6606 28.5354 24.3632 30.1306 24.3632C31.7312 24.3632 33.0244 25.6598 33.0234 27.256ZM29.4693 20.5544C29.8396 20.184 30.44 20.184 30.8101 20.5544C31.1804 20.9247 31.1804 21.5251 30.8101 21.8954L24.7691 27.936C24.3987 28.3063 23.7996 28.3068 23.4287 27.936C23.0584 27.5663 23.0584 26.966 23.4287 26.5956L29.4693 20.5544ZM24.1099 18.3415C25.7088 18.3415 27.0047 19.6374 27.0047 21.2363C27.0047 22.8351 25.7088 24.131 24.1099 24.131C22.511 24.131 21.2151 22.8351 21.2151 21.2363C21.2151 19.6374 22.511 18.3415 24.1099 18.3415Z" fill="url(#paint2_radial_806_34709)" fill-opacity="0.4"/>
<path d="M41.6587 32.6958L34.7707 35.8061C33.4001 36.4153 31.9504 36.7224 30.4568 36.7224H23.304C22.7808 36.7224 22.356 36.2983 22.356 35.7746C22.356 35.2512 22.7808 34.8266 23.304 34.8266H28.7024C29.2439 34.8266 29.6826 34.3855 29.6826 33.8464C29.6826 33.3061 29.2427 32.8664 28.7024 32.8664H25.5442C24.4653 32.8664 23.4795 32.3022 22.9077 31.3567C22.2639 30.2937 20.479 30.5671 19.3481 30.5283C18.6604 30.5283 17.0605 30.6963 17.0605 32.2561V41.5586H29.8962C31.7717 41.5586 33.6194 41.0593 35.2402 40.1152L41.011 36.7534C42.4761 35.8999 42.7698 33.936 41.6587 32.6958Z" fill="#BD142D"/>
<path d="M41.6587 32.6958L34.7707 35.8061C33.4001 36.4153 31.9504 36.7224 30.4568 36.7224H23.304C22.7808 36.7224 22.356 36.2983 22.356 35.7746C22.356 35.2512 22.7808 34.8266 23.304 34.8266H28.7024C29.2439 34.8266 29.6826 34.3855 29.6826 33.8464C29.6826 33.3061 29.2427 32.8664 28.7024 32.8664H25.5442C24.4653 32.8664 23.4795 32.3022 22.9077 31.3567C22.2639 30.2937 20.479 30.5671 19.3481 30.5283C18.6604 30.5283 17.0605 30.6963 17.0605 32.2561V41.5586H29.8962C31.7717 41.5586 33.6194 41.0593 35.2402 40.1152L41.011 36.7534C42.4761 35.8999 42.7698 33.936 41.6587 32.6958Z" fill="url(#paint3_radial_806_34709)" fill-opacity="0.4"/>
<path d="M23.9776 22.2201C24.6297 22.3023 25.1783 21.754 25.096 21.1017C25.0401 20.6573 24.6813 20.2987 24.2369 20.2425C23.5848 20.1605 23.0365 20.7088 23.1185 21.3609C23.1744 21.8053 23.5333 22.1642 23.9776 22.2201Z" fill="#BD142D"/>
<path d="M23.9776 22.2201C24.6297 22.3023 25.1783 21.754 25.096 21.1017C25.0401 20.6573 24.6813 20.2987 24.2369 20.2425C23.5848 20.1605 23.0365 20.7088 23.1185 21.3609C23.1744 21.8053 23.5333 22.1642 23.9776 22.2201Z" fill="url(#paint4_radial_806_34709)" fill-opacity="0.4"/>
</g>
<defs>
<radialGradient id="paint0_radial_806_34709" cx="0" cy="0" r="1" gradientUnits="userSpaceOnUse" gradientTransform="translate(11.8776 33.3248) rotate(72.3403) scale(6.78872 4.23111)">
<stop stop-color="white"/>
<stop offset="0.697917" stop-color="white" stop-opacity="0"/>
<stop offset="1" stop-color="white" stop-opacity="0"/>
</radialGradient>
<radialGradient id="paint1_radial_806_34709" cx="0" cy="0" r="1" gradientUnits="userSpaceOnUse" gradientTransform="translate(29.7705 26.6502) rotate(55.9679) scale(1.51927)">
<stop stop-color="white"/>
<stop offset="0.697917" stop-color="white" stop-opacity="0"/>
<stop offset="1" stop-color="white" stop-opacity="0"/>
</radialGradient>
<radialGradient id="paint2_radial_806_34709" cx="0" cy="0" r="1" gradientUnits="userSpaceOnUse" gradientTransform="translate(21.7742 15.7961) rotate(49.7265) scale(19.5438 20.783)">
<stop stop-color="white"/>
<stop offset="0.697917" stop-color="white" stop-opacity="0"/>
<stop offset="1" stop-color="white" stop-opacity="0"/>
</radialGradient>
<radialGradient id="paint3_radial_806_34709" cx="0" cy="0" r="1" gradientUnits="userSpaceOnUse" gradientTransform="translate(25.1394 32.6943) rotate(32.8856) scale(12.8274 12.6104)">
<stop stop-color="white"/>
<stop offset="0.697917" stop-color="white" stop-opacity="0"/>
<stop offset="1" stop-color="white" stop-opacity="0"/>
</radialGradient>
<radialGradient id="paint4_radial_806_34709" cx="0" cy="0" r="1" gradientUnits="userSpaceOnUse" gradientTransform="translate(23.7477 20.6266) rotate(55.9679) scale(1.51853)">
<stop stop-color="white"/>
<stop offset="0.697917" stop-color="white" stop-opacity="0"/>
<stop offset="1" stop-color="white" stop-opacity="0"/>
</radialGradient>
<clipPath id="clip0_806_34709">
<rect width="32" height="32" fill="white" transform="translate(10.334 10.3359)"/>
</clipPath>
</defs>
</svg>
