<svg width="52" height="52" viewBox="0 0 52 52" fill="none" xmlns="http://www.w3.org/2000/svg">
<rect x="0.5" y="0.5" width="51" height="51" rx="9.9" fill="white"/>
<rect x="0.5" y="0.5" width="51" height="51" rx="9.9" stroke="#E5E5E5"/>
<g clip-path="url(#clip0_806_34474)">
<path d="M25.8516 29.5742H28.202V38.9982H25.8516V29.5742Z" fill="#4334DD"/>
<path d="M25.8516 29.5742H28.202V38.9982H25.8516V29.5742Z" fill="url(#paint0_radial_806_34474)" fill-opacity="0.7"/>
<path d="M17.4091 25.8495C17.4091 25.1393 17.7476 24.4593 18.3146 24.0305L22.8304 20.6157L20.2057 18.6308C19.9338 18.4251 19.5579 18.4251 19.286 18.6308L12.8097 23.5282C12.6195 23.6721 12.5078 23.8965 12.5078 24.1346V35.0811C12.5078 35.5011 12.8489 35.8417 13.2695 35.8417H17.4091V25.8495Z" fill="#4334DD"/>
<path d="M17.4091 25.8495C17.4091 25.1393 17.7476 24.4593 18.3146 24.0305L22.8304 20.6157L20.2057 18.6308C19.9338 18.4251 19.5579 18.4251 19.286 18.6308L12.8097 23.5282C12.6195 23.6721 12.5078 23.8965 12.5078 24.1346V35.0811C12.5078 35.5011 12.8489 35.8417 13.2695 35.8417H17.4091V25.8495Z" fill="url(#paint1_radial_806_34474)" fill-opacity="0.7"/>
<path d="M38.2053 18.0517L31.729 13.1543C31.4571 12.9486 31.0814 12.9486 30.8093 13.1543L24.3331 18.0517C24.143 18.1954 24.0312 18.4198 24.0312 18.658V19.6139L24.0913 19.6594L25.6454 18.4842C26.04 18.1858 26.5299 18.0214 27.025 18.0214C27.5201 18.0214 28.0101 18.1858 28.4047 18.4843L35.7361 24.0284C36.3031 24.4572 36.6417 25.1372 36.6417 25.8474V30.3652H37.7454C38.1661 30.3652 38.5071 30.0246 38.5071 29.6045V18.658C38.5071 18.4198 38.3954 18.1954 38.2053 18.0517Z" fill="#4334DD"/>
<path d="M38.2053 18.0517L31.729 13.1543C31.4571 12.9486 31.0814 12.9486 30.8093 13.1543L24.3331 18.0517C24.143 18.1954 24.0312 18.4198 24.0312 18.658V19.6139L24.0913 19.6594L25.6454 18.4842C26.04 18.1858 26.5299 18.0214 27.025 18.0214C27.5201 18.0214 28.0101 18.1858 28.4047 18.4843L35.7361 24.0284C36.3031 24.4572 36.6417 25.1372 36.6417 25.8474V30.3652H37.7454C38.1661 30.3652 38.5071 30.0246 38.5071 29.6045V18.658C38.5071 18.4198 38.3954 18.1954 38.2053 18.0517Z" fill="url(#paint2_radial_806_34474)" fill-opacity="0.7"/>
<path d="M34.8181 25.2415L27.4866 19.6973C27.2147 19.4915 26.8389 19.4915 26.5669 19.6973L19.2354 25.2415C19.0453 25.3852 18.9336 25.6096 18.9336 25.8478V38.2399C18.9336 38.6599 19.2746 39.0005 19.6953 39.0005H24.3281V28.8159C24.3281 28.3958 24.6692 28.0553 25.0899 28.0553H28.9638C29.3844 28.0553 29.7255 28.3958 29.7255 28.8159V39.0004H34.3583C34.779 39.0004 35.12 38.6599 35.12 38.2398V25.8477C35.12 25.6096 35.0082 25.3852 34.8181 25.2415Z" fill="#4334DD"/>
<path d="M34.8181 25.2415L27.4866 19.6973C27.2147 19.4915 26.8389 19.4915 26.5669 19.6973L19.2354 25.2415C19.0453 25.3852 18.9336 25.6096 18.9336 25.8478V38.2399C18.9336 38.6599 19.2746 39.0005 19.6953 39.0005H24.3281V28.8159C24.3281 28.3958 24.6692 28.0553 25.0899 28.0553H28.9638C29.3844 28.0553 29.7255 28.3958 29.7255 28.8159V39.0004H34.3583C34.779 39.0004 35.12 38.6599 35.12 38.2398V25.8477C35.12 25.6096 35.0082 25.3852 34.8181 25.2415Z" fill="url(#paint3_radial_806_34474)" fill-opacity="0.7"/>
</g>
<defs>
<radialGradient id="paint0_radial_806_34474" cx="0" cy="0" r="1" gradientUnits="userSpaceOnUse" gradientTransform="translate(26.6029 31.4281) rotate(80.4392) scale(6.03171 2.13005)">
<stop stop-color="white"/>
<stop offset="0.697917" stop-color="white" stop-opacity="0"/>
<stop offset="1" stop-color="white" stop-opacity="0"/>
</radialGradient>
<radialGradient id="paint1_radial_806_34474" cx="0" cy="0" r="1" gradientUnits="userSpaceOnUse" gradientTransform="translate(15.8076 21.8927) rotate(68.1274) scale(11.8101 8.80346)">
<stop stop-color="white"/>
<stop offset="0.697917" stop-color="white" stop-opacity="0"/>
<stop offset="1" stop-color="white" stop-opacity="0"/>
</radialGradient>
<radialGradient id="paint2_radial_806_34474" cx="0" cy="0" r="1" gradientUnits="userSpaceOnUse" gradientTransform="translate(28.6588 16.4161) rotate(60.6222) scale(12.5774 11.5924)">
<stop stop-color="white"/>
<stop offset="0.697917" stop-color="white" stop-opacity="0"/>
<stop offset="1" stop-color="white" stop-opacity="0"/>
</radialGradient>
<radialGradient id="paint3_radial_806_34474" cx="0" cy="0" r="1" gradientUnits="userSpaceOnUse" gradientTransform="translate(24.1079 23.3707) rotate(60.673) scale(14.0858 12.9688)">
<stop stop-color="white"/>
<stop offset="0.697917" stop-color="white" stop-opacity="0"/>
<stop offset="1" stop-color="white" stop-opacity="0"/>
</radialGradient>
<clipPath id="clip0_806_34474">
<rect width="26" height="26" fill="white" transform="translate(12.5078 13)"/>
</clipPath>
</defs>
</svg>
