<svg width="56" height="56" viewBox="0 0 56 56" fill="none" xmlns="http://www.w3.org/2000/svg">
<g clip-path="url(#clip0_472_72579)">
<path d="M28 55.5042C12.8011 55.5042 0.436523 43.1658 0.436523 28.0001C0.436523 12.8345 12.8011 0.496094 28 0.496094C43.1988 0.496094 55.5634 12.8345 55.5634 28.0001C55.5634 43.1658 43.1988 55.5042 28 55.5042Z" fill="white"/>
<path d="M28 0.931738C42.9578 0.931738 55.1269 13.0746 55.1269 27.9992C55.1269 42.9239 42.9578 55.0667 28 55.0667C13.0422 55.0667 0.873145 42.9239 0.873145 27.9992C0.873145 13.0746 13.0422 0.931738 28 0.931738ZM28 0.0585938C12.5357 0.0585938 0 12.5681 0 27.9992C0 43.4303 12.5357 55.9398 28 55.9398C43.4643 55.9398 56 43.4303 56 27.9992C56 12.5681 43.4643 0.0585938 28 0.0585938Z" fill="#666666"/>
<path d="M28.0003 4.58018C40.9639 4.58018 51.4722 15.0666 51.4722 28.0023C51.4722 40.9379 40.9639 51.4244 28.0003 51.4244C15.0367 51.4244 4.52842 40.9379 4.52842 28.0023C4.52842 15.0666 15.0367 4.58018 28.0003 4.58018ZM28.0003 3.70703C14.5766 3.70703 3.65527 14.6056 3.65527 28.0023C3.65527 41.3989 14.5766 52.2975 28.0003 52.2975C41.424 52.2975 52.3453 41.3989 52.3453 28.0023C52.3453 14.6056 41.424 3.70703 28.0003 3.70703Z" fill="#CCCCCC"/>
<g clip-path="url(#clip1_472_72579)">
<path d="M23.6679 15.6406C22.3109 15.6406 21.207 16.7992 21.207 18.1561C21.207 19.5131 22.3109 20.617 23.6679 20.617C25.0248 20.617 26.1287 19.5131 26.1287 18.1561C26.1286 16.7992 25.0248 15.6406 23.6679 15.6406Z" fill="#BD142D"/>
<path d="M23.6679 15.6406C22.3109 15.6406 21.207 16.7992 21.207 18.1561C21.207 19.5131 22.3109 20.617 23.6679 20.617C25.0248 20.617 26.1287 19.5131 26.1287 18.1561C26.1286 16.7992 25.0248 15.6406 23.6679 15.6406Z" fill="url(#paint0_radial_472_72579)" fill-opacity="0.4"/>
<path d="M31.8712 22.2852H20.3875C18.578 22.2852 17.1064 23.7567 17.1064 25.5662V30.4878C17.1064 31.3922 17.8426 32.1284 18.747 32.1284C19.0021 32.1284 19.9906 31.9117 20.2481 31.86L18.8103 39.9348C18.562 40.8047 19.0658 41.7139 19.9358 41.963C20.8357 42.2188 21.7182 41.6911 21.9648 40.8367L23.669 33.6442L25.3716 40.8359C25.6111 41.669 26.5407 42.213 27.4014 41.9622C28.2089 41.7319 28.7973 40.903 28.5269 39.9355L26.9496 31.079V25.5662H31.8712C32.7756 25.5662 33.5118 24.8301 33.5118 23.9257C33.5118 23.0214 32.7756 22.2852 31.8712 22.2852Z" fill="#BD142D"/>
<path d="M31.8712 22.2852H20.3875C18.578 22.2852 17.1064 23.7567 17.1064 25.5662V30.4878C17.1064 31.3922 17.8426 32.1284 18.747 32.1284C19.0021 32.1284 19.9906 31.9117 20.2481 31.86L18.8103 39.9348C18.562 40.8047 19.0658 41.7139 19.9358 41.963C20.8357 42.2188 21.7182 41.6911 21.9648 40.8367L23.669 33.6442L25.3716 40.8359C25.6111 41.669 26.5407 42.213 27.4014 41.9622C28.2089 41.7319 28.7973 40.903 28.5269 39.9355L26.9496 31.079V25.5662H31.8712C32.7756 25.5662 33.5118 24.8301 33.5118 23.9257C33.5118 23.0214 32.7756 22.2852 31.8712 22.2852Z" fill="url(#paint1_radial_472_72579)" fill-opacity="0.4"/>
<path d="M38.7728 17.3358L40.6537 15.4002C40.8884 15.1655 40.9588 14.8131 40.8315 14.5063C40.7049 14.1994 40.4054 14 40.0737 14H31.871C31.418 14 31.0508 14.3673 31.0508 14.8203V20.6168H40.0737C40.4054 20.6168 40.7049 20.4174 40.8315 20.1105C40.9588 19.8037 40.8884 19.4512 40.6536 19.2165L38.7728 17.3358Z" fill="#BD142D"/>
<path d="M38.7728 17.3358L40.6537 15.4002C40.8884 15.1655 40.9588 14.8131 40.8315 14.5063C40.7049 14.1994 40.4054 14 40.0737 14H31.871C31.418 14 31.0508 14.3673 31.0508 14.8203V20.6168H40.0737C40.4054 20.6168 40.7049 20.4174 40.8315 20.1105C40.9588 19.8037 40.8884 19.4512 40.6536 19.2165L38.7728 17.3358Z" fill="url(#paint2_radial_472_72579)" fill-opacity="0.4"/>
<path d="M31.871 27.1477H31.0508V41.147C31.0508 41.6004 31.4177 41.9673 31.871 41.9673C32.3245 41.9673 32.6913 41.6004 32.6913 41.147V27.0312C32.4275 27.0997 32.1559 27.1477 31.871 27.1477Z" fill="#BD142D"/>
<path d="M31.871 27.1477H31.0508V41.147C31.0508 41.6004 31.4177 41.9673 31.871 41.9673C32.3245 41.9673 32.6913 41.6004 32.6913 41.147V27.0312C32.4275 27.0997 32.1559 27.1477 31.871 27.1477Z" fill="url(#paint3_radial_472_72579)" fill-opacity="0.4"/>
</g>
</g>
<defs>
<radialGradient id="paint0_radial_472_72579" cx="0" cy="0" r="1" gradientUnits="userSpaceOnUse" gradientTransform="translate(22.7803 16.6196) rotate(56.2609) scale(3.77693 3.76118)">
<stop stop-color="white"/>
<stop offset="0.697917" stop-color="white" stop-opacity="0"/>
<stop offset="1" stop-color="white" stop-opacity="0"/>
</radialGradient>
<radialGradient id="paint1_radial_472_72579" cx="0" cy="0" r="1" gradientUnits="userSpaceOnUse" gradientTransform="translate(22.3508 26.169) rotate(60.7003) scale(14.2884 13.1476)">
<stop stop-color="white"/>
<stop offset="0.697917" stop-color="white" stop-opacity="0"/>
<stop offset="1" stop-color="white" stop-opacity="0"/>
</radialGradient>
<radialGradient id="paint2_radial_472_72579" cx="0" cy="0" r="1" gradientUnits="userSpaceOnUse" gradientTransform="translate(34.1974 15.3017) rotate(44.8676) scale(5.91971 6.38166)">
<stop stop-color="white"/>
<stop offset="0.697917" stop-color="white" stop-opacity="0"/>
<stop offset="1" stop-color="white" stop-opacity="0"/>
</radialGradient>
<radialGradient id="paint3_radial_472_72579" cx="0" cy="0" r="1" gradientUnits="userSpaceOnUse" gradientTransform="translate(31.5752 29.9695) rotate(85.7579) scale(9.45273 1.50349)">
<stop stop-color="white"/>
<stop offset="0.697917" stop-color="white" stop-opacity="0"/>
<stop offset="1" stop-color="white" stop-opacity="0"/>
</radialGradient>
<clipPath id="clip0_472_72579">
<rect width="56" height="56" fill="white"/>
</clipPath>
<clipPath id="clip1_472_72579">
<rect width="28" height="28" fill="white" transform="translate(15 14)"/>
</clipPath>
</defs>
</svg>
