<svg width="25" height="25" viewBox="0 0 25 25" fill="none" xmlns="http://www.w3.org/2000/svg">
<path d="M12.5078 1.71484C10.3206 1.71742 8.22366 2.58745 6.67704 4.13406C5.13042 5.68068 4.2604 7.7776 4.25782 9.96484C4.2552 11.7523 4.83906 13.4912 5.91982 14.9148C5.91982 14.9148 6.14482 15.2111 6.18157 15.2538L12.5078 22.7148L18.8371 15.2501C18.8701 15.2103 19.0958 14.9148 19.0958 14.9148L19.0966 14.9126C20.1768 13.4896 20.7604 11.7514 20.7578 9.96484C20.7552 7.7776 19.8852 5.68068 18.3386 4.13406C16.792 2.58745 14.6951 1.71742 12.5078 1.71484ZM12.5078 12.9648C11.9145 12.9648 11.3345 12.7889 10.8411 12.4593C10.3478 12.1296 9.96325 11.6611 9.73618 11.1129C9.50912 10.5647 9.44971 9.96152 9.56547 9.37957C9.68122 8.79763 9.96694 8.26308 10.3865 7.84352C10.8061 7.42397 11.3406 7.13824 11.9226 7.02249C12.5045 6.90673 13.1077 6.96614 13.6559 7.1932C14.204 7.42027 14.6726 7.80479 15.0022 8.29813C15.3319 8.79148 15.5078 9.3715 15.5078 9.96484C15.5068 10.7602 15.1904 11.5227 14.628 12.0851C14.0657 12.6475 13.3032 12.9639 12.5078 12.9648Z" fill="#FFDFCC"/>
</svg>
