<svg width="89" height="90" viewBox="0 0 89 90" fill="none" xmlns="http://www.w3.org/2000/svg">
<rect y="0.359375" width="89" height="89" rx="12" fill="#EEF5FF"/>
<path d="M65.5621 17.9469C65.4495 17.7667 65.2929 17.6183 65.107 17.5155C64.9211 17.4127 64.712 17.359 64.4996 17.3594H56.9996C56.7701 17.3589 56.5448 17.4216 56.3486 17.5407C56.1524 17.6598 55.9927 17.8306 55.8871 18.0344L40.3496 48.0344C41.6902 47.598 43.0899 47.3703 44.4996 47.3594C46.6743 47.3533 48.8183 47.8721 50.7496 48.8719L55.1121 40.1219L56.4371 42.7969L60.5621 35.2344L59.3121 32.9844C59.2104 32.8011 59.0643 32.6464 58.8871 32.5344L65.6121 19.1719C65.7097 18.9806 65.7564 18.7674 65.7476 18.5528C65.7389 18.3383 65.675 18.1296 65.5621 17.9469Z" fill="#BD142D"/>
<path d="M65.5621 17.9469C65.4495 17.7667 65.2929 17.6183 65.107 17.5155C64.9211 17.4127 64.712 17.359 64.4996 17.3594H56.9996C56.7701 17.3589 56.5448 17.4216 56.3486 17.5407C56.1524 17.6598 55.9927 17.8306 55.8871 18.0344L40.3496 48.0344C41.6902 47.598 43.0899 47.3703 44.4996 47.3594C46.6743 47.3533 48.8183 47.8721 50.7496 48.8719L55.1121 40.1219L56.4371 42.7969L60.5621 35.2344L59.3121 32.9844C59.2104 32.8011 59.0643 32.6464 58.8871 32.5344L65.6121 19.1719C65.7097 18.9806 65.7564 18.7674 65.7476 18.5528C65.7389 18.3383 65.675 18.1296 65.5621 17.9469Z" fill="url(#paint0_radial_472_75092)" fill-opacity="0.4"/>
<path d="M70.7506 32.3594H65.7506C65.5257 32.3588 65.3049 32.4188 65.1113 32.5332C64.9177 32.6476 64.7585 32.8121 64.6506 33.0094L59.3506 42.7219C60.2131 42.48 61.1048 42.3581 62.0006 42.3594C63.7858 42.3606 65.5381 42.8397 67.0756 43.7469L71.8631 34.1719C71.959 33.9816 72.0046 33.77 71.9957 33.5571C71.9868 33.3442 71.9236 33.1371 71.8121 32.9555C71.7007 32.7739 71.5446 32.6238 71.3588 32.5195C71.173 32.4151 70.9637 32.36 70.7506 32.3594Z" fill="#BD142D"/>
<path d="M70.7506 32.3594H65.7506C65.5257 32.3588 65.3049 32.4188 65.1113 32.5332C64.9177 32.6476 64.7585 32.8121 64.6506 33.0094L59.3506 42.7219C60.2131 42.48 61.1048 42.3581 62.0006 42.3594C63.7858 42.3606 65.5381 42.8397 67.0756 43.7469L71.8631 34.1719C71.959 33.9816 72.0046 33.77 71.9957 33.5571C71.9868 33.3442 71.9236 33.1371 71.8121 32.9555C71.7007 32.7739 71.5446 32.6238 71.3588 32.5195C71.173 32.4151 70.9637 32.36 70.7506 32.3594Z" fill="url(#paint1_radial_472_75092)" fill-opacity="0.4"/>
<path d="M44.5 49.8594C42.275 49.8594 40.0999 50.5192 38.2498 51.7553C36.3998 52.9915 34.9578 54.7485 34.1064 56.8042C33.2549 58.8599 33.0321 61.1219 33.4662 63.3041C33.9003 65.4864 34.9717 67.491 36.5451 69.0643C38.1184 70.6377 40.123 71.7091 42.3052 72.1432C44.4875 72.5773 46.7495 72.3545 48.8052 71.503C50.8609 70.6515 52.6179 69.2096 53.854 67.3595C55.0902 65.5095 55.75 63.3344 55.75 61.1094C55.75 58.1257 54.5647 55.2642 52.455 53.1544C50.3452 51.0446 47.4837 49.8594 44.5 49.8594ZM45.75 64.8594C45.75 65.1909 45.6183 65.5088 45.3839 65.7433C45.1495 65.9777 44.8315 66.1094 44.5 66.1094C44.1685 66.1094 43.8505 65.9777 43.6161 65.7433C43.3817 65.5088 43.25 65.1909 43.25 64.8594V59.8594C43.0855 59.8603 42.9224 59.8288 42.7701 59.7666C42.6178 59.7044 42.4793 59.6127 42.3625 59.4969C42.2453 59.3807 42.1524 59.2424 42.0889 59.0901C42.0254 58.9378 41.9928 58.7744 41.9928 58.6094C41.9928 58.4444 42.0254 58.281 42.0889 58.1287C42.1524 57.9763 42.2453 57.8381 42.3625 57.7219L43.6125 56.4719C43.7883 56.2984 44.0115 56.1809 44.254 56.1342C44.4965 56.0875 44.7474 56.1137 44.975 56.2094C45.2033 56.3032 45.3987 56.4624 45.5366 56.667C45.6745 56.8717 45.7488 57.1126 45.75 57.3594V64.8594Z" fill="#BD142D"/>
<path d="M44.5 49.8594C42.275 49.8594 40.0999 50.5192 38.2498 51.7553C36.3998 52.9915 34.9578 54.7485 34.1064 56.8042C33.2549 58.8599 33.0321 61.1219 33.4662 63.3041C33.9003 65.4864 34.9717 67.491 36.5451 69.0643C38.1184 70.6377 40.123 71.7091 42.3052 72.1432C44.4875 72.5773 46.7495 72.3545 48.8052 71.503C50.8609 70.6515 52.6179 69.2096 53.854 67.3595C55.0902 65.5095 55.75 63.3344 55.75 61.1094C55.75 58.1257 54.5647 55.2642 52.455 53.1544C50.3452 51.0446 47.4837 49.8594 44.5 49.8594ZM45.75 64.8594C45.75 65.1909 45.6183 65.5088 45.3839 65.7433C45.1495 65.9777 44.8315 66.1094 44.5 66.1094C44.1685 66.1094 43.8505 65.9777 43.6161 65.7433C43.3817 65.5088 43.25 65.1909 43.25 64.8594V59.8594C43.0855 59.8603 42.9224 59.8288 42.7701 59.7666C42.6178 59.7044 42.4793 59.6127 42.3625 59.4969C42.2453 59.3807 42.1524 59.2424 42.0889 59.0901C42.0254 58.9378 41.9928 58.7744 41.9928 58.6094C41.9928 58.4444 42.0254 58.281 42.0889 58.1287C42.1524 57.9763 42.2453 57.8381 42.3625 57.7219L43.6125 56.4719C43.7883 56.2984 44.0115 56.1809 44.254 56.1342C44.4965 56.0875 44.7474 56.1137 44.975 56.2094C45.2033 56.3032 45.3987 56.4624 45.5366 56.667C45.6745 56.8717 45.7488 57.1126 45.75 57.3594V64.8594Z" fill="url(#paint2_radial_472_75092)" fill-opacity="0.4"/>
<path d="M27 44.8594C25.5166 44.8594 24.0666 45.2992 22.8332 46.1234C21.5999 46.9475 20.6386 48.1188 20.0709 49.4892C19.5032 50.8597 19.3547 52.3677 19.6441 53.8226C19.9335 55.2774 20.6478 56.6138 21.6967 57.6627C22.7456 58.7116 24.082 59.4259 25.5368 59.7153C26.9917 60.0047 28.4997 59.8561 29.8701 59.2885C31.2406 58.7208 32.4119 57.7595 33.236 56.5261C34.0601 55.2928 34.5 53.8427 34.5 52.3594C34.5 50.3703 33.7098 48.4626 32.3033 47.0561C30.8968 45.6496 28.9891 44.8594 27 44.8594ZM29.5 51.1094C29.4981 51.3544 29.4242 51.5935 29.2875 51.7969L28.0375 53.6094H28.25C28.5815 53.6094 28.8995 53.7411 29.1339 53.9755C29.3683 54.2099 29.5 54.5279 29.5 54.8594C29.5 55.1909 29.3683 55.5088 29.1339 55.7433C28.8995 55.9777 28.5815 56.1094 28.25 56.1094H25.75C25.5239 56.1088 25.3021 56.0468 25.1084 55.9302C24.9147 55.8135 24.7563 55.6465 24.65 55.4469C24.5496 55.2514 24.5026 55.0329 24.5135 54.8135C24.5245 54.594 24.5931 54.3814 24.7125 54.1969L26.75 51.1094H25.75C25.4185 51.1094 25.1005 50.9777 24.8661 50.7433C24.6317 50.5088 24.5 50.1909 24.5 49.8594C24.5 49.5279 24.6317 49.2099 24.8661 48.9755C25.1005 48.7411 25.4185 48.6094 25.75 48.6094H28.25C28.5815 48.6094 28.8995 48.7411 29.1339 48.9755C29.3683 49.2099 29.5 49.5279 29.5 49.8594V51.1094Z" fill="#BD142D"/>
<path d="M27 44.8594C25.5166 44.8594 24.0666 45.2992 22.8332 46.1234C21.5999 46.9475 20.6386 48.1188 20.0709 49.4892C19.5032 50.8597 19.3547 52.3677 19.6441 53.8226C19.9335 55.2774 20.6478 56.6138 21.6967 57.6627C22.7456 58.7116 24.082 59.4259 25.5368 59.7153C26.9917 60.0047 28.4997 59.8561 29.8701 59.2885C31.2406 58.7208 32.4119 57.7595 33.236 56.5261C34.0601 55.2928 34.5 53.8427 34.5 52.3594C34.5 50.3703 33.7098 48.4626 32.3033 47.0561C30.8968 45.6496 28.9891 44.8594 27 44.8594ZM29.5 51.1094C29.4981 51.3544 29.4242 51.5935 29.2875 51.7969L28.0375 53.6094H28.25C28.5815 53.6094 28.8995 53.7411 29.1339 53.9755C29.3683 54.2099 29.5 54.5279 29.5 54.8594C29.5 55.1909 29.3683 55.5088 29.1339 55.7433C28.8995 55.9777 28.5815 56.1094 28.25 56.1094H25.75C25.5239 56.1088 25.3021 56.0468 25.1084 55.9302C24.9147 55.8135 24.7563 55.6465 24.65 55.4469C24.5496 55.2514 24.5026 55.0329 24.5135 54.8135C24.5245 54.594 24.5931 54.3814 24.7125 54.1969L26.75 51.1094H25.75C25.4185 51.1094 25.1005 50.9777 24.8661 50.7433C24.6317 50.5088 24.5 50.1909 24.5 49.8594C24.5 49.5279 24.6317 49.2099 24.8661 48.9755C25.1005 48.7411 25.4185 48.6094 25.75 48.6094H28.25C28.5815 48.6094 28.8995 48.7411 29.1339 48.9755C29.3683 49.2099 29.5 49.5279 29.5 49.8594V51.1094Z" fill="url(#paint3_radial_472_75092)" fill-opacity="0.4"/>
<path d="M62 44.8594C60.5166 44.8594 59.0666 45.2992 57.8332 46.1234C56.5999 46.9475 55.6386 48.1188 55.0709 49.4892C54.5032 50.8597 54.3547 52.3677 54.6441 53.8226C54.9335 55.2774 55.6478 56.6138 56.6967 57.6627C57.7456 58.7116 59.082 59.4259 60.5368 59.7153C61.9917 60.0047 63.4997 59.8561 64.8701 59.2885C66.2406 58.7208 67.4119 57.7595 68.236 56.5261C69.0601 55.2928 69.5 53.8427 69.5 52.3594C69.5 50.3703 68.7098 48.4626 67.3033 47.0561C65.8968 45.6496 63.9891 44.8594 62 44.8594ZM64.5 54.8594C64.5 55.1909 64.3683 55.5088 64.1339 55.7433C63.8995 55.9777 63.5815 56.1094 63.25 56.1094H60.75C60.4185 56.1094 60.1005 55.9777 59.8661 55.7433C59.6317 55.5088 59.5 55.1909 59.5 54.8594C59.5 54.5279 59.6317 54.2099 59.8661 53.9755C60.1005 53.7411 60.4185 53.6094 60.75 53.6094H62C61.6685 53.6094 61.3505 53.4777 61.1161 53.2433C60.8817 53.0088 60.75 52.6909 60.75 52.3594C60.75 52.0279 60.8817 51.7099 61.1161 51.4755C61.3505 51.2411 61.6685 51.1094 62 51.1094H60.75C60.4185 51.1094 60.1005 50.9777 59.8661 50.7433C59.6317 50.5088 59.5 50.1909 59.5 49.8594C59.5 49.5279 59.6317 49.2099 59.8661 48.9755C60.1005 48.7411 60.4185 48.6094 60.75 48.6094H63.25C63.5815 48.6094 63.8995 48.7411 64.1339 48.9755C64.3683 49.2099 64.5 49.5279 64.5 49.8594V54.8594Z" fill="#BD142D"/>
<path d="M62 44.8594C60.5166 44.8594 59.0666 45.2992 57.8332 46.1234C56.5999 46.9475 55.6386 48.1188 55.0709 49.4892C54.5032 50.8597 54.3547 52.3677 54.6441 53.8226C54.9335 55.2774 55.6478 56.6138 56.6967 57.6627C57.7456 58.7116 59.082 59.4259 60.5368 59.7153C61.9917 60.0047 63.4997 59.8561 64.8701 59.2885C66.2406 58.7208 67.4119 57.7595 68.236 56.5261C69.0601 55.2928 69.5 53.8427 69.5 52.3594C69.5 50.3703 68.7098 48.4626 67.3033 47.0561C65.8968 45.6496 63.9891 44.8594 62 44.8594ZM64.5 54.8594C64.5 55.1909 64.3683 55.5088 64.1339 55.7433C63.8995 55.9777 63.5815 56.1094 63.25 56.1094H60.75C60.4185 56.1094 60.1005 55.9777 59.8661 55.7433C59.6317 55.5088 59.5 55.1909 59.5 54.8594C59.5 54.5279 59.6317 54.2099 59.8661 53.9755C60.1005 53.7411 60.4185 53.6094 60.75 53.6094H62C61.6685 53.6094 61.3505 53.4777 61.1161 53.2433C60.8817 53.0088 60.75 52.6909 60.75 52.3594C60.75 52.0279 60.8817 51.7099 61.1161 51.4755C61.3505 51.2411 61.6685 51.1094 62 51.1094H60.75C60.4185 51.1094 60.1005 50.9777 59.8661 50.7433C59.6317 50.5088 59.5 50.1909 59.5 49.8594C59.5 49.5279 59.6317 49.2099 59.8661 48.9755C60.1005 48.7411 60.4185 48.6094 60.75 48.6094H63.25C63.5815 48.6094 63.8995 48.7411 64.1339 48.9755C64.3683 49.2099 64.5 49.5279 64.5 49.8594V54.8594Z" fill="url(#paint4_radial_472_75092)" fill-opacity="0.4"/>
<path d="M24.3501 42.7219C25.2126 42.48 26.1043 42.3581 27.0001 42.3594C28.7853 42.3606 30.5376 42.8397 32.0751 43.7469L33.8751 40.1469L37.6251 47.7469L43.0376 37.2844L33.0376 18.0344C32.9382 17.8415 32.7902 17.6778 32.6083 17.5594C32.4264 17.4411 32.2168 17.3721 32.0001 17.3594H24.5001C24.287 17.36 24.0777 17.4151 23.8919 17.5195C23.7061 17.6238 23.55 17.7739 23.4386 17.9555C23.3271 18.1371 23.2639 18.3442 23.255 18.5571C23.2461 18.7699 23.2917 18.9816 23.3876 19.1719L30.0751 32.5594C29.898 32.6714 29.7518 32.8261 29.6501 33.0094L24.3501 42.7219Z" fill="#BD142D"/>
<path d="M24.3501 42.7219C25.2126 42.48 26.1043 42.3581 27.0001 42.3594C28.7853 42.3606 30.5376 42.8397 32.0751 43.7469L33.8751 40.1469L37.6251 47.7469L43.0376 37.2844L33.0376 18.0344C32.9382 17.8415 32.7902 17.6778 32.6083 17.5594C32.4264 17.4411 32.2168 17.3721 32.0001 17.3594H24.5001C24.287 17.36 24.0777 17.4151 23.8919 17.5195C23.7061 17.6238 23.55 17.7739 23.4386 17.9555C23.3271 18.1371 23.2639 18.3442 23.255 18.5571C23.2461 18.7699 23.2917 18.9816 23.3876 19.1719L30.0751 32.5594C29.898 32.6714 29.7518 32.8261 29.6501 33.0094L24.3501 42.7219Z" fill="url(#paint5_radial_472_75092)" fill-opacity="0.4"/>
<path d="M25.5751 35.2594L24.3251 33.0094C24.2192 32.8158 24.064 32.6537 23.8752 32.5395C23.6864 32.4254 23.4707 32.3632 23.2501 32.3594H18.2501C18.037 32.36 17.8277 32.4151 17.6419 32.5195C17.4561 32.6238 17.3 32.7739 17.1886 32.9555C17.0771 33.1371 17.0139 33.3442 17.005 33.5571C16.9961 33.7699 17.0417 33.9816 17.1376 34.1719L21.4626 42.8219L25.5751 35.2594Z" fill="#BD142D"/>
<path d="M25.5751 35.2594L24.3251 33.0094C24.2192 32.8158 24.064 32.6537 23.8752 32.5395C23.6864 32.4254 23.4707 32.3632 23.2501 32.3594H18.2501C18.037 32.36 17.8277 32.4151 17.6419 32.5195C17.4561 32.6238 17.3 32.7739 17.1886 32.9555C17.0771 33.1371 17.0139 33.3442 17.005 33.5571C16.9961 33.7699 17.0417 33.9816 17.1376 34.1719L21.4626 42.8219L25.5751 35.2594Z" fill="url(#paint6_radial_472_75092)" fill-opacity="0.4"/>
<defs>
<radialGradient id="paint0_radial_472_75092" cx="0" cy="0" r="1" gradientUnits="userSpaceOnUse" gradientTransform="translate(48.469 23.5586) rotate(61.4401) scale(22.6445 20.5012)">
<stop stop-color="white"/>
<stop offset="0.697917" stop-color="white" stop-opacity="0"/>
<stop offset="1" stop-color="white" stop-opacity="0"/>
</radialGradient>
<radialGradient id="paint1_radial_472_75092" cx="0" cy="0" r="1" gradientUnits="userSpaceOnUse" gradientTransform="translate(63.3932 34.5995) rotate(53.1312) scale(8.98387 9.29753)">
<stop stop-color="white"/>
<stop offset="0.697917" stop-color="white" stop-opacity="0"/>
<stop offset="1" stop-color="white" stop-opacity="0"/>
</radialGradient>
<radialGradient id="paint2_radial_472_75092" cx="0" cy="0" r="1" gradientUnits="userSpaceOnUse" gradientTransform="translate(40.4426 54.2856) rotate(55.9679) scale(17.1358)">
<stop stop-color="white"/>
<stop offset="0.697917" stop-color="white" stop-opacity="0"/>
<stop offset="1" stop-color="white" stop-opacity="0"/>
</radialGradient>
<radialGradient id="paint3_radial_472_75092" cx="0" cy="0" r="1" gradientUnits="userSpaceOnUse" gradientTransform="translate(24.2951 47.8102) rotate(55.9679) scale(11.4238)">
<stop stop-color="white"/>
<stop offset="0.697917" stop-color="white" stop-opacity="0"/>
<stop offset="1" stop-color="white" stop-opacity="0"/>
</radialGradient>
<radialGradient id="paint4_radial_472_75092" cx="0" cy="0" r="1" gradientUnits="userSpaceOnUse" gradientTransform="translate(59.2951 47.8102) rotate(55.9679) scale(11.4238)">
<stop stop-color="white"/>
<stop offset="0.697917" stop-color="white" stop-opacity="0"/>
<stop offset="1" stop-color="white" stop-opacity="0"/>
</radialGradient>
<radialGradient id="paint5_radial_472_75092" cx="0" cy="0" r="1" gradientUnits="userSpaceOnUse" gradientTransform="translate(29.5782 23.3372) rotate(66.2664) scale(20.9509 16.6434)">
<stop stop-color="white"/>
<stop offset="0.697917" stop-color="white" stop-opacity="0"/>
<stop offset="1" stop-color="white" stop-opacity="0"/>
</radialGradient>
<radialGradient id="paint6_radial_472_75092" cx="0" cy="0" r="1" gradientUnits="userSpaceOnUse" gradientTransform="translate(19.7439 34.4176) rotate(61.0465) scale(7.54661 6.89237)">
<stop stop-color="white"/>
<stop offset="0.697917" stop-color="white" stop-opacity="0"/>
<stop offset="1" stop-color="white" stop-opacity="0"/>
</radialGradient>
</defs>
</svg>
