<svg width="40" height="40" viewBox="0 0 40 40" fill="none" xmlns="http://www.w3.org/2000/svg">
<path d="M21.9762 8.11719H10.7593C7.97673 8.11719 5.71289 10.381 5.71289 13.1636V19.1388C5.71289 21.9214 7.97673 24.1852 10.7593 24.1852H11.1287V27.77C11.1287 27.9098 11.213 28.0358 11.3421 28.0893C11.3849 28.107 11.4298 28.1156 11.4744 28.1156C11.5643 28.1156 11.6527 28.0805 11.7188 28.0145L15.5496 24.1852H21.9762C24.7578 24.1852 27.0209 21.9214 27.0209 19.1388V13.1636C27.0209 10.381 24.7578 8.11719 21.9762 8.11719ZM11.9902 17.2682C11.3757 17.2682 10.8732 16.7658 10.8732 16.1512C10.8732 15.5366 11.3756 15.0342 11.9902 15.0342C12.6048 15.0342 13.1072 15.5366 13.1072 16.1512C13.1072 16.7658 12.6048 17.2682 11.9902 17.2682ZM16.3678 17.2682C15.7532 17.2682 15.2508 16.7658 15.2508 16.1512C15.2508 15.5366 15.7532 15.0342 16.3678 15.0342C16.9824 15.0342 17.4831 15.5366 17.4831 16.1512C17.4831 16.7658 16.9824 17.2682 16.3678 17.2682ZM20.7453 17.2682C20.1291 17.2682 19.6284 16.7658 19.6284 16.1512C19.6284 15.5366 20.1291 15.0342 20.7453 15.0342C21.3616 15.0342 21.8607 15.5366 21.8607 16.1512C21.8607 16.7658 21.3599 17.2682 20.7453 17.2682ZM34.289 16.9282V22.9034C34.289 25.6851 32.0259 27.9481 29.2443 27.9481H28.8732V31.5346C28.8732 31.6744 28.789 31.8004 28.6598 31.8539C28.617 31.8716 28.5722 31.8802 28.5276 31.8802C28.4376 31.8802 28.3492 31.8451 28.2831 31.779L24.4523 27.9481H18.0274C16.865 27.9481 15.7502 27.539 14.8644 26.8253L16.1223 25.5679H21.9763C25.5205 25.5679 28.4038 22.6838 28.4038 19.1387V13.1636C28.4038 12.7247 28.3595 12.2961 28.2753 11.8817H29.2443C32.0259 11.8817 34.289 14.1456 34.289 16.9282V16.9282Z" fill="white"/>
</svg>
