<svg width="31" height="31" viewBox="0 0 31 31" fill="none" xmlns="http://www.w3.org/2000/svg">
<path d="M25.1303 3.5H5.85406C4.54962 3.5 3.49219 4.55743 3.49219 5.86188V25.1381C3.49219 26.4426 4.54962 27.5 5.85406 27.5H25.1303C26.4348 27.5 27.4922 26.4426 27.4922 25.1381V5.86188C27.4922 4.55743 26.4348 3.5 25.1303 3.5Z" fill="#BD142D"/>
<path d="M25.1303 3.5H5.85406C4.54962 3.5 3.49219 4.55743 3.49219 5.86188V25.1381C3.49219 26.4426 4.54962 27.5 5.85406 27.5H25.1303C26.4348 27.5 27.4922 26.4426 27.4922 25.1381V5.86188C27.4922 4.55743 26.4348 3.5 25.1303 3.5Z" fill="url(#paint0_radial_3015_5170)" fill-opacity="0.4"/>
<path d="M21.4473 5.69392C21.4473 5.31434 21.0845 5.03987 20.7191 5.14295L10.9903 6.62666C10.5765 6.74366 10.2905 7.12141 10.2905 7.55152V16.7859C9.99493 16.6467 9.66498 16.5686 9.31671 16.5686C8.05237 16.5686 7.02734 17.5934 7.02734 18.8577C7.02734 20.1223 8.05237 21.1471 9.31671 21.1471C10.567 21.1471 11.5823 20.1448 11.605 18.8999H11.6059V10.3975L20.1318 9.25349V15.8021C19.8363 15.6629 19.5063 15.5847 19.1579 15.5847C17.8936 15.5847 16.8685 16.6098 16.8685 17.8741C16.8685 19.1384 17.8936 20.1635 19.1579 20.1635C20.4081 20.1635 21.4236 19.1611 21.4462 17.9162H21.4473V5.69392Z" fill="white"/>
<path d="M13.4114 8.79894C13.2312 8.79894 13.075 8.66454 13.0523 8.48107L12.9988 8.04711C12.9745 7.84862 13.1156 7.6679 13.3141 7.64336C13.5124 7.61901 13.6933 7.76 13.7179 7.95867L13.7713 8.39244C13.7957 8.59111 13.6547 8.77184 13.456 8.79619C13.441 8.79802 13.4262 8.79894 13.4114 8.79894Z" fill="#BD142D"/>
<path d="M13.4114 8.79894C13.2312 8.79894 13.075 8.66454 13.0523 8.48107L12.9988 8.04711C12.9745 7.84862 13.1156 7.6679 13.3141 7.64336C13.5124 7.61901 13.6933 7.76 13.7179 7.95867L13.7713 8.39244C13.7957 8.59111 13.6547 8.77184 13.456 8.79619C13.441 8.79802 13.4262 8.79894 13.4114 8.79894Z" fill="url(#paint1_radial_3015_5170)" fill-opacity="0.4"/>
<path d="M18.2081 8.20913C18.0279 8.20913 17.8717 8.07455 17.849 7.89108L17.7957 7.4573C17.7712 7.25863 17.9122 7.07791 18.1109 7.05355C18.3081 7.02902 18.4901 7.17001 18.5144 7.36868L18.5679 7.80246C18.5924 8.00113 18.4513 8.18185 18.2528 8.2062C18.2379 8.20822 18.2229 8.20913 18.2081 8.20913Z" fill="#BD142D"/>
<path d="M18.2081 8.20913C18.0279 8.20913 17.8717 8.07455 17.849 7.89108L17.7957 7.4573C17.7712 7.25863 17.9122 7.07791 18.1109 7.05355C18.3081 7.02902 18.4901 7.17001 18.5144 7.36868L18.5679 7.80246C18.5924 8.00113 18.4513 8.18185 18.2528 8.2062C18.2379 8.20822 18.2229 8.20913 18.2081 8.20913Z" fill="url(#paint2_radial_3015_5170)" fill-opacity="0.4"/>
<path d="M15.7358 8.745C15.4526 8.745 15.1805 8.64374 14.9723 8.45752C14.8232 8.32422 14.8104 8.09515 14.9439 7.94611C15.0772 7.79706 15.3061 7.78442 15.4553 7.91772C15.5434 7.99664 15.6666 8.03272 15.7935 8.01715C15.9204 8.00159 16.0312 7.9364 16.0976 7.83862C16.2099 7.6731 16.4349 7.62988 16.6006 7.74213C16.7661 7.85437 16.8094 8.07959 16.6971 8.24512C16.5135 8.51593 16.2165 8.69482 15.8821 8.73602C15.8332 8.74207 15.7843 8.745 15.7358 8.745Z" fill="#BD142D"/>
<path d="M15.7358 8.745C15.4526 8.745 15.1805 8.64374 14.9723 8.45752C14.8232 8.32422 14.8104 8.09515 14.9439 7.94611C15.0772 7.79706 15.3061 7.78442 15.4553 7.91772C15.5434 7.99664 15.6666 8.03272 15.7935 8.01715C15.9204 8.00159 16.0312 7.9364 16.0976 7.83862C16.2099 7.6731 16.4349 7.62988 16.6006 7.74213C16.7661 7.85437 16.8094 8.07959 16.6971 8.24512C16.5135 8.51593 16.2165 8.69482 15.8821 8.73602C15.8332 8.74207 15.7843 8.745 15.7358 8.745Z" fill="url(#paint3_radial_3015_5170)" fill-opacity="0.4"/>
<path d="M24.6857 23.2461H6.29675C5.80054 23.2461 5.39844 23.6482 5.39844 24.1444C5.39844 24.6406 5.80054 25.0427 6.29675 25.0427H24.6857C25.1819 25.0427 25.584 24.6406 25.584 24.1444C25.584 23.6482 25.1819 23.2461 24.6857 23.2461Z" fill="white"/>
<path d="M6.71875 24.1444C6.71875 24.4577 6.76874 24.7595 6.86011 25.0427H12.4364C12.528 24.7595 12.5779 24.4577 12.5779 24.1444C12.5779 23.8311 12.528 23.5294 12.4364 23.2461H6.86011C6.76874 23.5294 6.71875 23.8311 6.71875 24.1444Z" fill="white"/>
<path d="M11.1318 24.145C11.1318 24.963 10.4688 25.626 9.65088 25.626C8.83295 25.626 8.16992 24.963 8.16992 24.145C8.16992 23.3271 8.83295 22.6641 9.65088 22.6641C10.4688 22.6641 11.1318 23.3271 11.1318 24.145Z" fill="#EBEBEB"/>
<path d="M7.49425 14.2691L6.24986 13.5349C5.89848 13.3276 5.89848 12.8193 6.24986 12.6122L7.49425 11.878C7.86119 11.6615 8.32426 11.9259 8.32426 12.352V13.7951C8.32426 14.221 7.86119 14.4856 7.49425 14.2691Z" fill="white"/>
<path d="M23.9726 14.2691L25.2172 13.5349C25.5684 13.3276 25.5684 12.8193 25.2172 12.6122L23.9726 11.878C23.6057 11.6615 23.1426 11.9259 23.1426 12.352V13.7951C23.1426 14.221 23.6057 14.4856 23.9726 14.2691Z" fill="white"/>
<defs>
<radialGradient id="paint0_radial_3015_5170" cx="0" cy="0" r="1" gradientUnits="userSpaceOnUse" gradientTransform="translate(11.1643 8.22131) rotate(55.9679) scale(18.2782)">
<stop stop-color="white"/>
<stop offset="0.697917" stop-color="white" stop-opacity="0"/>
<stop offset="1" stop-color="white" stop-opacity="0"/>
</radialGradient>
<radialGradient id="paint1_radial_3015_5170" cx="0" cy="0" r="1" gradientUnits="userSpaceOnUse" gradientTransform="translate(13.2448 7.86849) rotate(65.6016) scale(0.802757 0.651115)">
<stop stop-color="white"/>
<stop offset="0.697917" stop-color="white" stop-opacity="0"/>
<stop offset="1" stop-color="white" stop-opacity="0"/>
</radialGradient>
<radialGradient id="paint2_radial_3015_5170" cx="0" cy="0" r="1" gradientUnits="userSpaceOnUse" gradientTransform="translate(18.0416 7.27865) rotate(65.6103) scale(0.802728 0.650918)">
<stop stop-color="white"/>
<stop offset="0.697917" stop-color="white" stop-opacity="0"/>
<stop offset="1" stop-color="white" stop-opacity="0"/>
</radialGradient>
<radialGradient id="paint3_radial_3015_5170" cx="0" cy="0" r="1" gradientUnits="userSpaceOnUse" gradientTransform="translate(15.4615 7.88926) rotate(39.583) scale(1.0552 1.11728)">
<stop stop-color="white"/>
<stop offset="0.697917" stop-color="white" stop-opacity="0"/>
<stop offset="1" stop-color="white" stop-opacity="0"/>
</radialGradient>
</defs>
</svg>
