<svg width="52" height="52" viewBox="0 0 52 52" fill="none" xmlns="http://www.w3.org/2000/svg">
<rect x="0.5" y="0.5" width="51" height="51" rx="9.9" fill="white"/>
<rect x="0.5" y="0.5" width="51" height="51" rx="9.9" stroke="#E5E5E5"/>
<path d="M25.5077 26.3104C26.8039 26.3104 28.071 25.926 29.1488 25.2059C30.2265 24.4858 31.0665 23.4623 31.5625 22.2647C32.0585 21.0672 32.1883 19.7495 31.9355 18.4782C31.6826 17.2069 31.0584 16.0392 30.1419 15.1226C29.2253 14.2061 28.0576 13.5819 26.7863 13.3291C25.515 13.0762 24.1973 13.206 22.9998 13.702C21.8023 14.198 20.7787 15.038 20.0586 16.1158C19.3385 17.1935 18.9541 18.4606 18.9541 19.7568C18.9539 20.6174 19.1233 21.4697 19.4526 22.265C19.7818 23.0602 20.2646 23.7827 20.8732 24.3913C21.4818 24.9999 22.2043 25.4827 22.9995 25.8119C23.7948 26.1412 24.6471 26.3106 25.5077 26.3104ZM27.9551 23.3566C27.6459 23.3512 27.3453 23.2543 27.0912 23.078C26.8372 22.9018 26.6411 22.6541 26.5278 22.3665C26.4144 22.0788 26.389 21.7639 26.4546 21.4618C26.5202 21.1596 26.6739 20.8837 26.8964 20.6689C27.1188 20.4541 27.3999 20.3101 27.7042 20.2551C28.0084 20.2 28.3222 20.2365 28.6058 20.3598C28.8893 20.4831 29.1299 20.6877 29.2972 20.9478C29.4645 21.2078 29.5509 21.5116 29.5455 21.8208C29.5378 22.2352 29.366 22.6296 29.0678 22.9176C28.7697 23.2055 28.3695 23.3634 27.9551 23.3566ZM23.0447 16.1567C23.3366 16.1592 23.6219 16.2434 23.8684 16.3997C24.1149 16.5559 24.3128 16.7781 24.4396 17.041C24.5664 17.3039 24.6171 17.597 24.586 17.8872C24.5548 18.1774 24.4431 18.4531 24.2634 18.6831C24.0837 18.9131 23.8432 19.0882 23.5691 19.1886C23.2951 19.289 22.9984 19.3107 22.7126 19.2513C22.4269 19.1918 22.1635 19.0536 21.9522 18.8522C21.741 18.6508 21.5903 18.3943 21.5172 18.1117C21.4581 17.8796 21.4529 17.637 21.5021 17.4025C21.5513 17.1681 21.6536 16.948 21.8011 16.7593C21.9486 16.5705 22.1374 16.418 22.3529 16.3136C22.5685 16.2091 22.8052 16.1555 23.0447 16.1567ZM21.5724 22.0712C21.6661 21.9271 21.8132 21.8261 21.9813 21.7904C22.1494 21.7547 22.3248 21.7872 22.469 21.8808C22.6343 21.9878 22.8353 22.0249 23.028 21.9839C23.2206 21.943 23.3891 21.8273 23.4966 21.6622L26.4297 17.1458C26.7242 16.6922 27.1868 16.3742 27.7158 16.2618C28.2448 16.1494 28.7967 16.2517 29.2503 16.5462C29.3218 16.5925 29.3835 16.6524 29.4318 16.7225C29.4801 16.7927 29.5142 16.8717 29.5319 16.955C29.5497 17.0383 29.5509 17.1243 29.5354 17.2081C29.5199 17.2918 29.488 17.3717 29.4416 17.4432C29.3952 17.5146 29.3352 17.5762 29.265 17.6244C29.1947 17.6726 29.1157 17.7065 29.0324 17.7241C28.949 17.7418 28.863 17.7428 28.7793 17.7272C28.6956 17.7116 28.6157 17.6796 28.5444 17.6331C28.379 17.5262 28.178 17.4892 27.9854 17.5301C27.7928 17.5711 27.6243 17.6867 27.5167 17.8516L24.5837 22.3681C24.4384 22.5931 24.2499 22.7872 24.0292 22.9389C23.8084 23.0906 23.5597 23.1971 23.2975 23.2521C23.1568 23.282 23.0132 23.2971 22.8693 23.2973C22.4763 23.2971 22.0919 23.1825 21.763 22.9675C21.6188 22.8739 21.5178 22.7269 21.4821 22.5588C21.4464 22.3907 21.4788 22.2153 21.5724 22.0712Z" fill="#4334DD"/>
<path d="M25.5077 26.3104C26.8039 26.3104 28.071 25.926 29.1488 25.2059C30.2265 24.4858 31.0665 23.4623 31.5625 22.2647C32.0585 21.0672 32.1883 19.7495 31.9355 18.4782C31.6826 17.2069 31.0584 16.0392 30.1419 15.1226C29.2253 14.2061 28.0576 13.5819 26.7863 13.3291C25.515 13.0762 24.1973 13.206 22.9998 13.702C21.8023 14.198 20.7787 15.038 20.0586 16.1158C19.3385 17.1935 18.9541 18.4606 18.9541 19.7568C18.9539 20.6174 19.1233 21.4697 19.4526 22.265C19.7818 23.0602 20.2646 23.7827 20.8732 24.3913C21.4818 24.9999 22.2043 25.4827 22.9995 25.8119C23.7948 26.1412 24.6471 26.3106 25.5077 26.3104ZM27.9551 23.3566C27.6459 23.3512 27.3453 23.2543 27.0912 23.078C26.8372 22.9018 26.6411 22.6541 26.5278 22.3665C26.4144 22.0788 26.389 21.7639 26.4546 21.4618C26.5202 21.1596 26.6739 20.8837 26.8964 20.6689C27.1188 20.4541 27.3999 20.3101 27.7042 20.2551C28.0084 20.2 28.3222 20.2365 28.6058 20.3598C28.8893 20.4831 29.1299 20.6877 29.2972 20.9478C29.4645 21.2078 29.5509 21.5116 29.5455 21.8208C29.5378 22.2352 29.366 22.6296 29.0678 22.9176C28.7697 23.2055 28.3695 23.3634 27.9551 23.3566ZM23.0447 16.1567C23.3366 16.1592 23.6219 16.2434 23.8684 16.3997C24.1149 16.5559 24.3128 16.7781 24.4396 17.041C24.5664 17.3039 24.6171 17.597 24.586 17.8872C24.5548 18.1774 24.4431 18.4531 24.2634 18.6831C24.0837 18.9131 23.8432 19.0882 23.5691 19.1886C23.2951 19.289 22.9984 19.3107 22.7126 19.2513C22.4269 19.1918 22.1635 19.0536 21.9522 18.8522C21.741 18.6508 21.5903 18.3943 21.5172 18.1117C21.4581 17.8796 21.4529 17.637 21.5021 17.4025C21.5513 17.1681 21.6536 16.948 21.8011 16.7593C21.9486 16.5705 22.1374 16.418 22.3529 16.3136C22.5685 16.2091 22.8052 16.1555 23.0447 16.1567ZM21.5724 22.0712C21.6661 21.9271 21.8132 21.8261 21.9813 21.7904C22.1494 21.7547 22.3248 21.7872 22.469 21.8808C22.6343 21.9878 22.8353 22.0249 23.028 21.9839C23.2206 21.943 23.3891 21.8273 23.4966 21.6622L26.4297 17.1458C26.7242 16.6922 27.1868 16.3742 27.7158 16.2618C28.2448 16.1494 28.7967 16.2517 29.2503 16.5462C29.3218 16.5925 29.3835 16.6524 29.4318 16.7225C29.4801 16.7927 29.5142 16.8717 29.5319 16.955C29.5497 17.0383 29.5509 17.1243 29.5354 17.2081C29.5199 17.2918 29.488 17.3717 29.4416 17.4432C29.3952 17.5146 29.3352 17.5762 29.265 17.6244C29.1947 17.6726 29.1157 17.7065 29.0324 17.7241C28.949 17.7418 28.863 17.7428 28.7793 17.7272C28.6956 17.7116 28.6157 17.6796 28.5444 17.6331C28.379 17.5262 28.178 17.4892 27.9854 17.5301C27.7928 17.5711 27.6243 17.6867 27.5167 17.8516L24.5837 22.3681C24.4384 22.5931 24.2499 22.7872 24.0292 22.9389C23.8084 23.0906 23.5597 23.1971 23.2975 23.2521C23.1568 23.282 23.0132 23.2971 22.8693 23.2973C22.4763 23.2971 22.0919 23.1825 21.763 22.9675C21.6188 22.8739 21.5178 22.7269 21.4821 22.5588C21.4464 22.3907 21.4788 22.2153 21.5724 22.0712Z" fill="url(#paint0_radial_806_34113)" fill-opacity="0.7"/>
<path d="M18.0745 28.0644C17.6665 28.1759 17.3037 28.4128 17.0375 28.7415C16.7713 29.0703 16.6151 29.4743 16.5908 29.8967L16.2074 36.5109C16.1875 36.861 16.2952 37.2064 16.5107 37.483C16.7261 37.7596 17.0347 37.9486 17.379 38.0149C19.0654 38.3416 20.7701 38.5658 22.4837 38.6862L22.7407 35.8887H22.2167C22.057 35.8887 21.9039 35.8253 21.791 35.7124C21.6782 35.5996 21.6147 35.4464 21.6147 35.2868C21.6147 35.1272 21.6782 34.9741 21.791 34.8612C21.9039 34.7483 22.057 34.6849 22.2167 34.6849H22.8504L23.2286 30.5824L21.7245 27.3086C20.5846 27.3977 19.2975 27.7308 18.0745 28.0644Z" fill="#4334DD"/>
<path d="M18.0745 28.0644C17.6665 28.1759 17.3037 28.4128 17.0375 28.7415C16.7713 29.0703 16.6151 29.4743 16.5908 29.8967L16.2074 36.5109C16.1875 36.861 16.2952 37.2064 16.5107 37.483C16.7261 37.7596 17.0347 37.9486 17.379 38.0149C19.0654 38.3416 20.7701 38.5658 22.4837 38.6862L22.7407 35.8887H22.2167C22.057 35.8887 21.9039 35.8253 21.791 35.7124C21.6782 35.5996 21.6147 35.4464 21.6147 35.2868C21.6147 35.1272 21.6782 34.9741 21.791 34.8612C21.9039 34.7483 22.057 34.6849 22.2167 34.6849H22.8504L23.2286 30.5824L21.7245 27.3086C20.5846 27.3977 19.2975 27.7308 18.0745 28.0644Z" fill="url(#paint1_radial_806_34113)" fill-opacity="0.7"/>
<path d="M34.8083 36.5101L34.4248 29.8936C34.4006 29.472 34.2448 29.0686 33.9794 28.7401C33.7139 28.4116 33.3522 28.1747 32.9451 28.0625C31.7548 27.7351 30.5031 27.4069 29.3981 27.3164L27.793 30.6711L28.5291 38.6854C30.2437 38.5651 31.9494 38.3409 33.6368 38.014C33.9811 37.9477 34.2896 37.7587 34.5051 37.4822C34.7206 37.2056 34.8283 36.8602 34.8083 36.5101Z" fill="#4334DD"/>
<path d="M34.8083 36.5101L34.4248 29.8936C34.4006 29.472 34.2448 29.0686 33.9794 28.7401C33.7139 28.4116 33.3522 28.1747 32.9451 28.0625C31.7548 27.7351 30.5031 27.4069 29.3981 27.3164L27.793 30.6711L28.5291 38.6854C30.2437 38.5651 31.9494 38.3409 33.6368 38.014C33.9811 37.9477 34.2896 37.7587 34.5051 37.4822C34.7206 37.2056 34.8283 36.8602 34.8083 36.5101Z" fill="url(#paint2_radial_806_34113)" fill-opacity="0.7"/>
<path d="M26.8602 28.0664H24.1552C24.1023 28.0664 24.0503 28.0809 24.0051 28.1083C23.9598 28.1357 23.9229 28.175 23.8983 28.2219C23.8738 28.2688 23.8625 28.3215 23.8658 28.3743C23.8691 28.4272 23.8867 28.4781 23.9169 28.5216L24.5161 29.3858C24.6707 29.6083 24.7422 29.8781 24.7182 30.1479L24.4352 33.2024L24.2996 34.6834H24.9102C25.0698 34.6834 25.2229 34.7468 25.3358 34.8597C25.4487 34.9726 25.5121 35.1257 25.5121 35.2854C25.5121 35.445 25.4487 35.5981 25.3358 35.711C25.2229 35.8239 25.0698 35.8873 24.9102 35.8873H24.1898L23.9242 38.7656C24.9809 38.806 26.0356 38.806 27.0884 38.7656L26.5774 33.2082L26.2945 30.1508C26.269 29.879 26.3406 29.607 26.4965 29.3829L27.097 28.5197C27.1271 28.4764 27.1448 28.4257 27.1481 28.3731C27.1515 28.3205 27.1403 28.268 27.1159 28.2213C27.0915 28.1746 27.0548 28.1355 27.0097 28.1082C26.9646 28.0808 26.9129 28.0664 26.8602 28.0664Z" fill="#4334DD"/>
<path d="M26.8602 28.0664H24.1552C24.1023 28.0664 24.0503 28.0809 24.0051 28.1083C23.9598 28.1357 23.9229 28.175 23.8983 28.2219C23.8738 28.2688 23.8625 28.3215 23.8658 28.3743C23.8691 28.4272 23.8867 28.4781 23.9169 28.5216L24.5161 29.3858C24.6707 29.6083 24.7422 29.8781 24.7182 30.1479L24.4352 33.2024L24.2996 34.6834H24.9102C25.0698 34.6834 25.2229 34.7468 25.3358 34.8597C25.4487 34.9726 25.5121 35.1257 25.5121 35.2854C25.5121 35.445 25.4487 35.5981 25.3358 35.711C25.2229 35.8239 25.0698 35.8873 24.9102 35.8873H24.1898L23.9242 38.7656C24.9809 38.806 26.0356 38.806 27.0884 38.7656L26.5774 33.2082L26.2945 30.1508C26.269 29.879 26.3406 29.607 26.4965 29.3829L27.097 28.5197C27.1271 28.4764 27.1448 28.4257 27.1481 28.3731C27.1515 28.3205 27.1403 28.268 27.1159 28.2213C27.0915 28.1746 27.0548 28.1355 27.0097 28.1082C26.9646 28.0808 26.9129 28.0664 26.8602 28.0664Z" fill="url(#paint3_radial_806_34113)" fill-opacity="0.7"/>
<defs>
<radialGradient id="paint0_radial_806_34113" cx="0" cy="0" r="1" gradientUnits="userSpaceOnUse" gradientTransform="translate(23.1441 15.7816) rotate(55.9679) scale(9.98237 9.98237)">
<stop stop-color="white"/>
<stop offset="0.697917" stop-color="white" stop-opacity="0"/>
<stop offset="1" stop-color="white" stop-opacity="0"/>
</radialGradient>
<radialGradient id="paint1_radial_806_34113" cx="0" cy="0" r="1" gradientUnits="userSpaceOnUse" gradientTransform="translate(18.4503 29.5468) rotate(67.3696) scale(7.77999 5.95758)">
<stop stop-color="white"/>
<stop offset="0.697917" stop-color="white" stop-opacity="0"/>
<stop offset="1" stop-color="white" stop-opacity="0"/>
</radialGradient>
<radialGradient id="paint2_radial_806_34113" cx="0" cy="0" r="1" gradientUnits="userSpaceOnUse" gradientTransform="translate(30.0363 29.5529) rotate(67.3709) scale(7.774 5.95273)">
<stop stop-color="white"/>
<stop offset="0.697917" stop-color="white" stop-opacity="0"/>
<stop offset="1" stop-color="white" stop-opacity="0"/>
</radialGradient>
<radialGradient id="paint3_radial_806_34113" cx="0" cy="0" r="1" gradientUnits="userSpaceOnUse" gradientTransform="translate(24.9149 30.1771) rotate(78.3234) scale(6.91502 2.95504)">
<stop stop-color="white"/>
<stop offset="0.697917" stop-color="white" stop-opacity="0"/>
<stop offset="1" stop-color="white" stop-opacity="0"/>
</radialGradient>
</defs>
</svg>
