<svg width="25" height="25" viewBox="0 0 25 25" fill="none" xmlns="http://www.w3.org/2000/svg">
<path d="M20.5061 11.2138H22.5061C22.5061 6.08384 18.6331 2.21484 13.4961 2.21484V4.21484C17.5581 4.21484 20.5061 7.15784 20.5061 11.2138Z" fill="#FFDFCC"/>
<path d="M13.5081 8.21508C15.6111 8.21508 16.5081 9.11208 16.5081 11.2151H18.5081C18.5081 7.99008 16.7331 6.21508 13.5081 6.21508V8.21508ZM16.9301 13.6581C16.7379 13.4834 16.4854 13.3903 16.2259 13.3983C15.9664 13.4063 15.7201 13.5149 15.5391 13.7011L13.1461 16.1621C12.5701 16.0521 11.4121 15.6911 10.2201 14.5021C9.02809 13.3091 8.66709 12.1481 8.56009 11.5761L11.0191 9.18208C11.2055 9.00121 11.3142 8.7549 11.3223 8.49529C11.3303 8.23567 11.237 7.98312 11.0621 7.79108L7.36709 3.72808C7.19214 3.53544 6.94897 3.41859 6.68925 3.40234C6.42952 3.3861 6.17369 3.47174 5.97609 3.64108L3.80609 5.50208C3.63321 5.6756 3.53001 5.90653 3.51609 6.15108C3.50109 6.40108 3.21509 12.3231 7.80709 16.9171C11.8131 20.9221 16.8311 21.2151 18.2131 21.2151C18.4151 21.2151 18.5391 21.2091 18.5721 21.2071C18.8166 21.1934 19.0474 21.0897 19.2201 20.9161L21.0801 18.7451C21.2496 18.5476 21.3354 18.2919 21.3193 18.0321C21.3033 17.7724 21.1866 17.5292 20.9941 17.3541L16.9301 13.6581Z" fill="#FFDFCC"/>
</svg>
