<svg width="84" height="83" viewBox="0 0 84 83" fill="none" xmlns="http://www.w3.org/2000/svg">
<rect x="0.5" width="83" height="83" rx="20" fill="#BD142D" fill-opacity="0.13"/>
<path d="M21.5699 31.0158C21.5839 31.0944 21.5952 31.173 21.5999 31.2523C21.6592 32.2695 22.4282 40.3854 32.0962 50.2673C32.0962 50.2673 40.4477 58.7782 49.2374 60.5676C49.2754 60.5755 49.3128 60.584 49.3508 60.5945C49.883 60.7392 54.4075 61.8828 56.7398 59.5439L60.0626 56.2807C60.0926 56.2512 60.1239 56.2224 60.1559 56.1949C60.4874 55.91 62.795 53.778 60.4867 51.5111C58.1504 49.2167 55.2052 46.4192 54.8717 46.1022C54.8557 46.0871 54.8404 46.0721 54.8251 46.0563C54.6443 45.8716 52.9276 44.2106 50.9168 45.7282C50.8587 45.7721 50.804 45.8212 50.752 45.8723L47.4987 49.0758C46.7697 49.7668 45.6119 49.7577 44.8936 49.0555L33.7789 38.1821C33.0326 37.4517 33.052 36.259 33.8216 35.5523L36.4227 33.1655C36.4227 33.1655 39.2726 30.5744 36.212 27.7756L31.6687 23.3138C31.6407 23.2863 31.614 23.2581 31.5874 23.2287C31.2939 22.9038 29.1163 20.6794 26.5613 23.1553C26.4832 23.2306 26.3985 23.2987 26.3085 23.359C25.4415 23.9433 20.8849 27.2077 21.5699 31.0158Z" fill="#BD142D"/>
<path d="M21.5699 31.0158C21.5839 31.0944 21.5952 31.173 21.5999 31.2523C21.6592 32.2695 22.4282 40.3854 32.0962 50.2673C32.0962 50.2673 40.4477 58.7782 49.2374 60.5676C49.2754 60.5755 49.3128 60.584 49.3508 60.5945C49.883 60.7392 54.4075 61.8828 56.7398 59.5439L60.0626 56.2807C60.0926 56.2512 60.1239 56.2224 60.1559 56.1949C60.4874 55.91 62.795 53.778 60.4867 51.5111C58.1504 49.2167 55.2052 46.4192 54.8717 46.1022C54.8557 46.0871 54.8404 46.0721 54.8251 46.0563C54.6443 45.8716 52.9276 44.2106 50.9168 45.7282C50.8587 45.7721 50.804 45.8212 50.752 45.8723L47.4987 49.0758C46.7697 49.7668 45.6119 49.7577 44.8936 49.0555L33.7789 38.1821C33.0326 37.4517 33.052 36.259 33.8216 35.5523L36.4227 33.1655C36.4227 33.1655 39.2726 30.5744 36.212 27.7756L31.6687 23.3138C31.6407 23.2863 31.614 23.2581 31.5874 23.2287C31.2939 22.9038 29.1163 20.6794 26.5613 23.1553C26.4832 23.2306 26.3985 23.2987 26.3085 23.359C25.4415 23.9433 20.8849 27.2077 21.5699 31.0158Z" fill="url(#paint0_radial_475_24627)" fill-opacity="0.4"/>
<path d="M52.1928 38.9647C52.8964 38.9643 53.4758 38.3908 53.3762 37.6942C53.2531 36.834 53.0058 35.994 52.6402 35.2009C52.0962 34.0209 51.3032 32.9726 50.3156 32.1282C49.328 31.2838 48.1693 30.6633 46.9191 30.3092C46.0788 30.0713 45.2105 29.9575 44.3417 29.9696C43.6381 29.9794 43.1615 30.6408 43.2705 31.336C43.3795 32.0312 44.0348 32.4931 44.7378 32.5227C45.2397 32.5438 45.7387 32.6234 46.2248 32.7611C47.121 33.0149 47.9516 33.4597 48.6596 34.065C49.3676 34.6704 49.9361 35.4218 50.326 36.2677C50.5375 36.7265 50.6938 37.2071 50.7926 37.6996C50.931 38.3895 51.4891 38.9651 52.1928 38.9647Z" fill="#BD142D" fill-opacity="0.39"/>
<path d="M57.4542 39.1092C58.3018 39.1755 59.052 38.5406 59.0203 37.691C58.9627 36.1458 58.6367 34.6182 58.0531 33.1778C57.2762 31.2605 56.0642 29.55 54.5128 28.1816C52.9613 26.8132 51.1129 25.8242 49.1136 25.2929C47.6116 24.8937 46.0553 24.761 44.5149 24.8968C43.668 24.9715 43.1318 25.7951 43.3034 26.6278C43.4751 27.4604 44.2906 27.984 45.1396 27.9387C46.2082 27.8816 47.2824 27.9919 48.3228 28.2684C49.8608 28.6772 51.2827 29.4379 52.4762 30.4906C53.6696 31.5433 54.602 32.859 55.1996 34.334C55.6038 35.3317 55.8474 36.3837 55.9242 37.4511C55.9853 38.2991 56.6066 39.0429 57.4542 39.1092Z" fill="#BD142D" fill-opacity="0.39"/>
<defs>
<radialGradient id="paint0_radial_475_24627" cx="0" cy="0" r="1" gradientUnits="userSpaceOnUse" gradientTransform="translate(34.2872 29.6723) rotate(55.2919) scale(29.9433 30.2195)">
<stop stop-color="white"/>
<stop offset="0.697917" stop-color="white" stop-opacity="0"/>
<stop offset="1" stop-color="white" stop-opacity="0"/>
</radialGradient>
</defs>
</svg>
