<svg width="31" height="31" viewBox="0 0 31 31" fill="none" xmlns="http://www.w3.org/2000/svg">
<g clip-path="url(#clip0_3015_5156)">
<path d="M15.4922 0.5C7.2017 0.5 0.492188 7.20875 0.492188 15.5C0.492188 23.7904 7.20094 30.5 15.4922 30.5C23.7827 30.5 30.4922 23.7913 30.4922 15.5C30.4922 7.20951 23.7834 0.5 15.4922 0.5ZM15.0483 22.5206C14.1993 22.5206 13.5478 21.8098 13.5478 21.0003C13.5478 20.171 14.2191 19.48 15.0483 19.48C15.8777 19.48 16.5686 20.171 16.5686 21.0003C16.5686 21.8098 15.8973 22.5206 15.0483 22.5206ZM17.2992 14.84C16.2132 15.689 16.1934 16.2813 16.1934 17.308C16.1934 17.6833 15.996 18.1176 15.0285 18.1176C14.2189 18.1176 13.9426 17.8214 13.9426 16.7947C13.9426 15.0967 14.6929 14.2872 15.2655 13.7936C15.9171 13.2407 17.0228 12.6287 17.0228 11.5625C17.0228 10.6542 16.233 10.2198 15.2457 10.2198C13.2318 10.2198 13.6662 11.7402 12.5999 11.7402C12.0669 11.7402 11.4153 11.3847 11.4153 10.6147C11.4153 9.54857 12.6394 7.96895 15.305 7.96895C17.8322 7.96895 19.5105 9.37086 19.5105 11.2268C19.5105 13.0828 17.8322 14.4254 17.2992 14.84Z" fill="#BD142D"/>
<path d="M15.4922 0.5C7.2017 0.5 0.492188 7.20875 0.492188 15.5C0.492188 23.7904 7.20094 30.5 15.4922 30.5C23.7827 30.5 30.4922 23.7913 30.4922 15.5C30.4922 7.20951 23.7834 0.5 15.4922 0.5ZM15.0483 22.5206C14.1993 22.5206 13.5478 21.8098 13.5478 21.0003C13.5478 20.171 14.2191 19.48 15.0483 19.48C15.8777 19.48 16.5686 20.171 16.5686 21.0003C16.5686 21.8098 15.8973 22.5206 15.0483 22.5206ZM17.2992 14.84C16.2132 15.689 16.1934 16.2813 16.1934 17.308C16.1934 17.6833 15.996 18.1176 15.0285 18.1176C14.2189 18.1176 13.9426 17.8214 13.9426 16.7947C13.9426 15.0967 14.6929 14.2872 15.2655 13.7936C15.9171 13.2407 17.0228 12.6287 17.0228 11.5625C17.0228 10.6542 16.233 10.2198 15.2457 10.2198C13.2318 10.2198 13.6662 11.7402 12.5999 11.7402C12.0669 11.7402 11.4153 11.3847 11.4153 10.6147C11.4153 9.54857 12.6394 7.96895 15.305 7.96895C17.8322 7.96895 19.5105 9.37086 19.5105 11.2268C19.5105 13.0828 17.8322 14.4254 17.2992 14.84Z" fill="url(#paint0_radial_3015_5156)" fill-opacity="0.4"/>
</g>
<defs>
<radialGradient id="paint0_radial_3015_5156" cx="0" cy="0" r="1" gradientUnits="userSpaceOnUse" gradientTransform="translate(10.0824 6.40164) rotate(55.9679) scale(22.8477 22.8477)">
<stop stop-color="white"/>
<stop offset="0.697917" stop-color="white" stop-opacity="0"/>
<stop offset="1" stop-color="white" stop-opacity="0"/>
</radialGradient>
<clipPath id="clip0_3015_5156">
<rect width="30" height="30" fill="white" transform="translate(0.492188 0.5)"/>
</clipPath>
</defs>
</svg>
