<svg width="40" height="40" viewBox="0 0 40 40" fill="none" xmlns="http://www.w3.org/2000/svg">
<path d="M35.1993 34.805H32.9618C32.9618 34.7695 32.9973 34.7339 32.9973 34.6984C32.9618 32.3899 31.115 30.5431 28.8065 30.5786C27.1373 30.5786 25.6456 31.6086 25.0064 33.1357C23.9054 33.2778 22.8754 33.8816 22.2361 34.805H18.7556C18.1874 33.775 17.1219 33.1713 15.9854 33.1713H15.9499C15.3106 31.3245 13.2862 30.33 11.4394 31.0048C10.8357 31.2179 10.2674 31.6086 9.84124 32.1058L9.16645 32.0348C7.49722 32.0348 6.00557 33.1713 5.57938 34.805H4.79804C4.30083 34.805 3.91016 35.1956 3.91016 35.6929C3.91016 36.1901 4.30083 36.5807 4.79804 36.5807H35.1993C35.6965 36.5807 36.0872 36.1901 36.0872 35.6929C36.0872 35.1956 35.6965 34.805 35.1993 34.805Z" fill="#2E2E2E"/>
<path d="M28.0958 16.6209C27.4921 16.0171 26.7462 15.5554 25.9294 15.2713C25.8228 12.4655 25.006 9.73085 23.5143 7.31579C23.4078 7.06719 21.561 4.5811 20.6376 3.6577C20.2824 3.33806 19.7142 3.33806 19.359 3.6577C16.0205 7.03167 14.2093 10.9739 14.0672 15.2713C13.2503 15.5554 12.5045 16.0171 11.9007 16.6209C9.66327 18.6808 9.48569 22.1613 11.5456 24.4343C11.6877 24.6118 11.9007 24.7184 12.1494 24.7184H12.1849C12.398 24.7184 12.6466 24.6474 12.7886 24.4698L15.2037 22.2678C15.7009 23.5464 16.3047 24.7894 17.086 25.9259C17.7963 26.9914 19.6076 27.0979 20.1403 27.0979H20.1759C20.9217 27.0979 22.2002 26.9559 22.804 26.1035C23.6209 24.9315 24.2957 23.6174 24.7929 22.2678L27.2079 24.4698C27.35 24.6474 27.5986 24.7184 27.8117 24.7184H27.8472C28.0958 24.7184 28.3089 24.6118 28.451 24.4343C30.5109 22.1613 30.3333 18.6808 28.0958 16.6209ZM19.9983 17.1536C18.3291 17.1181 16.9795 15.7685 16.9795 14.0993C16.9795 12.43 18.3291 11.0804 19.9983 11.0804C21.6675 11.0804 23.0171 12.43 23.0171 14.0993C23.0171 15.7685 21.6675 17.1181 19.9983 17.1536Z" fill="#2E2E2E"/>
<path d="M20.8891 28.377H19.1133V32.5323H20.8891V28.377Z" fill="#2E2E2E"/>
<path d="M23.7992 27.7012H22.0234V31.5013H23.7992V27.7012Z" fill="#2E2E2E"/>
<path d="M17.975 27.7012H16.1992V31.1817H17.975V27.7012Z" fill="#2E2E2E"/>
</svg>
