<svg width="41" height="41" viewBox="0 0 41 41" fill="none" xmlns="http://www.w3.org/2000/svg">
<path d="M35.67 35.0862H33.4325C33.4325 35.0507 33.468 35.0152 33.468 34.9797C33.4325 32.6712 31.5857 30.8244 29.2772 30.8599C27.608 30.8599 26.1163 31.8898 25.4771 33.417C24.3761 33.5591 23.3461 34.1628 22.7069 35.0862H19.2263C18.6581 34.0563 17.5926 33.4525 16.4561 33.4525H16.4206C15.7813 31.6057 13.7569 30.6113 11.9101 31.2861C11.3064 31.4992 10.7381 31.8898 10.3119 32.387L9.63715 32.316C7.96792 32.316 6.47627 33.4525 6.05009 35.0862H5.26875C4.77153 35.0862 4.38086 35.4769 4.38086 35.9741C4.38086 36.4713 4.77153 36.862 5.26875 36.862H35.67C36.1672 36.862 36.5579 36.4713 36.5579 35.9741C36.5579 35.4769 36.1672 35.0862 35.67 35.0862Z" fill="white"/>
<path d="M28.5665 16.9021C27.9628 16.2983 27.2169 15.8366 26.4001 15.5525C26.2935 12.7468 25.4767 10.0121 23.985 7.59704C23.8785 7.34844 22.0317 4.86235 21.1083 3.93895C20.7531 3.61931 20.1849 3.61931 19.8297 3.93895C16.4912 7.31292 14.68 11.2551 14.5379 15.5525C13.721 15.8366 12.9752 16.2983 12.3715 16.9021C10.134 18.962 9.9564 22.4425 12.0163 24.7155C12.1584 24.8931 12.3715 24.9996 12.6201 24.9996H12.6556C12.8687 24.9996 13.1173 24.9286 13.2593 24.751L15.6744 22.5491C16.1716 23.8276 16.7754 25.0707 17.5567 26.2072C18.267 27.2726 20.0783 27.3792 20.611 27.3792H20.6466C21.3924 27.3792 22.6709 27.2371 23.2747 26.3847C24.0916 25.2127 24.7664 23.8987 25.2636 22.5491L27.6786 24.751C27.8207 24.9286 28.0693 24.9996 28.2824 24.9996H28.3179C28.5665 24.9996 28.7796 24.8931 28.9217 24.7155C30.9816 22.4425 30.804 18.962 28.5665 16.9021ZM20.469 17.4348C18.7998 17.3993 17.4502 16.0497 17.4502 14.3805C17.4502 12.7113 18.7998 11.3617 20.469 11.3617C22.1382 11.3617 23.4878 12.7113 23.4878 14.3805C23.4878 16.0497 22.1382 17.3993 20.469 17.4348Z" fill="white"/>
<path d="M21.3598 28.6582H19.584V32.8135H21.3598V28.6582Z" fill="white"/>
<path d="M24.2699 27.9824H22.4941V31.7826H24.2699V27.9824Z" fill="white"/>
<path d="M18.4457 27.9824H16.6699V31.4629H18.4457V27.9824Z" fill="white"/>
</svg>
