<svg width="24" height="25" viewBox="0 0 24 25" fill="none" xmlns="http://www.w3.org/2000/svg">
<path d="M3 14.5742V10.5742C3 10.0219 3.44772 9.57422 4 9.57422H6.64922C6.87629 9.57422 7.0966 9.49694 7.27391 9.35509L10.3753 6.87397C11.0301 6.35016 12 6.81634 12 7.65484V17.4936C12 18.3321 11.0301 18.7983 10.3753 18.2745L7.27391 15.7934C7.0966 15.6515 6.87629 15.5742 6.64922 15.5742H4C3.44772 15.5742 3 15.1265 3 14.5742Z" stroke="#2E2E2E" stroke-width="2" stroke-linecap="round" stroke-linejoin="round"/>
<path d="M15.8302 15.7882C16.5435 14.9381 16.9537 13.875 16.9963 12.7662C17.0389 11.6573 16.7114 10.5659 16.0655 9.66361" stroke="#2E2E2E" stroke-width="2" stroke-linecap="round" stroke-linejoin="round"/>
<path d="M18.8944 18.3593C20.2406 16.755 20.9852 14.7313 20.9998 12.6371C21.0144 10.5428 20.2982 8.50895 18.9745 6.88596" stroke="#2E2E2E" stroke-width="2" stroke-linecap="round" stroke-linejoin="round"/>
</svg>
