<svg width="31" height="31" viewBox="0 0 31 31" fill="none" xmlns="http://www.w3.org/2000/svg">
<g clip-path="url(#clip0_3015_4906)">
<path d="M16.312 7.00212C16.0231 6.97237 15.7302 6.95703 15.4331 6.95703C10.7559 6.95703 6.95117 10.7617 6.95117 15.4389C6.95117 20.1159 10.7559 23.9206 15.4331 23.9206C15.7302 23.9206 16.0231 23.9055 16.312 23.8755C20.5777 23.4345 23.9154 19.8195 23.9154 15.4389C23.9154 11.0584 20.5777 7.44341 16.312 7.00212ZM16.312 22.1056V8.77206C19.6063 9.20396 22.1579 12.0286 22.1579 15.4389C22.1579 18.8493 19.6063 21.6739 16.312 22.1056Z" fill="#BD142D"/>
<path d="M16.312 7.00212C16.0231 6.97237 15.7302 6.95703 15.4331 6.95703C10.7559 6.95703 6.95117 10.7617 6.95117 15.4389C6.95117 20.1159 10.7559 23.9206 15.4331 23.9206C15.7302 23.9206 16.0231 23.9055 16.312 23.8755C20.5777 23.4345 23.9154 19.8195 23.9154 15.4389C23.9154 11.0584 20.5777 7.44341 16.312 7.00212ZM16.312 22.1056V8.77206C19.6063 9.20396 22.1579 12.0286 22.1579 15.4389C22.1579 18.8493 19.6063 21.6739 16.312 22.1056Z" fill="url(#paint0_radial_3015_4906)" fill-opacity="0.4"/>
<path d="M15.4336 5.68807C15.9188 5.68807 16.3125 5.29439 16.3125 4.80916V1.32031C16.3125 0.834854 15.9188 0.441406 15.4336 0.441406C14.9481 0.441406 14.5547 0.834854 14.5547 1.32031V4.80916C14.5547 5.29439 14.9481 5.68807 15.4336 5.68807Z" fill="#BD142D"/>
<path d="M15.4336 5.68807C15.9188 5.68807 16.3125 5.29439 16.3125 4.80916V1.32031C16.3125 0.834854 15.9188 0.441406 15.4336 0.441406C14.9481 0.441406 14.5547 0.834854 14.5547 1.32031V4.80916C14.5547 5.29439 14.9481 5.68807 15.4336 5.68807Z" fill="url(#paint1_radial_3015_4906)" fill-opacity="0.4"/>
<path d="M15.4336 25.1953C14.9481 25.1953 14.5547 25.589 14.5547 26.0742V29.5631C14.5547 30.0485 14.9481 30.442 15.4336 30.442C15.9188 30.442 16.3125 30.0485 16.3125 29.5631V26.0742C16.3125 25.5888 15.9191 25.1953 15.4336 25.1953Z" fill="#BD142D"/>
<path d="M15.4336 25.1953C14.9481 25.1953 14.5547 25.589 14.5547 26.0742V29.5631C14.5547 30.0485 14.9481 30.442 15.4336 30.442C15.9188 30.442 16.3125 30.0485 16.3125 29.5631V26.0742C16.3125 25.5888 15.9191 25.1953 15.4336 25.1953Z" fill="url(#paint2_radial_3015_4906)" fill-opacity="0.4"/>
<path d="M5.68025 15.4414C5.68025 14.9559 5.28658 14.5625 4.80135 14.5625H1.3125C0.827042 14.5625 0.433594 14.9559 0.433594 15.4414C0.433594 15.9266 0.827042 16.3203 1.3125 16.3203H4.80135C5.28658 16.3203 5.68025 15.9269 5.68025 15.4414Z" fill="#BD142D"/>
<path d="M5.68025 15.4414C5.68025 14.9559 5.28658 14.5625 4.80135 14.5625H1.3125C0.827042 14.5625 0.433594 14.9559 0.433594 15.4414C0.433594 15.9266 0.827042 16.3203 1.3125 16.3203H4.80135C5.28658 16.3203 5.68025 15.9269 5.68025 15.4414Z" fill="url(#paint3_radial_3015_4906)" fill-opacity="0.4"/>
<path d="M29.5553 14.5625H26.0664C25.5809 14.5625 25.1875 14.9559 25.1875 15.4414C25.1875 15.9266 25.5809 16.3203 26.0664 16.3203H29.5553C30.0407 16.3203 30.4342 15.9266 30.4342 15.4414C30.4342 14.9559 30.0407 14.5625 29.5553 14.5625Z" fill="#BD142D"/>
<path d="M29.5553 14.5625H26.0664C25.5809 14.5625 25.1875 14.9559 25.1875 15.4414C25.1875 15.9266 25.5809 16.3203 26.0664 16.3203H29.5553C30.0407 16.3203 30.4342 15.9266 30.4342 15.4414C30.4342 14.9559 30.0407 14.5625 29.5553 14.5625Z" fill="url(#paint4_radial_3015_4906)" fill-opacity="0.4"/>
<path d="M7.08279 8.33344C7.25446 8.5051 7.47945 8.59093 7.70421 8.59093C7.9292 8.59093 8.15396 8.5051 8.32562 8.33344C8.66872 7.99011 8.66872 7.4337 8.32562 7.09061L5.78938 4.55437C5.44629 4.21104 4.88965 4.21104 4.54655 4.55437C4.20323 4.89746 4.20323 5.45387 4.54655 5.7972L7.08279 8.33344Z" fill="#BD142D"/>
<path d="M7.08279 8.33344C7.25446 8.5051 7.47945 8.59093 7.70421 8.59093C7.9292 8.59093 8.15396 8.5051 8.32562 8.33344C8.66872 7.99011 8.66872 7.4337 8.32562 7.09061L5.78938 4.55437C5.44629 4.21104 4.88965 4.21104 4.54655 4.55437C4.20323 4.89746 4.20323 5.45387 4.54655 5.7972L7.08279 8.33344Z" fill="url(#paint5_radial_3015_4906)" fill-opacity="0.4"/>
<path d="M23.7853 22.5505C23.4422 22.2071 22.8858 22.2071 22.5425 22.5505C22.1994 22.8936 22.1994 23.45 22.5425 23.7933L25.0787 26.3295C25.2504 26.5012 25.4754 26.587 25.7001 26.587C25.9251 26.587 26.1499 26.5012 26.3215 26.3295C26.6646 25.9862 26.6646 25.4298 26.3215 25.0867L23.7853 22.5505Z" fill="#BD142D"/>
<path d="M23.7853 22.5505C23.4422 22.2071 22.8858 22.2071 22.5425 22.5505C22.1994 22.8936 22.1994 23.45 22.5425 23.7933L25.0787 26.3295C25.2504 26.5012 25.4754 26.587 25.7001 26.587C25.9251 26.587 26.1499 26.5012 26.3215 26.3295C26.6646 25.9862 26.6646 25.4298 26.3215 25.0867L23.7853 22.5505Z" fill="url(#paint6_radial_3015_4906)" fill-opacity="0.4"/>
<path d="M7.08262 22.5505L4.54638 25.0867C4.20329 25.4298 4.20329 25.9862 4.54638 26.3295C4.71804 26.5012 4.94281 26.587 5.1678 26.587C5.39256 26.587 5.61755 26.5012 5.78921 26.3295L8.32545 23.7933C8.66855 23.45 8.66855 22.8936 8.32545 22.5505C7.98236 22.2071 7.42572 22.2071 7.08262 22.5505Z" fill="#BD142D"/>
<path d="M7.08262 22.5505L4.54638 25.0867C4.20329 25.4298 4.20329 25.9862 4.54638 26.3295C4.71804 26.5012 4.94281 26.587 5.1678 26.587C5.39256 26.587 5.61755 26.5012 5.78921 26.3295L8.32545 23.7933C8.66855 23.45 8.66855 22.8936 8.32545 22.5505C7.98236 22.2071 7.42572 22.2071 7.08262 22.5505Z" fill="url(#paint7_radial_3015_4906)" fill-opacity="0.4"/>
<path d="M23.1641 8.59093C23.3891 8.59093 23.6138 8.5051 23.7855 8.33344L26.3217 5.7972C26.6648 5.45387 26.6648 4.89746 26.3217 4.55437C25.9786 4.21104 25.422 4.21104 25.0789 4.55437L22.5426 7.09061C22.1993 7.4337 22.1993 7.99011 22.5426 8.33344C22.7143 8.5051 22.9391 8.59093 23.1641 8.59093Z" fill="#BD142D"/>
<path d="M23.1641 8.59093C23.3891 8.59093 23.6138 8.5051 23.7855 8.33344L26.3217 5.7972C26.6648 5.45387 26.6648 4.89746 26.3217 4.55437C25.9786 4.21104 25.422 4.21104 25.0789 4.55437L22.5426 7.09061C22.1993 7.4337 22.1993 7.99011 22.5426 8.33344C22.7143 8.5051 22.9391 8.59093 23.1641 8.59093Z" fill="url(#paint8_radial_3015_4906)" fill-opacity="0.4"/>
</g>
<defs>
<radialGradient id="paint0_radial_3015_4906" cx="0" cy="0" r="1" gradientUnits="userSpaceOnUse" gradientTransform="translate(12.3742 10.2941) rotate(55.9668) scale(12.9194 12.9196)">
<stop stop-color="white"/>
<stop offset="0.697917" stop-color="white" stop-opacity="0"/>
<stop offset="1" stop-color="white" stop-opacity="0"/>
</radialGradient>
<radialGradient id="paint1_radial_3015_4906" cx="0" cy="0" r="1" gradientUnits="userSpaceOnUse" gradientTransform="translate(15.1166 1.47354) rotate(77.2511) scale(3.39512 1.57559)">
<stop stop-color="white"/>
<stop offset="0.697917" stop-color="white" stop-opacity="0"/>
<stop offset="1" stop-color="white" stop-opacity="0"/>
</radialGradient>
<radialGradient id="paint2_radial_3015_4906" cx="0" cy="0" r="1" gradientUnits="userSpaceOnUse" gradientTransform="translate(15.1166 26.2274) rotate(77.2511) scale(3.39512 1.57559)">
<stop stop-color="white"/>
<stop offset="0.697917" stop-color="white" stop-opacity="0"/>
<stop offset="1" stop-color="white" stop-opacity="0"/>
</radialGradient>
<radialGradient id="paint3_radial_3015_4906" cx="0" cy="0" r="1" gradientUnits="userSpaceOnUse" gradientTransform="translate(2.1108 14.9083) rotate(26.3864) scale(2.49636 2.14284)">
<stop stop-color="white"/>
<stop offset="0.697917" stop-color="white" stop-opacity="0"/>
<stop offset="1" stop-color="white" stop-opacity="0"/>
</radialGradient>
<radialGradient id="paint4_radial_3015_4906" cx="0" cy="0" r="1" gradientUnits="userSpaceOnUse" gradientTransform="translate(26.8647 14.9083) rotate(26.3864) scale(2.49636 2.14284)">
<stop stop-color="white"/>
<stop offset="0.697917" stop-color="white" stop-opacity="0"/>
<stop offset="1" stop-color="white" stop-opacity="0"/>
</radialGradient>
<radialGradient id="paint5_radial_3015_4906" cx="0" cy="0" r="1" gradientUnits="userSpaceOnUse" gradientTransform="translate(5.6617 5.14161) rotate(55.9689) scale(3.27026 3.27022)">
<stop stop-color="white"/>
<stop offset="0.697917" stop-color="white" stop-opacity="0"/>
<stop offset="1" stop-color="white" stop-opacity="0"/>
</radialGradient>
<radialGradient id="paint6_radial_3015_4906" cx="0" cy="0" r="1" gradientUnits="userSpaceOnUse" gradientTransform="translate(23.6577 23.1377) rotate(55.97) scale(3.27022 3.27013)">
<stop stop-color="white"/>
<stop offset="0.697917" stop-color="white" stop-opacity="0"/>
<stop offset="1" stop-color="white" stop-opacity="0"/>
</radialGradient>
<radialGradient id="paint7_radial_3015_4906" cx="0" cy="0" r="1" gradientUnits="userSpaceOnUse" gradientTransform="translate(5.66164 23.1377) rotate(55.97) scale(3.27022 3.27013)">
<stop stop-color="white"/>
<stop offset="0.697917" stop-color="white" stop-opacity="0"/>
<stop offset="1" stop-color="white" stop-opacity="0"/>
</radialGradient>
<radialGradient id="paint8_radial_3015_4906" cx="0" cy="0" r="1" gradientUnits="userSpaceOnUse" gradientTransform="translate(23.6578 5.14161) rotate(55.9689) scale(3.27026 3.27022)">
<stop stop-color="white"/>
<stop offset="0.697917" stop-color="white" stop-opacity="0"/>
<stop offset="1" stop-color="white" stop-opacity="0"/>
</radialGradient>
<clipPath id="clip0_3015_4906">
<rect width="30" height="30" fill="white" transform="translate(0.492188 0.5)"/>
</clipPath>
</defs>
</svg>
