<svg width="52" height="53" viewBox="0 0 52 53" fill="none" xmlns="http://www.w3.org/2000/svg">
<rect y="0.5" width="52" height="52" rx="10.4" fill="white"/>
<path d="M32.333 26.5C29.573 26.5 27.333 28.74 27.333 31.5C27.333 34.26 29.573 36.5 32.333 36.5C35.093 36.5 37.333 34.26 37.333 31.5C37.333 28.74 35.093 26.5 32.333 26.5ZM34.973 30.9667L32.3063 33.6333C32.173 33.7667 32.013 33.8333 31.8397 33.8333C31.6663 33.8333 31.493 33.7667 31.3597 33.6333L30.0263 32.3C29.773 32.0467 29.773 31.62 30.0263 31.3667C30.293 31.1 30.7197 31.1 30.973 31.3667L31.8397 32.22L34.0263 30.0333C34.293 29.7667 34.7197 29.7667 34.973 30.0333C35.2397 30.2867 35.2397 30.7133 34.973 30.9667Z" fill="#333333"/>
<path d="M14.667 21.8359V31.8359C14.667 32.3693 14.8803 32.8759 15.2537 33.2493C15.627 33.6226 16.147 33.8359 16.667 33.8359H26.4537C26.1737 33.1159 26.0003 32.3293 26.0003 31.5026C26.0003 28.0093 28.8403 25.1693 32.3337 25.1693C34.3737 25.1693 36.1737 26.1559 37.3337 27.6626V21.8359H14.667ZM22.0003 31.1693H18.0003C17.627 31.1693 17.3337 30.8759 17.3337 30.5026C17.3337 30.1293 17.627 29.8359 18.0003 29.8359H22.0003C22.3737 29.8359 22.667 30.1293 22.667 30.5026C22.667 30.8759 22.3737 31.1693 22.0003 31.1693Z" fill="#333333"/>
<path d="M37.3337 18.5V20.5H14.667V18.5C14.667 17.98 14.8803 17.46 15.2537 17.0867C15.627 16.7133 16.1337 16.5 16.667 16.5H35.3337C35.867 16.5 36.3737 16.7133 36.747 17.0867C37.1203 17.46 37.3337 17.9667 37.3337 18.5Z" fill="#333333"/>
</svg>
