<svg width="52" height="53" viewBox="0 0 52 53" fill="none" xmlns="http://www.w3.org/2000/svg">
<rect y="0.5" width="52" height="52" rx="10.4" fill="white"/>
<g clip-path="url(#clip0_806_32805)">
<path d="M20.6875 35.9375C20.6875 37.4908 21.9467 38.75 23.5 38.75H28.5C30.0533 38.75 31.3125 37.4908 31.3125 35.9375V34.25H20.6875V35.9375Z" fill="#333333"/>
<path d="M24.4375 42.5H27.5625C28.5981 42.5 29.4375 41.6606 29.4375 40.625H22.5625C22.5625 41.6606 23.4019 42.5 24.4375 42.5Z" fill="#333333"/>
<path d="M41.0625 19.875H39.1875C38.6697 19.875 38.25 20.2947 38.25 20.8125C38.25 21.3303 38.6697 21.75 39.1875 21.75H41.0625C41.5803 21.75 42 21.3303 42 20.8125C42 20.2947 41.5803 19.875 41.0625 19.875Z" fill="#333333"/>
<path d="M12.8125 21.75C13.3303 21.75 13.75 21.3303 13.75 20.8125C13.75 20.2947 13.3303 19.875 12.8125 19.875H10.9375C10.4197 19.875 10 20.2947 10 20.8125C10 21.3303 10.4197 21.75 10.9375 21.75H12.8125Z" fill="#333333"/>
<path d="M38.7164 17.2022L40.4783 16.5609C40.9649 16.3838 41.2157 15.8458 41.0386 15.3593C40.8615 14.8727 40.3235 14.6219 39.837 14.799L38.0751 15.4403C37.5885 15.6173 37.3377 16.1553 37.5148 16.6419C37.6919 17.1285 38.2299 17.3793 38.7164 17.2022Z" fill="#333333"/>
<path d="M13.2833 24.4201L11.5214 25.0614C11.0348 25.2384 10.784 25.7764 10.9611 26.263C11.1381 26.7496 11.6761 27.0004 12.1627 26.8233L13.9246 26.182C14.4111 26.0049 14.662 25.4669 14.4849 24.9804C14.3078 24.4938 13.7698 24.243 13.2833 24.4201Z" fill="#333333"/>
<path d="M40.4783 25.0614L38.7164 24.4201C38.2299 24.243 37.6919 24.4938 37.5148 24.9804C37.3377 25.4669 37.5886 26.0049 38.0751 26.182L39.837 26.8233C40.3236 27.0004 40.8615 26.7496 41.0386 26.263C41.2158 25.7764 40.9648 25.2384 40.4783 25.0614Z" fill="#333333"/>
<path d="M13.9246 15.4403L12.1627 14.799C11.6762 14.6219 11.1382 14.8727 10.9611 15.3593C10.784 15.8458 11.0349 16.3838 11.5214 16.5609L13.2833 17.2022C13.7699 17.3793 14.3078 17.1285 14.4849 16.6419C14.662 16.1553 14.4112 15.6173 13.9246 15.4403Z" fill="#333333"/>
<path d="M26 10.5C20.3137 10.5 15.6875 15.1262 15.6875 20.8125C15.6875 23.4668 16.6939 25.9882 18.5214 27.9123C19.6993 29.1526 20.4309 30.7108 20.6314 32.375H31.3687C31.5691 30.7107 32.3007 29.1525 33.4787 27.9123C35.3061 25.9882 36.3125 23.4668 36.3125 20.8125C36.3125 15.1262 31.6863 10.5 26 10.5ZM26 26.75C25.4823 26.75 25.0625 26.3302 25.0625 25.8125C25.0625 25.2948 25.4823 24.875 26 24.875C26.5177 24.875 26.9375 25.2948 26.9375 25.8125C26.9375 26.3302 26.5177 26.75 26 26.75ZM27.4202 20.7404C27.2751 20.8254 26.9375 21.0662 26.9375 21.4652V22.0625C26.9375 22.5802 26.5177 23 26 23C25.4823 23 25.0625 22.5802 25.0625 22.0625V21.4652C25.0625 20.5155 25.5896 19.6398 26.4725 19.1226C26.7594 18.9546 26.9375 18.6442 26.9375 18.3126C26.9375 17.7956 26.5169 17.3751 26 17.3751C25.4831 17.3751 25.0625 17.7956 25.0625 18.3126C25.0625 18.8303 24.6427 19.2501 24.125 19.2501C23.6073 19.2501 23.1875 18.8303 23.1875 18.3126C23.1875 16.7618 24.4492 15.5001 26 15.5001C27.5508 15.5001 28.8125 16.7618 28.8125 18.3126C28.8125 19.3071 28.279 20.2374 27.4202 20.7404Z" fill="#333333"/>
</g>
<defs>
<clipPath id="clip0_806_32805">
<rect width="32" height="32" fill="white" transform="translate(10 10.5)"/>
</clipPath>
</defs>
</svg>
