<svg width="41" height="40" viewBox="0 0 41 40" fill="none" xmlns="http://www.w3.org/2000/svg">
<path d="M20.2994 19.493C22.137 19.493 23.7282 18.8339 25.0283 17.5336C26.3285 16.2334 26.9875 14.6427 26.9875 12.8049C26.9875 10.9677 26.3285 9.37671 25.0281 8.07616C23.7278 6.77625 22.1368 6.11719 20.2994 6.11719C18.4616 6.11719 16.8708 6.77625 15.5707 8.07637C14.2706 9.3765 13.6113 10.9675 13.6113 12.8049C13.6113 14.6427 14.2706 16.2337 15.5709 17.5338C16.8713 18.8337 18.4623 19.493 20.2994 19.493Z" fill="#2E2E2E"/>
<path d="M32.0031 27.4684C31.9656 26.9273 31.8897 26.3371 31.7781 25.7138C31.6654 25.0859 31.5203 24.4923 31.3465 23.9498C31.1671 23.389 30.9231 22.8352 30.6214 22.3045C30.3083 21.7537 29.9405 21.2741 29.5278 20.8794C29.0963 20.4665 28.5679 20.1346 27.9569 19.8924C27.3481 19.6515 26.6733 19.5295 25.9516 19.5295C25.6681 19.5295 25.394 19.6458 24.8646 19.9905C24.5387 20.203 24.1576 20.4487 23.7322 20.7205C23.3685 20.9523 22.8757 21.1694 22.2671 21.366C21.6733 21.5582 21.0703 21.6556 20.4753 21.6556C19.8802 21.6556 19.2775 21.5582 18.683 21.366C18.075 21.1696 17.5822 20.9525 17.2189 20.7207C16.7975 20.4515 16.4162 20.2057 16.0855 19.9903C15.5567 19.6456 15.2824 19.5293 14.9989 19.5293C14.277 19.5293 13.6024 19.6515 12.9938 19.8926C12.3832 20.1343 11.8547 20.4663 11.4227 20.8796C11.0102 21.2745 10.6422 21.7539 10.3296 22.3045C10.0281 22.8352 9.78404 23.3888 9.60439 23.95C9.43089 24.4925 9.28577 25.0859 9.17307 25.7138C9.06142 26.3362 8.98558 26.9267 8.94808 27.469C8.91122 28.0003 8.89258 28.5518 8.89258 29.1087C8.89258 30.5582 9.35335 31.7316 10.262 32.597C11.1594 33.451 12.3468 33.8842 13.7908 33.8842H27.161C28.605 33.8842 29.792 33.4512 30.6896 32.597C31.5984 31.7323 32.0592 30.5586 32.0592 29.1085C32.059 28.549 32.0401 27.9971 32.0031 27.4684Z" fill="#2E2E2E"/>
</svg>
