<svg width="41" height="41" viewBox="0 0 41 41" fill="none" xmlns="http://www.w3.org/2000/svg">
<path d="M20.2994 19.7078C22.137 19.7078 23.7282 19.0487 25.0283 17.7484C26.3285 16.4483 26.9875 14.8575 26.9875 13.0197C26.9875 11.1825 26.3285 9.59155 25.0281 8.29101C23.7278 6.9911 22.1368 6.33203 20.2994 6.33203C18.4616 6.33203 16.8708 6.9911 15.5707 8.29122C14.2706 9.59134 13.6113 11.1823 13.6113 13.0197C13.6113 14.8575 14.2706 16.4485 15.5709 17.7486C16.8713 19.0485 18.4623 19.7078 20.2994 19.7078Z" fill="white"/>
<path d="M32.0031 27.6832C31.9656 27.1421 31.8897 26.5519 31.7781 25.9287C31.6654 25.3007 31.5203 24.7071 31.3465 24.1646C31.1671 23.6038 30.9231 23.0501 30.6214 22.5194C30.3083 21.9686 29.9405 21.4889 29.5278 21.0943C29.0963 20.6814 28.5679 20.3494 27.9569 20.1073C27.3481 19.8664 26.6733 19.7444 25.9516 19.7444C25.6681 19.7444 25.394 19.8607 24.8646 20.2053C24.5387 20.4178 24.1576 20.6636 23.7322 20.9354C23.3685 21.1671 22.8757 21.3843 22.2671 21.5809C21.6733 21.773 21.0703 21.8705 20.4753 21.8705C19.8802 21.8705 19.2775 21.773 18.683 21.5809C18.075 21.3845 17.5822 21.1673 17.2189 20.9356C16.7975 20.6663 16.4162 20.4206 16.0855 20.2051C15.5567 19.8604 15.2824 19.7441 14.9989 19.7441C14.277 19.7441 13.6024 19.8664 12.9938 20.1075C12.3832 20.3492 11.8547 20.6812 11.4227 21.0945C11.0102 21.4894 10.6422 21.9688 10.3296 22.5194C10.0281 23.0501 9.78404 23.6036 9.60439 24.1648C9.43089 24.7074 9.28577 25.3007 9.17307 25.9287C9.06142 26.5511 8.98558 27.1415 8.94808 27.6838C8.91122 28.2152 8.89258 28.7666 8.89258 29.3236C8.89258 30.773 9.35335 31.9465 10.262 32.8119C11.1594 33.6659 12.3468 34.0991 13.7908 34.0991H27.161C28.605 34.0991 29.792 33.6661 30.6896 32.8119C31.5984 31.9471 32.0592 30.7735 32.0592 29.3234C32.059 28.7639 32.0401 28.212 32.0031 27.6832Z" fill="white"/>
</svg>
