<svg width="56" height="56" viewBox="0 0 56 56" fill="none" xmlns="http://www.w3.org/2000/svg">
<g clip-path="url(#clip0_472_72562)">
<path d="M28 55.5042C12.8011 55.5042 0.436523 43.1658 0.436523 28.0001C0.436523 12.8345 12.8011 0.496094 28 0.496094C43.1988 0.496094 55.5634 12.8345 55.5634 28.0001C55.5634 43.1658 43.1988 55.5042 28 55.5042Z" fill="white"/>
<path d="M28 0.931738C42.9578 0.931738 55.1269 13.0746 55.1269 27.9992C55.1269 42.9239 42.9578 55.0667 28 55.0667C13.0422 55.0667 0.873145 42.9239 0.873145 27.9992C0.873145 13.0746 13.0422 0.931738 28 0.931738ZM28 0.0585938C12.5357 0.0585938 0 12.5681 0 27.9992C0 43.4303 12.5357 55.9398 28 55.9398C43.4643 55.9398 56 43.4303 56 27.9992C56 12.5681 43.4643 0.0585938 28 0.0585938Z" fill="#666666"/>
<path d="M28.0003 4.58018C40.9639 4.58018 51.4722 15.0666 51.4722 28.0023C51.4722 40.9379 40.9639 51.4244 28.0003 51.4244C15.0367 51.4244 4.52842 40.9379 4.52842 28.0023C4.52842 15.0666 15.0367 4.58018 28.0003 4.58018ZM28.0003 3.70703C14.5766 3.70703 3.65527 14.6056 3.65527 28.0023C3.65527 41.3989 14.5766 52.2975 28.0003 52.2975C41.424 52.2975 52.3453 41.3989 52.3453 28.0023C52.3453 14.6056 41.424 3.70703 28.0003 3.70703Z" fill="#CCCCCC"/>
<path d="M25.3726 36.0857L23.6027 32.8359C22.8989 31.5759 22.4388 30.7028 21.9786 29.7572H21.9053C21.5176 30.7028 21.0819 31.5759 20.4271 32.8359L18.8022 36.0857H15.3838L20.2332 27.817L15.5776 19.7422H18.9969L20.7667 23.1125C21.2993 24.1306 21.6888 24.9313 22.1245 25.8525H22.1734C22.6099 24.8344 22.9496 24.107 23.4586 23.1125L25.2049 19.7422H28.6242L23.8463 27.7201L28.8171 36.0857H25.3726Z" fill="#BD142D"/>
<path d="M25.3726 36.0857L23.6027 32.8359C22.8989 31.5759 22.4388 30.7028 21.9786 29.7572H21.9053C21.5176 30.7028 21.0819 31.5759 20.4271 32.8359L18.8022 36.0857H15.3838L20.2332 27.817L15.5776 19.7422H18.9969L20.7667 23.1125C21.2993 24.1306 21.6888 24.9313 22.1245 25.8525H22.1734C22.6099 24.8344 22.9496 24.107 23.4586 23.1125L25.2049 19.7422H28.6242L23.8463 27.7201L28.8171 36.0857H25.3726Z" fill="url(#paint0_radial_472_72562)" fill-opacity="0.4"/>
<path d="M31.0195 19.9607C32.0865 19.7669 33.5656 19.6211 35.5782 19.6211C37.7611 19.6211 39.3616 20.0812 40.4032 20.9544C41.3733 21.7542 42.0037 23.0403 42.0037 24.5675C42.0037 26.119 41.5191 27.4043 40.5979 28.2775C39.4096 29.4658 37.5428 30.0237 35.4333 30.0237C34.8753 30.0237 34.3654 29.9993 33.9777 29.9268V36.086H31.0195V19.9607ZM33.9777 27.5746C34.3418 27.6715 34.8273 27.6968 35.4333 27.6968C37.6642 27.6968 39.021 26.6054 39.021 24.6897C39.021 22.8718 37.7611 21.9017 35.6987 21.9017C34.8753 21.9017 34.2929 21.9742 33.9769 22.0476V27.5746H33.9777Z" fill="#BD142D"/>
<path d="M31.0195 19.9607C32.0865 19.7669 33.5656 19.6211 35.5782 19.6211C37.7611 19.6211 39.3616 20.0812 40.4032 20.9544C41.3733 21.7542 42.0037 23.0403 42.0037 24.5675C42.0037 26.119 41.5191 27.4043 40.5979 28.2775C39.4096 29.4658 37.5428 30.0237 35.4333 30.0237C34.8753 30.0237 34.3654 29.9993 33.9777 29.9268V36.086H31.0195V19.9607ZM33.9777 27.5746C34.3418 27.6715 34.8273 27.6968 35.4333 27.6968C37.6642 27.6968 39.021 26.6054 39.021 24.6897C39.021 22.8718 37.7611 21.9017 35.6987 21.9017C34.8753 21.9017 34.2929 21.9742 33.9769 22.0476V27.5746H33.9777Z" fill="url(#paint1_radial_472_72562)" fill-opacity="0.4"/>
</g>
<defs>
<radialGradient id="paint0_radial_472_72562" cx="0" cy="0" r="1" gradientUnits="userSpaceOnUse" gradientTransform="translate(19.678 22.9573) rotate(60.9665) scale(11.7977 10.7938)">
<stop stop-color="white"/>
<stop offset="0.697917" stop-color="white" stop-opacity="0"/>
<stop offset="1" stop-color="white" stop-opacity="0"/>
</radialGradient>
<radialGradient id="paint1_radial_472_72562" cx="0" cy="0" r="1" gradientUnits="userSpaceOnUse" gradientTransform="translate(34.5309 22.8601) rotate(65.7472) scale(11.3977 9.20343)">
<stop stop-color="white"/>
<stop offset="0.697917" stop-color="white" stop-opacity="0"/>
<stop offset="1" stop-color="white" stop-opacity="0"/>
</radialGradient>
<clipPath id="clip0_472_72562">
<rect width="56" height="56" fill="white"/>
</clipPath>
</defs>
</svg>
