<svg width="89" height="90" viewBox="0 0 89 90" fill="none" xmlns="http://www.w3.org/2000/svg">
<rect y="0.359375" width="89" height="89" rx="12" fill="#EEF5FF"/>
<path d="M38.5586 59.5869L35.3926 53.774C34.1337 51.5203 33.3106 49.9585 32.4875 48.2671H32.3563C31.6628 49.9585 30.8834 51.5203 29.712 53.774L26.8053 59.5869H20.6904L29.3652 44.7969L21.0372 30.3535H27.1536L30.3195 36.382C31.2723 38.203 31.9689 39.6352 32.7483 41.2828H32.8358C33.6167 39.4618 34.2243 38.1609 35.1349 36.382L38.2587 30.3535H44.3751L35.8284 44.6235L44.7202 59.5869H38.5586Z" fill="#4334DD"/>
<path d="M38.5586 59.5869L35.3926 53.774C34.1337 51.5203 33.3106 49.9585 32.4875 48.2671H32.3563C31.6628 49.9585 30.8834 51.5203 29.712 53.774L26.8053 59.5869H20.6904L29.3652 44.7969L21.0372 30.3535H27.1536L30.3195 36.382C31.2723 38.203 31.9689 39.6352 32.7483 41.2828H32.8358C33.6167 39.4618 34.2243 38.1609 35.1349 36.382L38.2587 30.3535H44.3751L35.8284 44.6235L44.7202 59.5869H38.5586Z" fill="url(#paint0_radial_472_75074)" fill-opacity="0.7"/>
<path d="M48.6621 30.7403C50.5708 30.3936 53.2166 30.1328 56.8168 30.1328C60.7215 30.1328 63.5845 30.9559 65.4478 32.5177C67.1831 33.9482 68.3108 36.2487 68.3108 38.9803C68.3108 41.7556 67.4439 44.0545 65.7961 45.6163C63.6704 47.7419 60.3311 48.7399 56.5575 48.7399C55.5595 48.7399 54.6473 48.6961 53.9538 48.5665V59.5833H48.6621V30.7403ZM53.9538 44.3591C54.6051 44.5324 55.4736 44.5777 56.5575 44.5777C60.5482 44.5777 62.9753 42.6255 62.9753 39.1989C62.9753 35.9473 60.7215 34.2122 57.0323 34.2122C55.5595 34.2122 54.5177 34.3418 53.9523 34.473V44.3591H53.9538Z" fill="#4334DD"/>
<path d="M48.6621 30.7403C50.5708 30.3936 53.2166 30.1328 56.8168 30.1328C60.7215 30.1328 63.5845 30.9559 65.4478 32.5177C67.1831 33.9482 68.3108 36.2487 68.3108 38.9803C68.3108 41.7556 67.4439 44.0545 65.7961 45.6163C63.6704 47.7419 60.3311 48.7399 56.5575 48.7399C55.5595 48.7399 54.6473 48.6961 53.9538 48.5665V59.5833H48.6621V30.7403ZM53.9538 44.3591C54.6051 44.5324 55.4736 44.5777 56.5575 44.5777C60.5482 44.5777 62.9753 42.6255 62.9753 39.1989C62.9753 35.9473 60.7215 34.2122 57.0323 34.2122C55.5595 34.2122 54.5177 34.3418 53.9523 34.473V44.3591H53.9538Z" fill="url(#paint1_radial_472_75074)" fill-opacity="0.7"/>
<defs>
<radialGradient id="paint0_radial_472_75074" cx="0" cy="0" r="1" gradientUnits="userSpaceOnUse" gradientTransform="translate(28.3721 36.1043) rotate(60.9646) scale(21.1028 19.3078)">
<stop stop-color="white"/>
<stop offset="0.697917" stop-color="white" stop-opacity="0"/>
<stop offset="1" stop-color="white" stop-opacity="0"/>
</radialGradient>
<radialGradient id="paint1_radial_472_75074" cx="0" cy="0" r="1" gradientUnits="userSpaceOnUse" gradientTransform="translate(54.9432 35.9263) rotate(65.7455) scale(20.3872 16.4631)">
<stop stop-color="white"/>
<stop offset="0.697917" stop-color="white" stop-opacity="0"/>
<stop offset="1" stop-color="white" stop-opacity="0"/>
</radialGradient>
</defs>
</svg>
